<svg width="18" height="16" viewBox="0 0 18 16" fill="none" xmlns="http://www.w3.org/2000/svg">
<path d="M15.875 0.75H2.12502C1.7935 0.75 1.47556 0.881696 1.24114 1.11612C1.00672 1.35054 0.875023 1.66848 0.875023 2V14.5C0.873581 14.7384 0.941012 14.9721 1.06921 15.173C1.19741 15.374 1.38092 15.5336 1.59768 15.6328C1.76286 15.7097 1.94281 15.7497 2.12502 15.75C2.41846 15.7493 2.70217 15.6447 2.9258 15.4547C2.92953 15.4523 2.93294 15.4494 2.93596 15.4461L5.44534 13.25H15.875C16.2065 13.25 16.5245 13.1183 16.7589 12.8839C16.9933 12.6495 17.125 12.3315 17.125 12V2C17.125 1.66848 16.9933 1.35054 16.7589 1.11612C16.5245 0.881696 16.2065 0.75 15.875 0.75ZM15.875 12H5.44534C5.15098 11.9999 4.86601 12.1036 4.64065 12.293L4.63127 12.3016L2.12502 14.5V2H15.875V12Z" fill="black"/>
</svg>
