<svg width="24" height="24" viewBox="0 0 24 24" fill="none" xmlns="http://www.w3.org/2000/svg">
<path d="M19.2807 18.2194C19.3504 18.2891 19.4056 18.3718 19.4433 18.4628C19.4811 18.5539 19.5005 18.6515 19.5005 18.75C19.5005 18.8485 19.4811 18.9461 19.4433 19.0372C19.4056 19.1282 19.3504 19.2109 19.2807 19.2806C19.211 19.3503 19.1283 19.4056 19.0372 19.4433C18.9462 19.481 18.8486 19.5004 18.7501 19.5004C18.6515 19.5004 18.5539 19.481 18.4629 19.4433C18.3718 19.4056 18.2891 19.3503 18.2194 19.2806L12.0001 13.0603L5.78068 19.2806C5.63995 19.4214 5.44907 19.5004 5.25005 19.5004C5.05103 19.5004 4.86016 19.4214 4.71943 19.2806C4.5787 19.1399 4.49963 18.949 4.49963 18.75C4.49963 18.551 4.5787 18.3601 4.71943 18.2194L10.9397 12L4.71943 5.78062C4.5787 5.63989 4.49963 5.44902 4.49963 5.25C4.49963 5.05097 4.5787 4.8601 4.71943 4.71937C4.86016 4.57864 5.05103 4.49958 5.25005 4.49958C5.44907 4.49958 5.63995 4.57864 5.78068 4.71937L12.0001 10.9397L18.2194 4.71937C18.3602 4.57864 18.551 4.49958 18.7501 4.49958C18.9491 4.49958 19.1399 4.57864 19.2807 4.71937C19.4214 4.8601 19.5005 5.05097 19.5005 5.25C19.5005 5.44902 19.4214 5.63989 19.2807 5.78062L13.0604 12L19.2807 18.2194Z" fill="black"/>
</svg>
