<svg width="37" height="29" viewBox="0 0 37 29" fill="none" xmlns="http://www.w3.org/2000/svg">
    <path d="M29.7 14.12C31.8467 14.12 33.5733 14.7733 34.88 16.08C36.1867 17.3867 36.84 19.1133 36.84 21.26C36.84 23.22 36.0933 24.9467 34.6 26.44C33.2 27.84 31.4267 28.54 29.28 28.54C27.04 28.54 25.08 27.6533 23.4 25.88C21.8133 24.0133 21.02 21.7267 21.02 19.02C21.02 13.8867 22.3733 9.73333 25.08 6.56C27.7867 3.29333 30.8667 1.28666 34.32 0.539999L34.6 1.51999C31.52 2.17333 28.72 3.99333 26.2 6.98C23.7733 9.87333 22.56 13.28 22.56 17.2C22.56 17.6667 22.6067 18.1333 22.7 18.6C24.0067 15.6133 26.34 14.12 29.7 14.12ZM8.98 14.12C11.1267 14.12 12.8533 14.7733 14.16 16.08C15.4667 17.3867 16.12 19.1133 16.12 21.26C16.12 23.22 15.3733 24.9467 13.88 26.44C12.48 27.84 10.7067 28.54 8.56 28.54C6.32 28.54 4.36 27.6533 2.68 25.88C1.09333 24.0133 0.3 21.7267 0.3 19.02C0.3 13.8867 1.65333 9.73333 4.36 6.56C7.06667 3.29333 10.1467 1.28666 13.6 0.539999L13.88 1.51999C10.8 2.17333 8 3.99333 5.48 6.98C3.05333 9.87333 1.84 13.28 1.84 17.2C1.84 17.6667 1.88667 18.1333 1.98 18.6C3.28667 15.6133 5.62 14.12 8.98 14.12Z" fill="#ACA8A2"/>
</svg>
