<svg width="50" height="50" viewBox="0 0 50 50" fill="none" xmlns="http://www.w3.org/2000/svg">
<path fill-rule="evenodd" clip-rule="evenodd" d="M25 50C38.8071 50 50 38.8066 50 25C50 11.1934 38.8071 0 25 0C11.1929 0 0 11.1934 0 25C0 38.8066 11.1929 50 25 50ZM33.9509 13.5059V8.04785C32.832 7.88281 31.2573 7.7998 29.2268 7.7998C26.8372 7.7998 24.9241 8.50684 23.4875 9.91895C22.0508 11.332 21.3325 13.3203 21.3325 15.8828V20.3896H16.0491V26.5088H21.3325V42.2002H27.6729V26.5088H32.9355L33.7437 20.3896H27.6729V16.4824C27.6729 15.9736 27.7273 15.5303 27.8364 15.1514C27.9399 14.792 28.0925 14.4912 28.2944 14.25C28.7087 13.7539 29.51 13.5059 30.698 13.5059H33.9509Z" fill="black"/>
</svg>
