<svg width="50" height="50" viewBox="0 0 50 50" fill="none" xmlns="http://www.w3.org/2000/svg">
<path fill-rule="evenodd" clip-rule="evenodd" d="M25 50C38.8071 50 50 38.8066 50 25C50 11.1934 38.8071 0 25 0C11.1929 0 0 11.1934 0 25C0 38.8066 11.1929 50 25 50ZM14 19C14 16.2383 16.2385 14 19 14H31C33.7615 14 36 16.2383 36 19V31C36 33.7617 33.7615 36 31 36H19C16.2385 36 14 33.7617 14 31V19ZM12 19C12 15.1338 15.134 12 19 12H31C34.866 12 38 15.1338 38 19V31C38 34.8662 34.866 38 31 38H19C15.134 38 12 34.8662 12 31V19ZM30 25C30 27.7617 27.7615 30 25 30C22.2385 30 20 27.7617 20 25C20 22.2383 22.2385 20 25 20C27.7615 20 30 22.2383 30 25ZM32 25C32 28.8662 28.866 32 25 32C21.134 32 18 28.8662 18 25C18 21.1338 21.134 18 25 18C28.866 18 32 21.1338 32 25ZM33.5972 17.8135C33.5972 18.5039 33.0376 19.0635 32.3472 19.0635C31.6567 19.0635 31.0972 18.5039 31.0972 17.8135C31.0972 17.123 31.6567 16.5635 32.3472 16.5635C33.0376 16.5635 33.5972 17.123 33.5972 17.8135Z" fill="black"/>
</svg>
