<svg width="50" height="50" viewBox="0 0 50 50" fill="none" xmlns="http://www.w3.org/2000/svg">
<path fill-rule="evenodd" clip-rule="evenodd" d="M25 50C38.8071 50 50 38.8071 50 25C50 11.1929 38.8071 0 25 0C11.1929 0 0 11.1929 0 25C0 38.8071 11.1929 50 25 50ZM17.5715 18.2158C18.0273 17.7605 18.2835 17.1428 18.2838 16.4986C18.2842 15.8544 18.0286 15.2364 17.5733 14.7807C17.118 14.3249 16.5002 14.0687 15.856 14.0684C15.2118 14.068 14.5938 14.3236 14.1381 14.7789C13.6823 15.2343 13.4261 15.852 13.4258 16.4962C13.4255 17.1404 13.6811 17.7584 14.1364 18.2141C14.5917 18.6699 15.2094 18.9261 15.8536 18.9264C16.4978 18.9267 17.1158 18.6711 17.5715 18.2158ZM13.4987 20.7251H18.3567V35.9309H13.4987V20.7251ZM21.1987 20.7251H26.0325L25.9839 22.7655C28 19.0855 36.5745 18.8062 36.5745 26.2998V35.9309H31.7771V27.9515C31.7771 23.0934 25.9839 23.5064 25.9839 27.9515V35.9309H21.1987V20.7251Z" fill="black"/>
</svg>
