<svg width="22" height="12" viewBox="0 0 22 12" fill="none" xmlns="http://www.w3.org/2000/svg">
<path d="M21.7074 1.70757L11.7074 11.7076C11.6146 11.8005 11.5043 11.8743 11.3829 11.9246C11.2615 11.975 11.1314 12.0009 10.9999 12.0009C10.8685 12.0009 10.7384 11.975 10.617 11.9246C10.4956 11.8743 10.3853 11.8005 10.2924 11.7076L0.292446 1.70757C0.104805 1.51993 -0.000610352 1.26543 -0.000610352 1.00007C-0.000610352 0.734704 0.104805 0.480208 0.292446 0.292567C0.480086 0.104927 0.734582 -0.000488281 0.999946 -0.000488281C1.26531 -0.000488281 1.5198 0.104927 1.70745 0.292567L10.9999 9.58632L20.2924 0.292567C20.3854 0.199657 20.4957 0.125957 20.617 0.0756741C20.7384 0.0253914 20.8686 -0.000488281 20.9999 -0.000488281C21.1313 -0.000488281 21.2614 0.0253914 21.3828 0.0756741C21.5042 0.125957 21.6145 0.199657 21.7074 0.292567C21.8004 0.385477 21.8741 0.495778 21.9243 0.617171C21.9746 0.738564 22.0005 0.868673 22.0005 1.00007C22.0005 1.13146 21.9746 1.26157 21.9243 1.38296C21.8741 1.50436 21.8004 1.61466 21.7074 1.70757Z" fill="#ACA8A2"/>
</svg>
