<svg width="19" height="19" viewBox="0 0 19 19" fill="none" xmlns="http://www.w3.org/2000/svg">
<path d="M17.8472 12.8554L13.4306 10.8764L13.4184 10.8707C13.1892 10.7727 12.939 10.7333 12.6907 10.7562C12.4424 10.7792 12.2037 10.8636 11.9963 11.002C11.9718 11.0181 11.9484 11.0357 11.9259 11.0545L9.64407 12.9998C8.19845 12.2976 6.70595 10.8164 6.00376 9.3895L7.95188 7.07294C7.97063 7.0495 7.98845 7.02606 8.00532 7.00075C8.14072 6.79384 8.22287 6.55667 8.24446 6.31035C8.26605 6.06402 8.22641 5.81618 8.12907 5.58887V5.57762L6.14438 1.15356C6.0157 0.856621 5.79444 0.609262 5.51362 0.448409C5.2328 0.287556 4.9075 0.221836 4.58626 0.26106C3.31592 0.428223 2.14986 1.05209 1.30588 2.01615C0.461903 2.98021 -0.00228837 4.21852 8.4831e-06 5.49981C8.4831e-06 12.9436 6.05626 18.9998 13.5 18.9998C14.7813 19.0021 16.0196 18.5379 16.9837 17.6939C17.9477 16.85 18.5716 15.6839 18.7388 14.4136C18.7781 14.0924 18.7125 13.7672 18.5518 13.4864C18.3911 13.2056 18.144 12.9843 17.8472 12.8554ZM13.5 17.4998C10.3185 17.4963 7.26825 16.2309 5.01856 13.9813C2.76888 11.7316 1.50348 8.68134 1.50001 5.49981C1.49648 4.58433 1.82631 3.69887 2.42789 3.00879C3.02947 2.3187 3.86167 1.87118 4.76907 1.74981C4.7687 1.75355 4.7687 1.75732 4.76907 1.76106L6.73782 6.16731L4.80001 8.48669C4.78034 8.50932 4.76247 8.53345 4.74657 8.55887C4.60549 8.77536 4.52273 9.02462 4.5063 9.28249C4.48988 9.54037 4.54035 9.79811 4.65282 10.0307C5.5022 11.7679 7.25251 13.5051 9.00845 14.3536C9.24279 14.465 9.50203 14.5137 9.76083 14.495C10.0196 14.4762 10.2692 14.3907 10.485 14.2467C10.5091 14.2305 10.5322 14.2129 10.5544 14.1942L12.8334 12.2498L17.2397 14.2232C17.2397 14.2232 17.2472 14.2232 17.25 14.2232C17.1301 15.1319 16.6833 15.9658 15.9931 16.5689C15.3028 17.172 14.4166 17.5029 13.5 17.4998Z" fill="#ACA8A2"/>
</svg>
