<svg width="20" height="20" viewBox="0 0 20 20" fill="none" xmlns="http://www.w3.org/2000/svg">
<path d="M18.3881 13.1231C17.1643 13.1231 15.9625 12.932 14.8241 12.5553C14.2655 12.3652 13.5801 12.5397 13.2392 12.8889L10.991 14.5858C8.38437 13.1948 6.77834 11.5897 5.40568 9.00241L7.05307 6.81296C7.48122 6.38573 7.63467 5.76095 7.45091 5.17569C7.07237 4.03089 6.88035 2.82912 6.88035 1.60439C6.88035 0.720519 6.1609 0.000198364 5.27612 0.000198364H1.60468C0.71989 0.000198364 0.000488281 0.720519 0.000488281 1.60439C0.000488281 11.744 8.24933 19.9929 18.3881 19.9929C19.2729 19.9929 19.9923 19.2725 19.9923 18.3887V14.7273C19.9923 13.8426 19.2729 13.1231 18.3881 13.1231Z" fill="#221E1F"/>
</svg>
