<svg width="100" height="100" viewBox="0 0 100 100" fill="none" xmlns="http://www.w3.org/2000/svg">
<path d="M50 4.34783C24.8273 4.34783 4.34783 24.8273 4.34783 50C4.34783 75.1725 24.8273 95.6525 50 95.6525C75.1725 95.6525 95.6525 75.1725 95.6525 50C95.6525 24.8273 75.1725 4.34783 50 4.34783ZM50 100C43.251 100 36.7028 98.6775 30.5371 96.07C24.5828 93.5517 19.2359 89.9467 14.6447 85.355C10.0534 80.7642 6.44858 75.4175 3.93017 69.4625C1.32225 63.2975 0 56.7492 0 50C0 43.251 1.32225 36.7028 3.93017 30.5371C6.44858 24.5828 10.0534 19.2359 14.6447 14.6447C19.2359 10.0534 24.5828 6.44858 30.5371 3.93017C36.7028 1.32225 43.251 0 50 0C56.7492 0 63.2975 1.32225 69.4625 3.93017C75.4175 6.44858 80.7642 10.0534 85.355 14.6447C89.9467 19.2359 93.5517 24.5828 96.07 30.5371C98.6775 36.7028 100 43.251 100 50C100 56.7492 98.6775 63.2975 96.07 69.4625C93.5517 75.4175 89.9467 80.7642 85.355 85.355C80.7642 89.9467 75.4175 93.5517 69.4625 96.07C63.2975 98.6775 56.7492 100 50 100Z" fill="white"/>
<path d="M35.7148 24.5797L79.7443 50L35.7148 75.4201V24.5797Z" fill="white"/>
</svg>
