<svg width="50" height="50" viewBox="0 0 50 50" fill="none" xmlns="http://www.w3.org/2000/svg">
<path fill-rule="evenodd" clip-rule="evenodd" d="M25 50C38.8071 50 50 38.8066 50 25C50 11.1934 38.8071 0 25 0C11.1929 0 0 11.1934 0 25C0 38.8066 11.1929 50 25 50ZM23.364 24.4521L16.7642 13.3154C16.4097 12.7168 16.636 11.9404 17.2666 11.6465C19.697 10.5137 21.5227 9.99707 24.175 9.74023C24.8594 9.67383 25.4431 10.2168 25.4509 10.9043L25.5962 23.8271C25.6101 25.0547 23.99 25.5078 23.364 24.4521ZM27.4463 25.7344L31.7273 20.0293C32.1501 19.4658 32.9678 19.3848 33.4902 19.8574C35.0598 21.2773 35.4749 21.7666 36.3677 23.665C36.6699 24.3076 36.3354 25.0684 35.6619 25.2939L28.7866 27.5928C27.6702 27.9658 26.7397 26.6758 27.4463 25.7344ZM35.6836 32.2773L28.9722 29.8633C27.8645 29.4648 26.9053 30.7334 27.5901 31.6904L31.8088 37.5859C32.2222 38.1631 33.0479 38.2598 33.5732 37.7812C35.1257 36.3701 35.4705 35.8291 36.366 33.9111C36.6641 33.2734 36.3467 32.5156 35.6836 32.2773ZM25.2246 31.9766L24.9841 39.1055C24.9719 39.4717 24.7969 39.792 24.5332 40.0029C24.2905 40.1973 23.9727 40.2979 23.6375 40.2559C21.5376 39.9912 20.9175 39.8291 19.0977 38.7842C18.4817 38.4297 18.3201 37.6152 18.7432 37.0439L23.0613 31.2217C23.7625 30.2764 25.2642 30.8008 25.2246 31.9766ZM14.8723 30.3965L21.9565 29.5703C23.1257 29.4336 23.4199 27.8701 22.3804 27.3184L15.9783 23.918C15.3508 23.585 14.5691 23.8662 14.3113 24.5283C13.5498 26.4834 13.4817 27.1211 13.5337 29.2373C13.551 29.9414 14.1726 30.4785 14.8723 30.3965Z" fill="black"/>
</svg>
