<svg width="383" height="48" viewBox="0 0 383 48" fill="none" xmlns="http://www.w3.org/2000/svg">
<path d="M211.485 35.408H205.608L199.214 26.2624L197.027 27.658V35.408H191.852V13.7021H197.027V23.6346L199.064 21.0809L205.675 13.7021H211.418L202.903 23.3079L211.485 35.408Z" fill="black"/>
<path d="M174.456 23.3376H176.125C177.761 23.3376 178.969 23.0951 179.748 22.6102C180.527 22.1252 180.916 21.363 180.916 20.3238C180.916 19.2944 180.516 18.562 179.714 18.1265C178.924 17.691 177.694 17.4732 176.025 17.4732H174.456V23.3376ZM174.456 27.079V35.408H169.28V13.7021H176.392C179.709 13.7021 182.163 14.2416 183.755 15.3204C185.346 16.3894 186.142 18.0176 186.142 20.205C186.142 21.4818 185.747 22.6201 184.957 23.6197C184.166 24.6095 183.048 25.3865 181.601 25.9507C185.274 30.8303 187.667 33.9827 188.78 35.408H183.037L177.21 27.079H174.456Z" fill="black"/>
<path d="M160.615 35.4082L158.845 30.2416H149.947L148.178 35.4082H142.602L151.216 13.6133H157.543L166.191 35.4082H160.615ZM157.61 26.3814C155.974 21.6998 155.05 19.0521 154.839 18.4385C154.638 17.8248 154.494 17.3398 154.405 16.9835C154.037 18.2504 152.986 21.383 151.249 26.3814H157.61Z" fill="black"/>
<path d="M123.754 35.408L117.877 18.3789H117.727C117.939 21.8431 118.044 24.1542 118.044 25.3122V35.408H113.42V13.7021H120.465L126.241 30.3007H126.342L132.469 13.7021H139.514V35.408H134.689V25.1341C134.689 24.6491 134.695 24.0899 134.706 23.4564C134.728 22.823 134.806 21.1403 134.939 18.4085H134.789L128.495 35.408H123.754Z" fill="black"/>
<path d="M108.311 35.408H94.2544V13.7021H108.311V17.4732H99.4297V22.239H107.694V26.01H99.4297V31.6072H108.311V35.408Z" fill="black"/>
<path d="M76.8585 23.3376H78.5279C80.164 23.3376 81.3716 23.0951 82.1507 22.6102C82.9298 22.1252 83.3193 21.363 83.3193 20.3238C83.3193 19.2944 82.9186 18.562 82.1173 18.1265C81.3271 17.691 80.0972 17.4732 78.4278 17.4732H76.8585V23.3376ZM76.8585 27.079V35.408H71.6831V13.7021H78.795C82.1117 13.7021 84.5658 14.2416 86.1574 15.3204C87.749 16.3894 88.5447 18.0176 88.5447 20.205C88.5447 21.4818 88.1496 22.6201 87.3594 23.6197C86.5692 24.6095 85.4507 25.3865 84.0038 25.9507C87.6766 30.8303 90.0695 33.9827 91.1825 35.408H85.4395L79.6131 27.079H76.8585Z" fill="black"/>
<path d="M381.798 16.3301L380.782 17.1738C380.168 16.2363 379.543 15.5697 378.907 15.1738C378.282 14.778 377.506 14.5801 376.579 14.5801C375.454 14.5801 374.511 14.9655 373.751 15.7363C372.991 16.5072 372.61 17.4655 372.61 18.6113C372.61 19.4967 372.871 20.2155 373.392 20.7676C373.923 21.3301 374.923 21.9551 376.392 22.6426C378.819 23.8092 380.36 24.6478 381.017 25.1582C382.256 26.1374 382.876 27.4082 382.876 28.9707C382.876 30.6999 382.22 32.1686 380.907 33.377C379.584 34.5957 378.022 35.2051 376.22 35.2051C373.261 35.2051 371.173 33.6895 369.954 30.6582L371.142 30.0957C371.756 31.4915 372.454 32.4811 373.235 33.0645C374.017 33.6478 375.022 33.9395 376.251 33.9395C377.657 33.9395 378.876 33.4499 379.907 32.4707C380.928 31.4915 381.438 30.3249 381.438 28.9707C381.438 28.0436 381.168 27.2832 380.626 26.6895C380.136 26.1374 378.397 25.1374 375.407 23.6895C373.761 22.8978 372.647 22.1374 372.063 21.4082C371.47 20.679 371.173 19.7467 371.173 18.6113C371.173 17.1113 371.688 15.8457 372.72 14.8145C373.751 13.7936 375.058 13.2832 376.642 13.2832C377.735 13.2832 378.73 13.5436 379.626 14.0645C380.532 14.5957 381.256 15.3509 381.798 16.3301Z" fill="#323232"/>
<path d="M354.592 14.8926V23.5488H356.639C359.858 23.5488 361.467 22.1009 361.467 19.2051C361.467 16.3301 359.759 14.8926 356.342 14.8926H354.592ZM353.233 13.5957H356.217C360.665 13.5957 362.889 15.4759 362.889 19.2363C362.889 22.7572 360.863 24.6165 356.811 24.8145L363.749 34.8613H362.092L355.217 24.8145H354.592V34.8613H353.233V13.5957Z" fill="#323232"/>
<path d="M324.355 24.1113C324.355 26.8092 325.309 29.1217 327.215 31.0488C329.111 32.9759 331.34 33.9395 333.902 33.9395C336.527 33.9395 338.798 32.9863 340.715 31.0801C342.621 29.1842 343.574 26.9082 343.574 24.252C343.574 21.627 342.621 19.3561 340.715 17.4395C338.798 15.5332 336.543 14.5801 333.949 14.5801C331.408 14.5801 329.173 15.5332 327.246 17.4395C325.319 19.3561 324.355 21.5801 324.355 24.1113ZM322.949 24.0801C322.949 21.2051 324.053 18.6895 326.262 16.5332C328.47 14.3665 331.033 13.2832 333.949 13.2832C336.939 13.2832 339.527 14.3665 341.715 16.5332C343.892 18.7103 344.98 21.2832 344.98 24.252C344.98 27.2624 343.887 29.8405 341.699 31.9863C339.501 34.1322 336.902 35.2051 333.902 35.2051C331.975 35.2051 330.178 34.7155 328.512 33.7363C326.835 32.7572 325.486 31.4134 324.465 29.7051C323.454 27.9967 322.949 26.1217 322.949 24.0801Z" fill="#323232"/>
<path d="M313.322 13.5957H314.681V34.8613H313.322V13.5957Z" fill="#323232"/>
<path d="M295.897 14.8926V23.5488H297.944C301.163 23.5488 302.772 22.1009 302.772 19.2051C302.772 16.3301 301.064 14.8926 297.647 14.8926H295.897ZM294.538 13.5957H297.522C301.97 13.5957 304.194 15.4759 304.194 19.2363C304.194 22.7572 302.168 24.6165 298.116 24.8145L305.053 34.8613H303.397L296.522 24.8145H295.897V34.8613H294.538V13.5957Z" fill="#323232"/>
<path d="M286.285 13.5957V14.8926H277.457V22.5645H286.051V23.8301H277.457V33.5957H286.285V34.8613H276.098V13.5957H286.285Z" fill="#323232"/>
<path d="M267.845 14.8926H262.33V34.8613H260.939V14.8926H255.47V13.5957H267.845V14.8926Z" fill="#323232"/>
<path d="M245.827 13.5957H247.218V35.4082L229.358 16.7051V34.8613H227.999V13.3613L245.827 32.0332V13.5957Z" fill="#323232"/>
<path d="M218.372 13.5957H219.731V34.8613H218.372V13.5957Z" fill="#323232"/>
<path fill-rule="evenodd" clip-rule="evenodd" d="M51.9312 1.75586H1.88477V46.9351H10.6377V38.9597H10.6343V37.8618L10.6377 37.8595V20.1772V19.1772V11.0991V10.0991H11.6377H28.7422H29.7422V11.0991V19.1772H29.7935H42.6299H43.6299V20.1772V27.7109H43.6289V29.6914H43.6299V46.9351H51.9312V1.75586ZM43.6299 47.9351H51.9312H52.9312V46.9351V1.75586V0.755859H51.9312H1.88477H0.884766V1.75586V46.9351V47.9351H1.88477H10.6377H11.6377H24.4741H25.4741H28.7422H28.7935H29.7422H29.7935H42.6299H43.6299ZM42.6299 46.9351V30.1663L29.7935 38.4784V46.9351H42.6299ZM29.7935 37.287L41.7784 29.5264H29.7935V37.287ZM29.7935 28.5264H42.6299V20.1772H29.7935V28.5264ZM11.6377 46.9351V38.9597H24.4741V46.9351H11.6377ZM25.4741 46.9351V38.9597H28.7422V46.9351H25.4741ZM25.4741 37.9597H28.7422V29.5264H25.4741V37.9597ZM28.7422 11.0991V28.5264H25.4741V20.1772V19.1772H24.4741H11.6377V11.0991H28.7422ZM24.4741 20.1772V28.7094L11.6377 37.1982V20.1772H24.4741ZM24.4741 37.9597V29.9083L12.2992 37.9597H24.4741Z" fill="#323232"/>
</svg>
