<svg width="348" height="185" viewBox="0 0 348 185" fill="none" xmlns="http://www.w3.org/2000/svg">
<path d="M22.6114 49.82C20.5314 49.82 18.8314 49.1267 17.5114 47.74C16.2047 46.34 15.5514 44.56 15.5514 42.4C15.5514 40.24 16.198 38.4533 17.4914 37.04C18.7847 35.6267 20.4847 34.92 22.5914 34.92C24.218 34.92 25.578 35.34 26.6714 36.18C27.9114 37.1133 28.6247 38.4267 28.8114 40.12H25.2714C25.178 39.4667 24.8914 38.9267 24.4114 38.5C23.9314 38.0733 23.318 37.86 22.5714 37.86C21.4514 37.86 20.598 38.28 20.0114 39.12C19.438 39.9467 19.1514 41.04 19.1514 42.4C19.1514 43.7333 19.4647 44.82 20.0914 45.66C20.718 46.5 21.5514 46.92 22.5914 46.92C23.3647 46.92 23.998 46.7 24.4914 46.26C24.998 45.82 25.2914 45.2467 25.3714 44.54H28.9114C28.8047 45.98 28.2314 47.2 27.1914 48.2C26.0714 49.28 24.5447 49.82 22.6114 49.82ZM30.1743 49.5V35.2H33.7143V40.62H38.7343V35.2H42.2743V49.5H38.7343V43.54H33.7143V49.5H30.1743ZM50.7368 46.96C51.8568 46.96 52.7102 46.54 53.2968 45.7C53.8968 44.8467 54.1968 43.74 54.1968 42.38C54.1968 41.02 53.8968 39.9133 53.2968 39.06C52.7102 38.2067 51.8568 37.78 50.7368 37.78C49.6302 37.78 48.7702 38.2067 48.1568 39.06C47.5568 39.9133 47.2568 41.02 47.2568 42.38C47.2568 43.7267 47.5568 44.8267 48.1568 45.68C48.7702 46.5333 49.6302 46.96 50.7368 46.96ZM55.8568 47.74C54.5635 49.14 52.8502 49.84 50.7168 49.84C48.5835 49.84 46.8702 49.14 45.5768 47.74C44.2968 46.34 43.6568 44.5533 43.6568 42.38C43.6568 40.2067 44.2968 38.42 45.5768 37.02C46.8702 35.62 48.5835 34.92 50.7168 34.92C52.8502 34.92 54.5635 35.62 55.8568 37.02C57.1502 38.42 57.7968 40.2067 57.7968 42.38C57.7968 44.5533 57.1502 46.34 55.8568 47.74ZM65.6782 46.96C66.7982 46.96 67.6516 46.54 68.2382 45.7C68.8382 44.8467 69.1382 43.74 69.1382 42.38C69.1382 41.02 68.8382 39.9133 68.2382 39.06C67.6516 38.2067 66.7982 37.78 65.6782 37.78C64.5716 37.78 63.7116 38.2067 63.0982 39.06C62.4982 39.9133 62.1982 41.02 62.1982 42.38C62.1982 43.7267 62.4982 44.8267 63.0982 45.68C63.7116 46.5333 64.5716 46.96 65.6782 46.96ZM70.7982 47.74C69.5049 49.14 67.7916 49.84 65.6582 49.84C63.5249 49.84 61.8116 49.14 60.5182 47.74C59.2382 46.34 58.5982 44.5533 58.5982 42.38C58.5982 40.2067 59.2382 38.42 60.5182 37.02C61.8116 35.62 63.5249 34.92 65.6582 34.92C67.7916 34.92 69.5049 35.62 70.7982 37.02C72.0916 38.42 72.7382 40.2067 72.7382 42.38C72.7382 44.5533 72.0916 46.34 70.7982 47.74ZM79.8196 49.84C77.8863 49.84 76.3463 49.4267 75.1996 48.6C74.0663 47.76 73.4796 46.56 73.4396 45H76.9996C77.1463 46.36 78.0796 47.04 79.7996 47.04C80.4396 47.04 80.9796 46.92 81.4196 46.68C81.873 46.4267 82.0996 46.0467 82.0996 45.54C82.0996 45.1933 81.9596 44.9067 81.6796 44.68C81.3996 44.44 81.113 44.2733 80.8196 44.18C80.5396 44.0867 79.9996 43.94 79.1996 43.74C79.1596 43.7267 79.133 43.72 79.1196 43.72C79.1063 43.7067 79.0863 43.7 79.0596 43.7C79.033 43.6867 79.0063 43.68 78.9796 43.68C78.3663 43.5333 77.8596 43.4067 77.4596 43.3C77.073 43.18 76.6263 43.0067 76.1196 42.78C75.6263 42.54 75.233 42.28 74.9396 42C74.6463 41.72 74.393 41.3533 74.1796 40.9C73.9796 40.4333 73.8796 39.9133 73.8796 39.34C73.8796 37.8733 74.3996 36.7733 75.4396 36.04C76.493 35.3067 77.8663 34.94 79.5596 34.94C81.1863 34.94 82.513 35.3133 83.5396 36.06C84.5796 36.8067 85.133 37.9 85.1996 39.34H81.7396C81.673 38.7933 81.4396 38.3733 81.0396 38.08C80.6396 37.7733 80.1063 37.62 79.4396 37.62C78.8263 37.62 78.3263 37.7467 77.9396 38C77.5663 38.24 77.3796 38.56 77.3796 38.96C77.3796 39.4133 77.6063 39.7467 78.0596 39.96C78.513 40.16 79.3663 40.4 80.6196 40.68C81.4063 40.8667 82.053 41.0533 82.5596 41.24C83.0663 41.4133 83.5796 41.6667 84.0996 42C84.633 42.3333 85.0263 42.7667 85.2796 43.3C85.5463 43.82 85.6796 44.4467 85.6796 45.18C85.6796 46.6333 85.1263 47.7733 84.0196 48.6C82.9263 49.4267 81.5263 49.84 79.8196 49.84ZM87.1275 49.5V35.2H97.9675V38.12H90.6675V40.68H96.9275V43.44H90.6675V46.5H98.0875V49.5H87.1275ZM102.792 49.5V35.2H109.632C111.098 35.2 112.298 35.5667 113.232 36.3C114.165 37.02 114.632 38.0267 114.632 39.32C114.632 41.0533 113.805 42.2067 112.152 42.78V42.84C113.352 43.24 114.045 44.1133 114.232 45.46C114.312 45.9267 114.365 46.5067 114.392 47.2C114.432 47.88 114.478 48.3933 114.532 48.74C114.585 49.0733 114.685 49.2667 114.832 49.32V49.5H111.392C111.285 49.4333 111.198 49.24 111.132 48.92C111.078 48.6 111.032 48.1467 110.992 47.56C110.952 46.9733 110.905 46.5133 110.852 46.18C110.665 44.82 109.872 44.14 108.472 44.14H106.332V49.5H102.792ZM106.332 41.52H108.992C109.685 41.52 110.212 41.3667 110.572 41.06C110.932 40.7533 111.112 40.3267 111.112 39.78C111.112 39.2467 110.938 38.82 110.592 38.5C110.245 38.1667 109.738 38 109.072 38H106.332V41.52ZM116.209 49.5V35.2H127.049V38.12H119.749V40.68H126.009V43.44H119.749V46.5H127.169V49.5H116.209ZM128.768 49.5V35.2H133.528L135.268 41.46L136.088 44.72H136.128C136.501 43.1467 136.768 42.06 136.928 41.46L138.688 35.2H143.488V49.5H140.248V42.3L140.308 39.44H140.268C139.935 40.8667 139.715 41.7533 139.608 42.1L137.548 49.5H134.628L132.588 42.12L131.928 39.44H131.888C131.928 40.9733 131.948 41.9333 131.948 42.32V49.5H128.768ZM144.448 49.5L149.588 35.2H153.228L158.388 49.5H154.668L153.828 46.92H148.828L148.008 49.5H144.448ZM149.648 44.38H153.008L151.928 40.92L151.368 38.9H151.328C151.101 39.7533 150.908 40.4267 150.748 40.92L149.648 44.38ZM159.393 49.5V35.2H166.233C167.7 35.2 168.9 35.5667 169.833 36.3C170.766 37.02 171.233 38.0267 171.233 39.32C171.233 41.0533 170.406 42.2067 168.753 42.78V42.84C169.953 43.24 170.646 44.1133 170.833 45.46C170.913 45.9267 170.966 46.5067 170.993 47.2C171.033 47.88 171.08 48.3933 171.133 48.74C171.186 49.0733 171.286 49.2667 171.433 49.32V49.5H167.993C167.886 49.4333 167.8 49.24 167.733 48.92C167.68 48.6 167.633 48.1467 167.593 47.56C167.553 46.9733 167.506 46.5133 167.453 46.18C167.266 44.82 166.473 44.14 165.073 44.14H162.933V49.5H159.393ZM162.933 41.52H165.593C166.286 41.52 166.813 41.3667 167.173 41.06C167.533 40.7533 167.713 40.3267 167.713 39.78C167.713 39.2467 167.54 38.82 167.193 38.5C166.846 38.1667 166.34 38 165.673 38H162.933V41.52ZM172.811 49.5V35.2H176.351V40.38L181.271 35.2H185.471L179.991 40.94L185.791 49.5H181.671L177.551 43.32L176.351 44.58V49.5H172.811ZM189.882 49.5V35.2H193.422V49.5H189.882ZM195.389 49.5V35.2H198.949L203.189 42.38L204.169 44.2H204.209C204.183 43.0533 204.169 42.3133 204.169 41.98V35.2H207.629V49.5H204.069L199.869 42.42L198.849 40.5H198.809C198.836 41.7267 198.849 42.5067 198.849 42.84V49.5H195.389ZM213.108 49.5V38.2H208.948V35.2H220.848V38.2H216.648V49.5H213.108ZM222.167 49.5V35.2H233.007V38.12H225.707V40.68H231.967V43.44H225.707V46.5H233.127V49.5H222.167ZM234.725 49.5V35.2H241.565C243.032 35.2 244.232 35.5667 245.165 36.3C246.098 37.02 246.565 38.0267 246.565 39.32C246.565 41.0533 245.738 42.2067 244.085 42.78V42.84C245.285 43.24 245.978 44.1133 246.165 45.46C246.245 45.9267 246.298 46.5067 246.325 47.2C246.365 47.88 246.412 48.3933 246.465 48.74C246.518 49.0733 246.618 49.2667 246.765 49.32V49.5H243.325C243.218 49.4333 243.132 49.24 243.065 48.92C243.012 48.6 242.965 48.1467 242.925 47.56C242.885 46.9733 242.838 46.5133 242.785 46.18C242.598 44.82 241.805 44.14 240.405 44.14H238.265V49.5H234.725ZM238.265 41.52H240.925C241.618 41.52 242.145 41.3667 242.505 41.06C242.865 40.7533 243.045 40.3267 243.045 39.78C243.045 39.2467 242.872 38.82 242.525 38.5C242.178 38.1667 241.672 38 241.005 38H238.265V41.52ZM248.163 49.5V35.2H251.703V49.5H248.163ZM260.17 46.96C261.29 46.96 262.144 46.54 262.73 45.7C263.33 44.8467 263.63 43.74 263.63 42.38C263.63 41.02 263.33 39.9133 262.73 39.06C262.144 38.2067 261.29 37.78 260.17 37.78C259.064 37.78 258.204 38.2067 257.59 39.06C256.99 39.9133 256.69 41.02 256.69 42.38C256.69 43.7267 256.99 44.8267 257.59 45.68C258.204 46.5333 259.064 46.96 260.17 46.96ZM265.29 47.74C263.997 49.14 262.284 49.84 260.15 49.84C258.017 49.84 256.304 49.14 255.01 47.74C253.73 46.34 253.09 44.5533 253.09 42.38C253.09 40.2067 253.73 38.42 255.01 37.02C256.304 35.62 258.017 34.92 260.15 34.92C262.284 34.92 263.997 35.62 265.29 37.02C266.584 38.42 267.23 40.2067 267.23 42.38C267.23 44.5533 266.584 46.34 265.29 47.74ZM268.612 49.5V35.2H275.452C276.919 35.2 278.119 35.5667 279.052 36.3C279.985 37.02 280.452 38.0267 280.452 39.32C280.452 41.0533 279.625 42.2067 277.972 42.78V42.84C279.172 43.24 279.865 44.1133 280.052 45.46C280.132 45.9267 280.185 46.5067 280.212 47.2C280.252 47.88 280.299 48.3933 280.352 48.74C280.405 49.0733 280.505 49.2667 280.652 49.32V49.5H277.212C277.105 49.4333 277.019 49.24 276.952 48.92C276.899 48.6 276.852 48.1467 276.812 47.56C276.772 46.9733 276.725 46.5133 276.672 46.18C276.485 44.82 275.692 44.14 274.292 44.14H272.152V49.5H268.612ZM272.152 41.52H274.812C275.505 41.52 276.032 41.3667 276.392 41.06C276.752 40.7533 276.932 40.3267 276.932 39.78C276.932 39.2467 276.759 38.82 276.412 38.5C276.065 38.1667 275.559 38 274.892 38H272.152V41.52ZM287.73 49.84C285.796 49.84 284.256 49.4267 283.11 48.6C281.976 47.76 281.39 46.56 281.35 45H284.91C285.056 46.36 285.99 47.04 287.71 47.04C288.35 47.04 288.89 46.92 289.33 46.68C289.783 46.4267 290.01 46.0467 290.01 45.54C290.01 45.1933 289.87 44.9067 289.59 44.68C289.31 44.44 289.023 44.2733 288.73 44.18C288.45 44.0867 287.91 43.94 287.11 43.74C287.07 43.7267 287.043 43.72 287.03 43.72C287.016 43.7067 286.996 43.7 286.97 43.7C286.943 43.6867 286.916 43.68 286.89 43.68C286.276 43.5333 285.77 43.4067 285.37 43.3C284.983 43.18 284.536 43.0067 284.03 42.78C283.536 42.54 283.143 42.28 282.85 42C282.556 41.72 282.303 41.3533 282.09 40.9C281.89 40.4333 281.79 39.9133 281.79 39.34C281.79 37.8733 282.31 36.7733 283.35 36.04C284.403 35.3067 285.776 34.94 287.47 34.94C289.096 34.94 290.423 35.3133 291.45 36.06C292.49 36.8067 293.043 37.9 293.11 39.34H289.65C289.583 38.7933 289.35 38.3733 288.95 38.08C288.55 37.7733 288.016 37.62 287.35 37.62C286.736 37.62 286.236 37.7467 285.85 38C285.476 38.24 285.29 38.56 285.29 38.96C285.29 39.4133 285.516 39.7467 285.97 39.96C286.423 40.16 287.276 40.4 288.53 40.68C289.316 40.8667 289.963 41.0533 290.47 41.24C290.976 41.4133 291.49 41.6667 292.01 42C292.543 42.3333 292.936 42.7667 293.19 43.3C293.456 43.82 293.59 44.4467 293.59 45.18C293.59 46.6333 293.036 47.7733 291.93 48.6C290.836 49.4267 289.436 49.84 287.73 49.84ZM299.259 35.76V41.76H306.639V42.32H299.259V49.5H298.639V35.2H307.839V35.76H299.259ZM320.004 47.62C318.777 49.0067 317.197 49.7 315.264 49.7C313.331 49.7 311.751 49.0133 310.524 47.64C309.311 46.2533 308.704 44.4933 308.704 42.36C308.704 40.2267 309.311 38.4667 310.524 37.08C311.751 35.68 313.331 34.98 315.264 34.98C317.197 34.98 318.777 35.68 320.004 37.08C321.244 38.4667 321.864 40.2267 321.864 42.36C321.864 44.48 321.244 46.2333 320.004 47.62ZM310.964 47.2C312.044 48.48 313.477 49.12 315.264 49.12C317.051 49.12 318.484 48.4733 319.564 47.18C320.657 45.8867 321.204 44.28 321.204 42.36C321.204 40.4267 320.657 38.8133 319.564 37.52C318.484 36.2133 317.051 35.56 315.264 35.56C313.477 35.56 312.044 36.2067 310.964 37.5C309.897 38.7933 309.364 40.4133 309.364 42.36C309.364 44.2933 309.897 45.9067 310.964 47.2ZM324.532 42.84V49.5H323.912V35.2H329.632C330.966 35.2 331.999 35.5333 332.732 36.2C333.466 36.8533 333.832 37.7867 333.832 39C333.832 40.9333 332.939 42.1067 331.152 42.52V42.54C331.952 42.7267 332.532 43.1133 332.892 43.7C333.266 44.2867 333.472 45.1133 333.512 46.18C333.566 48.0867 333.759 49.1733 334.092 49.44V49.5H333.412C333.106 49.2867 332.926 48.18 332.872 46.18C332.832 44.9933 332.566 44.14 332.072 43.62C331.579 43.1 330.766 42.84 329.632 42.84H324.532ZM324.532 35.76V42.26H329.412C331.932 42.26 333.192 41.18 333.192 39.02C333.192 37.98 332.879 37.18 332.252 36.62C331.639 36.0467 330.746 35.76 329.572 35.76H324.532ZM31.1086 73.5L29.2286 68.62H22.5486L20.6686 73.5H20.0086L25.5286 59.2H26.2486L31.7686 73.5H31.1086ZM25.8886 59.96L22.7486 68.08H29.0086L25.9086 59.96H25.8886ZM36.5002 73.5V59.2H41.6202C42.9535 59.2 44.0735 59.5333 44.9802 60.2C45.8869 60.8533 46.5335 61.7133 46.9202 62.78C47.3202 63.8333 47.5202 65.0467 47.5202 66.42C47.5202 68.5267 47.0069 70.2333 45.9802 71.54C44.9669 72.8467 43.4669 73.5 41.4802 73.5H36.5002ZM37.1202 72.94H41.4602C43.1802 72.94 44.5069 72.3667 45.4402 71.22C46.3869 70.06 46.8602 68.46 46.8602 66.42C46.8602 64.3533 46.4069 62.7333 45.5002 61.56C44.5935 60.3733 43.2935 59.78 41.6002 59.78H37.1202V72.94ZM50.1866 59.76V65.82H58.2666V66.38H50.1866V72.92H59.1666V73.5H49.5666V59.2H58.9666V59.76H50.1866ZM60.1519 68.96H60.8119C60.8786 70.2533 61.3386 71.2733 62.1919 72.02C63.0586 72.7667 64.2586 73.14 65.7919 73.14C67.0986 73.14 68.1386 72.8333 68.9119 72.22C69.6852 71.6067 70.0719 70.78 70.0719 69.74C70.0719 68.6733 69.7186 67.9 69.0119 67.42C68.3052 66.94 67.0719 66.54 65.3119 66.22C63.7386 65.9267 62.5786 65.5133 61.8319 64.98C61.0986 64.4333 60.7319 63.62 60.7319 62.54C60.7319 61.46 61.1519 60.6 61.9919 59.96C62.8452 59.3067 63.9652 58.98 65.3519 58.98C66.7786 58.98 67.9052 59.34 68.7319 60.06C69.5719 60.78 70.0719 61.76 70.2319 63H69.5919C69.4586 61.9067 69.0186 61.06 68.2719 60.46C67.5252 59.86 66.5586 59.56 65.3719 59.56C64.1319 59.56 63.1519 59.8333 62.4319 60.38C61.7252 60.9133 61.3719 61.6267 61.3719 62.52C61.3719 63.4267 61.6986 64.1067 62.3519 64.56C63.0052 65.0133 64.0919 65.38 65.6119 65.66C66.4652 65.82 67.1719 65.9867 67.7319 66.16C68.2919 66.3333 68.8119 66.5733 69.2919 66.88C69.7852 67.1733 70.1452 67.5533 70.3719 68.02C70.5986 68.4867 70.7119 69.0467 70.7119 69.7C70.7119 70.9 70.2719 71.8733 69.3919 72.62C68.5119 73.3533 67.3186 73.72 65.8119 73.72C64.0386 73.72 62.6719 73.2867 61.7119 72.42C60.7652 71.54 60.2452 70.3867 60.1519 68.96ZM73.3911 59.2V73.5H72.7711V59.2H73.3911ZM87.311 66.98H82.331V66.42H87.931V73.5H87.411L87.351 70.12H87.311C87.0443 71.1067 86.4576 71.9533 85.551 72.66C84.6576 73.3667 83.5176 73.72 82.131 73.72C80.0376 73.72 78.4043 73.0333 77.231 71.66C76.071 70.2867 75.491 68.5267 75.491 66.38C75.491 64.2467 76.0776 62.48 77.251 61.08C78.4376 59.68 80.071 58.98 82.151 58.98C83.6443 58.98 84.8776 59.3667 85.851 60.14C86.8376 60.9 87.4576 61.9467 87.711 63.28H87.091C86.8643 62.1333 86.311 61.2267 85.431 60.56C84.5643 59.88 83.471 59.54 82.151 59.54C80.231 59.54 78.751 60.1933 77.711 61.5C76.671 62.8067 76.151 64.4333 76.151 66.38C76.151 68.3533 76.6643 69.9733 77.691 71.24C78.731 72.5067 80.211 73.14 82.131 73.14C83.731 73.14 84.991 72.6333 85.911 71.62C86.8443 70.6067 87.311 69.3 87.311 67.7V66.98ZM100.948 59.2V73.5H100.288L90.9679 60.24H90.9479V73.5H90.3479V59.2H91.0479L100.328 72.46H100.348V59.2H100.948ZM107.452 59.76V65.82H115.532V66.38H107.452V72.92H116.432V73.5H106.832V59.2H116.232V59.76H107.452ZM117.433 73.5L122.573 66.16L117.753 59.2H118.473L122.973 65.7H122.993L127.493 59.2H128.213L123.353 66.18L128.433 73.5H127.713L122.953 66.66H122.933L118.153 73.5H117.433ZM135.076 66.96H130.616V73.5H129.996V59.2H135.216C136.443 59.2 137.416 59.48 138.136 60.04C139.096 60.6933 139.576 61.7 139.576 63.06C139.576 65.66 138.076 66.96 135.076 66.96ZM130.616 59.78V66.4H135.036C137.636 66.4 138.936 65.2867 138.936 63.06C138.936 62.02 138.603 61.2133 137.936 60.64C137.283 60.0667 136.363 59.78 135.176 59.78H130.616ZM141.964 59.76V65.82H150.044V66.38H141.964V72.92H150.944V73.5H141.344V59.2H150.744V59.76H141.964ZM153.605 66.84V73.5H152.985V59.2H158.705C160.038 59.2 161.071 59.5333 161.805 60.2C162.538 60.8533 162.905 61.7867 162.905 63C162.905 64.9333 162.011 66.1067 160.225 66.52V66.54C161.025 66.7267 161.605 67.1133 161.965 67.7C162.338 68.2867 162.545 69.1133 162.585 70.18C162.638 72.0867 162.831 73.1733 163.165 73.44V73.5H162.485C162.178 73.2867 161.998 72.18 161.945 70.18C161.905 68.9933 161.638 68.14 161.145 67.62C160.651 67.1 159.838 66.84 158.705 66.84H153.605ZM153.605 59.76V66.26H158.485C161.005 66.26 162.265 65.18 162.265 63.02C162.265 61.98 161.951 61.18 161.325 60.62C160.711 60.0467 159.818 59.76 158.645 59.76H153.605ZM165.774 59.2V73.5H165.154V59.2H165.774ZM169.054 59.76V65.82H177.134V66.38H169.054V72.92H178.034V73.5H168.434V59.2H177.834V59.76H169.054ZM190.674 59.2V73.5H190.014L180.694 60.24H180.674V73.5H180.074V59.2H180.774L190.054 72.46H190.074V59.2H190.674ZM204.638 63.22H203.998C203.811 62.1667 203.298 61.2933 202.458 60.6C201.618 59.8933 200.531 59.54 199.198 59.54C197.371 59.54 195.944 60.18 194.918 61.46C193.891 62.7267 193.378 64.36 193.378 66.36C193.378 68.3867 193.884 70.0267 194.898 71.28C195.924 72.52 197.338 73.14 199.138 73.14C200.618 73.14 201.804 72.6933 202.698 71.8C203.591 70.8933 204.118 69.7533 204.278 68.38H204.858C204.738 69.82 204.231 71.0267 203.338 72C202.298 73.1467 200.898 73.72 199.138 73.72C197.191 73.72 195.631 73.0467 194.458 71.7C193.298 70.3533 192.718 68.5733 192.718 66.36C192.718 64.1733 193.304 62.4 194.478 61.04C195.651 59.6667 197.224 58.98 199.198 58.98C200.691 58.98 201.911 59.3733 202.858 60.16C203.818 60.9467 204.411 61.9667 204.638 63.22ZM207.394 59.76V65.82H215.474V66.38H207.394V72.92H216.374V73.5H206.774V59.2H216.174V59.76H207.394ZM224.896 73.5V62.2H220.736V59.2H232.636V62.2H228.436V73.5H224.896ZM233.954 73.5V59.2H237.494V64.62H242.514V59.2H246.054V73.5H242.514V67.54H237.494V73.5H233.954ZM247.016 73.5L252.156 59.2H255.796L260.956 73.5H257.236L256.396 70.92H251.396L250.576 73.5H247.016ZM252.216 68.38H255.576L254.496 64.92L253.936 62.9H253.896C253.669 63.7533 253.476 64.4267 253.316 64.92L252.216 68.38ZM263.685 73.5V62.2H259.525V59.2H271.425V62.2H267.225V73.5H263.685ZM282.088 73.82C280.061 73.82 278.435 73.1533 277.208 71.82C275.928 70.42 275.288 68.6133 275.288 66.4C275.288 64.0933 275.995 62.2333 277.408 60.82C278.648 59.5533 280.281 58.92 282.308 58.92C284.108 58.92 285.555 59.3667 286.648 60.26C287.741 61.14 288.408 62.3467 288.648 63.88H285.208C285.075 63.28 284.761 62.7933 284.268 62.42C283.788 62.0333 283.175 61.84 282.428 61.84C281.281 61.84 280.401 62.26 279.788 63.1C279.188 63.94 278.888 65.04 278.888 66.4C278.888 67.7333 279.215 68.8267 279.868 69.68C280.521 70.5333 281.395 70.96 282.488 70.96C283.368 70.96 284.081 70.7133 284.628 70.22C285.188 69.7267 285.508 69.14 285.588 68.46V68.42H282.908V65.82H288.868V73.5H286.388L286.188 71.78H286.148C285.268 73.14 283.915 73.82 282.088 73.82ZM297.094 70.96C298.214 70.96 299.068 70.54 299.654 69.7C300.254 68.8467 300.554 67.74 300.554 66.38C300.554 65.02 300.254 63.9133 299.654 63.06C299.068 62.2067 298.214 61.78 297.094 61.78C295.988 61.78 295.128 62.2067 294.514 63.06C293.914 63.9133 293.614 65.02 293.614 66.38C293.614 67.7267 293.914 68.8267 294.514 69.68C295.128 70.5333 295.988 70.96 297.094 70.96ZM302.214 71.74C300.921 73.14 299.208 73.84 297.074 73.84C294.941 73.84 293.228 73.14 291.934 71.74C290.654 70.34 290.014 68.5533 290.014 66.38C290.014 64.2067 290.654 62.42 291.934 61.02C293.228 59.62 294.941 58.92 297.074 58.92C299.208 58.92 300.921 59.62 302.214 61.02C303.508 62.42 304.154 64.2067 304.154 66.38C304.154 68.5533 303.508 70.34 302.214 71.74ZM305.536 73.5V59.2H316.376V62.12H309.076V64.68H315.336V67.44H309.076V70.5H316.496V73.5H305.536ZM323.697 73.84C321.763 73.84 320.223 73.4267 319.077 72.6C317.943 71.76 317.357 70.56 317.317 69H320.877C321.023 70.36 321.957 71.04 323.677 71.04C324.317 71.04 324.857 70.92 325.297 70.68C325.75 70.4267 325.977 70.0467 325.977 69.54C325.977 69.1933 325.837 68.9067 325.557 68.68C325.277 68.44 324.99 68.2733 324.697 68.18C324.417 68.0867 323.877 67.94 323.077 67.74C323.037 67.7267 323.01 67.72 322.997 67.72C322.983 67.7067 322.963 67.7 322.937 67.7C322.91 67.6867 322.883 67.68 322.857 67.68C322.243 67.5333 321.737 67.4067 321.337 67.3C320.95 67.18 320.503 67.0067 319.997 66.78C319.503 66.54 319.11 66.28 318.817 66C318.523 65.72 318.27 65.3533 318.057 64.9C317.857 64.4333 317.757 63.9133 317.757 63.34C317.757 61.8733 318.277 60.7733 319.317 60.04C320.37 59.3067 321.743 58.94 323.437 58.94C325.063 58.94 326.39 59.3133 327.417 60.06C328.457 60.8067 329.01 61.9 329.077 63.34H325.617C325.55 62.7933 325.317 62.3733 324.917 62.08C324.517 61.7733 323.983 61.62 323.317 61.62C322.703 61.62 322.203 61.7467 321.817 62C321.443 62.24 321.257 62.56 321.257 62.96C321.257 63.4133 321.483 63.7467 321.937 63.96C322.39 64.16 323.243 64.4 324.497 64.68C325.283 64.8667 325.93 65.0533 326.437 65.24C326.943 65.4133 327.457 65.6667 327.977 66C328.51 66.3333 328.903 66.7667 329.157 67.3C329.423 67.82 329.557 68.4467 329.557 69.18C329.557 70.6333 329.003 71.7733 327.897 72.6C326.803 73.4267 325.403 73.84 323.697 73.84ZM70.1255 97.5V83.2H77.0255C78.4522 83.2 79.5655 83.5267 80.3655 84.18C81.1922 84.86 81.6055 85.7733 81.6055 86.92C81.6055 88.28 80.9388 89.2133 79.6055 89.72V89.78C80.3922 90.02 81.0122 90.4533 81.4655 91.08C81.9322 91.7067 82.1655 92.44 82.1655 93.28C82.1655 94.6667 81.6788 95.7333 80.7055 96.48C79.8388 97.16 78.6655 97.5 77.1855 97.5H70.1255ZM73.6255 94.66H76.7855C77.3588 94.66 77.8122 94.5067 78.1455 94.2C78.4922 93.8933 78.6655 93.4867 78.6655 92.98C78.6655 92.4333 78.4855 92.0133 78.1255 91.72C77.7655 91.4133 77.3055 91.26 76.7455 91.26H73.6255V94.66ZM73.6255 88.86H76.5055C77.0255 88.86 77.4388 88.7333 77.7455 88.48C78.0655 88.2267 78.2255 87.8733 78.2255 87.42C78.2255 86.98 78.0722 86.6333 77.7655 86.38C77.4588 86.1267 77.0455 86 76.5255 86H73.6255V88.86ZM83.5435 97.5V83.2H94.3835V86.12H87.0835V88.68H93.3435V91.44H87.0835V94.5H94.5035V97.5H83.5435ZM99.9821 97.5V92.22L95.1421 83.2H99.0021L100.842 86.9L101.782 89.08H101.822C102.155 88.28 102.482 87.5533 102.802 86.9L104.622 83.2H108.362L103.522 92.22V97.5H99.9821ZM114.555 94.96C115.675 94.96 116.529 94.54 117.115 93.7C117.715 92.8467 118.015 91.74 118.015 90.38C118.015 89.02 117.715 87.9133 117.115 87.06C116.529 86.2067 115.675 85.78 114.555 85.78C113.449 85.78 112.589 86.2067 111.975 87.06C111.375 87.9133 111.075 89.02 111.075 90.38C111.075 91.7267 111.375 92.8267 111.975 93.68C112.589 94.5333 113.449 94.96 114.555 94.96ZM119.675 95.74C118.382 97.14 116.669 97.84 114.535 97.84C112.402 97.84 110.689 97.14 109.395 95.74C108.115 94.34 107.475 92.5533 107.475 90.38C107.475 88.2067 108.115 86.42 109.395 85.02C110.689 83.62 112.402 82.92 114.535 82.92C116.669 82.92 118.382 83.62 119.675 85.02C120.969 86.42 121.615 88.2067 121.615 90.38C121.615 92.5533 120.969 94.34 119.675 95.74ZM122.997 97.5V83.2H126.557L130.797 90.38L131.777 92.2H131.817C131.79 91.0533 131.777 90.3133 131.777 89.98V83.2H135.237V97.5H131.677L127.477 90.42L126.457 88.5H126.417C126.443 89.7267 126.457 90.5067 126.457 90.84V97.5H122.997ZM140.736 94.52H142.816C143.962 94.52 144.836 94.1733 145.436 93.48C146.036 92.7733 146.336 91.76 146.336 90.44C146.336 89.12 146.029 88.08 145.416 87.32C144.802 86.5467 143.949 86.16 142.856 86.16H140.736V94.52ZM137.196 97.5V83.2H143.296C145.282 83.2 146.882 83.86 148.096 85.18C149.309 86.5 149.916 88.2533 149.916 90.44C149.916 93.0133 149.089 94.9333 147.436 96.2C146.276 97.0667 144.822 97.5 143.076 97.5H137.196ZM164.683 97.5L162.803 92.62H156.123L154.243 97.5H153.583L159.103 83.2H159.823L165.343 97.5H164.683ZM159.463 83.96L156.323 92.08H162.583L159.483 83.96H159.463ZM167.413 83.76V89.82H175.493V90.38H167.413V96.92H176.393V97.5H166.793V83.2H176.193V83.76H167.413ZM177.378 92.96H178.038C178.105 94.2533 178.565 95.2733 179.418 96.02C180.285 96.7667 181.485 97.14 183.018 97.14C184.325 97.14 185.365 96.8333 186.138 96.22C186.912 95.6067 187.298 94.78 187.298 93.74C187.298 92.6733 186.945 91.9 186.238 91.42C185.532 90.94 184.298 90.54 182.538 90.22C180.965 89.9267 179.805 89.5133 179.058 88.98C178.325 88.4333 177.958 87.62 177.958 86.54C177.958 85.46 178.378 84.6 179.218 83.96C180.072 83.3067 181.192 82.98 182.578 82.98C184.005 82.98 185.132 83.34 185.958 84.06C186.798 84.78 187.298 85.76 187.458 87H186.818C186.685 85.9067 186.245 85.06 185.498 84.46C184.752 83.86 183.785 83.56 182.598 83.56C181.358 83.56 180.378 83.8333 179.658 84.38C178.952 84.9133 178.598 85.6267 178.598 86.52C178.598 87.4267 178.925 88.1067 179.578 88.56C180.232 89.0133 181.318 89.38 182.838 89.66C183.692 89.82 184.398 89.9867 184.958 90.16C185.518 90.3333 186.038 90.5733 186.518 90.88C187.012 91.1733 187.372 91.5533 187.598 92.02C187.825 92.4867 187.938 93.0467 187.938 93.7C187.938 94.9 187.498 95.8733 186.618 96.62C185.738 97.3533 184.545 97.72 183.038 97.72C181.265 97.72 179.898 97.2867 178.938 96.42C177.992 95.54 177.472 94.3867 177.378 92.96ZM193.977 97.5H193.337V83.78H188.237V83.2H199.077V83.78H193.977V97.5ZM200.778 97.5V83.2H201.398V89.62H210.578V83.2H211.198V97.5H210.578V90.16H201.398V97.5H200.778ZM214.425 83.76V89.82H222.505V90.38H214.425V96.92H223.405V97.5H213.805V83.2H223.205V83.76H214.425ZM230.286 97.5H229.646V83.78H224.546V83.2H235.386V83.78H230.286V97.5ZM237.766 83.2V97.5H237.146V83.2H237.766ZM251.786 87.22H251.146C250.959 86.1667 250.446 85.2933 249.606 84.6C248.766 83.8933 247.679 83.54 246.346 83.54C244.519 83.54 243.093 84.18 242.066 85.46C241.039 86.7267 240.526 88.36 240.526 90.36C240.526 92.3867 241.033 94.0267 242.046 95.28C243.073 96.52 244.486 97.14 246.286 97.14C247.766 97.14 248.953 96.6933 249.846 95.8C250.739 94.8933 251.266 93.7533 251.426 92.38H252.006C251.886 93.82 251.379 95.0267 250.486 96C249.446 97.1467 248.046 97.72 246.286 97.72C244.339 97.72 242.779 97.0467 241.606 95.7C240.446 94.3533 239.866 92.5733 239.866 90.36C239.866 88.1733 240.453 86.4 241.626 85.04C242.799 83.6667 244.373 82.98 246.346 82.98C247.839 82.98 249.059 83.3733 250.006 84.16C250.966 84.9467 251.559 85.9667 251.786 87.22ZM253.062 92.96H253.722C253.789 94.2533 254.249 95.2733 255.102 96.02C255.969 96.7667 257.169 97.14 258.702 97.14C260.009 97.14 261.049 96.8333 261.822 96.22C262.595 95.6067 262.982 94.78 262.982 93.74C262.982 92.6733 262.629 91.9 261.922 91.42C261.215 90.94 259.982 90.54 258.222 90.22C256.649 89.9267 255.489 89.5133 254.742 88.98C254.009 88.4333 253.642 87.62 253.642 86.54C253.642 85.46 254.062 84.6 254.902 83.96C255.755 83.3067 256.875 82.98 258.262 82.98C259.689 82.98 260.815 83.34 261.642 84.06C262.482 84.78 262.982 85.76 263.142 87H262.502C262.369 85.9067 261.929 85.06 261.182 84.46C260.435 83.86 259.469 83.56 258.282 83.56C257.042 83.56 256.062 83.8333 255.342 84.38C254.635 84.9133 254.282 85.6267 254.282 86.52C254.282 87.4267 254.609 88.1067 255.262 88.56C255.915 89.0133 257.002 89.38 258.522 89.66C259.375 89.82 260.082 89.9867 260.642 90.16C261.202 90.3333 261.722 90.5733 262.202 90.88C262.695 91.1733 263.055 91.5533 263.282 92.02C263.509 92.4867 263.622 93.0467 263.622 93.7C263.622 94.9 263.182 95.8733 262.302 96.62C261.422 97.3533 260.229 97.72 258.722 97.72C256.949 97.72 255.582 97.2867 254.622 96.42C253.675 95.54 253.155 94.3867 253.062 92.96ZM268.483 92.68V92.12H276.563V92.68H268.483ZM26.7336 121.5L24.8536 116.62H18.1736L16.2936 121.5H15.6336L21.1536 107.2H21.8736L27.3936 121.5H26.7336ZM21.5136 107.96L18.3736 116.08H24.6336L21.5336 107.96H21.5136ZM31.2652 117.28H31.8852V117.78C31.8852 118.9 32.1585 119.747 32.7052 120.32C33.2652 120.88 34.0719 121.16 35.1252 121.16C36.1119 121.16 36.8519 120.88 37.3452 120.32C37.8519 119.76 38.1052 118.953 38.1052 117.9V107.2H38.7252V117.94C38.7252 119.113 38.4252 120.04 37.8252 120.72C37.2252 121.4 36.3252 121.74 35.1252 121.74C33.8985 121.74 32.9452 121.407 32.2652 120.74C31.5985 120.06 31.2652 119.08 31.2652 117.8V117.28ZM51.9472 119.62C50.7206 121.007 49.1406 121.7 47.2072 121.7C45.2739 121.7 43.6939 121.013 42.4672 119.64C41.2539 118.253 40.6472 116.493 40.6472 114.36C40.6472 112.227 41.2539 110.467 42.4672 109.08C43.6939 107.68 45.2739 106.98 47.2072 106.98C49.1406 106.98 50.7206 107.68 51.9472 109.08C53.1872 110.467 53.8072 112.227 53.8072 114.36C53.8072 116.48 53.1872 118.233 51.9472 119.62ZM42.9072 119.2C43.9872 120.48 45.4206 121.12 47.2072 121.12C48.9939 121.12 50.4272 120.473 51.5072 119.18C52.6006 117.887 53.1472 116.28 53.1472 114.36C53.1472 112.427 52.6006 110.813 51.5072 109.52C50.4272 108.213 48.9939 107.56 47.2072 107.56C45.4206 107.56 43.9872 108.207 42.9072 109.5C41.8406 110.793 41.3072 112.413 41.3072 114.36C41.3072 116.293 41.8406 117.907 42.9072 119.2ZM55.6557 107.2H56.2957V116.84C56.2957 119.707 57.7957 121.14 60.7957 121.14C62.169 121.14 63.2623 120.793 64.0757 120.1C64.889 119.407 65.2957 118.32 65.2957 116.84V107.2H65.9357V116.88C65.9357 118.507 65.4623 119.72 64.5157 120.52C63.5823 121.307 62.3357 121.7 60.7757 121.7C59.2023 121.7 57.9557 121.307 57.0357 120.52C56.1157 119.72 55.6557 118.507 55.6557 116.88V107.2ZM68.9561 114.84V121.5H68.3361V107.2H74.0561C75.3895 107.2 76.4228 107.533 77.1561 108.2C77.8895 108.853 78.2561 109.787 78.2561 111C78.2561 112.933 77.3628 114.107 75.5761 114.52V114.54C76.3761 114.727 76.9561 115.113 77.3161 115.7C77.6895 116.287 77.8961 117.113 77.9361 118.18C77.9895 120.087 78.1828 121.173 78.5161 121.44V121.5H77.8361C77.5295 121.287 77.3495 120.18 77.2961 118.18C77.2561 116.993 76.9895 116.14 76.4961 115.62C76.0028 115.1 75.1895 114.84 74.0561 114.84H68.9561ZM68.9561 107.76V114.26H73.8361C76.3561 114.26 77.6161 113.18 77.6161 111.02C77.6161 109.98 77.3028 109.18 76.6761 108.62C76.0628 108.047 75.1695 107.76 73.9961 107.76H68.9561ZM91.0455 107.2V121.5H90.3855L81.0655 108.24H81.0455V121.5H80.4455V107.2H81.1455L90.4255 120.46H90.4455V107.2H91.0455ZM94.2686 107.76V113.82H102.349V114.38H94.2686V120.92H103.249V121.5H93.6486V107.2H103.049V107.76H94.2686ZM104.849 107.2L109.729 114.5H109.749L114.649 107.2H115.349L110.049 115.1V121.5H109.429V115.08L104.149 107.2H104.849ZM124.934 121.5H124.294V107.78H119.194V107.2H130.034V107.78H124.934V121.5ZM131.735 121.5V107.2H132.355V113.62H141.535V107.2H142.155V121.5H141.535V114.16H132.355V121.5H131.735ZM154.722 121.5L152.842 116.62H146.162L144.282 121.5H143.622L149.142 107.2H149.862L155.382 121.5H154.722ZM149.502 107.96L146.362 116.08H152.622L149.522 107.96H149.502ZM160.071 121.5H159.431V107.78H154.331V107.2H165.171V107.78H160.071V121.5ZM176.313 121.82C174.233 121.82 172.533 121.127 171.213 119.74C169.906 118.34 169.253 116.56 169.253 114.4C169.253 112.24 169.899 110.453 171.193 109.04C172.486 107.627 174.186 106.92 176.293 106.92C177.919 106.92 179.279 107.34 180.373 108.18C181.613 109.113 182.326 110.427 182.513 112.12H178.973C178.879 111.467 178.593 110.927 178.113 110.5C177.633 110.073 177.019 109.86 176.273 109.86C175.153 109.86 174.299 110.28 173.713 111.12C173.139 111.947 172.853 113.04 172.853 114.4C172.853 115.733 173.166 116.82 173.793 117.66C174.419 118.5 175.253 118.92 176.293 118.92C177.066 118.92 177.699 118.7 178.193 118.26C178.699 117.82 178.993 117.247 179.073 116.54H182.613C182.506 117.98 181.933 119.2 180.893 120.2C179.773 121.28 178.246 121.82 176.313 121.82ZM189.776 121.76C187.802 121.76 186.309 121.3 185.296 120.38C184.282 119.46 183.776 118.153 183.776 116.46V107.2H187.316V116.58C187.316 118.14 188.136 118.92 189.776 118.92C190.562 118.92 191.162 118.707 191.576 118.28C191.989 117.84 192.196 117.253 192.196 116.52V107.2H195.736V116.46C195.736 118.14 195.229 119.447 194.216 120.38C193.216 121.3 191.736 121.76 189.776 121.76ZM197.586 121.5V107.2H201.126V118.5H207.546V121.5H197.586ZM208.895 121.5V107.2H213.655L215.395 113.46L216.215 116.72H216.255C216.628 115.147 216.895 114.06 217.055 113.46L218.815 107.2H223.615V121.5H220.375V114.3L220.435 111.44H220.395C220.062 112.867 219.842 113.753 219.735 114.1L217.675 121.5H214.755L212.715 114.12L212.055 111.44H212.015C212.055 112.973 212.075 113.933 212.075 114.32V121.5H208.895ZM225.595 121.5V107.2H229.135V121.5H225.595ZM231.102 121.5V107.2H234.662L238.902 114.38L239.882 116.2H239.922C239.895 115.053 239.882 114.313 239.882 113.98V107.2H243.342V121.5H239.782L235.582 114.42L234.562 112.5H234.522C234.549 113.727 234.562 114.507 234.562 114.84V121.5H231.102ZM244.301 121.5L249.441 107.2H253.081L258.241 121.5H254.521L253.681 118.92H248.681L247.861 121.5H244.301ZM249.501 116.38H252.861L251.781 112.92L251.221 110.9H251.181C250.955 111.753 250.761 112.427 250.601 112.92L249.501 116.38ZM260.97 121.5V110.2H256.81V107.2H268.71V110.2H264.51V121.5H260.97ZM270.028 121.5V107.2H280.868V110.12H273.568V112.68H279.828V115.44H273.568V118.5H280.988V121.5H270.028ZM288.189 121.84C286.255 121.84 284.715 121.427 283.569 120.6C282.435 119.76 281.849 118.56 281.809 117H285.369C285.515 118.36 286.449 119.04 288.169 119.04C288.809 119.04 289.349 118.92 289.789 118.68C290.242 118.427 290.469 118.047 290.469 117.54C290.469 117.193 290.329 116.907 290.049 116.68C289.769 116.44 289.482 116.273 289.189 116.18C288.909 116.087 288.369 115.94 287.569 115.74C287.529 115.727 287.502 115.72 287.489 115.72C287.475 115.707 287.455 115.7 287.429 115.7C287.402 115.687 287.375 115.68 287.349 115.68C286.735 115.533 286.229 115.407 285.829 115.3C285.442 115.18 284.995 115.007 284.489 114.78C283.995 114.54 283.602 114.28 283.309 114C283.015 113.72 282.762 113.353 282.549 112.9C282.349 112.433 282.249 111.913 282.249 111.34C282.249 109.873 282.769 108.773 283.809 108.04C284.862 107.307 286.235 106.94 287.929 106.94C289.555 106.94 290.882 107.313 291.909 108.06C292.949 108.807 293.502 109.9 293.569 111.34H290.109C290.042 110.793 289.809 110.373 289.409 110.08C289.009 109.773 288.475 109.62 287.809 109.62C287.195 109.62 286.695 109.747 286.309 110C285.935 110.24 285.749 110.56 285.749 110.96C285.749 111.413 285.975 111.747 286.429 111.96C286.882 112.16 287.735 112.4 288.989 112.68C289.775 112.867 290.422 113.053 290.929 113.24C291.435 113.413 291.949 113.667 292.469 114C293.002 114.333 293.395 114.767 293.649 115.3C293.915 115.82 294.049 116.447 294.049 117.18C294.049 118.633 293.495 119.773 292.389 120.6C291.295 121.427 289.895 121.84 288.189 121.84ZM298.622 121.5V107.2H302.162V121.5H298.622ZM304.129 121.5V107.2H307.689L311.929 114.38L312.909 116.2H312.949C312.923 115.053 312.909 114.313 312.909 113.98V107.2H316.369V121.5H312.809L308.609 114.42L307.589 112.5H307.549C307.576 113.727 307.589 114.507 307.589 114.84V121.5H304.129ZM320.434 121.5L325.574 107.2H329.214L334.374 121.5H330.654L329.814 118.92H324.814L323.994 121.5H320.434ZM325.634 116.38H328.994L327.914 112.92L327.354 110.9H327.314C327.087 111.753 326.894 112.427 326.734 112.92L325.634 116.38ZM42.2415 147.84C40.3082 147.84 38.7682 147.427 37.6215 146.6C36.4882 145.76 35.9015 144.56 35.8615 143H39.4215C39.5682 144.36 40.5015 145.04 42.2215 145.04C42.8615 145.04 43.4015 144.92 43.8415 144.68C44.2949 144.427 44.5215 144.047 44.5215 143.54C44.5215 143.193 44.3815 142.907 44.1015 142.68C43.8215 142.44 43.5349 142.273 43.2415 142.18C42.9615 142.087 42.4215 141.94 41.6215 141.74C41.5815 141.727 41.5549 141.72 41.5415 141.72C41.5282 141.707 41.5082 141.7 41.4815 141.7C41.4549 141.687 41.4282 141.68 41.4015 141.68C40.7882 141.533 40.2815 141.407 39.8815 141.3C39.4949 141.18 39.0482 141.007 38.5415 140.78C38.0482 140.54 37.6549 140.28 37.3615 140C37.0682 139.72 36.8149 139.353 36.6015 138.9C36.4015 138.433 36.3015 137.913 36.3015 137.34C36.3015 135.873 36.8215 134.773 37.8615 134.04C38.9149 133.307 40.2882 132.94 41.9815 132.94C43.6082 132.94 44.9349 133.313 45.9615 134.06C47.0015 134.807 47.5549 135.9 47.6215 137.34H44.1615C44.0949 136.793 43.8615 136.373 43.4615 136.08C43.0615 135.773 42.5282 135.62 41.8615 135.62C41.2482 135.62 40.7482 135.747 40.3615 136C39.9882 136.24 39.8015 136.56 39.8015 136.96C39.8015 137.413 40.0282 137.747 40.4815 137.96C40.9349 138.16 41.7882 138.4 43.0415 138.68C43.8282 138.867 44.4749 139.053 44.9815 139.24C45.4882 139.413 46.0015 139.667 46.5215 140C47.0549 140.333 47.4482 140.767 47.7015 141.3C47.9682 141.82 48.1015 142.447 48.1015 143.18C48.1015 144.633 47.5482 145.773 46.4415 146.6C45.3482 147.427 43.9482 147.84 42.2415 147.84ZM49.5493 147.5V133.2H55.9893C57.6693 133.2 58.9693 133.64 59.8893 134.52C60.8493 135.413 61.3293 136.587 61.3293 138.04C61.3293 139.427 60.8827 140.553 59.9893 141.42C59.1093 142.287 57.9427 142.72 56.4893 142.72H53.1493V147.5H49.5493ZM53.1493 139.92H55.7693C56.396 139.92 56.8827 139.747 57.2293 139.4C57.5893 139.053 57.7693 138.593 57.7693 138.02C57.7693 137.447 57.5893 137 57.2293 136.68C56.8827 136.347 56.396 136.18 55.7693 136.18H53.1493V139.92ZM60.19 147.5L65.33 133.2H68.97L74.13 147.5H70.41L69.57 144.92H64.57L63.75 147.5H60.19ZM65.39 142.38H68.75L67.67 138.92L67.11 136.9H67.07C66.8433 137.753 66.65 138.427 66.49 138.92L65.39 142.38ZM80.7168 147.82C78.6368 147.82 76.9368 147.127 75.6168 145.74C74.3102 144.34 73.6568 142.56 73.6568 140.4C73.6568 138.24 74.3035 136.453 75.5968 135.04C76.8902 133.627 78.5902 132.92 80.6968 132.92C82.3235 132.92 83.6835 133.34 84.7768 134.18C86.0168 135.113 86.7302 136.427 86.9168 138.12H83.3768C83.2835 137.467 82.9968 136.927 82.5168 136.5C82.0368 136.073 81.4235 135.86 80.6768 135.86C79.5568 135.86 78.7035 136.28 78.1168 137.12C77.5435 137.947 77.2568 139.04 77.2568 140.4C77.2568 141.733 77.5702 142.82 78.1968 143.66C78.8235 144.5 79.6568 144.92 80.6968 144.92C81.4702 144.92 82.1035 144.7 82.5968 144.26C83.1035 143.82 83.3968 143.247 83.4768 142.54H87.0168C86.9102 143.98 86.3368 145.2 85.2968 146.2C84.1768 147.28 82.6502 147.82 80.7168 147.82ZM88.2798 147.5V133.2H99.1198V136.12H91.8198V138.68H98.0798V141.44H91.8198V144.5H99.2398V147.5H88.2798ZM107.464 147.5V136.2H103.304V133.2H115.204V136.2H111.004V147.5H107.464ZM116.522 147.5V133.2H120.062V138.62H125.082V133.2H128.622V147.5H125.082V141.54H120.062V147.5H116.522ZM129.584 147.5L134.724 133.2H138.364L143.524 147.5H139.804L138.964 144.92H133.964L133.144 147.5H129.584ZM134.784 142.38H138.144L137.064 138.92L136.504 136.9H136.464C136.238 137.753 136.044 138.427 135.884 138.92L134.784 142.38ZM146.253 147.5V136.2H142.093V133.2H153.993V136.2H149.793V147.5H146.253ZM163.577 147.5H162.937V133.78H157.837V133.2H168.677V133.78H163.577V147.5ZM170.997 140.84V147.5H170.377V133.2H176.097C177.43 133.2 178.464 133.533 179.197 134.2C179.93 134.853 180.297 135.787 180.297 137C180.297 138.933 179.404 140.107 177.617 140.52V140.54C178.417 140.727 178.997 141.113 179.357 141.7C179.73 142.287 179.937 143.113 179.977 144.18C180.03 146.087 180.224 147.173 180.557 147.44V147.5H179.877C179.57 147.287 179.39 146.18 179.337 144.18C179.297 142.993 179.03 142.14 178.537 141.62C178.044 141.1 177.23 140.84 176.097 140.84H170.997ZM170.997 133.76V140.26H175.877C178.397 140.26 179.657 139.18 179.657 137.02C179.657 135.98 179.344 135.18 178.717 134.62C178.104 134.047 177.21 133.76 176.037 133.76H170.997ZM182.287 133.2H182.927V142.84C182.927 145.707 184.427 147.14 187.427 147.14C188.8 147.14 189.893 146.793 190.707 146.1C191.52 145.407 191.927 144.32 191.927 142.84V133.2H192.567V142.88C192.567 144.507 192.093 145.72 191.147 146.52C190.213 147.307 188.967 147.7 187.407 147.7C185.833 147.7 184.587 147.307 183.667 146.52C182.747 145.72 182.287 144.507 182.287 142.88V133.2ZM195.587 133.2V146.92H203.807V147.5H194.967V133.2H195.587ZM203.14 133.2L208.02 140.5H208.04L212.94 133.2H213.64L208.34 141.1V147.5H207.72V141.08L202.44 133.2H203.14ZM219.005 133.76V139.76H226.385V140.32H219.005V147.5H218.385V133.2H227.585V133.76H219.005ZM230.021 133.76V139.82H238.101V140.38H230.021V146.92H239.001V147.5H229.401V133.2H238.801V133.76H230.021ZM241.661 133.76V139.82H249.741V140.38H241.661V146.92H250.641V147.5H241.041V133.2H250.441V133.76H241.661ZM253.302 133.2V146.92H261.522V147.5H252.682V133.2H253.302ZM262.037 142.96H262.697C262.763 144.253 263.223 145.273 264.077 146.02C264.943 146.767 266.143 147.14 267.677 147.14C268.983 147.14 270.023 146.833 270.797 146.22C271.57 145.607 271.957 144.78 271.957 143.74C271.957 142.673 271.603 141.9 270.897 141.42C270.19 140.94 268.957 140.54 267.197 140.22C265.623 139.927 264.463 139.513 263.717 138.98C262.983 138.433 262.617 137.62 262.617 136.54C262.617 135.46 263.037 134.6 263.877 133.96C264.73 133.307 265.85 132.98 267.237 132.98C268.663 132.98 269.79 133.34 270.617 134.06C271.457 134.78 271.957 135.76 272.117 137H271.477C271.343 135.907 270.903 135.06 270.157 134.46C269.41 133.86 268.443 133.56 267.257 133.56C266.017 133.56 265.037 133.833 264.317 134.38C263.61 134.913 263.257 135.627 263.257 136.52C263.257 137.427 263.583 138.107 264.237 138.56C264.89 139.013 265.977 139.38 267.497 139.66C268.35 139.82 269.057 139.987 269.617 140.16C270.177 140.333 270.697 140.573 271.177 140.88C271.67 141.173 272.03 141.553 272.257 142.02C272.483 142.487 272.597 143.047 272.597 143.7C272.597 144.9 272.157 145.873 271.277 146.62C270.397 147.353 269.203 147.72 267.697 147.72C265.923 147.72 264.557 147.287 263.597 146.42C262.65 145.54 262.13 144.387 262.037 142.96ZM278.497 133.2V146.92H286.717V147.5H277.877V133.2H278.497ZM289.163 133.2V147.5H288.543V133.2H289.163ZM302.002 133.2L295.862 139.08L302.622 147.5H301.862L295.402 139.52L292.442 142.34V147.5H291.822V133.2H292.442V141.56L301.162 133.2H302.002ZM304.591 133.76V139.82H312.671V140.38H304.591V146.92H313.571V147.5H303.971V133.2H313.371V133.76H304.591ZM144.247 171.5V157.2H147.787V162.62H152.807V157.2H156.347V171.5H152.807V165.54H147.787V171.5H144.247ZM164.809 168.96C165.929 168.96 166.782 168.54 167.369 167.7C167.969 166.847 168.269 165.74 168.269 164.38C168.269 163.02 167.969 161.913 167.369 161.06C166.782 160.207 165.929 159.78 164.809 159.78C163.702 159.78 162.842 160.207 162.229 161.06C161.629 161.913 161.329 163.02 161.329 164.38C161.329 165.727 161.629 166.827 162.229 167.68C162.842 168.533 163.702 168.96 164.809 168.96ZM169.929 169.74C168.636 171.14 166.922 171.84 164.789 171.84C162.656 171.84 160.942 171.14 159.649 169.74C158.369 168.34 157.729 166.553 157.729 164.38C157.729 162.207 158.369 160.42 159.649 159.02C160.942 157.62 162.656 156.92 164.789 156.92C166.922 156.92 168.636 157.62 169.929 159.02C171.222 160.42 171.869 162.207 171.869 164.38C171.869 166.553 171.222 168.34 169.929 169.74ZM173.251 171.5V157.2H178.011L179.751 163.46L180.571 166.72H180.611C180.984 165.147 181.251 164.06 181.411 163.46L183.171 157.2H187.971V171.5H184.731V164.3L184.791 161.44H184.751C184.417 162.867 184.197 163.753 184.091 164.1L182.031 171.5H179.111L177.071 164.12L176.411 161.44H176.371C176.411 162.973 176.431 163.933 176.431 164.32V171.5H173.251ZM189.93 171.5V157.2H200.77V160.12H193.47V162.68H199.73V165.44H193.47V168.5H200.89V171.5H189.93ZM202.539 171.5V168.14H205.959V171.5H202.539Z" fill="black"/>
<path d="M343.774 176.14C345 176.14 345.987 176.513 346.734 177.26C347.48 178.007 347.854 178.993 347.854 180.22C347.854 181.34 347.427 182.327 346.574 183.18C345.774 183.98 344.76 184.38 343.534 184.38C342.254 184.38 341.134 183.873 340.174 182.86C339.267 181.793 338.814 180.487 338.814 178.94C338.814 176.007 339.587 173.633 341.134 171.82C342.68 169.953 344.44 168.807 346.414 168.38L346.574 168.94C344.814 169.313 343.214 170.353 341.774 172.06C340.387 173.713 339.694 175.66 339.694 177.9C339.694 178.167 339.72 178.433 339.774 178.7C340.52 176.993 341.854 176.14 343.774 176.14ZM331.934 176.14C333.16 176.14 334.147 176.513 334.894 177.26C335.64 178.007 336.014 178.993 336.014 180.22C336.014 181.34 335.587 182.327 334.734 183.18C333.934 183.98 332.92 184.38 331.694 184.38C330.414 184.38 329.294 183.873 328.334 182.86C327.427 181.793 326.974 180.487 326.974 178.94C326.974 176.007 327.747 173.633 329.294 171.82C330.84 169.953 332.6 168.807 334.574 168.38L334.734 168.94C332.974 169.313 331.374 170.353 329.934 172.06C328.547 173.713 327.854 175.66 327.854 177.9C327.854 178.167 327.88 178.433 327.934 178.7C328.68 176.993 330.014 176.14 331.934 176.14Z" fill="black"/>
<path d="M17.7736 8.13988C19.0003 8.13988 19.987 8.51322 20.7336 9.25988C21.4803 10.0065 21.8536 10.9932 21.8536 12.2199C21.8536 13.3399 21.427 14.3265 20.5736 15.1799C19.7736 15.9799 18.7603 16.3799 17.5336 16.3799C16.2536 16.3799 15.1336 15.8732 14.1736 14.8599C13.267 13.7932 12.8136 12.4865 12.8136 10.9399C12.8136 8.00655 13.587 5.63321 15.1336 3.81988C16.6803 1.95321 18.4403 0.806547 20.4136 0.379883L20.5736 0.93988C18.8136 1.31322 17.2136 2.35322 15.7736 4.05988C14.387 5.71321 13.6936 7.65988 13.6936 9.89988C13.6936 10.1665 13.7203 10.4332 13.7736 10.6999C14.5203 8.99322 15.8536 8.13988 17.7736 8.13988ZM5.93363 8.13988C7.1603 8.13988 8.14697 8.51322 8.89363 9.25988C9.6403 10.0065 10.0136 10.9932 10.0136 12.2199C10.0136 13.3399 9.58697 14.3265 8.73363 15.1799C7.93363 15.9799 6.9203 16.3799 5.69363 16.3799C4.41363 16.3799 3.29363 15.8732 2.33363 14.8599C1.42697 13.7932 0.973633 12.4865 0.973633 10.9399C0.973633 8.00655 1.74697 5.63321 3.29363 3.81988C4.8403 1.95321 6.6003 0.806547 8.57363 0.379883L8.73363 0.93988C6.97363 1.31322 5.37363 2.35322 3.93363 4.05988C2.54697 5.71321 1.85363 7.65988 1.85363 9.89988C1.85363 10.1665 1.8803 10.4332 1.93363 10.6999C2.6803 8.99322 4.01363 8.13988 5.93363 8.13988Z" fill="black"/>
</svg>
