<svg width="977" height="284" viewBox="0 0 977 284" fill="none" xmlns="http://www.w3.org/2000/svg">
<line x1="398.5" y1="11.5" x2="578.5" y2="11.5" stroke="black"/>
<path d="M91.6855 89.68C87.3655 89.68 83.8721 88.28 81.2055 85.48C78.5388 82.68 77.2055 79.12 77.2055 74.8C77.2055 70.48 78.5521 66.92 81.2455 64.12C83.9388 61.2933 87.4188 59.88 91.6855 59.88C94.8588 59.88 97.5255 60.6267 99.6855 62.12C102.672 64.1733 104.352 67.1333 104.725 71H96.3655C96.2588 69.8267 95.7521 68.8267 94.8455 68C93.9655 67.1733 92.8721 66.76 91.5655 66.76C89.6455 66.76 88.1788 67.4933 87.1655 68.96C86.1788 70.4267 85.6855 72.3733 85.6855 74.8C85.6855 77.1733 86.2188 79.1067 87.2855 80.6C88.3521 82.0933 89.8055 82.84 91.6455 82.84C93.0588 82.84 94.2055 82.4267 95.0855 81.6C95.9655 80.7733 96.4721 79.6933 96.6055 78.36H105.045C104.805 81.48 103.565 84.12 101.325 86.28C98.9788 88.5467 95.7655 89.68 91.6855 89.68ZM107.075 89V60.4H115.435V70.88H124.235V60.4H132.595V89H124.235V77.8H115.435V89H107.075ZM159.941 85.52C157.274 88.2933 153.754 89.68 149.381 89.68C145.007 89.68 141.501 88.2933 138.861 85.52C136.221 82.72 134.901 79.1467 134.901 74.8C134.901 70.4533 136.221 66.88 138.861 64.08C141.501 61.28 145.007 59.88 149.381 59.88C153.754 59.88 157.274 61.28 159.941 64.08C162.607 66.88 163.941 70.4533 163.941 74.8C163.941 79.1467 162.607 82.72 159.941 85.52ZM144.941 80.72C145.981 82.24 147.474 83 149.421 83C151.367 83 152.861 82.24 153.901 80.72C154.941 79.2 155.461 77.2267 155.461 74.8C155.461 72.3733 154.941 70.4 153.901 68.88C152.861 67.3333 151.367 66.56 149.421 66.56C147.474 66.56 145.981 67.3333 144.941 68.88C143.901 70.4 143.381 72.3733 143.381 74.8C143.381 77.2267 143.901 79.2 144.941 80.72ZM190.175 85.52C187.508 88.2933 183.988 89.68 179.615 89.68C175.242 89.68 171.735 88.2933 169.095 85.52C166.455 82.72 165.135 79.1467 165.135 74.8C165.135 70.4533 166.455 66.88 169.095 64.08C171.735 61.28 175.242 59.88 179.615 59.88C183.988 59.88 187.508 61.28 190.175 64.08C192.842 66.88 194.175 70.4533 194.175 74.8C194.175 79.1467 192.842 82.72 190.175 85.52ZM175.175 80.72C176.215 82.24 177.708 83 179.655 83C181.602 83 183.095 82.24 184.135 80.72C185.175 79.2 185.695 77.2267 185.695 74.8C185.695 72.3733 185.175 70.4 184.135 68.88C183.095 67.3333 181.602 66.56 179.655 66.56C177.708 66.56 176.215 67.3333 175.175 68.88C174.135 70.4 173.615 72.3733 173.615 74.8C173.615 77.2267 174.135 79.2 175.175 80.72ZM208.21 89.68C204.316 89.68 201.156 88.84 198.73 87.16C196.303 85.48 195.063 83.0533 195.01 79.88H203.57C203.836 82.12 205.436 83.24 208.37 83.24C209.33 83.24 210.17 83.0533 210.89 82.68C211.636 82.28 212.01 81.68 212.01 80.88C212.01 80 211.383 79.32 210.13 78.84C209.57 78.6267 208.383 78.2933 206.57 77.84C205.343 77.5467 204.343 77.28 203.57 77.04C202.796 76.8 201.876 76.44 200.81 75.96C199.743 75.4533 198.89 74.92 198.25 74.36C197.636 73.7733 197.103 73.0133 196.65 72.08C196.196 71.1467 195.97 70.0933 195.97 68.92C195.97 65.8267 197.063 63.5467 199.25 62.08C201.436 60.6133 204.276 59.88 207.77 59.88C209.85 59.88 211.716 60.16 213.37 60.72C215.023 61.28 216.41 62.24 217.53 63.6C218.65 64.9333 219.223 66.6 219.25 68.6H210.97C210.703 66.8933 209.49 66.04 207.33 66.04C206.423 66.04 205.676 66.2267 205.09 66.6C204.503 66.9733 204.21 67.4533 204.21 68.04C204.21 68.2267 204.236 68.4 204.29 68.56C204.343 68.6933 204.436 68.8267 204.57 68.96C204.703 69.0933 204.836 69.2133 204.97 69.32C205.13 69.4267 205.343 69.5333 205.61 69.64C205.876 69.72 206.116 69.8 206.33 69.88C206.57 69.96 206.89 70.0533 207.29 70.16C207.69 70.24 208.036 70.32 208.33 70.4C208.65 70.48 209.063 70.5733 209.57 70.68C210.076 70.7867 210.53 70.8933 210.93 71C212.316 71.3467 213.503 71.72 214.49 72.12C215.476 72.4933 216.463 73.0267 217.45 73.72C218.463 74.3867 219.223 75.2667 219.73 76.36C220.263 77.4267 220.53 78.68 220.53 80.12C220.53 83.1333 219.356 85.48 217.01 87.16C214.69 88.84 211.756 89.68 208.21 89.68ZM222.818 89V60.4H245.098V67.2H231.178V71.08H242.818V77.36H231.178V81.84H245.498V89H222.818ZM254.263 89V60.4H268.463C271.583 60.4 274.156 61.1333 276.183 62.6C278.236 64.04 279.263 66.1467 279.263 68.92C279.263 72.1467 277.703 74.4667 274.583 75.88V76C276.743 76.8267 278.076 78.4 278.583 80.72C278.796 81.6267 278.93 82.76 278.983 84.12C279.036 85.4533 279.103 86.5067 279.183 87.28C279.263 88.0533 279.45 88.48 279.743 88.56V89H271.503C271.263 88.84 271.103 88.4133 271.023 87.72C270.943 87 270.863 86.0933 270.783 85C270.703 83.9067 270.583 83.0267 270.423 82.36C270.156 81.2133 269.73 80.3733 269.143 79.84C268.556 79.3067 267.676 79.04 266.503 79.04H262.623V89H254.263ZM262.623 66.96V73.08H267.103C269.583 73.08 270.823 72.0667 270.823 70.04C270.823 69.08 270.516 68.3333 269.903 67.8C269.29 67.24 268.396 66.96 267.223 66.96H262.623ZM281.919 89V60.4H304.199V67.2H290.279V71.08H301.919V77.36H290.279V81.84H304.599V89H281.919ZM307.388 89V60.4H318.268L322.668 76.4H322.748L327.148 60.4H338.108V89H330.548V71.08H330.468L325.708 89H319.588L314.828 71.08H314.748V89H307.388ZM339.649 89L350.209 60.4H358.729L369.329 89H360.449L359.049 84.8H349.369L347.969 89H339.649ZM353.129 73.44L351.249 79.04H357.169L355.369 73.44L354.289 69.76H354.209C353.809 71.28 353.449 72.5067 353.129 73.44ZM370.904 89V60.4H385.104C388.224 60.4 390.797 61.1333 392.824 62.6C394.877 64.04 395.904 66.1467 395.904 68.92C395.904 72.1467 394.344 74.4667 391.224 75.88V76C393.384 76.8267 394.717 78.4 395.224 80.72C395.437 81.6267 395.57 82.76 395.624 84.12C395.677 85.4533 395.744 86.5067 395.824 87.28C395.904 88.0533 396.09 88.48 396.384 88.56V89H388.144C387.904 88.84 387.744 88.4133 387.664 87.72C387.584 87 387.504 86.0933 387.424 85C387.344 83.9067 387.224 83.0267 387.064 82.36C386.797 81.2133 386.37 80.3733 385.784 79.84C385.197 79.3067 384.317 79.04 383.144 79.04H379.264V89H370.904ZM379.264 66.96V73.08H383.744C386.224 73.08 387.464 72.0667 387.464 70.04C387.464 69.08 387.157 68.3333 386.544 67.8C385.93 67.24 385.037 66.96 383.864 66.96H379.264ZM398.56 89V60.4H406.92V69.76L415.56 60.4H425.16L414.48 71.92L425.76 89H416.04L408.76 77.68L406.92 79.76V89H398.56ZM433.286 89V60.4H441.646V89H433.286ZM445.083 89V60.4H453.443L462.803 76.48H462.883V60.4H470.963V89H462.323L453.243 72.8H453.163V89H445.083ZM473.299 67.52V60.4H497.939V67.52H489.739V89H481.379V67.52H473.299ZM500.279 89V60.4H522.559V67.2H508.639V71.08H520.279V77.36H508.639V81.84H522.959V89H500.279ZM525.747 89V60.4H539.947C543.067 60.4 545.641 61.1333 547.667 62.6C549.721 64.04 550.747 66.1467 550.747 68.92C550.747 72.1467 549.187 74.4667 546.067 75.88V76C548.227 76.8267 549.561 78.4 550.067 80.72C550.281 81.6267 550.414 82.76 550.467 84.12C550.521 85.4533 550.587 86.5067 550.667 87.28C550.747 88.0533 550.934 88.48 551.227 88.56V89H542.987C542.747 88.84 542.587 88.4133 542.507 87.72C542.427 87 542.347 86.0933 542.267 85C542.187 83.9067 542.067 83.0267 541.907 82.36C541.641 81.2133 541.214 80.3733 540.627 79.84C540.041 79.3067 539.161 79.04 537.987 79.04H534.107V89H525.747ZM534.107 66.96V73.08H538.587C541.067 73.08 542.307 72.0667 542.307 70.04C542.307 69.08 542.001 68.3333 541.387 67.8C540.774 67.24 539.881 66.96 538.707 66.96H534.107ZM553.404 89V60.4H561.764V89H553.404ZM589.12 85.52C586.454 88.2933 582.934 89.68 578.56 89.68C574.187 89.68 570.68 88.2933 568.04 85.52C565.4 82.72 564.08 79.1467 564.08 74.8C564.08 70.4533 565.4 66.88 568.04 64.08C570.68 61.28 574.187 59.88 578.56 59.88C582.934 59.88 586.454 61.28 589.12 64.08C591.787 66.88 593.12 70.4533 593.12 74.8C593.12 79.1467 591.787 82.72 589.12 85.52ZM574.12 80.72C575.16 82.24 576.654 83 578.6 83C580.547 83 582.04 82.24 583.08 80.72C584.12 79.2 584.64 77.2267 584.64 74.8C584.64 72.3733 584.12 70.4 583.08 68.88C582.04 67.3333 580.547 66.56 578.6 66.56C576.654 66.56 575.16 67.3333 574.12 68.88C573.08 70.4 572.56 72.3733 572.56 74.8C572.56 77.2267 573.08 79.2 574.12 80.72ZM595.435 89V60.4H609.635C612.755 60.4 615.328 61.1333 617.355 62.6C619.408 64.04 620.435 66.1467 620.435 68.92C620.435 72.1467 618.875 74.4667 615.755 75.88V76C617.915 76.8267 619.248 78.4 619.755 80.72C619.968 81.6267 620.102 82.76 620.155 84.12C620.208 85.4533 620.275 86.5067 620.355 87.28C620.435 88.0533 620.622 88.48 620.915 88.56V89H612.675C612.435 88.84 612.275 88.4133 612.195 87.72C612.115 87 612.035 86.0933 611.955 85C611.875 83.9067 611.755 83.0267 611.595 82.36C611.328 81.2133 610.902 80.3733 610.315 79.84C609.728 79.3067 608.848 79.04 607.675 79.04H603.795V89H595.435ZM603.795 66.96V73.08H608.275C610.755 73.08 611.995 72.0667 611.995 70.04C611.995 69.08 611.688 68.3333 611.075 67.8C610.462 67.24 609.568 66.96 608.395 66.96H603.795ZM634.811 89.68C630.918 89.68 627.758 88.84 625.331 87.16C622.904 85.48 621.664 83.0533 621.611 79.88H630.171C630.438 82.12 632.038 83.24 634.971 83.24C635.931 83.24 636.771 83.0533 637.491 82.68C638.238 82.28 638.611 81.68 638.611 80.88C638.611 80 637.984 79.32 636.731 78.84C636.171 78.6267 634.984 78.2933 633.171 77.84C631.944 77.5467 630.944 77.28 630.171 77.04C629.398 76.8 628.478 76.44 627.411 75.96C626.344 75.4533 625.491 74.92 624.851 74.36C624.238 73.7733 623.704 73.0133 623.251 72.08C622.798 71.1467 622.571 70.0933 622.571 68.92C622.571 65.8267 623.664 63.5467 625.851 62.08C628.038 60.6133 630.878 59.88 634.371 59.88C636.451 59.88 638.318 60.16 639.971 60.72C641.624 61.28 643.011 62.24 644.131 63.6C645.251 64.9333 645.824 66.6 645.851 68.6H637.571C637.304 66.8933 636.091 66.04 633.931 66.04C633.024 66.04 632.278 66.2267 631.691 66.6C631.104 66.9733 630.811 67.4533 630.811 68.04C630.811 68.2267 630.838 68.4 630.891 68.56C630.944 68.6933 631.038 68.8267 631.171 68.96C631.304 69.0933 631.438 69.2133 631.571 69.32C631.731 69.4267 631.944 69.5333 632.211 69.64C632.478 69.72 632.718 69.8 632.931 69.88C633.171 69.96 633.491 70.0533 633.891 70.16C634.291 70.24 634.638 70.32 634.931 70.4C635.251 70.48 635.664 70.5733 636.171 70.68C636.678 70.7867 637.131 70.8933 637.531 71C638.918 71.3467 640.104 71.72 641.091 72.12C642.078 72.4933 643.064 73.0267 644.051 73.72C645.064 74.3867 645.824 75.2667 646.331 76.36C646.864 77.4267 647.131 78.68 647.131 80.12C647.131 83.1333 645.958 85.48 643.611 87.16C641.291 88.84 638.358 89.68 634.811 89.68ZM658.102 61.52V73.52H672.862V74.64H658.102V89H656.862V60.4H675.262V61.52H658.102ZM699.592 85.24C697.138 88.0133 693.978 89.4 690.112 89.4C686.245 89.4 683.085 88.0267 680.632 85.28C678.205 82.5067 676.992 78.9867 676.992 74.72C676.992 70.4533 678.205 66.9333 680.632 64.16C683.085 61.36 686.245 59.96 690.112 59.96C693.978 59.96 697.138 61.36 699.592 64.16C702.072 66.9333 703.312 70.4533 703.312 74.72C703.312 78.96 702.072 82.4667 699.592 85.24ZM681.512 84.4C683.672 86.96 686.538 88.24 690.112 88.24C693.685 88.24 696.552 86.9467 698.712 84.36C700.898 81.7733 701.992 78.56 701.992 74.72C701.992 70.8533 700.898 67.6267 698.712 65.04C696.552 62.4267 693.685 61.12 690.112 61.12C686.538 61.12 683.672 62.4133 681.512 65C679.378 67.5867 678.312 70.8267 678.312 74.72C678.312 78.5867 679.378 81.8133 681.512 84.4ZM708.649 75.68V89H707.409V60.4H718.849C721.515 60.4 723.582 61.0667 725.049 62.4C726.515 63.7067 727.249 65.5733 727.249 68C727.249 71.8667 725.462 74.2133 721.889 75.04V75.08C723.489 75.4533 724.649 76.2267 725.369 77.4C726.115 78.5733 726.529 80.2267 726.609 82.36C726.715 86.1733 727.102 88.3467 727.769 88.88V89H726.409C725.795 88.5733 725.435 86.36 725.329 82.36C725.249 79.9867 724.715 78.28 723.729 77.24C722.742 76.2 721.115 75.68 718.849 75.68H708.649ZM708.649 61.52V74.52H718.409C723.449 74.52 725.969 72.36 725.969 68.04C725.969 65.96 725.342 64.36 724.089 63.24C722.862 62.0933 721.075 61.52 718.729 61.52H708.649ZM758.11 89L754.35 79.24H740.99L737.23 89H735.91L746.95 60.4H748.39L759.43 89H758.11ZM747.67 61.92L741.39 78.16H753.91L747.71 61.92H747.67ZM768.893 89V60.4H779.133C781.8 60.4 784.04 61.0667 785.853 62.4C787.666 63.7067 788.96 65.4267 789.733 67.56C790.533 69.6667 790.933 72.0933 790.933 74.84C790.933 79.0533 789.906 82.4667 787.853 85.08C785.826 87.6933 782.826 89 778.853 89H768.893ZM770.133 87.88H778.813C782.253 87.88 784.906 86.7333 786.773 84.44C788.666 82.12 789.613 78.92 789.613 74.84C789.613 70.7067 788.706 67.4667 786.893 65.12C785.08 62.7467 782.48 61.56 779.093 61.56H770.133V87.88ZM796.266 61.52V73.64H812.426V74.76H796.266V87.84H814.226V89H795.026V60.4H813.826V61.52H796.266ZM816.196 79.92H817.516C817.65 82.5067 818.57 84.5467 820.276 86.04C822.01 87.5333 824.41 88.28 827.476 88.28C830.09 88.28 832.17 87.6667 833.716 86.44C835.263 85.2133 836.036 83.56 836.036 81.48C836.036 79.3467 835.33 77.8 833.916 76.84C832.503 75.88 830.036 75.08 826.516 74.44C823.37 73.8533 821.05 73.0267 819.556 71.96C818.09 70.8667 817.356 69.24 817.356 67.08C817.356 64.92 818.196 63.2 819.876 61.92C821.583 60.6133 823.823 59.96 826.596 59.96C829.45 59.96 831.703 60.68 833.356 62.12C835.036 63.56 836.036 65.52 836.356 68H835.076C834.81 65.8133 833.93 64.12 832.436 62.92C830.943 61.72 829.01 61.12 826.636 61.12C824.156 61.12 822.196 61.6667 820.756 62.76C819.343 63.8267 818.636 65.2533 818.636 67.04C818.636 68.8533 819.29 70.2133 820.596 71.12C821.903 72.0267 824.076 72.76 827.116 73.32C828.823 73.64 830.236 73.9733 831.356 74.32C832.476 74.6667 833.516 75.1467 834.476 75.76C835.463 76.3467 836.183 77.1067 836.636 78.04C837.09 78.9733 837.316 80.0933 837.316 81.4C837.316 83.8 836.436 85.7467 834.676 87.24C832.916 88.7067 830.53 89.44 827.516 89.44C823.97 89.44 821.236 88.5733 819.316 86.84C817.423 85.08 816.383 82.7733 816.196 79.92ZM842.675 60.4V89H841.435V60.4H842.675ZM870.515 75.96H860.555V74.84H871.755V89H870.715L870.595 82.24H870.515C869.981 84.2133 868.808 85.9067 866.995 87.32C865.208 88.7333 862.928 89.44 860.155 89.44C855.968 89.44 852.701 88.0667 850.355 85.32C848.035 82.5733 846.875 79.0533 846.875 74.76C846.875 70.4933 848.048 66.96 850.395 64.16C852.768 61.36 856.035 59.96 860.195 59.96C863.181 59.96 865.648 60.7333 867.595 62.28C869.568 63.8 870.808 65.8933 871.315 68.56H870.075C869.621 66.2667 868.515 64.4533 866.755 63.12C865.021 61.76 862.835 61.08 860.195 61.08C856.355 61.08 853.395 62.3867 851.315 65C849.235 67.6133 848.195 70.8667 848.195 74.76C848.195 78.7067 849.221 81.9467 851.275 84.48C853.355 87.0133 856.315 88.28 860.155 88.28C863.355 88.28 865.875 87.2667 867.715 85.24C869.581 83.2133 870.515 80.6 870.515 77.4V75.96ZM897.788 60.4V89H896.468L877.828 62.48H877.788V89H876.588V60.4H877.988L896.548 86.92H896.588V60.4H897.788ZM37.633 109.52V121.64H53.793V122.76H37.633V135.84H55.593V137H36.393V108.4H55.193V109.52H37.633ZM57.5942 137L67.8742 122.32L58.2342 108.4H59.6742L68.6742 121.4H68.7142L77.7142 108.4H79.1542L69.4342 122.36L79.5942 137H78.1542L68.6342 123.32H68.5942L59.0342 137H57.5942ZM92.8811 123.92H83.9611V137H82.7211V108.4H93.1611C95.6144 108.4 97.5611 108.96 99.0011 110.08C100.921 111.387 101.881 113.4 101.881 116.12C101.881 121.32 98.8811 123.92 92.8811 123.92ZM83.9611 109.56V122.8H92.8011C98.0011 122.8 100.601 120.573 100.601 116.12C100.601 114.04 99.9344 112.427 98.6011 111.28C97.2944 110.133 95.4544 109.56 93.0811 109.56H83.9611ZM106.656 109.52V121.64H122.816V122.76H106.656V135.84H124.616V137H105.416V108.4H124.216V109.52H106.656ZM129.938 123.68V137H128.698V108.4H140.138C142.804 108.4 144.871 109.067 146.338 110.4C147.804 111.707 148.538 113.573 148.538 116C148.538 119.867 146.751 122.213 143.178 123.04V123.08C144.778 123.453 145.938 124.227 146.658 125.4C147.404 126.573 147.818 128.227 147.898 130.36C148.004 134.173 148.391 136.347 149.058 136.88V137H147.698C147.084 136.573 146.724 134.36 146.618 130.36C146.538 127.987 146.004 126.28 145.018 125.24C144.031 124.2 142.404 123.68 140.138 123.68H129.938ZM129.938 109.52V122.52H139.698C144.738 122.52 147.258 120.36 147.258 116.04C147.258 113.96 146.631 112.36 145.378 111.24C144.151 110.093 142.364 109.52 140.018 109.52H129.938ZM154.276 108.4V137H153.036V108.4H154.276ZM160.836 109.52V121.64H176.996V122.76H160.836V135.84H178.796V137H159.596V108.4H178.396V109.52H160.836ZM204.077 108.4V137H202.757L184.117 110.48H184.077V137H182.877V108.4H184.277L202.837 134.92H202.877V108.4H204.077ZM232.004 116.44H230.724C230.35 114.333 229.324 112.587 227.644 111.2C225.964 109.787 223.79 109.08 221.124 109.08C217.47 109.08 214.617 110.36 212.564 112.92C210.51 115.453 209.484 118.72 209.484 122.72C209.484 126.773 210.497 130.053 212.524 132.56C214.577 135.04 217.404 136.28 221.004 136.28C223.964 136.28 226.337 135.387 228.124 133.6C229.91 131.787 230.964 129.507 231.284 126.76H232.444C232.204 129.64 231.19 132.053 229.404 134C227.324 136.293 224.524 137.44 221.004 137.44C217.11 137.44 213.99 136.093 211.644 133.4C209.324 130.707 208.164 127.147 208.164 122.72C208.164 118.347 209.337 114.8 211.684 112.08C214.03 109.333 217.177 107.96 221.124 107.96C224.11 107.96 226.55 108.747 228.444 110.32C230.364 111.893 231.55 113.933 232.004 116.44ZM237.516 109.52V121.64H253.676V122.76H237.516V135.84H255.476V137H236.276V108.4H255.076V109.52H237.516ZM275.8 137H274.52V109.56H264.32V108.4H286V109.56H275.8V137ZM289.401 137V108.4H290.641V121.24H309.001V108.4H310.241V137H309.001V122.32H290.641V137H289.401ZM335.375 137L331.615 127.24H318.255L314.495 137H313.175L324.215 108.4H325.655L336.695 137H335.375ZM324.935 109.92L318.655 126.16H331.175L324.975 109.92H324.935ZM346.073 137H344.793V109.56H334.593V108.4H356.273V109.56H346.073V137ZM386.557 137L385.917 133.96H385.837C384.13 136.44 381.397 137.68 377.637 137.68C373.717 137.68 370.57 136.413 368.197 133.88C365.557 131.08 364.237 127.387 364.237 122.8C364.237 118.48 365.517 114.92 368.077 112.12C370.663 109.293 374.117 107.88 378.437 107.88C382.143 107.88 385.143 108.787 387.437 110.6C389.73 112.413 391.103 114.92 391.557 118.12H383.477C383.237 117.16 382.69 116.36 381.837 115.72C381.01 115.08 379.983 114.76 378.757 114.76C376.81 114.76 375.317 115.493 374.277 116.96C373.237 118.427 372.717 120.373 372.717 122.8C372.717 125.2 373.277 127.16 374.397 128.68C375.543 130.2 377.103 130.96 379.077 130.96C381.797 130.96 383.477 129.773 384.117 127.4H380.317V121.48H392.117V137H386.557ZM418.886 133.52C416.219 136.293 412.699 137.68 408.326 137.68C403.953 137.68 400.446 136.293 397.806 133.52C395.166 130.72 393.846 127.147 393.846 122.8C393.846 118.453 395.166 114.88 397.806 112.08C400.446 109.28 403.953 107.88 408.326 107.88C412.699 107.88 416.219 109.28 418.886 112.08C421.553 114.88 422.886 118.453 422.886 122.8C422.886 127.147 421.553 130.72 418.886 133.52ZM403.886 128.72C404.926 130.24 406.419 131 408.366 131C410.313 131 411.806 130.24 412.846 128.72C413.886 127.2 414.406 125.227 414.406 122.8C414.406 120.373 413.886 118.4 412.846 116.88C411.806 115.333 410.313 114.56 408.366 114.56C406.419 114.56 404.926 115.333 403.886 116.88C402.846 118.4 402.326 120.373 402.326 122.8C402.326 125.227 402.846 127.2 403.886 128.72ZM425.2 137V108.4H447.48V115.2H433.56V119.08H445.2V125.36H433.56V129.84H447.88V137H425.2ZM462.389 137.68C458.496 137.68 455.336 136.84 452.909 135.16C450.483 133.48 449.243 131.053 449.189 127.88H457.749C458.016 130.12 459.616 131.24 462.549 131.24C463.509 131.24 464.349 131.053 465.069 130.68C465.816 130.28 466.189 129.68 466.189 128.88C466.189 128 465.563 127.32 464.309 126.84C463.749 126.627 462.563 126.293 460.749 125.84C459.523 125.547 458.523 125.28 457.749 125.04C456.976 124.8 456.056 124.44 454.989 123.96C453.923 123.453 453.069 122.92 452.429 122.36C451.816 121.773 451.283 121.013 450.829 120.08C450.376 119.147 450.149 118.093 450.149 116.92C450.149 113.827 451.243 111.547 453.429 110.08C455.616 108.613 458.456 107.88 461.949 107.88C464.029 107.88 465.896 108.16 467.549 108.72C469.203 109.28 470.589 110.24 471.709 111.6C472.829 112.933 473.403 114.6 473.429 116.6H465.149C464.883 114.893 463.669 114.04 461.509 114.04C460.603 114.04 459.856 114.227 459.269 114.6C458.683 114.973 458.389 115.453 458.389 116.04C458.389 116.227 458.416 116.4 458.469 116.56C458.523 116.693 458.616 116.827 458.749 116.96C458.883 117.093 459.016 117.213 459.149 117.32C459.309 117.427 459.523 117.533 459.789 117.64C460.056 117.72 460.296 117.8 460.509 117.88C460.749 117.96 461.069 118.053 461.469 118.16C461.869 118.24 462.216 118.32 462.509 118.4C462.829 118.48 463.243 118.573 463.749 118.68C464.256 118.787 464.709 118.893 465.109 119C466.496 119.347 467.683 119.72 468.669 120.12C469.656 120.493 470.643 121.027 471.629 121.72C472.643 122.387 473.403 123.267 473.909 124.36C474.443 125.427 474.709 126.68 474.709 128.12C474.709 131.133 473.536 133.48 471.189 135.16C468.869 136.84 465.936 137.68 462.389 137.68ZM482.974 137V108.4H497.774C500.441 108.4 502.574 109.013 504.174 110.24C505.987 111.627 506.894 113.507 506.894 115.88C506.894 118.493 505.707 120.32 503.334 121.36V121.48C504.881 121.987 506.081 122.853 506.934 124.08C507.814 125.307 508.254 126.733 508.254 128.36C508.254 131.373 507.161 133.653 504.974 135.2C503.241 136.4 500.934 137 498.054 137H482.974ZM491.174 130.44H497.134C498.041 130.44 498.774 130.187 499.334 129.68C499.894 129.173 500.174 128.493 500.174 127.64C500.174 126.76 499.881 126.08 499.294 125.6C498.734 125.12 498.001 124.88 497.094 124.88H491.174V130.44ZM491.174 119.52H496.374C497.201 119.52 497.854 119.333 498.334 118.96C498.814 118.56 499.054 117.987 499.054 117.24C499.054 116.52 498.801 115.947 498.294 115.52C497.787 115.093 497.134 114.88 496.334 114.88H491.174V119.52ZM510.357 137V108.4H532.637V115.2H518.717V119.08H530.357V125.36H518.717V129.84H533.037V137H510.357ZM543.825 137V126.96L534.025 108.4H543.105L546.145 114.76C546.465 115.4 546.785 116.107 547.105 116.88C547.425 117.653 547.665 118.253 547.825 118.68L548.065 119.36H548.145C548.759 117.733 549.412 116.2 550.105 114.76L553.145 108.4H562.025L552.185 126.96V137H543.825ZM584.98 133.52C582.313 136.293 578.793 137.68 574.42 137.68C570.047 137.68 566.54 136.293 563.9 133.52C561.26 130.72 559.94 127.147 559.94 122.8C559.94 118.453 561.26 114.88 563.9 112.08C566.54 109.28 570.047 107.88 574.42 107.88C578.793 107.88 582.313 109.28 584.98 112.08C587.647 114.88 588.98 118.453 588.98 122.8C588.98 127.147 587.647 130.72 584.98 133.52ZM569.98 128.72C571.02 130.24 572.513 131 574.46 131C576.407 131 577.9 130.24 578.94 128.72C579.98 127.2 580.5 125.227 580.5 122.8C580.5 120.373 579.98 118.4 578.94 116.88C577.9 115.333 576.407 114.56 574.46 114.56C572.513 114.56 571.02 115.333 569.98 116.88C568.94 118.4 568.42 120.373 568.42 122.8C568.42 125.227 568.94 127.2 569.98 128.72ZM591.294 137V108.4H599.654L609.014 124.48H609.094V108.4H617.174V137H608.534L599.454 120.8H599.374V137H591.294ZM620.63 137V108.4H633.83C638.017 108.4 641.39 109.68 643.95 112.24C646.51 114.773 647.79 118.28 647.79 122.76C647.79 127.293 646.523 130.8 643.99 133.28C641.457 135.76 637.95 137 633.47 137H620.63ZM628.99 130.08H632.79C634.763 130.08 636.337 129.453 637.51 128.2C638.71 126.92 639.31 125.107 639.31 122.76C639.31 120.413 638.723 118.587 637.55 117.28C636.403 115.973 634.817 115.32 632.79 115.32H628.99V130.08ZM654.219 137L664.779 108.4H673.299L683.899 137H675.019L673.619 132.8H663.939L662.539 137H654.219ZM667.699 121.44L665.819 127.04H671.739L669.939 121.44L668.859 117.76H668.779C668.379 119.28 668.019 120.507 667.699 121.44ZM685.474 137V108.4H707.754V115.2H693.834V119.08H705.474V125.36H693.834V129.84H708.154V137H685.474ZM722.663 137.68C718.769 137.68 715.609 136.84 713.183 135.16C710.756 133.48 709.516 131.053 709.463 127.88H718.023C718.289 130.12 719.889 131.24 722.823 131.24C723.783 131.24 724.623 131.053 725.343 130.68C726.089 130.28 726.463 129.68 726.463 128.88C726.463 128 725.836 127.32 724.583 126.84C724.023 126.627 722.836 126.293 721.023 125.84C719.796 125.547 718.796 125.28 718.023 125.04C717.249 124.8 716.329 124.44 715.263 123.96C714.196 123.453 713.343 122.92 712.703 122.36C712.089 121.773 711.556 121.013 711.103 120.08C710.649 119.147 710.423 118.093 710.423 116.92C710.423 113.827 711.516 111.547 713.703 110.08C715.889 108.613 718.729 107.88 722.223 107.88C724.303 107.88 726.169 108.16 727.823 108.72C729.476 109.28 730.863 110.24 731.983 111.6C733.103 112.933 733.676 114.6 733.703 116.6H725.423C725.156 114.893 723.943 114.04 721.783 114.04C720.876 114.04 720.129 114.227 719.543 114.6C718.956 114.973 718.663 115.453 718.663 116.04C718.663 116.227 718.689 116.4 718.743 116.56C718.796 116.693 718.889 116.827 719.023 116.96C719.156 117.093 719.289 117.213 719.423 117.32C719.583 117.427 719.796 117.533 720.063 117.64C720.329 117.72 720.569 117.8 720.783 117.88C721.023 117.96 721.343 118.053 721.743 118.16C722.143 118.24 722.489 118.32 722.783 118.4C723.103 118.48 723.516 118.573 724.023 118.68C724.529 118.787 724.983 118.893 725.383 119C726.769 119.347 727.956 119.72 728.943 120.12C729.929 120.493 730.916 121.027 731.903 121.72C732.916 122.387 733.676 123.267 734.183 124.36C734.716 125.427 734.983 126.68 734.983 128.12C734.983 131.133 733.809 133.48 731.463 135.16C729.143 136.84 726.209 137.68 722.663 137.68ZM735.37 115.52V108.4H760.01V115.52H751.81V137H743.45V115.52H735.37ZM762.349 137V108.4H770.709V118.88H779.509V108.4H787.869V137H779.509V125.8H770.709V137H762.349ZM791.294 137V108.4H813.574V115.2H799.654V119.08H811.294V125.36H799.654V129.84H813.974V137H791.294ZM815.643 115.52V108.4H840.283V115.52H832.083V137H823.723V115.52H815.643ZM842.622 137V108.4H850.982V137H842.622ZM867.779 137.68C863.459 137.68 859.966 136.28 857.299 133.48C854.633 130.68 853.299 127.12 853.299 122.8C853.299 118.48 854.646 114.92 857.339 112.12C860.033 109.293 863.513 107.88 867.779 107.88C870.953 107.88 873.619 108.627 875.779 110.12C878.766 112.173 880.446 115.133 880.819 119H872.459C872.353 117.827 871.846 116.827 870.939 116C870.059 115.173 868.966 114.76 867.659 114.76C865.739 114.76 864.273 115.493 863.259 116.96C862.273 118.427 861.779 120.373 861.779 122.8C861.779 125.173 862.313 127.107 863.379 128.6C864.446 130.093 865.899 130.84 867.739 130.84C869.153 130.84 870.299 130.427 871.179 129.6C872.059 128.773 872.566 127.693 872.699 126.36H881.139C880.899 129.48 879.659 132.12 877.419 134.28C875.073 136.547 871.859 137.68 867.779 137.68ZM894.889 137.68C890.996 137.68 887.836 136.84 885.409 135.16C882.983 133.48 881.743 131.053 881.689 127.88H890.249C890.516 130.12 892.116 131.24 895.049 131.24C896.009 131.24 896.849 131.053 897.569 130.68C898.316 130.28 898.689 129.68 898.689 128.88C898.689 128 898.063 127.32 896.809 126.84C896.249 126.627 895.063 126.293 893.249 125.84C892.023 125.547 891.023 125.28 890.249 125.04C889.476 124.8 888.556 124.44 887.489 123.96C886.423 123.453 885.569 122.92 884.929 122.36C884.316 121.773 883.783 121.013 883.329 120.08C882.876 119.147 882.649 118.093 882.649 116.92C882.649 113.827 883.743 111.547 885.929 110.08C888.116 108.613 890.956 107.88 894.449 107.88C896.529 107.88 898.396 108.16 900.049 108.72C901.703 109.28 903.089 110.24 904.209 111.6C905.329 112.933 905.903 114.6 905.929 116.6H897.649C897.383 114.893 896.169 114.04 894.009 114.04C893.103 114.04 892.356 114.227 891.769 114.6C891.183 114.973 890.889 115.453 890.889 116.04C890.889 116.227 890.916 116.4 890.969 116.56C891.023 116.693 891.116 116.827 891.249 116.96C891.383 117.093 891.516 117.213 891.649 117.32C891.809 117.427 892.023 117.533 892.289 117.64C892.556 117.72 892.796 117.8 893.009 117.88C893.249 117.96 893.569 118.053 893.969 118.16C894.369 118.24 894.716 118.32 895.009 118.4C895.329 118.48 895.743 118.573 896.249 118.68C896.756 118.787 897.209 118.893 897.609 119C898.996 119.347 900.183 119.72 901.169 120.12C902.156 120.493 903.143 121.027 904.129 121.72C905.143 122.387 905.903 123.267 906.409 124.36C906.943 125.427 907.209 126.68 907.209 128.12C907.209 131.133 906.036 133.48 903.689 135.16C901.369 136.84 898.436 137.68 894.889 137.68ZM915.434 130.08V123.56H935.554V130.08H915.434ZM54.3361 185L64.8961 156.4H73.4161L84.0161 185H75.1361L73.7361 180.8H64.0561L62.6561 185H54.3361ZM67.8161 169.44L65.9361 175.04H71.8561L70.0561 169.44L68.9761 165.76H68.8961C68.4961 167.28 68.1361 168.507 67.8161 169.44ZM100.808 185.52C97.2343 185.52 94.5677 184.587 92.8077 182.72C91.0477 180.853 90.1677 178.48 90.1677 175.6V173.4H97.8877V175.68C97.8877 177.6 98.741 178.56 100.448 178.56C102.101 178.56 102.928 177.627 102.928 175.76V156.4H111.288V176.04C111.288 178.653 110.634 180.733 109.328 182.28C107.461 184.44 104.621 185.52 100.808 185.52ZM138.456 181.52C135.79 184.293 132.27 185.68 127.896 185.68C123.523 185.68 120.016 184.293 117.376 181.52C114.736 178.72 113.416 175.147 113.416 170.8C113.416 166.453 114.736 162.88 117.376 160.08C120.016 157.28 123.523 155.88 127.896 155.88C132.27 155.88 135.79 157.28 138.456 160.08C141.123 162.88 142.456 166.453 142.456 170.8C142.456 175.147 141.123 178.72 138.456 181.52ZM123.456 176.72C124.496 178.24 125.99 179 127.936 179C129.883 179 131.376 178.24 132.416 176.72C133.456 175.2 133.976 173.227 133.976 170.8C133.976 168.373 133.456 166.4 132.416 164.88C131.376 163.333 129.883 162.56 127.936 162.56C125.99 162.56 124.496 163.333 123.456 164.88C122.416 166.4 121.896 168.373 121.896 170.8C121.896 173.227 122.416 175.2 123.456 176.72ZM157.331 185.52C153.117 185.52 149.931 184.533 147.771 182.56C145.637 180.56 144.571 177.733 144.571 174.08V156.4H152.931V174.56C152.931 175.92 153.304 176.973 154.051 177.72C154.824 178.467 155.957 178.84 157.451 178.84C158.837 178.84 159.891 178.44 160.611 177.64C161.357 176.813 161.731 175.733 161.731 174.4V156.4H170.091V174.08C170.091 177.68 169.011 180.493 166.851 182.52C164.691 184.52 161.517 185.52 157.331 185.52ZM173.325 185V156.4H187.525C190.645 156.4 193.219 157.133 195.245 158.6C197.299 160.04 198.325 162.147 198.325 164.92C198.325 168.147 196.765 170.467 193.645 171.88V172C195.805 172.827 197.139 174.4 197.645 176.72C197.859 177.627 197.992 178.76 198.045 180.12C198.099 181.453 198.165 182.507 198.245 183.28C198.325 184.053 198.512 184.48 198.805 184.56V185H190.565C190.325 184.84 190.165 184.413 190.085 183.72C190.005 183 189.925 182.093 189.845 181C189.765 179.907 189.645 179.027 189.485 178.36C189.219 177.213 188.792 176.373 188.205 175.84C187.619 175.307 186.739 175.04 185.565 175.04H181.685V185H173.325ZM181.685 162.96V169.08H186.165C188.645 169.08 189.885 168.067 189.885 166.04C189.885 165.08 189.579 164.333 188.965 163.8C188.352 163.24 187.459 162.96 186.285 162.96H181.685ZM200.982 185V156.4H209.342L218.702 172.48H218.782V156.4H226.862V185H218.222L209.142 168.8H209.062V185H200.982ZM230.318 185V156.4H252.598V163.2H238.678V167.08H250.318V173.36H238.678V177.84H252.998V185H230.318ZM263.786 185V174.96L253.986 156.4H263.066L266.106 162.76C266.426 163.4 266.746 164.107 267.066 164.88C267.386 165.653 267.626 166.253 267.786 166.68L268.026 167.36H268.106C268.72 165.733 269.373 164.2 270.066 162.76L273.106 156.4H281.986L272.146 174.96V185H263.786ZM288.495 163.52V156.4H313.135V163.52H304.935V185H296.575V163.52H288.495ZM315.474 185V156.4H323.834V166.88H332.634V156.4H340.994V185H332.634V173.8H323.834V185H315.474ZM342.539 185L353.099 156.4H361.619L372.219 185H363.339L361.939 180.8H352.259L350.859 185H342.539ZM356.019 169.44L354.139 175.04H360.059L358.259 169.44L357.179 165.76H357.099C356.699 167.28 356.339 168.507 356.019 169.44ZM369.08 163.52V156.4H393.72V163.52H385.52V185H377.16V163.52H369.08ZM426.222 164.44H424.942C424.569 162.333 423.542 160.587 421.862 159.2C420.182 157.787 418.009 157.08 415.342 157.08C411.689 157.08 408.836 158.36 406.782 160.92C404.729 163.453 403.702 166.72 403.702 170.72C403.702 174.773 404.716 178.053 406.742 180.56C408.796 183.04 411.622 184.28 415.222 184.28C418.182 184.28 420.556 183.387 422.342 181.6C424.129 179.787 425.182 177.507 425.502 174.76H426.662C426.422 177.64 425.409 180.053 423.622 182C421.542 184.293 418.742 185.44 415.222 185.44C411.329 185.44 408.209 184.093 405.862 181.4C403.542 178.707 402.382 175.147 402.382 170.72C402.382 166.347 403.556 162.8 405.902 160.08C408.249 157.333 411.396 155.96 415.342 155.96C418.329 155.96 420.769 156.747 422.662 158.32C424.582 159.893 425.769 161.933 426.222 164.44ZM430.095 156.4H431.375V175.68C431.375 181.413 434.375 184.28 440.375 184.28C443.121 184.28 445.308 183.587 446.935 182.2C448.561 180.813 449.375 178.64 449.375 175.68V156.4H450.655V175.76C450.655 179.013 449.708 181.44 447.815 183.04C445.948 184.613 443.455 185.4 440.335 185.4C437.188 185.4 434.695 184.613 432.855 183.04C431.015 181.44 430.095 179.013 430.095 175.76V156.4ZM456.695 156.4V183.84H473.135V185H455.455V156.4H456.695ZM489.306 185L477.906 158.32H477.866V185H476.666V156.4H478.466L489.946 183.36H489.986L501.306 156.4H503.186V185H501.946V158.32H501.906L490.586 185H489.306ZM509.745 156.4V185H508.505V156.4H509.745ZM536.265 156.4V185H534.945L516.305 158.48H516.265V185H515.065V156.4H516.465L535.025 182.92H535.065V156.4H536.265ZM561.391 185L557.631 175.24H544.271L540.511 185H539.191L550.231 156.4H551.671L562.711 185H561.391ZM550.951 157.92L544.671 174.16H557.191L550.991 157.92H550.951ZM572.089 185H570.809V157.56H560.609V156.4H582.289V157.56H572.089V185ZM586.93 157.52V169.64H603.09V170.76H586.93V183.84H604.89V185H585.69V156.4H604.49V157.52H586.93ZM606.86 175.92H608.18C608.314 178.507 609.234 180.547 610.94 182.04C612.674 183.533 615.074 184.28 618.14 184.28C620.754 184.28 622.834 183.667 624.38 182.44C625.927 181.213 626.7 179.56 626.7 177.48C626.7 175.347 625.994 173.8 624.58 172.84C623.167 171.88 620.7 171.08 617.18 170.44C614.034 169.853 611.714 169.027 610.22 167.96C608.754 166.867 608.02 165.24 608.02 163.08C608.02 160.92 608.86 159.2 610.54 157.92C612.247 156.613 614.487 155.96 617.26 155.96C620.114 155.96 622.367 156.68 624.02 158.12C625.7 159.56 626.7 161.52 627.02 164H625.74C625.474 161.813 624.594 160.12 623.1 158.92C621.607 157.72 619.674 157.12 617.3 157.12C614.82 157.12 612.86 157.667 611.42 158.76C610.007 159.827 609.3 161.253 609.3 163.04C609.3 164.853 609.954 166.213 611.26 167.12C612.567 168.027 614.74 168.76 617.78 169.32C619.487 169.64 620.9 169.973 622.02 170.32C623.14 170.667 624.18 171.147 625.14 171.76C626.127 172.347 626.847 173.107 627.3 174.04C627.754 174.973 627.98 176.093 627.98 177.4C627.98 179.8 627.1 181.747 625.34 183.24C623.58 184.707 621.194 185.44 618.18 185.44C614.634 185.44 611.9 184.573 609.98 182.84C608.087 181.08 607.047 178.773 606.86 175.92ZM639.901 156.4V185H638.661V156.4H639.901ZM666.421 156.4V185H665.101L646.461 158.48H646.421V185H645.221V156.4H646.621L665.181 182.92H665.221V156.4H666.421ZM698.11 185L694.35 175.24H680.99L677.23 185H675.91L686.95 156.4H688.39L699.43 185H698.11ZM687.67 157.92L681.39 174.16H693.91L687.71 157.92H687.67ZM707.173 175.92H708.493C708.626 178.507 709.546 180.547 711.253 182.04C712.986 183.533 715.386 184.28 718.453 184.28C721.066 184.28 723.146 183.667 724.693 182.44C726.24 181.213 727.013 179.56 727.013 177.48C727.013 175.347 726.306 173.8 724.893 172.84C723.48 171.88 721.013 171.08 717.493 170.44C714.346 169.853 712.026 169.027 710.533 167.96C709.066 166.867 708.333 165.24 708.333 163.08C708.333 160.92 709.173 159.2 710.853 157.92C712.56 156.613 714.8 155.96 717.573 155.96C720.426 155.96 722.68 156.68 724.333 158.12C726.013 159.56 727.013 161.52 727.333 164H726.053C725.786 161.813 724.906 160.12 723.413 158.92C721.92 157.72 719.986 157.12 717.613 157.12C715.133 157.12 713.173 157.667 711.733 158.76C710.32 159.827 709.613 161.253 709.613 163.04C709.613 164.853 710.266 166.213 711.573 167.12C712.88 168.027 715.053 168.76 718.093 169.32C719.8 169.64 721.213 169.973 722.333 170.32C723.453 170.667 724.493 171.147 725.453 171.76C726.44 172.347 727.16 173.107 727.613 174.04C728.066 174.973 728.293 176.093 728.293 177.4C728.293 179.8 727.413 181.747 725.653 183.24C723.893 184.707 721.506 185.44 718.493 185.44C714.946 185.44 712.213 184.573 710.293 182.84C708.4 181.08 707.36 178.773 707.173 175.92ZM742.451 171.92H733.531V185H732.291V156.4H742.731C745.185 156.4 747.131 156.96 748.571 158.08C750.491 159.387 751.451 161.4 751.451 164.12C751.451 169.32 748.451 171.92 742.451 171.92ZM733.531 157.56V170.8H742.371C747.571 170.8 750.171 168.573 750.171 164.12C750.171 162.04 749.505 160.427 748.171 159.28C746.865 158.133 745.025 157.56 742.651 157.56H733.531ZM772.094 185L768.334 175.24H754.974L751.214 185H749.894L760.934 156.4H762.374L773.414 185H772.094ZM761.654 157.92L755.374 174.16H767.894L761.694 157.92H761.654ZM797.433 164.44H796.153C795.78 162.333 794.753 160.587 793.073 159.2C791.393 157.787 789.22 157.08 786.553 157.08C782.9 157.08 780.047 158.36 777.993 160.92C775.94 163.453 774.913 166.72 774.913 170.72C774.913 174.773 775.927 178.053 777.953 180.56C780.007 183.04 782.833 184.28 786.433 184.28C789.393 184.28 791.767 183.387 793.553 181.6C795.34 179.787 796.393 177.507 796.713 174.76H797.873C797.633 177.64 796.62 180.053 794.833 182C792.753 184.293 789.953 185.44 786.433 185.44C782.54 185.44 779.42 184.093 777.073 181.4C774.753 178.707 773.593 175.147 773.593 170.72C773.593 166.347 774.767 162.8 777.113 160.08C779.46 157.333 782.607 155.96 786.553 155.96C789.54 155.96 791.98 156.747 793.873 158.32C795.793 159.893 796.98 161.933 797.433 164.44ZM802.945 157.52V169.64H819.105V170.76H802.945V183.84H820.905V185H801.705V156.4H820.505V157.52H802.945ZM841.229 185H839.949V157.56H829.749V156.4H851.429V157.56H841.229V185ZM854.83 185V156.4H856.07V169.24H874.43V156.4H875.67V185H874.43V170.32H856.07V185H854.83ZM900.805 185L897.045 175.24H883.685L879.925 185H878.605L889.645 156.4H891.085L902.125 185H900.805ZM890.365 157.92L884.085 174.16H896.605L890.405 157.92H890.365ZM911.503 185H910.223V157.56H900.023V156.4H921.703V157.56H911.503V185ZM263.69 233H262.41V205.56H252.21V204.4H273.89V205.56H263.69V233ZM278.531 219.68V233H277.291V204.4H288.731C291.398 204.4 293.465 205.067 294.931 206.4C296.398 207.707 297.131 209.573 297.131 212C297.131 215.867 295.345 218.213 291.771 219.04V219.08C293.371 219.453 294.531 220.227 295.251 221.4C295.998 222.573 296.411 224.227 296.491 226.36C296.598 230.173 296.985 232.347 297.651 232.88V233H296.291C295.678 232.573 295.318 230.36 295.211 226.36C295.131 223.987 294.598 222.28 293.611 221.24C292.625 220.2 290.998 219.68 288.731 219.68H278.531ZM278.531 205.52V218.52H288.291C293.331 218.52 295.851 216.36 295.851 212.04C295.851 209.96 295.225 208.36 293.971 207.24C292.745 206.093 290.958 205.52 288.611 205.52H278.531ZM301.11 204.4H302.39V223.68C302.39 229.413 305.39 232.28 311.39 232.28C314.137 232.28 316.323 231.587 317.95 230.2C319.577 228.813 320.39 226.64 320.39 223.68V204.4H321.67V223.76C321.67 227.013 320.723 229.44 318.83 231.04C316.963 232.613 314.47 233.4 311.35 233.4C308.203 233.4 305.71 232.613 303.87 231.04C302.03 229.44 301.11 227.013 301.11 223.76V204.4ZM327.711 204.4V231.84H344.151V233H326.471V204.4H327.711ZM342.818 204.4L352.578 219H352.618L362.418 204.4H363.818L353.218 220.2V233H351.978V220.16L341.418 204.4H342.818ZM372.427 233V204.4H394.467V211.44H380.787V216.12H392.107V222.6H380.787V233H372.427ZM396.841 233V204.4H419.121V211.2H405.201V215.08H416.841V221.36H405.201V225.84H419.521V233H396.841ZM422.31 233V204.4H444.59V211.2H430.67V215.08H442.31V221.36H430.67V225.84H444.99V233H422.31ZM447.779 233V204.4H456.139V225.84H468.379V233H447.779ZM482.311 233.68C478.418 233.68 475.258 232.84 472.831 231.16C470.404 229.48 469.164 227.053 469.111 223.88H477.671C477.938 226.12 479.538 227.24 482.471 227.24C483.431 227.24 484.271 227.053 484.991 226.68C485.738 226.28 486.111 225.68 486.111 224.88C486.111 224 485.484 223.32 484.231 222.84C483.671 222.627 482.484 222.293 480.671 221.84C479.444 221.547 478.444 221.28 477.671 221.04C476.898 220.8 475.978 220.44 474.911 219.96C473.844 219.453 472.991 218.92 472.351 218.36C471.738 217.773 471.204 217.013 470.751 216.08C470.298 215.147 470.071 214.093 470.071 212.92C470.071 209.827 471.164 207.547 473.351 206.08C475.538 204.613 478.378 203.88 481.871 203.88C483.951 203.88 485.818 204.16 487.471 204.72C489.124 205.28 490.511 206.24 491.631 207.6C492.751 208.933 493.324 210.6 493.351 212.6H485.071C484.804 210.893 483.591 210.04 481.431 210.04C480.524 210.04 479.778 210.227 479.191 210.6C478.604 210.973 478.311 211.453 478.311 212.04C478.311 212.227 478.338 212.4 478.391 212.56C478.444 212.693 478.538 212.827 478.671 212.96C478.804 213.093 478.938 213.213 479.071 213.32C479.231 213.427 479.444 213.533 479.711 213.64C479.978 213.72 480.218 213.8 480.431 213.88C480.671 213.96 480.991 214.053 481.391 214.16C481.791 214.24 482.138 214.32 482.431 214.4C482.751 214.48 483.164 214.573 483.671 214.68C484.178 214.787 484.631 214.893 485.031 215C486.418 215.347 487.604 215.72 488.591 216.12C489.578 216.493 490.564 217.027 491.551 217.72C492.564 218.387 493.324 219.267 493.831 220.36C494.364 221.427 494.631 222.68 494.631 224.12C494.631 227.133 493.458 229.48 491.111 231.16C488.791 232.84 485.858 233.68 482.311 233.68ZM502.896 233V204.4H511.256V225.84H523.496V233H502.896ZM525.708 233V204.4H534.068V233H525.708ZM537.505 233V204.4H545.865V213.76L554.505 204.4H564.105L553.425 215.92L564.705 233H554.985L547.705 221.68L545.865 223.76V233H537.505ZM566.255 233V204.4H588.535V211.2H574.615V215.08H586.255V221.36H574.615V225.84H588.935V233H566.255ZM597.7 233V204.4H606.06V214.88H614.86V204.4H623.22V233H614.86V221.8H606.06V233H597.7ZM650.566 229.52C647.899 232.293 644.379 233.68 640.006 233.68C635.632 233.68 632.126 232.293 629.486 229.52C626.846 226.72 625.526 223.147 625.526 218.8C625.526 214.453 626.846 210.88 629.486 208.08C632.126 205.28 635.632 203.88 640.006 203.88C644.379 203.88 647.899 205.28 650.566 208.08C653.232 210.88 654.566 214.453 654.566 218.8C654.566 223.147 653.232 226.72 650.566 229.52ZM635.566 224.72C636.606 226.24 638.099 227 640.046 227C641.992 227 643.486 226.24 644.526 224.72C645.566 223.2 646.086 221.227 646.086 218.8C646.086 216.373 645.566 214.4 644.526 212.88C643.486 211.333 641.992 210.56 640.046 210.56C638.099 210.56 636.606 211.333 635.566 212.88C634.526 214.4 634.006 216.373 634.006 218.8C634.006 221.227 634.526 223.2 635.566 224.72ZM656.88 233V204.4H667.76L672.16 220.4H672.24L676.64 204.4H687.6V233H680.04V215.08H679.96L675.2 233H669.08L664.32 215.08H664.24V233H656.88ZM691.021 233V204.4H713.301V211.2H699.381V215.08H711.021V221.36H699.381V225.84H713.701V233H691.021ZM716.671 233V225.36H724.471V233H716.671Z" fill="black"/>
<line x1="398.5" y1="283.5" x2="578.5" y2="283.5" stroke="black"/>
<path d="M32.6398 13.2236C34.6024 13.2236 36.1811 13.821 37.3758 15.0156C38.5704 16.2103 39.1678 17.789 39.1678 19.7516C39.1678 21.5436 38.4851 23.1223 37.1198 24.4876C35.8398 25.7676 34.2184 26.4076 32.2558 26.4076C30.2078 26.4076 28.4158 25.5969 26.8798 23.9756C25.4291 22.269 24.7038 20.1783 24.7038 17.7036C24.7038 13.0103 25.9411 9.21295 28.4158 6.31161C30.8904 3.32495 33.7064 1.49028 36.8638 0.807617L37.1198 1.70361C34.3038 2.30095 31.7438 3.96495 29.4398 6.69562C27.2211 9.34095 26.1118 12.4556 26.1118 16.0396C26.1118 16.4663 26.1544 16.893 26.2398 17.3196C27.4344 14.589 29.5678 13.2236 32.6398 13.2236ZM13.6958 13.2236C15.6584 13.2236 17.2371 13.821 18.4318 15.0156C19.6264 16.2103 20.2238 17.789 20.2238 19.7516C20.2238 21.5436 19.5411 23.1223 18.1758 24.4876C16.8958 25.7676 15.2744 26.4076 13.3118 26.4076C11.2638 26.4076 9.47177 25.5969 7.93577 23.9756C6.4851 22.269 5.75977 20.1783 5.75977 17.7036C5.75977 13.0103 6.9971 9.21295 9.47177 6.31161C11.9464 3.32495 14.7624 1.49028 17.9198 0.807617L18.1758 1.70361C15.3598 2.30095 12.7998 3.96495 10.4958 6.69562C8.2771 9.34095 7.16777 12.4556 7.16777 16.0396C7.16777 16.4663 7.21043 16.893 7.29577 17.3196C8.49043 14.589 10.6238 13.2236 13.6958 13.2236Z" fill="black"/>
<path d="M964.64 240.224C966.602 240.224 968.181 240.821 969.376 242.016C970.57 243.21 971.168 244.789 971.168 246.752C971.168 248.544 970.485 250.122 969.12 251.488C967.84 252.768 966.218 253.408 964.256 253.408C962.208 253.408 960.416 252.597 958.88 250.976C957.429 249.269 956.704 247.178 956.704 244.704C956.704 240.01 957.941 236.213 960.416 233.312C962.89 230.325 965.706 228.49 968.864 227.808L969.12 228.704C966.304 229.301 963.744 230.965 961.44 233.696C959.221 236.341 958.112 239.456 958.112 243.04C958.112 243.466 958.154 243.893 958.24 244.32C959.434 241.589 961.568 240.224 964.64 240.224ZM945.696 240.224C947.658 240.224 949.237 240.821 950.432 242.016C951.626 243.21 952.224 244.789 952.224 246.752C952.224 248.544 951.541 250.122 950.176 251.488C948.896 252.768 947.274 253.408 945.312 253.408C943.264 253.408 941.472 252.597 939.936 250.976C938.485 249.269 937.76 247.178 937.76 244.704C937.76 240.01 938.997 236.213 941.472 233.312C943.946 230.325 946.762 228.49 949.92 227.808L950.176 228.704C947.36 229.301 944.8 230.965 942.496 233.696C940.277 236.341 939.168 239.456 939.168 243.04C939.168 243.466 939.21 243.893 939.296 244.32C940.49 241.589 942.624 240.224 945.696 240.224Z" fill="black"/>
</svg>
