<svg width="345" height="106" viewBox="0 0 345 106" fill="none" xmlns="http://www.w3.org/2000/svg">
<path d="M203.621 93.0002V87.7202L198.781 78.7002H202.641L204.481 82.4002L205.421 84.5802H205.461C205.795 83.7802 206.121 83.0535 206.441 82.4002L208.261 78.7002H212.001L207.161 87.7202V93.0002H203.621Z" fill="black"/>
<path d="M186.832 93.0002V78.7002H193.672C195.139 78.7002 196.339 79.0669 197.272 79.8002C198.205 80.5202 198.672 81.5269 198.672 82.8202C198.672 84.5535 197.845 85.7069 196.192 86.2802V86.3402C197.392 86.7402 198.085 87.6135 198.272 88.9602C198.352 89.4269 198.405 90.0069 198.432 90.7002C198.472 91.3802 198.519 91.8935 198.572 92.2402C198.625 92.5735 198.725 92.7669 198.872 92.8202V93.0002H195.432C195.325 92.9335 195.239 92.7402 195.172 92.4202C195.119 92.1002 195.072 91.6469 195.032 91.0602C194.992 90.4735 194.945 90.0135 194.892 89.6802C194.705 88.3202 193.912 87.6402 192.512 87.6402H190.372V93.0002H186.832ZM190.372 85.0202H193.032C193.725 85.0202 194.252 84.8669 194.612 84.5602C194.972 84.2535 195.152 83.8269 195.152 83.2802C195.152 82.7469 194.979 82.3202 194.632 82.0002C194.285 81.6669 193.779 81.5002 193.112 81.5002H190.372V85.0202Z" fill="black"/>
<path d="M179.021 93.2602C177.047 93.2602 175.554 92.8002 174.54 91.8802C173.527 90.9602 173.021 89.6535 173.021 87.9602V78.7002H176.561V88.0802C176.561 89.6402 177.381 90.4202 179.021 90.4202C179.807 90.4202 180.407 90.2069 180.82 89.7802C181.234 89.3402 181.441 88.7535 181.441 88.0202V78.7002H184.98V87.9602C184.98 89.6402 184.474 90.9469 183.461 91.8802C182.461 92.8002 180.981 93.2602 179.021 93.2602Z" fill="black"/>
<path d="M158.567 93.0002L163.307 85.5002L158.967 78.7002H163.007L165.427 82.8602H165.467L167.927 78.7002H171.767L167.527 85.4602L172.267 93.0002H168.087L165.407 88.1602H165.367L162.587 93.0002H158.567Z" fill="black"/>
<path d="M151.872 93.2602C149.899 93.2602 148.405 92.8002 147.392 91.8802C146.379 90.9602 145.872 89.6535 145.872 87.9602V78.7002H149.412V88.0802C149.412 89.6402 150.232 90.4202 151.872 90.4202C152.659 90.4202 153.259 90.2069 153.672 89.7802C154.085 89.3402 154.292 88.7535 154.292 88.0202V78.7002H157.832V87.9602C157.832 89.6402 157.325 90.9469 156.312 91.8802C155.312 92.8002 153.832 93.2602 151.872 93.2602Z" fill="black"/>
<path d="M134.957 93.0002V78.7002H138.497V90.0002H144.917V93.0002H134.957Z" fill="black"/>
<path d="M319.449 69.0002V54.7002H330.289V57.6202H322.989V60.1802H329.249V62.9402H322.989V66.0002H330.409V69.0002H319.449Z" fill="black"/>
<path d="M308.141 69.0002V54.7002H311.681V66.0002H318.101V69.0002H308.141Z" fill="black"/>
<path d="M294.723 69.0002V54.7002H301.623C303.049 54.7002 304.163 55.0269 304.963 55.6802C305.789 56.3602 306.203 57.2735 306.203 58.4202C306.203 59.7802 305.536 60.7135 304.203 61.2202V61.2802C304.989 61.5202 305.609 61.9535 306.063 62.5802C306.529 63.2069 306.763 63.9402 306.763 64.7802C306.763 66.1669 306.276 67.2335 305.303 67.9802C304.436 68.6602 303.263 69.0002 301.783 69.0002H294.723ZM298.223 66.1602H301.383C301.956 66.1602 302.409 66.0069 302.743 65.7002C303.089 65.3935 303.263 64.9869 303.263 64.4802C303.263 63.9335 303.083 63.5135 302.723 63.2202C302.363 62.9135 301.903 62.7602 301.343 62.7602H298.223V66.1602ZM298.223 60.3602H301.103C301.623 60.3602 302.036 60.2335 302.343 59.9802C302.663 59.7269 302.823 59.3735 302.823 58.9202C302.823 58.4802 302.669 58.1335 302.363 57.8802C302.056 57.6269 301.643 57.5002 301.123 57.5002H298.223V60.3602Z" fill="black"/>
<path d="M279.777 69.0002L284.917 54.7002H288.557L293.717 69.0002H289.997L289.157 66.4202H284.157L283.337 69.0002H279.777ZM284.977 63.8802H288.337L287.257 60.4202L286.697 58.4002H286.657C286.431 59.2535 286.237 59.9269 286.077 60.4202L284.977 63.8802Z" fill="black"/>
<path d="M273.051 69.0002L268.331 54.7002H272.011L274.251 62.2002L274.911 64.7202H274.951C275.191 63.7469 275.411 62.9069 275.611 62.2002L277.831 54.7002H281.411L276.711 69.0002H273.051Z" fill="black"/>
<path d="M263.844 69.0002V54.7002H267.384V69.0002H263.844Z" fill="black"/>
<path d="M252.516 69.0002V54.7002H256.056V66.0002H262.476V69.0002H252.516Z" fill="black"/>
<path d="M235.743 66.0202H237.823C238.97 66.0202 239.843 65.6735 240.443 64.9802C241.043 64.2735 241.343 63.2602 241.343 61.9402C241.343 60.6202 241.036 59.5802 240.423 58.8202C239.81 58.0469 238.956 57.6602 237.863 57.6602H235.743V66.0202ZM232.203 69.0002V54.7002H238.303C240.29 54.7002 241.89 55.3602 243.103 56.6802C244.316 58.0002 244.923 59.7535 244.923 61.9402C244.923 64.5135 244.096 66.4335 242.443 67.7002C241.283 68.5669 239.83 69.0002 238.083 69.0002H232.203Z" fill="black"/>
<path d="M218.004 69.0002V54.7002H221.564L225.804 61.8802L226.784 63.7002H226.824C226.797 62.5535 226.784 61.8135 226.784 61.4802V54.7002H230.244V69.0002H226.684L222.484 61.9202L221.464 60.0002H221.424C221.451 61.2269 221.464 62.0069 221.464 62.3402V69.0002H218.004Z" fill="black"/>
<path d="M203.059 69.0002L208.199 54.7002H211.839L216.999 69.0002H213.279L212.439 66.4202H207.439L206.619 69.0002H203.059ZM208.259 63.8802H211.619L210.539 60.4202L209.979 58.4002H209.939C209.712 59.2535 209.519 59.9269 209.359 60.4202L208.259 63.8802Z" fill="black"/>
<path d="M188.538 64.46H189.198C189.265 65.7533 189.725 66.7733 190.578 67.52C191.445 68.2666 192.645 68.64 194.178 68.64C195.485 68.64 196.525 68.3333 197.298 67.72C198.071 67.1066 198.458 66.28 198.458 65.24C198.458 64.1733 198.105 63.4 197.398 62.92C196.691 62.44 195.458 62.04 193.698 61.72C192.125 61.4266 190.965 61.0133 190.218 60.48C189.485 59.9333 189.118 59.12 189.118 58.04C189.118 56.96 189.538 56.1 190.378 55.46C191.231 54.8066 192.351 54.48 193.738 54.48C195.165 54.48 196.291 54.84 197.118 55.56C197.958 56.28 198.458 57.26 198.618 58.5H197.978C197.845 57.4066 197.405 56.56 196.658 55.96C195.911 55.36 194.945 55.06 193.758 55.06C192.518 55.06 191.538 55.3333 190.818 55.88C190.111 56.4133 189.758 57.1266 189.758 58.02C189.758 58.9266 190.085 59.6066 190.738 60.06C191.391 60.5133 192.478 60.88 193.998 61.16C194.851 61.32 195.558 61.4866 196.118 61.66C196.678 61.8333 197.198 62.0733 197.678 62.38C198.171 62.6733 198.531 63.0533 198.758 63.52C198.985 63.9866 199.098 64.5466 199.098 65.2C199.098 66.4 198.658 67.3733 197.778 68.12C196.898 68.8533 195.705 69.22 194.198 69.22C192.425 69.22 191.058 68.7866 190.098 67.92C189.151 67.04 188.631 65.8866 188.538 64.46Z" fill="black"/>
<path d="M177.908 62.3402V69.0002H177.288V54.7002H183.008C184.341 54.7002 185.375 55.0335 186.108 55.7002C186.841 56.3535 187.208 57.2869 187.208 58.5002C187.208 60.4335 186.315 61.6069 184.528 62.0202V62.0402C185.328 62.2269 185.908 62.6135 186.268 63.2002C186.641 63.7869 186.848 64.6135 186.888 65.6802C186.941 67.5869 187.135 68.6735 187.468 68.9402V69.0002H186.788C186.481 68.7869 186.301 67.6802 186.248 65.6802C186.208 64.4935 185.941 63.6402 185.448 63.1202C184.955 62.6002 184.141 62.3402 183.008 62.3402H177.908ZM177.908 55.2602V61.7602H182.788C185.308 61.7602 186.568 60.6802 186.568 58.5202C186.568 57.4802 186.255 56.6802 185.628 56.1202C185.015 55.5469 184.121 55.2602 182.948 55.2602H177.908Z" fill="black"/>
<path d="M173.38 67.12C172.153 68.5066 170.573 69.2 168.64 69.2C166.707 69.2 165.127 68.5133 163.9 67.14C162.687 65.7533 162.08 63.9933 162.08 61.86C162.08 59.7266 162.687 57.9666 163.9 56.58C165.127 55.18 166.707 54.48 168.64 54.48C170.573 54.48 172.153 55.18 173.38 56.58C174.62 57.9666 175.24 59.7266 175.24 61.86C175.24 63.98 174.62 65.7333 173.38 67.12ZM164.34 66.7C165.42 67.98 166.853 68.62 168.64 68.62C170.427 68.62 171.86 67.9733 172.94 66.68C174.033 65.3866 174.58 63.78 174.58 61.86C174.58 59.9266 174.033 58.3133 172.94 57.02C171.86 55.7133 170.427 55.06 168.64 55.06C166.853 55.06 165.42 55.7066 164.34 57C163.273 58.2933 162.74 59.9133 162.74 61.86C162.74 63.7933 163.273 65.4066 164.34 66.7Z" fill="black"/>
<path d="M159.98 54.7002V69.0002H159.36V54.7002H159.98Z" fill="black"/>
<path d="M147.81 62.3402V69.0002H147.19V54.7002H152.91C154.244 54.7002 155.277 55.0335 156.01 55.7002C156.744 56.3535 157.11 57.2869 157.11 58.5002C157.11 60.4335 156.217 61.6069 154.43 62.0202V62.0402C155.23 62.2269 155.81 62.6135 156.17 63.2002C156.544 63.7869 156.75 64.6135 156.79 65.6802C156.844 67.5869 157.037 68.6735 157.37 68.9402V69.0002H156.69C156.384 68.7869 156.204 67.6802 156.15 65.6802C156.11 64.4935 155.844 63.6402 155.35 63.1202C154.857 62.6002 154.044 62.3402 152.91 62.3402H147.81ZM147.81 55.2602V61.7602H152.69C155.21 61.7602 156.47 60.6802 156.47 58.5202C156.47 57.4802 156.157 56.6802 155.53 56.1202C154.917 55.5469 154.024 55.2602 152.85 55.2602H147.81Z" fill="black"/>
<path d="M136.17 55.2602V61.3202H144.25V61.8802H136.17V68.4202H145.15V69.0002H135.55V54.7002H144.95V55.2602H136.17Z" fill="black"/>
<path d="M128.75 69.0002H128.11V55.2802H123.01V54.7002H133.85V55.2802H128.75V69.0002Z" fill="black"/>
<path d="M121.306 54.7002V69.0002H120.646L111.326 55.7402H111.306V69.0002H110.706V54.7002H111.406L120.686 67.9602H120.706V54.7002H121.306Z" fill="black"/>
<path d="M108.047 54.7002V69.0002H107.427V54.7002H108.047Z" fill="black"/>
<path d="M91.0186 69.0002V54.7002H96.1385C97.4719 54.7002 98.5919 55.0335 99.4986 55.7002C100.405 56.3535 101.052 57.2135 101.439 58.2802C101.839 59.3335 102.039 60.5469 102.039 61.9202C102.039 64.0269 101.525 65.7335 100.499 67.0402C99.4852 68.3469 97.9852 69.0002 95.9986 69.0002H91.0186ZM91.6385 68.4402H95.9786C97.6986 68.4402 99.0252 67.8669 99.9585 66.7202C100.905 65.5602 101.379 63.9602 101.379 61.9202C101.379 59.8535 100.925 58.2335 100.019 57.0602C99.1119 55.8735 97.8119 55.2802 96.1186 55.2802H91.6385V68.4402Z" fill="black"/>
<path d="M88.4154 54.7002V69.0002H87.7554L78.4354 55.7402H78.4154V69.0002H77.8154V54.7002H78.5154L87.7954 67.9602H87.8154V54.7002H88.4154Z" fill="black"/>
<path d="M66.7948 55.2602V61.3202H74.8748V61.8802H66.7948V68.4202H75.7748V69.0002H66.1748V54.7002H75.5748V55.2602H66.7948Z" fill="black"/>
<path d="M59.3838 62.7201V62.1401H64.1838V62.7201H59.3838Z" fill="black"/>
<path d="M46.9365 69.0002V54.7002H47.5565V61.1202H56.7365V54.7002H57.3565V69.0002H56.7365V61.6602H47.5565V69.0002H46.9365Z" fill="black"/>
<path d="M43.9001 62.48H38.9201V61.92H44.5201V69H44.0001L43.9401 65.62H43.9001C43.6334 66.6066 43.0467 67.4533 42.1401 68.16C41.2467 68.8666 40.1067 69.22 38.7201 69.22C36.6267 69.22 34.9934 68.5333 33.8201 67.16C32.6601 65.7866 32.0801 64.0266 32.0801 61.88C32.0801 59.7466 32.6667 57.98 33.8401 56.58C35.0267 55.18 36.6601 54.48 38.7401 54.48C40.2334 54.48 41.4667 54.8666 42.4401 55.64C43.4267 56.4 44.0467 57.4466 44.3001 58.78H43.6801C43.4534 57.6333 42.9001 56.7266 42.0201 56.06C41.1534 55.38 40.0601 55.04 38.7401 55.04C36.8201 55.04 35.3401 55.6933 34.3001 57C33.2601 58.3066 32.7401 59.9333 32.7401 61.88C32.7401 63.8533 33.2534 65.4733 34.2801 66.74C35.3201 68.0066 36.8001 68.64 38.7201 68.64C40.3201 68.64 41.5801 68.1333 42.5001 67.12C43.4334 66.1066 43.9001 64.8 43.9001 63.2V62.48Z" fill="black"/>
<path d="M29.9804 54.7002V69.0002H29.3604V54.7002H29.9804Z" fill="black"/>
<path d="M16.2725 69.0002V54.7002H16.8925V61.1202H26.0725V54.7002H26.6925V69.0002H26.0725V61.6602H16.8925V69.0002H16.2725Z" fill="black"/>
<path d="M287.22 45.0002V30.7002H287.84V37.1202H297.02V30.7002H297.64V45.0002H297.02V37.6602H287.84V45.0002H287.22Z" fill="black"/>
<path d="M280.42 45.0002H279.78V31.2802H274.68V30.7002H285.52V31.2802H280.42V45.0002Z" fill="black"/>
<path d="M272.92 30.7002V45.0002H272.3V30.7002H272.92Z" fill="black"/>
<path d="M261.936 30.7002H262.616L266.276 43.9802H266.296L270.056 30.7002H270.676L266.616 45.0002H265.936L262.276 31.7202H262.256L258.636 45.0002H257.936L253.836 30.7002H254.476L258.276 43.9602H258.296L261.936 30.7002Z" fill="black"/>
<path d="M240.574 31.2602V37.3202H248.654V37.8802H240.574V44.4202H249.554V45.0002H239.954V30.7002H249.354V31.2602H240.574Z" fill="black"/>
<path d="M237.818 34.72H237.178C236.992 33.6666 236.478 32.7933 235.638 32.1C234.798 31.3933 233.712 31.04 232.378 31.04C230.552 31.04 229.125 31.68 228.098 32.96C227.072 34.2266 226.558 35.86 226.558 37.86C226.558 39.8866 227.065 41.5266 228.078 42.78C229.105 44.02 230.518 44.64 232.318 44.64C233.798 44.64 234.985 44.1933 235.878 43.3C236.772 42.3933 237.298 41.2533 237.458 39.88H238.038C237.918 41.32 237.412 42.5266 236.518 43.5C235.478 44.6466 234.078 45.22 232.318 45.22C230.372 45.22 228.812 44.5466 227.638 43.2C226.478 41.8533 225.898 40.0733 225.898 37.86C225.898 35.6733 226.485 33.9 227.658 32.54C228.832 31.1666 230.405 30.48 232.378 30.48C233.872 30.48 235.092 30.8733 236.038 31.66C236.998 32.4466 237.592 33.4666 237.818 34.72Z" fill="black"/>
<path d="M225.149 45.0002L223.269 40.1202H216.589L214.709 45.0002H214.049L219.569 30.7002H220.289L225.809 45.0002H225.149ZM219.929 31.4602L216.789 39.5802H223.049L219.949 31.4602H219.929Z" fill="black"/>
<path d="M210.327 38.4602H205.867V45.0002H205.247V30.7002H210.467C211.694 30.7002 212.667 30.9802 213.387 31.5402C214.347 32.1935 214.827 33.2002 214.827 34.5602C214.827 37.1602 213.327 38.4602 210.327 38.4602ZM205.867 31.2802V37.9002H210.287C212.887 37.9002 214.187 36.7869 214.187 34.5602C214.187 33.5202 213.854 32.7135 213.187 32.1402C212.534 31.5669 211.614 31.2802 210.427 31.2802H205.867Z" fill="black"/>
<path d="M192.688 40.46H193.348C193.415 41.7533 193.875 42.7733 194.728 43.52C195.595 44.2666 196.795 44.64 198.328 44.64C199.635 44.64 200.675 44.3333 201.448 43.72C202.222 43.1066 202.608 42.28 202.608 41.24C202.608 40.1733 202.255 39.4 201.548 38.92C200.842 38.44 199.608 38.04 197.848 37.72C196.275 37.4266 195.115 37.0133 194.368 36.48C193.635 35.9333 193.268 35.12 193.268 34.04C193.268 32.96 193.688 32.1 194.528 31.46C195.382 30.8066 196.502 30.48 197.888 30.48C199.315 30.48 200.442 30.84 201.268 31.56C202.108 32.28 202.608 33.26 202.768 34.5H202.128C201.995 33.4066 201.555 32.56 200.808 31.96C200.062 31.36 199.095 31.06 197.908 31.06C196.668 31.06 195.688 31.3333 194.968 31.88C194.262 32.4133 193.908 33.1266 193.908 34.02C193.908 34.9266 194.235 35.6066 194.888 36.06C195.542 36.5133 196.628 36.88 198.148 37.16C199.002 37.32 199.708 37.4866 200.268 37.66C200.828 37.8333 201.348 38.0733 201.828 38.38C202.322 38.6733 202.682 39.0533 202.908 39.52C203.135 39.9866 203.248 40.5466 203.248 41.2C203.248 42.4 202.808 43.3733 201.928 44.12C201.048 44.8533 199.855 45.22 198.348 45.22C196.575 45.22 195.208 44.7866 194.248 43.92C193.302 43.04 192.782 41.8866 192.688 40.46Z" fill="black"/>
<path d="M176.705 45.0002V30.7002H183.545C185.012 30.7002 186.212 31.0669 187.145 31.8002C188.078 32.5202 188.545 33.5269 188.545 34.8202C188.545 36.5535 187.718 37.7069 186.065 38.2802V38.3402C187.265 38.7402 187.958 39.6135 188.145 40.9602C188.225 41.4269 188.278 42.0069 188.305 42.7002C188.345 43.3802 188.392 43.8935 188.445 44.2402C188.498 44.5735 188.598 44.7669 188.745 44.8202V45.0002H185.305C185.198 44.9335 185.112 44.7402 185.045 44.4202C184.992 44.1002 184.945 43.6469 184.905 43.0602C184.865 42.4735 184.818 42.0135 184.765 41.6802C184.578 40.3202 183.785 39.6402 182.385 39.6402H180.245V45.0002H176.705ZM180.245 37.0202H182.905C183.598 37.0202 184.125 36.8669 184.485 36.5602C184.845 36.2535 185.025 35.8269 185.025 35.2802C185.025 34.7469 184.852 34.3202 184.505 34.0002C184.158 33.6669 183.652 33.5002 182.985 33.5002H180.245V37.0202Z" fill="black"/>
<path d="M168.894 45.2602C166.92 45.2602 165.427 44.8002 164.414 43.8802C163.4 42.9602 162.894 41.6535 162.894 39.9602V30.7002H166.434V40.0802C166.434 41.6402 167.254 42.4202 168.894 42.4202C169.68 42.4202 170.28 42.2069 170.694 41.7802C171.107 41.3402 171.314 40.7535 171.314 40.0202V30.7002H174.854V39.9602C174.854 41.6402 174.347 42.9469 173.334 43.8802C172.334 44.8002 170.854 45.2602 168.894 45.2602Z" fill="black"/>
<path d="M154.553 42.4599C155.673 42.4599 156.526 42.0399 157.113 41.1999C157.713 40.3466 158.013 39.2399 158.013 37.8799C158.013 36.5199 157.713 35.4133 157.113 34.5599C156.526 33.7066 155.673 33.2799 154.553 33.2799C153.446 33.2799 152.586 33.7066 151.973 34.5599C151.373 35.4133 151.073 36.5199 151.073 37.8799C151.073 39.2266 151.373 40.3266 151.973 41.1799C152.586 42.0333 153.446 42.4599 154.553 42.4599ZM159.673 43.2399C158.379 44.6399 156.666 45.3399 154.533 45.3399C152.399 45.3399 150.686 44.6399 149.393 43.2399C148.113 41.8399 147.473 40.0533 147.473 37.8799C147.473 35.7066 148.113 33.9199 149.393 32.5199C150.686 31.1199 152.399 30.4199 154.533 30.4199C156.666 30.4199 158.379 31.1199 159.673 32.5199C160.966 33.9199 161.613 35.7066 161.613 37.8799C161.613 40.0533 160.966 41.8399 159.673 43.2399Z" fill="black"/>
<path d="M139.979 45.0002V39.7202L135.139 30.7002H138.999L140.839 34.4002L141.779 36.5802H141.819C142.152 35.7802 142.479 35.0535 142.799 34.4002L144.619 30.7002H148.359L143.519 39.7202V45.0002H139.979Z" fill="black"/>
<path d="M117.33 45.0002V30.7002H128.17V33.6202H120.87V36.1802H127.13V38.9402H120.87V42.0002H128.29V45.0002H117.33Z" fill="black"/>
<path d="M108.271 45.0002V33.7002H104.111V30.7002H116.011V33.7002H111.811V45.0002H108.271Z" fill="black"/>
<path d="M91.6035 45.0002L96.7435 30.7002H100.384L105.544 45.0002H101.824L100.984 42.4202H95.9835L95.1635 45.0002H91.6035ZM96.8035 39.8802H100.164L99.0835 36.4202L98.5235 34.4002H98.4835C98.2568 35.2535 98.0635 35.9269 97.9035 36.4202L96.8035 39.8802Z" fill="black"/>
<path d="M84.8772 45.0002L80.1572 30.7002H83.8372L86.0772 38.2002L86.7372 40.7202H86.7772C87.0172 39.7469 87.2372 38.9069 87.4372 38.2002L89.6572 30.7002H93.2372L88.5372 45.0002H84.8772Z" fill="black"/>
<path d="M68.6191 45.0002V30.7002H79.4591V33.6202H72.1591V36.1802H78.4191V38.9402H72.1591V42.0002H79.5791V45.0002H68.6191Z" fill="black"/>
<path d="M57.3105 45.0002V30.7002H60.8505V42.0002H67.2705V45.0002H57.3105Z" fill="black"/>
<path d="M44.752 45.0002V30.7002H55.592V33.6202H48.292V36.1802H54.552V38.9402H48.292V42.0002H55.712V45.0002H44.752Z" fill="black"/>
<path d="M340.837 97.6399C342.064 97.6399 343.05 98.0132 343.797 98.7599C344.544 99.5065 344.917 100.493 344.917 101.72C344.917 102.84 344.49 103.827 343.637 104.68C342.837 105.48 341.824 105.88 340.597 105.88C339.317 105.88 338.197 105.373 337.237 104.36C336.33 103.293 335.877 101.987 335.877 100.44C335.877 97.5065 336.65 95.1332 338.197 93.3199C339.744 91.4532 341.504 90.3065 343.477 89.8799L343.637 90.4399C341.877 90.8132 340.277 91.8532 338.837 93.5599C337.45 95.2132 336.757 97.1599 336.757 99.3999C336.757 99.6665 336.784 99.9332 336.837 100.2C337.584 98.4932 338.917 97.6399 340.837 97.6399ZM328.997 97.6399C330.224 97.6399 331.21 98.0132 331.957 98.7599C332.704 99.5065 333.077 100.493 333.077 101.72C333.077 102.84 332.65 103.827 331.797 104.68C330.997 105.48 329.984 105.88 328.757 105.88C327.477 105.88 326.357 105.373 325.397 104.36C324.49 103.293 324.037 101.987 324.037 100.44C324.037 97.5065 324.81 95.1332 326.357 93.3199C327.904 91.4532 329.664 90.3065 331.637 89.8799L331.797 90.4399C330.037 90.8132 328.437 91.8532 326.997 93.5599C325.61 95.2132 324.917 97.1599 324.917 99.3999C324.917 99.6665 324.944 99.9332 324.997 100.2C325.744 98.4932 327.077 97.6399 328.997 97.6399Z" fill="black"/>
<path d="M16.8371 8.63988C18.0638 8.63988 19.0504 9.01322 19.7971 9.75988C20.5438 10.5065 20.9171 11.4932 20.9171 12.7199C20.9171 13.8399 20.4904 14.8265 19.6371 15.6799C18.8371 16.4799 17.8238 16.8799 16.5971 16.8799C15.3171 16.8799 14.1971 16.3732 13.2371 15.3599C12.3304 14.2932 11.8771 12.9865 11.8771 11.4399C11.8771 8.50655 12.6504 6.13321 14.1971 4.31988C15.7438 2.45321 17.5038 1.30655 19.4771 0.879883L19.6371 1.43988C17.8771 1.81322 16.2771 2.85322 14.8371 4.55988C13.4504 6.21321 12.7571 8.15988 12.7571 10.3999C12.7571 10.6665 12.7838 10.9332 12.8371 11.1999C13.5838 9.49322 14.9171 8.63988 16.8371 8.63988ZM4.99711 8.63988C6.22378 8.63988 7.21044 9.01322 7.95711 9.75988C8.70378 10.5065 9.07711 11.4932 9.07711 12.7199C9.07711 13.8399 8.65044 14.8265 7.79711 15.6799C6.99711 16.4799 5.98378 16.8799 4.75711 16.8799C3.47711 16.8799 2.35711 16.3732 1.39711 15.3599C0.490442 14.2932 0.0371094 12.9865 0.0371094 11.4399C0.0371094 8.50655 0.810442 6.13321 2.35711 4.31988C3.90378 2.45321 5.66378 1.30655 7.63711 0.879883L7.79711 1.43988C6.03711 1.81322 4.43711 2.85322 2.99711 4.55988C1.61044 6.21321 0.917109 8.15988 0.917109 10.3999C0.917109 10.6665 0.943776 10.9332 0.997109 11.1999C1.74378 9.49322 3.07711 8.63988 4.99711 8.63988Z" fill="black"/>
</svg>
