<svg width="978" height="198" viewBox="0 0 978 198" fill="none" xmlns="http://www.w3.org/2000/svg">
<line x1="398.5" y1="11.5" x2="578.5" y2="11.5" stroke="black"/>
<path d="M681.169 136.999V126.959L671.369 108.399H680.449L683.489 114.759C683.809 115.399 684.129 116.106 684.449 116.879C684.769 117.653 685.009 118.253 685.169 118.679L685.409 119.359H685.489C686.102 117.733 686.756 116.199 687.449 114.759L690.489 108.399H699.369L689.529 126.959V136.999H681.169Z" fill="black"/>
<path d="M646.529 136.999V108.399H660.729C663.849 108.399 666.422 109.133 668.449 110.599C670.502 112.039 671.529 114.146 671.529 116.919C671.529 120.146 669.969 122.466 666.849 123.879V123.999C669.009 124.826 670.342 126.399 670.849 128.719C671.062 129.626 671.196 130.759 671.249 132.119C671.302 133.453 671.369 134.506 671.449 135.279C671.529 136.053 671.716 136.479 672.009 136.559V136.999H663.769C663.529 136.839 663.369 136.413 663.289 135.719C663.209 134.999 663.129 134.093 663.049 132.999C662.969 131.906 662.849 131.026 662.689 130.359C662.422 129.213 661.995 128.373 661.409 127.839C660.822 127.306 659.942 127.039 658.769 127.039H654.889V136.999H646.529ZM654.889 114.959V121.079H659.369C661.849 121.079 663.089 120.066 663.089 118.039C663.089 117.079 662.782 116.333 662.169 115.799C661.555 115.239 660.662 114.959 659.489 114.959H654.889Z" fill="black"/>
<path d="M630.534 137.519C626.321 137.519 623.134 136.533 620.974 134.559C618.841 132.559 617.774 129.733 617.774 126.079V108.399H626.134V126.559C626.134 127.919 626.508 128.973 627.254 129.719C628.028 130.466 629.161 130.839 630.654 130.839C632.041 130.839 633.094 130.439 633.814 129.639C634.561 128.813 634.934 127.733 634.934 126.399V108.399H643.294V126.079C643.294 129.679 642.214 132.493 640.054 134.519C637.894 136.519 634.721 137.519 630.534 137.519Z" fill="black"/>
<path d="M587.15 136.999L596.87 121.959L588.03 108.399H597.67L602.11 116.039H602.19L606.71 108.399H615.79L607.19 121.879L616.71 136.999H606.75L601.83 128.079H601.75L596.55 136.999H587.15Z" fill="black"/>
<path d="M573.347 137.519C569.134 137.519 565.947 136.533 563.787 134.559C561.654 132.559 560.587 129.733 560.587 126.079V108.399H568.947V126.559C568.947 127.919 569.32 128.973 570.067 129.719C570.84 130.466 571.974 130.839 573.467 130.839C574.854 130.839 575.907 130.439 576.627 129.639C577.374 128.813 577.747 127.733 577.747 126.399V108.399H586.107V126.079C586.107 129.679 585.027 132.493 582.867 134.519C580.707 136.519 577.534 137.519 573.347 137.519Z" fill="black"/>
<path d="M538.365 136.999V108.399H546.725V129.839H558.965V136.999H538.365Z" fill="black"/>
<path d="M500.943 136.999V108.399H523.223V115.199H509.303V119.079H520.943V125.359H509.303V129.839H523.623V136.999H500.943Z" fill="black"/>
<path d="M478.13 136.999V108.399H486.49V129.839H498.73V136.999H478.13Z" fill="black"/>
<path d="M450.748 136.999V108.399H465.548C468.214 108.399 470.348 109.013 471.948 110.239C473.761 111.626 474.668 113.506 474.668 115.879C474.668 118.493 473.481 120.319 471.108 121.359V121.479C472.654 121.986 473.854 122.853 474.708 124.079C475.588 125.306 476.028 126.733 476.028 128.359C476.028 131.373 474.934 133.653 472.748 135.199C471.014 136.399 468.708 136.999 465.828 136.999H450.748ZM458.948 130.439H464.908C465.814 130.439 466.548 130.186 467.108 129.679C467.668 129.173 467.948 128.493 467.948 127.639C467.948 126.759 467.654 126.079 467.068 125.599C466.508 125.119 465.774 124.879 464.868 124.879H458.948V130.439ZM458.948 119.519H464.148C464.974 119.519 465.628 119.333 466.108 118.959C466.588 118.559 466.828 117.986 466.828 117.239C466.828 116.519 466.574 115.946 466.068 115.519C465.561 115.093 464.908 114.879 464.108 114.879H458.948V119.519Z" fill="black"/>
<path d="M419.493 136.999L430.053 108.399H438.573L449.173 136.999H440.293L438.893 132.799H429.213L427.813 136.999H419.493ZM432.973 121.439L431.093 127.039H437.013L435.213 121.439L434.133 117.759H434.053C433.653 119.279 433.293 120.506 432.973 121.439Z" fill="black"/>
<path d="M404.511 136.999L395.351 108.399H403.951L407.871 121.839L409.271 127.399H409.351C409.831 125.319 410.298 123.466 410.751 121.839L414.591 108.399H423.071L413.871 136.999H404.511Z" fill="black"/>
<path d="M385.474 136.999V108.399H393.834V136.999H385.474Z" fill="black"/>
<path d="M362.662 136.999V108.399H371.022V129.839H383.262V136.999H362.662Z" fill="black"/>
<path d="M330.846 136.999V108.399H341.086C343.753 108.399 345.993 109.066 347.806 110.399C349.62 111.706 350.913 113.426 351.686 115.559C352.486 117.666 352.886 120.093 352.886 122.839C352.886 127.053 351.86 130.466 349.806 133.079C347.78 135.693 344.78 136.999 340.806 136.999H330.846ZM332.086 135.879H340.766C344.206 135.879 346.86 134.733 348.726 132.439C350.62 130.119 351.566 126.919 351.566 122.839C351.566 118.706 350.66 115.466 348.846 113.119C347.033 110.746 344.433 109.559 341.046 109.559H332.086V135.879Z" fill="black"/>
<path d="M325.64 108.399V136.999H324.32L305.68 110.479H305.64V136.999H304.44V108.399H305.84L324.4 134.919H324.44V108.399H325.64Z" fill="black"/>
<path d="M300.22 136.999L296.46 127.239H283.1L279.34 136.999H278.02L289.06 108.399H290.5L301.54 136.999H300.22ZM289.78 109.919L283.5 126.159H296.02L289.82 109.919H289.78Z" fill="black"/>
<path d="M923.501 79.92H924.821C924.955 82.5066 925.875 84.5466 927.581 86.04C929.315 87.5333 931.715 88.28 934.781 88.28C937.395 88.28 939.475 87.6666 941.021 86.44C942.568 85.2133 943.341 83.56 943.341 81.48C943.341 79.3466 942.635 77.8 941.221 76.84C939.808 75.88 937.341 75.08 933.821 74.44C930.675 73.8533 928.355 73.0266 926.861 71.96C925.395 70.8666 924.661 69.24 924.661 67.08C924.661 64.92 925.501 63.2 927.181 61.92C928.888 60.6133 931.128 59.96 933.901 59.96C936.755 59.96 939.008 60.68 940.661 62.12C942.341 63.56 943.341 65.52 943.661 68H942.381C942.115 65.8133 941.235 64.12 939.741 62.92C938.248 61.72 936.315 61.12 933.941 61.12C931.461 61.12 929.501 61.6666 928.061 62.76C926.648 63.8266 925.941 65.2533 925.941 67.04C925.941 68.8533 926.595 70.2133 927.901 71.12C929.208 72.0266 931.381 72.76 934.421 73.32C936.128 73.64 937.541 73.9733 938.661 74.32C939.781 74.6666 940.821 75.1466 941.781 75.76C942.768 76.3466 943.488 77.1066 943.941 78.04C944.395 78.9733 944.621 80.0933 944.621 81.4C944.621 83.8 943.741 85.7466 941.981 87.24C940.221 88.7066 937.835 89.44 934.821 89.44C931.275 89.44 928.541 88.5733 926.621 86.84C924.728 85.08 923.688 82.7733 923.501 79.92Z" fill="black"/>
<path d="M902.242 75.6794V88.9994H901.002V60.3994H912.442C915.109 60.3994 917.176 61.0661 918.642 62.3994C920.109 63.7061 920.842 65.5727 920.842 67.9994C920.842 71.8661 919.056 74.2127 915.482 75.0394V75.0794C917.082 75.4527 918.242 76.2261 918.962 77.3994C919.709 78.5727 920.122 80.2261 920.202 82.3594C920.309 86.1728 920.696 88.3461 921.362 88.8794V88.9994H920.002C919.389 88.5727 919.029 86.3594 918.922 82.3594C918.842 79.9861 918.309 78.2794 917.322 77.2394C916.336 76.1994 914.709 75.6794 912.442 75.6794H902.242ZM902.242 61.5194V74.5194H912.002C917.042 74.5194 919.562 72.3594 919.562 68.0394C919.562 65.9594 918.936 64.3594 917.682 63.2394C916.456 62.0927 914.669 61.5194 912.322 61.5194H902.242Z" fill="black"/>
<path d="M893.186 85.24C890.733 88.0133 887.573 89.4 883.706 89.4C879.839 89.4 876.679 88.0266 874.226 85.28C871.799 82.5066 870.586 78.9866 870.586 74.72C870.586 70.4533 871.799 66.9333 874.226 64.16C876.679 61.36 879.839 59.96 883.706 59.96C887.573 59.96 890.733 61.36 893.186 64.16C895.666 66.9333 896.906 70.4533 896.906 74.72C896.906 78.96 895.666 82.4666 893.186 85.24ZM875.106 84.4C877.266 86.96 880.133 88.24 883.706 88.24C887.279 88.24 890.146 86.9466 892.306 84.36C894.493 81.7733 895.586 78.56 895.586 74.72C895.586 70.8533 894.493 67.6266 892.306 65.04C890.146 62.4266 887.279 61.12 883.706 61.12C880.133 61.12 877.266 62.4133 875.106 65C872.973 67.5866 871.906 70.8266 871.906 74.72C871.906 78.5866 872.973 81.8133 875.106 84.4Z" fill="black"/>
<path d="M866.386 60.3994V88.9994H865.146V60.3994H866.386Z" fill="black"/>
<path d="M842.047 75.6794V88.9994H840.807V60.3994H852.247C854.914 60.3994 856.98 61.0661 858.447 62.3994C859.914 63.7061 860.647 65.5727 860.647 67.9994C860.647 71.8661 858.861 74.2127 855.287 75.0394V75.0794C856.887 75.4527 858.047 76.2261 858.767 77.3994C859.514 78.5727 859.927 80.2261 860.007 82.3594C860.114 86.1728 860.501 88.3461 861.167 88.8794V88.9994H859.807C859.194 88.5727 858.834 86.3594 858.727 82.3594C858.647 79.9861 858.114 78.2794 857.127 77.2394C856.14 76.1994 854.514 75.6794 852.247 75.6794H842.047ZM842.047 61.5194V74.5194H851.807C856.847 74.5194 859.367 72.3594 859.367 68.0394C859.367 65.9594 858.741 64.3594 857.487 63.2394C856.261 62.0927 854.474 61.5194 852.127 61.5194H842.047Z" fill="black"/>
<path d="M818.766 61.5194V73.6394H834.926V74.7594H818.766V87.8394H836.726V88.9994H817.526V60.3994H836.326V61.5194H818.766Z" fill="black"/>
<path d="M803.925 88.9994H802.645V61.5594H792.445V60.3994H814.125V61.5594H803.925V88.9994Z" fill="black"/>
<path d="M789.038 60.3994V88.9994H787.718L769.078 62.4794H769.038V88.9994H767.838V60.3994H769.238L787.798 86.9194H787.838V60.3994H789.038Z" fill="black"/>
<path d="M762.519 60.3994V88.9994H761.279V60.3994H762.519Z" fill="black"/>
<path d="M728.463 88.9994V60.3994H738.703C741.37 60.3994 743.61 61.0661 745.423 62.3994C747.237 63.7061 748.53 65.4261 749.303 67.5594C750.103 69.6661 750.503 72.0927 750.503 74.8394C750.503 79.0527 749.477 82.4661 747.423 85.0794C745.397 87.6927 742.397 88.9994 738.423 88.9994H728.463ZM729.703 87.8794H738.383C741.823 87.8794 744.477 86.7327 746.343 84.4394C748.237 82.1194 749.183 78.9194 749.183 74.8394C749.183 70.7061 748.277 67.4661 746.463 65.1194C744.65 62.7461 742.05 61.5594 738.663 61.5594H729.703V87.8794Z" fill="black"/>
<path d="M723.257 60.3994V88.9994H721.937L703.297 62.4794H703.257V88.9994H702.057V60.3994H703.457L722.017 86.9194H722.057V60.3994H723.257Z" fill="black"/>
<path d="M680.016 61.5194V73.6394H696.176V74.7594H680.016V87.8394H697.976V88.9994H678.776V60.3994H697.576V61.5194H680.016Z" fill="black"/>
<path d="M665.194 76.4403V75.2803H674.794V76.4403H665.194Z" fill="black"/>
<path d="M640.299 88.9994V60.3994H641.539V73.2394H659.899V60.3994H661.139V88.9994H659.899V74.3194H641.539V88.9994H640.299Z" fill="black"/>
<path d="M634.226 75.96H624.266V74.84H635.466V89H634.426L634.306 82.24H634.226C633.693 84.2133 632.519 85.9066 630.706 87.32C628.919 88.7333 626.639 89.44 623.866 89.44C619.679 89.44 616.413 88.0666 614.066 85.32C611.746 82.5733 610.586 79.0533 610.586 74.76C610.586 70.4933 611.759 66.96 614.106 64.16C616.479 61.36 619.746 59.96 623.906 59.96C626.893 59.96 629.359 60.7333 631.306 62.28C633.279 63.8 634.519 65.8933 635.026 68.56H633.786C633.333 66.2666 632.226 64.4533 630.466 63.12C628.733 61.76 626.546 61.08 623.906 61.08C620.066 61.08 617.106 62.3866 615.026 65C612.946 67.6133 611.906 70.8666 611.906 74.76C611.906 78.7066 612.933 81.9466 614.986 84.48C617.066 87.0133 620.026 88.28 623.866 88.28C627.066 88.28 629.586 87.2666 631.426 85.24C633.293 83.2133 634.226 80.6 634.226 77.4V75.96Z" fill="black"/>
<path d="M606.386 60.3994V88.9994H605.146V60.3994H606.386Z" fill="black"/>
<path d="M578.971 88.9994V60.3994H580.211V73.2394H598.571V60.3994H599.811V88.9994H598.571V74.3194H580.211V88.9994H578.971Z" fill="black"/>
<path d="M546.354 88.9994V60.3994H547.594V73.2394H565.954V60.3994H567.194V88.9994H565.954V74.3194H547.594V88.9994H546.354Z" fill="black"/>
<path d="M532.753 88.9994H531.473V61.5594H521.273V60.3994H542.953V61.5594H532.753V88.9994Z" fill="black"/>
<path d="M517.753 60.3994V88.9994H516.513V60.3994H517.753Z" fill="black"/>
<path d="M495.786 60.3994H497.146L504.466 86.9594H504.506L512.026 60.3994H513.266L505.146 88.9994H503.786L496.466 62.4394H496.426L489.186 88.9994H487.786L479.586 60.3994H480.866L488.466 86.9194H488.506L495.786 60.3994Z" fill="black"/>
<path d="M449.341 88.9994V60.3994H471.621V67.1994H457.701V71.0794H469.341V77.3594H457.701V81.8394H472.021V88.9994H449.341Z" fill="black"/>
<path d="M433.951 89.6799C429.631 89.6799 426.138 88.2799 423.471 85.4799C420.805 82.6799 419.471 79.1199 419.471 74.7999C419.471 70.4799 420.818 66.9199 423.511 64.1199C426.205 61.2932 429.685 59.8799 433.951 59.8799C437.125 59.8799 439.791 60.6265 441.951 62.1199C444.938 64.1732 446.618 67.1332 446.991 70.9999H438.631C438.525 69.8266 438.018 68.8265 437.111 67.9999C436.231 67.1732 435.138 66.7599 433.831 66.7599C431.911 66.7599 430.445 67.4932 429.431 68.9599C428.445 70.4266 427.951 72.3732 427.951 74.7999C427.951 77.1732 428.485 79.1066 429.551 80.5999C430.618 82.0932 432.071 82.8399 433.911 82.8399C435.325 82.8399 436.471 82.4266 437.351 81.5999C438.231 80.7732 438.738 79.6932 438.871 78.3599H447.311C447.071 81.4799 445.831 84.1199 443.591 86.2799C441.245 88.5466 438.031 89.6799 433.951 89.6799Z" fill="black"/>
<path d="M391.329 88.9994L401.889 60.3994H410.409L421.009 88.9994H412.129L410.729 84.7994H401.049L399.649 88.9994H391.329ZM404.809 73.4394L402.929 79.0394H408.849L407.049 73.4394L405.969 69.7594H405.889C405.489 71.2794 405.129 72.5061 404.809 73.4394Z" fill="black"/>
<path d="M369.576 88.9994V60.3994H382.736C386.202 60.3994 388.922 61.2794 390.896 63.0394C393.029 64.9327 394.096 67.4527 394.096 70.5994C394.096 73.3727 393.162 75.6794 391.296 77.5194C389.456 79.3594 387.109 80.2794 384.256 80.2794H377.936V88.9994H369.576ZM377.936 67.3194V73.7994H382.456C383.469 73.7994 384.269 73.4927 384.856 72.8794C385.469 72.2661 385.776 71.4661 385.776 70.4794C385.776 69.5194 385.469 68.7594 384.856 68.1994C384.269 67.6127 383.442 67.3194 382.376 67.3194H377.936Z" fill="black"/>
<path d="M354.968 89.6799C351.074 89.6799 347.914 88.8399 345.488 87.1599C343.061 85.4799 341.821 83.0532 341.768 79.8799H350.328C350.594 82.1199 352.194 83.2399 355.128 83.2399C356.088 83.2399 356.928 83.0532 357.648 82.6799C358.394 82.2799 358.768 81.6799 358.768 80.8799C358.768 79.9999 358.141 79.3199 356.888 78.8399C356.328 78.6266 355.141 78.2932 353.328 77.8399C352.101 77.5466 351.101 77.2799 350.328 77.0399C349.554 76.7999 348.634 76.4399 347.568 75.9599C346.501 75.4532 345.648 74.9199 345.008 74.3599C344.394 73.7732 343.861 73.0132 343.408 72.0799C342.954 71.1466 342.728 70.0932 342.728 68.9199C342.728 65.8265 343.821 63.5465 346.008 62.0799C348.194 60.6132 351.034 59.8799 354.528 59.8799C356.608 59.8799 358.474 60.1599 360.128 60.7199C361.781 61.2799 363.168 62.2399 364.288 63.5999C365.408 64.9332 365.981 66.5999 366.008 68.5999H357.728C357.461 66.8932 356.248 66.0399 354.088 66.0399C353.181 66.0399 352.434 66.2266 351.848 66.5999C351.261 66.9732 350.968 67.4532 350.968 68.0399C350.968 68.2265 350.994 68.3999 351.048 68.5599C351.101 68.6932 351.194 68.8266 351.328 68.9599C351.461 69.0932 351.594 69.2132 351.728 69.3199C351.888 69.4266 352.101 69.5332 352.368 69.6399C352.634 69.7199 352.874 69.7999 353.088 69.8799C353.328 69.9599 353.648 70.0532 354.048 70.1599C354.448 70.2399 354.794 70.3199 355.088 70.3999C355.408 70.4799 355.821 70.5732 356.328 70.6799C356.834 70.7865 357.288 70.8932 357.688 70.9999C359.074 71.3466 360.261 71.7199 361.248 72.1199C362.234 72.4932 363.221 73.0266 364.208 73.7199C365.221 74.3866 365.981 75.2665 366.488 76.3599C367.021 77.4265 367.288 78.6799 367.288 80.1199C367.288 83.1332 366.114 85.4799 363.768 87.1599C361.448 88.8399 358.514 89.6799 354.968 89.6799Z" fill="black"/>
<path d="M303.638 88.9994V60.3994H317.838C320.958 60.3994 323.532 61.1327 325.558 62.5994C327.612 64.0394 328.638 66.1461 328.638 68.9194C328.638 72.1461 327.078 74.4661 323.958 75.8794V75.9994C326.118 76.8261 327.452 78.3994 327.958 80.7194C328.172 81.6261 328.305 82.7594 328.358 84.1194C328.412 85.4527 328.478 86.5061 328.558 87.2794C328.638 88.0527 328.825 88.4794 329.118 88.5594V88.9994H320.878C320.638 88.8394 320.478 88.4128 320.398 87.7194C320.318 86.9994 320.238 86.0927 320.158 84.9994C320.078 83.9061 319.958 83.0261 319.798 82.3594C319.532 81.2128 319.105 80.3728 318.518 79.8394C317.932 79.3061 317.052 79.0394 315.878 79.0394H311.998V88.9994H303.638ZM311.998 66.9594V73.0794H316.478C318.958 73.0794 320.198 72.0661 320.198 70.0394C320.198 69.0794 319.892 68.3327 319.278 67.7994C318.665 67.2394 317.772 66.9594 316.598 66.9594H311.998Z" fill="black"/>
<path d="M287.643 89.5194C283.43 89.5194 280.243 88.5328 278.083 86.5594C275.95 84.5594 274.883 81.7327 274.883 78.0794V60.3994H283.243V78.5594C283.243 79.9194 283.617 80.9727 284.363 81.7194C285.137 82.4661 286.27 82.8394 287.763 82.8394C289.15 82.8394 290.203 82.4394 290.923 81.6394C291.67 80.8127 292.043 79.7327 292.043 78.3994V60.3994H300.403V78.0794C300.403 81.6794 299.323 84.4927 297.163 86.5194C295.003 88.5194 291.83 89.5194 287.643 89.5194Z" fill="black"/>
<path d="M268.769 85.5199C266.102 88.2932 262.582 89.6799 258.209 89.6799C253.836 89.6799 250.329 88.2932 247.689 85.5199C245.049 82.7199 243.729 79.1466 243.729 74.7999C243.729 70.4532 245.049 66.8799 247.689 64.0799C250.329 61.2799 253.836 59.8799 258.209 59.8799C262.582 59.8799 266.102 61.2799 268.769 64.0799C271.436 66.8799 272.769 70.4532 272.769 74.7999C272.769 79.1466 271.436 82.7199 268.769 85.5199ZM253.769 80.7199C254.809 82.2399 256.302 82.9999 258.249 82.9999C260.196 82.9999 261.689 82.2399 262.729 80.7199C263.769 79.1999 264.289 77.2266 264.289 74.7999C264.289 72.3732 263.769 70.3999 262.729 68.8799C261.689 67.3332 260.196 66.5599 258.249 66.5599C256.302 66.5599 254.809 67.3332 253.769 68.8799C252.729 70.3999 252.209 72.3732 252.209 74.7999C252.209 77.2266 252.729 79.1999 253.769 80.7199Z" fill="black"/>
<path d="M227.615 88.9994V78.9594L217.815 60.3994H226.895L229.935 66.7594C230.255 67.3994 230.575 68.1061 230.895 68.8794C231.215 69.6527 231.455 70.2527 231.615 70.6794L231.855 71.3594H231.935C232.548 69.7327 233.202 68.1994 233.895 66.7594L236.935 60.3994H245.815L235.975 78.9594V88.9994H227.615Z" fill="black"/>
<path d="M182.193 88.9994V60.3994H204.473V67.1994H190.553V71.0794H202.193V77.3594H190.553V81.8394H204.873V88.9994H182.193Z" fill="black"/>
<path d="M155.213 67.5194V60.3994H179.853V67.5194H171.653V88.9994H163.293V67.5194H155.213Z" fill="black"/>
<path d="M128.672 88.9994L139.232 60.3994H147.752L158.352 88.9994H149.472L148.072 84.7994H138.392L136.992 88.9994H128.672ZM142.152 73.4394L140.272 79.0394H146.192L144.392 73.4394L143.312 69.7594H143.232C142.832 71.2794 142.472 72.5061 142.152 73.4394Z" fill="black"/>
<path d="M113.691 88.9994L104.531 60.3994H113.131L117.051 73.8394L118.451 79.3994H118.531C119.011 77.3194 119.477 75.4661 119.931 73.8394L123.771 60.3994H132.251L123.051 88.9994H113.691Z" fill="black"/>
<path d="M80.9819 88.9994V60.3994H103.262V67.1994H89.3419V71.0794H100.982V77.3594H89.3419V81.8394H103.662V88.9994H80.9819Z" fill="black"/>
<path d="M58.1694 88.9994V60.3994H66.5294V81.8394H78.7694V88.9994H58.1694Z" fill="black"/>
<path d="M32.7007 88.9994V60.3994H54.9807V67.1994H41.0607V71.0794H52.7007V77.3594H41.0607V81.8394H55.3807V88.9994H32.7007Z" fill="black"/>
<line x1="398.5" y1="187.5" x2="578.5" y2="187.5" stroke="black"/>
<path d="M32.6398 13.2236C34.6024 13.2236 36.1811 13.821 37.3758 15.0156C38.5704 16.2103 39.1678 17.789 39.1678 19.7516C39.1678 21.5436 38.4851 23.1223 37.1198 24.4876C35.8398 25.7676 34.2184 26.4076 32.2558 26.4076C30.2078 26.4076 28.4158 25.5969 26.8798 23.9756C25.4291 22.269 24.7038 20.1783 24.7038 17.7036C24.7038 13.0103 25.9411 9.21295 28.4158 6.31161C30.8904 3.32495 33.7064 1.49028 36.8638 0.807617L37.1198 1.70361C34.3038 2.30095 31.7438 3.96495 29.4398 6.69562C27.2211 9.34095 26.1118 12.4556 26.1118 16.0396C26.1118 16.4663 26.1544 16.893 26.2398 17.3196C27.4344 14.589 29.5678 13.2236 32.6398 13.2236ZM13.6958 13.2236C15.6584 13.2236 17.2371 13.821 18.4318 15.0156C19.6264 16.2103 20.2238 17.789 20.2238 19.7516C20.2238 21.5436 19.5411 23.1223 18.1758 24.4876C16.8958 25.7676 15.2744 26.4076 13.3118 26.4076C11.2638 26.4076 9.47177 25.5969 7.93577 23.9756C6.4851 22.269 5.75977 20.1783 5.75977 17.7036C5.75977 13.0103 6.9971 9.21295 9.47177 6.31161C11.9464 3.32495 14.7624 1.49028 17.9198 0.807617L18.1758 1.70361C15.3598 2.30095 12.7998 3.96495 10.4958 6.69562C8.2771 9.34095 7.16777 12.4556 7.16777 16.0396C7.16777 16.4663 7.21043 16.893 7.29577 17.3196C8.49043 14.589 10.6238 13.2236 13.6958 13.2236Z" fill="black"/>
<path d="M970.88 184.416C972.843 184.416 974.421 185.013 975.616 186.208C976.811 187.403 977.408 188.981 977.408 190.944C977.408 192.736 976.725 194.315 975.36 195.68C974.08 196.96 972.459 197.6 970.496 197.6C968.448 197.6 966.656 196.789 965.12 195.168C963.669 193.461 962.944 191.371 962.944 188.896C962.944 184.203 964.181 180.405 966.656 177.504C969.131 174.517 971.947 172.683 975.104 172L975.36 172.896C972.544 173.493 969.984 175.157 967.68 177.888C965.461 180.533 964.352 183.648 964.352 187.232C964.352 187.659 964.395 188.085 964.48 188.512C965.675 185.781 967.808 184.416 970.88 184.416ZM951.936 184.416C953.899 184.416 955.477 185.013 956.672 186.208C957.867 187.403 958.464 188.981 958.464 190.944C958.464 192.736 957.781 194.315 956.416 195.68C955.136 196.96 953.515 197.6 951.552 197.6C949.504 197.6 947.712 196.789 946.176 195.168C944.725 193.461 944 191.371 944 188.896C944 184.203 945.237 180.405 947.712 177.504C950.187 174.517 953.003 172.683 956.16 172L956.416 172.896C953.6 173.493 951.04 175.157 948.736 177.888C946.517 180.533 945.408 183.648 945.408 187.232C945.408 187.659 945.451 188.085 945.536 188.512C946.731 185.781 948.864 184.416 951.936 184.416Z" fill="black"/>
</svg>
