<svg width="347" height="148" viewBox="0 0 347 148" fill="none" xmlns="http://www.w3.org/2000/svg">
<path d="M310.184 120V114.72L305.344 105.7H309.204L311.044 109.4L311.984 111.58H312.024C312.358 110.78 312.684 110.054 313.004 109.4L314.824 105.7H318.564L313.724 114.72V120H310.184Z" fill="black"/>
<path d="M293.394 120V105.7H300.234C301.701 105.7 302.901 106.067 303.834 106.8C304.767 107.52 305.234 108.527 305.234 109.82C305.234 111.554 304.407 112.707 302.754 113.28V113.34C303.954 113.74 304.647 114.614 304.834 115.96C304.914 116.427 304.967 117.007 304.994 117.7C305.034 118.38 305.081 118.894 305.134 119.24C305.187 119.574 305.287 119.767 305.434 119.82V120H301.994C301.887 119.934 301.801 119.74 301.734 119.42C301.681 119.1 301.634 118.647 301.594 118.06C301.554 117.474 301.507 117.014 301.454 116.68C301.267 115.32 300.474 114.64 299.074 114.64H296.934V120H293.394ZM296.934 112.02H299.594C300.287 112.02 300.814 111.867 301.174 111.56C301.534 111.254 301.714 110.827 301.714 110.28C301.714 109.747 301.541 109.32 301.194 109C300.847 108.667 300.341 108.5 299.674 108.5H296.934V112.02Z" fill="black"/>
<path d="M284.953 117.46C286.073 117.46 286.926 117.04 287.513 116.2C288.113 115.347 288.413 114.24 288.413 112.88C288.413 111.52 288.113 110.413 287.513 109.56C286.926 108.707 286.073 108.28 284.953 108.28C283.846 108.28 282.986 108.707 282.373 109.56C281.773 110.413 281.473 111.52 281.473 112.88C281.473 114.227 281.773 115.327 282.373 116.18C282.986 117.033 283.846 117.46 284.953 117.46ZM290.073 118.24C288.779 119.64 287.066 120.34 284.933 120.34C282.799 120.34 281.086 119.64 279.793 118.24C278.513 116.84 277.873 115.053 277.873 112.88C277.873 110.707 278.513 108.92 279.793 107.52C281.086 106.12 282.799 105.42 284.933 105.42C287.066 105.42 288.779 106.12 290.073 107.52C291.366 108.92 292.013 110.707 292.013 112.88C292.013 115.053 291.366 116.84 290.073 118.24Z" fill="black"/>
<path d="M270 120V108.7H265.84V105.7H277.74V108.7H273.54V120H270Z" fill="black"/>
<path d="M259.68 120.34C257.747 120.34 256.207 119.927 255.06 119.1C253.927 118.26 253.34 117.06 253.3 115.5H256.86C257.007 116.86 257.94 117.54 259.66 117.54C260.3 117.54 260.84 117.42 261.28 117.18C261.733 116.927 261.96 116.547 261.96 116.04C261.96 115.694 261.82 115.407 261.54 115.18C261.26 114.94 260.973 114.774 260.68 114.68C260.4 114.587 259.86 114.44 259.06 114.24C259.02 114.227 258.993 114.22 258.98 114.22C258.967 114.207 258.947 114.2 258.92 114.2C258.893 114.187 258.867 114.18 258.84 114.18C258.227 114.034 257.72 113.907 257.32 113.8C256.933 113.68 256.487 113.507 255.98 113.28C255.487 113.04 255.093 112.78 254.8 112.5C254.507 112.22 254.253 111.854 254.04 111.4C253.84 110.934 253.74 110.414 253.74 109.84C253.74 108.374 254.26 107.274 255.3 106.54C256.353 105.807 257.727 105.44 259.42 105.44C261.047 105.44 262.373 105.814 263.4 106.56C264.44 107.307 264.993 108.4 265.06 109.84H261.6C261.533 109.294 261.3 108.874 260.9 108.58C260.5 108.274 259.967 108.12 259.3 108.12C258.687 108.12 258.187 108.247 257.8 108.5C257.427 108.74 257.24 109.06 257.24 109.46C257.24 109.914 257.467 110.247 257.92 110.46C258.373 110.66 259.227 110.9 260.48 111.18C261.267 111.367 261.913 111.554 262.42 111.74C262.927 111.914 263.44 112.167 263.96 112.5C264.493 112.834 264.887 113.267 265.14 113.8C265.407 114.32 265.54 114.947 265.54 115.68C265.54 117.134 264.987 118.274 263.88 119.1C262.787 119.927 261.387 120.34 259.68 120.34Z" fill="black"/>
<path d="M235.21 120V105.7H246.05V108.62H238.75V111.18H245.01V113.94H238.75V117H246.17V120H235.21Z" fill="black"/>
<path d="M227.4 120.26C225.426 120.26 223.933 119.8 222.92 118.88C221.906 117.96 221.4 116.654 221.4 114.96V105.7H224.94V115.08C224.94 116.64 225.76 117.42 227.4 117.42C228.186 117.42 228.786 117.207 229.2 116.78C229.613 116.34 229.82 115.754 229.82 115.02V105.7H233.36V114.96C233.36 116.64 232.853 117.947 231.84 118.88C230.84 119.8 229.36 120.26 227.4 120.26Z" fill="black"/>
<path d="M213.077 117.46C213.544 117.46 213.971 117.38 214.357 117.22L213.057 115.96L214.697 114.26L216.017 115.52C216.351 114.8 216.517 113.92 216.517 112.88C216.517 111.52 216.224 110.413 215.637 109.56C215.051 108.707 214.197 108.28 213.077 108.28C211.971 108.28 211.117 108.707 210.517 109.56C209.917 110.413 209.617 111.52 209.617 112.88C209.617 114.24 209.917 115.347 210.517 116.2C211.117 117.04 211.971 117.46 213.077 117.46ZM218.457 121.16L216.657 119.44C215.604 120.04 214.404 120.34 213.057 120.34C210.924 120.34 209.217 119.64 207.937 118.24C206.657 116.84 206.017 115.053 206.017 112.88C206.017 110.707 206.657 108.92 207.937 107.52C209.217 106.12 210.924 105.42 213.057 105.42C215.191 105.42 216.897 106.12 218.177 107.52C219.471 108.92 220.117 110.707 220.117 112.88C220.117 114.88 219.571 116.553 218.477 117.9L220.097 119.42L218.457 121.16Z" fill="black"/>
<path d="M201.09 120V105.7H204.63V120H201.09Z" fill="black"/>
<path d="M186.871 120V105.7H190.431L194.671 112.88L195.651 114.7H195.691C195.664 113.554 195.651 112.814 195.651 112.48V105.7H199.111V120H195.551L191.351 112.92L190.331 111H190.291C190.317 112.227 190.331 113.007 190.331 113.34V120H186.871Z" fill="black"/>
<path d="M179.06 120.26C177.086 120.26 175.593 119.8 174.58 118.88C173.566 117.96 173.06 116.654 173.06 114.96V105.7H176.6V115.08C176.6 116.64 177.42 117.42 179.06 117.42C179.846 117.42 180.446 117.207 180.86 116.78C181.273 116.34 181.48 115.754 181.48 115.02V105.7H185.02V114.96C185.02 116.64 184.513 117.947 183.5 118.88C182.5 119.8 181.02 120.26 179.06 120.26Z" fill="black"/>
<path d="M168.088 120L166.208 115.12H159.528L157.648 120H156.988L162.508 105.7H163.228L168.748 120H168.088ZM162.868 106.46L159.728 114.58H165.988L162.888 106.46H162.868Z" fill="black"/>
<path d="M142.288 115.46H142.948C143.014 116.754 143.474 117.774 144.328 118.52C145.194 119.267 146.394 119.64 147.928 119.64C149.234 119.64 150.274 119.334 151.048 118.72C151.821 118.107 152.208 117.28 152.208 116.24C152.208 115.174 151.854 114.4 151.148 113.92C150.441 113.44 149.208 113.04 147.448 112.72C145.874 112.427 144.714 112.014 143.968 111.48C143.234 110.934 142.868 110.12 142.868 109.04C142.868 107.96 143.288 107.1 144.128 106.46C144.981 105.807 146.101 105.48 147.488 105.48C148.914 105.48 150.041 105.84 150.868 106.56C151.708 107.28 152.208 108.26 152.368 109.5H151.728C151.594 108.407 151.154 107.56 150.408 106.96C149.661 106.36 148.694 106.06 147.508 106.06C146.268 106.06 145.288 106.334 144.568 106.88C143.861 107.414 143.508 108.127 143.508 109.02C143.508 109.927 143.834 110.607 144.488 111.06C145.141 111.514 146.228 111.88 147.748 112.16C148.601 112.32 149.308 112.487 149.868 112.66C150.428 112.834 150.948 113.074 151.428 113.38C151.921 113.674 152.281 114.054 152.508 114.52C152.734 114.987 152.848 115.547 152.848 116.2C152.848 117.4 152.408 118.374 151.528 119.12C150.648 119.854 149.454 120.22 147.948 120.22C146.174 120.22 144.808 119.787 143.848 118.92C142.901 118.04 142.381 116.887 142.288 115.46Z" fill="black"/>
<path d="M133.553 105.7V119.42H141.773V120H132.933V105.7H133.553Z" fill="black"/>
<path d="M122.947 105.7V119.42H131.167V120H122.327V105.7H122.947Z" fill="black"/>
<path d="M111.307 106.26V112.32H119.387V112.88H111.307V119.42H120.287V120H110.687V105.7H120.087V106.26H111.307Z" fill="black"/>
<path d="M103.886 120H103.246V106.28H98.1461V105.7H108.986V106.28H103.886V120Z" fill="black"/>
<path d="M93.1618 105.7V120H92.5018L83.1818 106.74H83.1618V120H82.5618V105.7H83.2618L92.5418 118.96H92.5618V105.7H93.1618Z" fill="black"/>
<path d="M79.5248 113.48H74.5448V112.92H80.1448V120H79.6248L79.5648 116.62H79.5248C79.2582 117.607 78.6715 118.454 77.7648 119.16C76.8715 119.867 75.7315 120.22 74.3448 120.22C72.2515 120.22 70.6182 119.534 69.4448 118.16C68.2848 116.787 67.7048 115.027 67.7048 112.88C67.7048 110.747 68.2915 108.98 69.4648 107.58C70.6515 106.18 72.2848 105.48 74.3648 105.48C75.8582 105.48 77.0915 105.867 78.0648 106.64C79.0515 107.4 79.6715 108.447 79.9248 109.78H79.3048C79.0782 108.634 78.5248 107.727 77.6448 107.06C76.7782 106.38 75.6848 106.04 74.3648 106.04C72.4448 106.04 70.9648 106.694 69.9248 108C68.8848 109.307 68.3648 110.934 68.3648 112.88C68.3648 114.854 68.8782 116.474 69.9048 117.74C70.9448 119.007 72.4248 119.64 74.3448 119.64C75.9448 119.64 77.2048 119.134 78.1248 118.12C79.0582 117.107 79.5248 115.8 79.5248 114.2V113.48Z" fill="black"/>
<path d="M65.605 105.7V120H64.985V105.7H65.605Z" fill="black"/>
<path d="M52.3657 115.46H53.0257C53.0924 116.754 53.5524 117.774 54.4057 118.52C55.2724 119.267 56.4724 119.64 58.0057 119.64C59.3124 119.64 60.3524 119.334 61.1257 118.72C61.8991 118.107 62.2857 117.28 62.2857 116.24C62.2857 115.174 61.9324 114.4 61.2257 113.92C60.5191 113.44 59.2857 113.04 57.5257 112.72C55.9524 112.427 54.7924 112.014 54.0457 111.48C53.3124 110.934 52.9457 110.12 52.9457 109.04C52.9457 107.96 53.3657 107.1 54.2057 106.46C55.0591 105.807 56.1791 105.48 57.5657 105.48C58.9924 105.48 60.1191 105.84 60.9457 106.56C61.7857 107.28 62.2857 108.26 62.4457 109.5H61.8057C61.6724 108.407 61.2324 107.56 60.4857 106.96C59.7391 106.36 58.7724 106.06 57.5857 106.06C56.3457 106.06 55.3657 106.334 54.6457 106.88C53.9391 107.414 53.5857 108.127 53.5857 109.02C53.5857 109.927 53.9124 110.607 54.5657 111.06C55.2191 111.514 56.3057 111.88 57.8257 112.16C58.6791 112.32 59.3857 112.487 59.9457 112.66C60.5057 112.834 61.0257 113.074 61.5057 113.38C61.9991 113.674 62.3591 114.054 62.5857 114.52C62.8124 114.987 62.9257 115.547 62.9257 116.2C62.9257 117.4 62.4857 118.374 61.6057 119.12C60.7257 119.854 59.5324 120.22 58.0257 120.22C56.2524 120.22 54.8857 119.787 53.9257 118.92C52.9791 118.04 52.4591 116.887 52.3657 115.46Z" fill="black"/>
<path d="M42.4005 106.26V112.32H50.4805V112.88H42.4005V119.42H51.3805V120H41.7805V105.7H51.1805V106.26H42.4005Z" fill="black"/>
<path d="M28.7141 120V105.7H33.8341C35.1674 105.7 36.2874 106.034 37.1941 106.7C38.1008 107.354 38.7474 108.214 39.1341 109.28C39.5341 110.334 39.7341 111.547 39.7341 112.92C39.7341 115.027 39.2208 116.734 38.1941 118.04C37.1808 119.347 35.6808 120 33.6941 120H28.7141ZM29.3341 119.44H33.6741C35.3941 119.44 36.7208 118.867 37.6541 117.72C38.6008 116.56 39.0741 114.96 39.0741 112.92C39.0741 110.854 38.6208 109.234 37.7141 108.06C36.8074 106.874 35.5074 106.28 33.8141 106.28H29.3341V119.44Z" fill="black"/>
<path d="M325.169 81.7002L330.049 89.0002H330.069L334.969 81.7002H335.669L330.369 89.6002V96.0002H329.749V89.5802L324.469 81.7002H325.169Z" fill="black"/>
<path d="M314.51 89.3402V96.0002H313.89V81.7002H319.61C320.943 81.7002 321.977 82.0335 322.71 82.7002C323.443 83.3535 323.81 84.2869 323.81 85.5002C323.81 87.4335 322.917 88.6069 321.13 89.0202V89.0402C321.93 89.2269 322.51 89.6135 322.87 90.2002C323.243 90.7869 323.45 91.6135 323.49 92.6802C323.543 94.5869 323.737 95.6735 324.07 95.9402V96.0002H323.39C323.083 95.7869 322.903 94.6802 322.85 92.6802C322.81 91.4935 322.543 90.6402 322.05 90.1202C321.557 89.6002 320.743 89.3402 319.61 89.3402H314.51ZM314.51 82.2602V88.7602H319.39C321.91 88.7602 323.17 87.6802 323.17 85.5202C323.17 84.4802 322.857 83.6802 322.23 83.1202C321.617 82.5469 320.723 82.2602 319.55 82.2602H314.51Z" fill="black"/>
<path d="M302.869 82.2602V88.3202H310.949V88.8802H302.869V95.4202H311.849V96.0002H302.249V81.7002H311.649V82.2602H302.869Z" fill="black"/>
<path d="M289.973 81.7002L295.013 95.1202H295.033L300.133 81.7002H300.773L295.373 96.0002H294.693L289.313 81.7002H289.973Z" fill="black"/>
<path d="M279.412 82.2602V88.3202H287.492V88.8802H279.412V95.4202H288.392V96.0002H278.792V81.7002H288.192V82.2602H279.412Z" fill="black"/>
<path d="M262.445 96.0002V81.7002H267.565C268.898 81.7002 270.018 82.0335 270.925 82.7002C271.831 83.3535 272.478 84.2135 272.865 85.2802C273.265 86.3335 273.465 87.5469 273.465 88.9202C273.465 91.0269 272.951 92.7335 271.925 94.0402C270.911 95.3469 269.411 96.0002 267.425 96.0002H262.445ZM263.065 95.4402H267.405C269.125 95.4402 270.451 94.8669 271.385 93.7202C272.331 92.5602 272.805 90.9602 272.805 88.9202C272.805 86.8535 272.351 85.2335 271.445 84.0602C270.538 82.8735 269.238 82.2802 267.545 82.2802H263.065V95.4402Z" fill="black"/>
<path d="M259.841 81.7002V96.0002H259.181L249.861 82.7402H249.841V96.0002H249.241V81.7002H249.941L259.221 94.9602H259.241V81.7002H259.841Z" fill="black"/>
<path d="M247.131 96.0002L245.251 91.1202H238.571L236.691 96.0002H236.031L241.551 81.7002H242.271L247.791 96.0002H247.131ZM241.911 82.4602L238.771 90.5802H245.031L241.931 82.4602H241.911Z" fill="black"/>
<path d="M228.563 99.5797V98.1996C229.043 98.0663 229.423 97.8063 229.703 97.4196C229.983 97.033 230.123 96.5596 230.123 95.9996H228.523V92.6396H231.943V95.7396C231.943 96.8996 231.629 97.813 231.003 98.4797C230.376 99.1463 229.563 99.513 228.563 99.5797Z" fill="black"/>
<path d="M221.786 96.0002V90.7202L216.946 81.7002H220.806L222.646 85.4002L223.586 87.5802H223.626C223.959 86.7802 224.286 86.0535 224.606 85.4002L226.426 81.7002H230.166L225.326 90.7202V96.0002H221.786Z" fill="black"/>
<path d="M204.672 96.0002V93.1802L210.852 85.7802L211.812 84.7202V84.6602C211.119 84.6869 210.666 84.7002 210.452 84.7002H205.172V81.7002H216.312V84.4802L210.312 91.6802L209.152 92.9602V93.0202C209.912 92.9935 210.439 92.9802 210.732 92.9802H216.572V96.0002H204.672Z" fill="black"/>
<path d="M197.199 93.4599C198.319 93.4599 199.172 93.0399 199.759 92.1999C200.359 91.3466 200.659 90.2399 200.659 88.8799C200.659 87.5199 200.359 86.4133 199.759 85.5599C199.172 84.7066 198.319 84.2799 197.199 84.2799C196.092 84.2799 195.232 84.7066 194.619 85.5599C194.019 86.4133 193.719 87.5199 193.719 88.8799C193.719 90.2266 194.019 91.3266 194.619 92.1799C195.232 93.0333 196.092 93.4599 197.199 93.4599ZM202.319 94.2399C201.025 95.6399 199.312 96.3399 197.179 96.3399C195.045 96.3399 193.332 95.6399 192.039 94.2399C190.759 92.8399 190.119 91.0533 190.119 88.8799C190.119 86.7066 190.759 84.9199 192.039 83.5199C193.332 82.1199 195.045 81.4199 197.179 81.4199C199.312 81.4199 201.025 82.1199 202.319 83.5199C203.612 84.9199 204.259 86.7066 204.259 88.8799C204.259 91.0533 203.612 92.8399 202.319 94.2399Z" fill="black"/>
<path d="M183.136 96.3199C181.056 96.3199 179.356 95.6266 178.036 94.2399C176.729 92.8399 176.076 91.0599 176.076 88.8999C176.076 86.7399 176.722 84.9533 178.016 83.5399C179.309 82.1266 181.009 81.4199 183.116 81.4199C184.742 81.4199 186.102 81.8399 187.196 82.6799C188.436 83.6133 189.149 84.9266 189.336 86.6199H185.796C185.702 85.9666 185.416 85.4266 184.936 84.9999C184.456 84.5733 183.842 84.3599 183.096 84.3599C181.976 84.3599 181.122 84.7799 180.536 85.6199C179.962 86.4466 179.676 87.5399 179.676 88.8999C179.676 90.2333 179.989 91.3199 180.616 92.1599C181.242 92.9999 182.076 93.4199 183.116 93.4199C183.889 93.4199 184.522 93.1999 185.016 92.7599C185.522 92.3199 185.816 91.7466 185.896 91.0399H189.436C189.329 92.4799 188.756 93.6999 187.716 94.6999C186.596 95.7799 185.069 96.3199 183.136 96.3199Z" fill="black"/>
<path d="M163.137 96.3404C161.204 96.3404 159.664 95.9271 158.517 95.1004C157.384 94.2604 156.797 93.0604 156.757 91.5004H160.317C160.464 92.8604 161.397 93.5404 163.117 93.5404C163.757 93.5404 164.297 93.4204 164.737 93.1804C165.19 92.9271 165.417 92.5471 165.417 92.0404C165.417 91.6938 165.277 91.4071 164.997 91.1804C164.717 90.9404 164.43 90.7738 164.137 90.6804C163.857 90.5871 163.317 90.4404 162.517 90.2404C162.477 90.2271 162.45 90.2204 162.437 90.2204C162.424 90.2071 162.404 90.2004 162.377 90.2004C162.35 90.1871 162.324 90.1804 162.297 90.1804C161.684 90.0338 161.177 89.9071 160.777 89.8004C160.39 89.6804 159.944 89.5071 159.437 89.2804C158.944 89.0404 158.55 88.7804 158.257 88.5004C157.964 88.2204 157.71 87.8538 157.497 87.4004C157.297 86.9338 157.197 86.4138 157.197 85.8404C157.197 84.3738 157.717 83.2738 158.757 82.5404C159.81 81.8071 161.184 81.4404 162.877 81.4404C164.504 81.4404 165.83 81.8138 166.857 82.5604C167.897 83.3071 168.45 84.4004 168.517 85.8404H165.057C164.99 85.2938 164.757 84.8738 164.357 84.5804C163.957 84.2738 163.424 84.1204 162.757 84.1204C162.144 84.1204 161.644 84.2471 161.257 84.5004C160.884 84.7404 160.697 85.0604 160.697 85.4604C160.697 85.9138 160.924 86.2471 161.377 86.4604C161.83 86.6604 162.684 86.9004 163.937 87.1804C164.724 87.3671 165.37 87.5538 165.877 87.7404C166.384 87.9138 166.897 88.1671 167.417 88.5004C167.95 88.8338 168.344 89.2671 168.597 89.8004C168.864 90.3204 168.997 90.9471 168.997 91.6804C168.997 93.1338 168.444 94.2738 167.337 95.1004C166.244 95.9271 164.844 96.3404 163.137 96.3404Z" fill="black"/>
<path d="M148.574 96.0002V84.7002H144.414V81.7002H156.314V84.7002H152.114V96.0002H148.574Z" fill="black"/>
<path d="M132.496 96.0002V81.7002H143.336V84.6202H136.036V87.1802H142.296V89.9402H136.036V93.0002H143.456V96.0002H132.496Z" fill="black"/>
<path d="M119.937 96.0002V81.7002H130.777V84.6202H123.477V87.1802H129.737V89.9402H123.477V93.0002H130.897V96.0002H119.937Z" fill="black"/>
<path d="M103.257 96.0002V81.7002H108.017L109.757 87.9602L110.577 91.2202H110.617C110.991 89.6469 111.257 88.5602 111.417 87.9602L113.177 81.7002H117.977V96.0002H114.737V88.8002L114.797 85.9402H114.757C114.424 87.3669 114.204 88.2535 114.097 88.6002L112.037 96.0002H109.117L107.077 88.6202L106.417 85.9402H106.377C106.417 87.4735 106.437 88.4335 106.437 88.8202V96.0002H103.257Z" fill="black"/>
<path d="M82.8472 96.0002V81.7002H86.4072L90.6472 88.8802L91.6272 90.7002H91.6672C91.6405 89.5535 91.6272 88.8135 91.6272 88.4802V81.7002H95.0872V96.0002H91.5272L87.3272 88.9202L86.3072 87.0002H86.2672C86.2938 88.2269 86.3072 89.0069 86.3072 89.3402V96.0002H82.8472Z" fill="black"/>
<path d="M69.4292 96.0002V81.7002H76.2692C77.7359 81.7002 78.9359 82.0669 79.8692 82.8002C80.8025 83.5202 81.2692 84.5269 81.2692 85.8202C81.2692 87.5535 80.4425 88.7069 78.7892 89.2802V89.3402C79.9892 89.7402 80.6825 90.6135 80.8692 91.9602C80.9492 92.4269 81.0025 93.0069 81.0292 93.7002C81.0692 94.3802 81.1159 94.8935 81.1692 95.2402C81.2225 95.5735 81.3225 95.7669 81.4692 95.8202V96.0002H78.0292C77.9225 95.9335 77.8359 95.7402 77.7692 95.4202C77.7159 95.1002 77.6692 94.6469 77.6292 94.0602C77.5892 93.4735 77.5425 93.0135 77.4892 92.6802C77.3025 91.3202 76.5092 90.6402 75.1092 90.6402H72.9692V96.0002H69.4292ZM72.9692 88.0202H75.6292C76.3225 88.0202 76.8492 87.8669 77.2092 87.5602C77.5692 87.2535 77.7492 86.8269 77.7492 86.2802C77.7492 85.7469 77.5759 85.3202 77.2292 85.0002C76.8825 84.6669 76.3759 84.5002 75.7092 84.5002H72.9692V88.0202Z" fill="black"/>
<path d="M56.8706 96.0002V81.7002H67.7106V84.6202H60.4106V87.1802H66.6706V89.9402H60.4106V93.0002H67.8306V96.0002H56.8706Z" fill="black"/>
<path d="M46.309 93.0202H48.389C49.5357 93.0202 50.409 92.6735 51.009 91.9802C51.609 91.2735 51.909 90.2602 51.909 88.9402C51.909 87.6202 51.6024 86.5802 50.989 85.8202C50.3757 85.0469 49.5224 84.6602 48.429 84.6602H46.309V93.0202ZM42.769 96.0002V81.7002H48.869C50.8557 81.7002 52.4557 82.3602 53.669 83.6802C54.8824 85.0002 55.489 86.7535 55.489 88.9402C55.489 91.5135 54.6624 93.4335 53.009 94.7002C51.849 95.5669 50.3957 96.0002 48.649 96.0002H42.769Z" fill="black"/>
<path d="M34.3277 93.4599C35.4477 93.4599 36.301 93.0399 36.8877 92.1999C37.4877 91.3466 37.7877 90.2399 37.7877 88.8799C37.7877 87.5199 37.4877 86.4133 36.8877 85.5599C36.301 84.7066 35.4477 84.2799 34.3277 84.2799C33.221 84.2799 32.361 84.7066 31.7477 85.5599C31.1477 86.4133 30.8477 87.5199 30.8477 88.8799C30.8477 90.2266 31.1477 91.3266 31.7477 92.1799C32.361 93.0333 33.221 93.4599 34.3277 93.4599ZM39.4477 94.2399C38.1543 95.6399 36.441 96.3399 34.3077 96.3399C32.1743 96.3399 30.461 95.6399 29.1677 94.2399C27.8877 92.8399 27.2477 91.0533 27.2477 88.8799C27.2477 86.7066 27.8877 84.9199 29.1677 83.5199C30.461 82.1199 32.1743 81.4199 34.3077 81.4199C36.441 81.4199 38.1543 82.1199 39.4477 83.5199C40.741 84.9199 41.3877 86.7066 41.3877 88.8799C41.3877 91.0533 40.741 92.8399 39.4477 94.2399Z" fill="black"/>
<path d="M11.1479 96.0002V81.7002H15.9079L17.6479 87.9602L18.4679 91.2202H18.5079C18.8813 89.6469 19.1479 88.5602 19.3079 87.9602L21.0679 81.7002H25.868V96.0002H22.628V88.8002L22.688 85.9402H22.6479C22.3146 87.3669 22.0946 88.2535 21.9879 88.6002L19.9279 96.0002H17.0079L14.9679 88.6202L14.3079 85.9402H14.2679C14.3079 87.4735 14.3279 88.4335 14.3279 88.8202V96.0002H11.1479Z" fill="black"/>
<path d="M291.802 72.0002V57.7002H302.642V60.6202H295.342V63.1802H301.602V65.9402H295.342V69.0002H302.762V72.0002H291.802Z" fill="black"/>
<path d="M278.384 72.0002V57.7002H285.224C286.691 57.7002 287.891 58.0669 288.824 58.8002C289.758 59.5202 290.224 60.5269 290.224 61.8202C290.224 63.5535 289.398 64.7069 287.744 65.2802V65.3402C288.944 65.7402 289.638 66.6135 289.824 67.9602C289.904 68.4269 289.958 69.0069 289.984 69.7002C290.024 70.3802 290.071 70.8935 290.124 71.2402C290.178 71.5735 290.278 71.7669 290.424 71.8202V72.0002H286.984C286.878 71.9335 286.791 71.7402 286.724 71.4202C286.671 71.1002 286.624 70.6469 286.584 70.0602C286.544 69.4735 286.498 69.0135 286.444 68.6802C286.258 67.3202 285.464 66.6402 284.064 66.6402H281.924V72.0002H278.384ZM281.924 64.0202H284.584C285.278 64.0202 285.804 63.8669 286.164 63.5602C286.524 63.2535 286.704 62.8269 286.704 62.2802C286.704 61.7469 286.531 61.3202 286.184 61.0002C285.838 60.6669 285.331 60.5002 284.664 60.5002H281.924V64.0202Z" fill="black"/>
<path d="M265.826 72.0002V57.7002H276.666V60.6202H269.366V63.1802H275.626V65.9402H269.366V69.0002H276.786V72.0002H265.826Z" fill="black"/>
<path d="M251.763 72.0002V57.7002H255.303V63.1202H260.323V57.7002H263.863V72.0002H260.323V66.0402H255.303V72.0002H251.763Z" fill="black"/>
<path d="M235.895 72.0002L231.975 57.7002H235.555L236.995 63.7002L237.655 67.2402H237.695C237.948 65.9335 238.181 64.8002 238.395 63.8402L239.735 57.7002H243.015L244.355 63.8002L245.035 67.2402H245.075C245.341 65.8002 245.581 64.6069 245.795 63.6602L247.215 57.7002H250.775L246.855 72.0002H243.395L241.895 65.1402L241.395 62.4802H241.355C241.195 63.4935 241.035 64.3802 240.875 65.1402L239.375 72.0002H235.895Z" fill="black"/>
<path d="M219.73 67.1801V66.6201H227.81V67.1801H219.73Z" fill="black"/>
<path d="M204.309 67.4605H204.969C205.036 68.7538 205.496 69.7738 206.349 70.5205C207.216 71.2671 208.416 71.6405 209.949 71.6405C211.256 71.6405 212.296 71.3338 213.069 70.7205C213.842 70.1071 214.229 69.2805 214.229 68.2405C214.229 67.1738 213.876 66.4005 213.169 65.9205C212.462 65.4405 211.229 65.0405 209.469 64.7205C207.896 64.4271 206.736 64.0138 205.989 63.4805C205.256 62.9338 204.889 62.1205 204.889 61.0405C204.889 59.9605 205.309 59.1005 206.149 58.4605C207.002 57.8071 208.122 57.4805 209.509 57.4805C210.936 57.4805 212.062 57.8405 212.889 58.5605C213.729 59.2805 214.229 60.2605 214.389 61.5005H213.749C213.616 60.4071 213.176 59.5605 212.429 58.9605C211.682 58.3605 210.716 58.0605 209.529 58.0605C208.289 58.0605 207.309 58.3338 206.589 58.8805C205.882 59.4138 205.529 60.1271 205.529 61.0205C205.529 61.9271 205.856 62.6071 206.509 63.0605C207.162 63.5138 208.249 63.8805 209.769 64.1605C210.622 64.3205 211.329 64.4871 211.889 64.6605C212.449 64.8338 212.969 65.0738 213.449 65.3805C213.942 65.6738 214.302 66.0538 214.529 66.5205C214.756 66.9871 214.869 67.5471 214.869 68.2005C214.869 69.4005 214.429 70.3738 213.549 71.1205C212.669 71.8538 211.476 72.2205 209.969 72.2205C208.196 72.2205 206.829 71.7871 205.869 70.9205C204.922 70.0405 204.402 68.8871 204.309 67.4605Z" fill="black"/>
<path d="M193.68 65.3402V72.0002H193.06V57.7002H198.78C200.113 57.7002 201.146 58.0335 201.88 58.7002C202.613 59.3535 202.98 60.2869 202.98 61.5002C202.98 63.4335 202.086 64.6069 200.3 65.0202V65.0402C201.1 65.2269 201.68 65.6135 202.04 66.2002C202.413 66.7869 202.62 67.6135 202.66 68.6802C202.713 70.5869 202.906 71.6735 203.24 71.9402V72.0002H202.56C202.253 71.7869 202.073 70.6802 202.02 68.6802C201.98 67.4935 201.713 66.6402 201.22 66.1202C200.726 65.6002 199.913 65.3402 198.78 65.3402H193.68ZM193.68 58.2602V64.7602H198.56C201.08 64.7602 202.34 63.6802 202.34 61.5202C202.34 60.4802 202.026 59.6802 201.4 59.1202C200.786 58.5469 199.893 58.2602 198.72 58.2602H193.68Z" fill="black"/>
<path d="M189.151 70.1205C187.925 71.5071 186.345 72.2005 184.411 72.2005C182.478 72.2005 180.898 71.5138 179.671 70.1405C178.458 68.7538 177.851 66.9938 177.851 64.8605C177.851 62.7271 178.458 60.9671 179.671 59.5805C180.898 58.1805 182.478 57.4805 184.411 57.4805C186.345 57.4805 187.925 58.1805 189.151 59.5805C190.391 60.9671 191.011 62.7271 191.011 64.8605C191.011 66.9805 190.391 68.7338 189.151 70.1205ZM180.111 69.7005C181.191 70.9805 182.625 71.6205 184.411 71.6205C186.198 71.6205 187.631 70.9738 188.711 69.6805C189.805 68.3871 190.351 66.7805 190.351 64.8605C190.351 62.9271 189.805 61.3138 188.711 60.0205C187.631 58.7138 186.198 58.0605 184.411 58.0605C182.625 58.0605 181.191 58.7071 180.111 60.0005C179.045 61.2938 178.511 62.9138 178.511 64.8605C178.511 66.7938 179.045 68.4071 180.111 69.7005Z" fill="black"/>
<path d="M175.751 57.7002V72.0002H175.131V57.7002H175.751Z" fill="black"/>
<path d="M163.582 65.3402V72.0002H162.962V57.7002H168.682C170.015 57.7002 171.049 58.0335 171.782 58.7002C172.515 59.3535 172.882 60.2869 172.882 61.5002C172.882 63.4335 171.989 64.6069 170.202 65.0202V65.0402C171.002 65.2269 171.582 65.6135 171.942 66.2002C172.315 66.7869 172.522 67.6135 172.562 68.6802C172.615 70.5869 172.809 71.6735 173.142 71.9402V72.0002H172.462C172.155 71.7869 171.975 70.6802 171.922 68.6802C171.882 67.4935 171.615 66.6402 171.122 66.1202C170.629 65.6002 169.815 65.3402 168.682 65.3402H163.582ZM163.582 58.2602V64.7602H168.462C170.982 64.7602 172.242 63.6802 172.242 61.5202C172.242 60.4802 171.929 59.6802 171.302 59.1202C170.689 58.5469 169.795 58.2602 168.622 58.2602H163.582Z" fill="black"/>
<path d="M151.942 58.2602V64.3202H160.022V64.8802H151.942V71.4202H160.922V72.0002H151.322V57.7002H160.722V58.2602H151.942Z" fill="black"/>
<path d="M144.521 72.0002H143.881V58.2802H138.781V57.7002H149.621V58.2802H144.521V72.0002Z" fill="black"/>
<path d="M137.078 57.7002V72.0002H136.418L127.098 58.7402H127.078V72.0002H126.478V57.7002H127.178L136.458 70.9602H136.478V57.7002H137.078Z" fill="black"/>
<path d="M123.818 57.7002V72.0002H123.198V57.7002H123.818Z" fill="black"/>
<path d="M117.888 57.7002L111.748 63.5802L118.508 72.0002H117.748L111.288 64.0202L108.328 66.8402V72.0002H107.708V57.7002H108.328V66.0602L117.048 57.7002H117.888Z" fill="black"/>
<path d="M96.2189 65.3402V72.0002H95.5989V57.7002H101.319C102.652 57.7002 103.686 58.0335 104.419 58.7002C105.152 59.3535 105.519 60.2869 105.519 61.5002C105.519 63.4335 104.626 64.6069 102.839 65.0202V65.0402C103.639 65.2269 104.219 65.6135 104.579 66.2002C104.952 66.7869 105.159 67.6135 105.199 68.6802C105.252 70.5869 105.446 71.6735 105.779 71.9402V72.0002H105.099C104.792 71.7869 104.612 70.6802 104.559 68.6802C104.519 67.4935 104.252 66.6402 103.759 66.1202C103.266 65.6002 102.452 65.3402 101.319 65.3402H96.2189ZM96.2189 58.2602V64.7602H101.099C103.619 64.7602 104.879 63.6802 104.879 61.5202C104.879 60.4802 104.566 59.6802 103.939 59.1202C103.326 58.5469 102.432 58.2602 101.259 58.2602H96.2189Z" fill="black"/>
<path d="M93.4885 72.0002L91.6085 67.1202H84.9285L83.0485 72.0002H82.3885L87.9085 57.7002H88.6285L94.1485 72.0002H93.4885ZM88.2685 58.4602L85.1285 66.5802H91.3885L88.2885 58.4602H88.2685Z" fill="black"/>
<path d="M73.9892 72.0002L68.2892 58.6602H68.2692V72.0002H67.6692V57.7002H68.5692L74.3092 71.1802H74.3292L79.9892 57.7002H80.9292V72.0002H80.3092V58.6602H80.2892L74.6292 72.0002H73.9892Z" fill="black"/>
<path d="M56.6486 58.2602V64.3202H64.7286V64.8802H56.6486V71.4202H65.6286V72.0002H56.0286V57.7002H65.4286V58.2602H56.6486Z" fill="black"/>
<path d="M44.5392 65.3402V72.0002H43.9192V57.7002H49.6392C50.9725 57.7002 52.0059 58.0335 52.7392 58.7002C53.4725 59.3535 53.8392 60.2869 53.8392 61.5002C53.8392 63.4335 52.9459 64.6069 51.1592 65.0202V65.0402C51.9592 65.2269 52.5392 65.6135 52.8992 66.2002C53.2725 66.7869 53.4792 67.6135 53.5192 68.6802C53.5725 70.5869 53.7659 71.6735 54.0992 71.9402V72.0002H53.4192C53.1125 71.7869 52.9325 70.6802 52.8792 68.6802C52.8392 67.4935 52.5725 66.6402 52.0792 66.1202C51.5859 65.6002 50.7725 65.3402 49.6392 65.3402H44.5392ZM44.5392 58.2602V64.7602H49.4192C51.9392 64.7602 53.1992 63.6802 53.1992 61.5202C53.1992 60.4802 52.8859 59.6802 52.2592 59.1202C51.6459 58.5469 50.7525 58.2602 49.5792 58.2602H44.5392Z" fill="black"/>
<path d="M308.304 48.0002V33.7002H308.924V40.1202H318.104V33.7002H318.724V48.0002H318.104V40.6602H308.924V48.0002H308.304Z" fill="black"/>
<path d="M301.503 48.0002H300.863V34.2802H295.763V33.7002H306.603V34.2802H301.503V48.0002Z" fill="black"/>
<path d="M294.003 33.7002V48.0002H293.383V33.7002H294.003Z" fill="black"/>
<path d="M283.02 33.7002H283.7L287.36 46.9802H287.38L291.14 33.7002H291.76L287.7 48.0002H287.02L283.36 34.7202H283.34L279.72 48.0002H279.02L274.92 33.7002H275.56L279.36 46.9602H279.38L283.02 33.7002Z" fill="black"/>
<path d="M261.658 34.2602V40.3202H269.738V40.8802H261.658V47.4202H270.638V48.0002H261.038V33.7002H270.438V34.2602H261.658Z" fill="black"/>
<path d="M258.902 37.7205H258.262C258.076 36.6671 257.562 35.7938 256.722 35.1005C255.882 34.3938 254.796 34.0405 253.462 34.0405C251.636 34.0405 250.209 34.6805 249.182 35.9605C248.156 37.2271 247.642 38.8605 247.642 40.8605C247.642 42.8871 248.149 44.5271 249.162 45.7805C250.189 47.0205 251.602 47.6405 253.402 47.6405C254.882 47.6405 256.069 47.1938 256.962 46.3005C257.856 45.3938 258.382 44.2538 258.542 42.8805H259.122C259.002 44.3205 258.496 45.5271 257.602 46.5005C256.562 47.6471 255.162 48.2205 253.402 48.2205C251.456 48.2205 249.896 47.5471 248.722 46.2005C247.562 44.8538 246.982 43.0738 246.982 40.8605C246.982 38.6738 247.569 36.9005 248.742 35.5405C249.916 34.1671 251.489 33.4805 253.462 33.4805C254.956 33.4805 256.176 33.8738 257.122 34.6605C258.082 35.4471 258.676 36.4671 258.902 37.7205Z" fill="black"/>
<path d="M246.233 48.0002L244.353 43.1202H237.673L235.793 48.0002H235.133L240.653 33.7002H241.373L246.893 48.0002H246.233ZM241.013 34.4602L237.873 42.5802H244.133L241.033 34.4602H241.013Z" fill="black"/>
<path d="M231.411 41.4602H226.951V48.0002H226.331V33.7002H231.551C232.778 33.7002 233.751 33.9802 234.471 34.5402C235.431 35.1935 235.911 36.2002 235.911 37.5602C235.911 40.1602 234.411 41.4602 231.411 41.4602ZM226.951 34.2802V40.9002H231.371C233.971 40.9002 235.271 39.7869 235.271 37.5602C235.271 36.5202 234.938 35.7135 234.271 35.1402C233.618 34.5669 232.698 34.2802 231.511 34.2802H226.951Z" fill="black"/>
<path d="M213.772 43.4605H214.432C214.499 44.7538 214.959 45.7738 215.812 46.5205C216.679 47.2671 217.879 47.6405 219.412 47.6405C220.719 47.6405 221.759 47.3338 222.532 46.7205C223.305 46.1071 223.692 45.2805 223.692 44.2405C223.692 43.1738 223.339 42.4005 222.632 41.9205C221.925 41.4405 220.692 41.0405 218.932 40.7205C217.359 40.4271 216.199 40.0138 215.452 39.4805C214.719 38.9338 214.352 38.1205 214.352 37.0405C214.352 35.9605 214.772 35.1005 215.612 34.4605C216.465 33.8071 217.585 33.4805 218.972 33.4805C220.399 33.4805 221.525 33.8405 222.352 34.5605C223.192 35.2805 223.692 36.2605 223.852 37.5005H223.212C223.079 36.4071 222.639 35.5605 221.892 34.9605C221.145 34.3605 220.179 34.0605 218.992 34.0605C217.752 34.0605 216.772 34.3338 216.052 34.8805C215.345 35.4138 214.992 36.1271 214.992 37.0205C214.992 37.9271 215.319 38.6071 215.972 39.0605C216.625 39.5138 217.712 39.8805 219.232 40.1605C220.085 40.3205 220.792 40.4871 221.352 40.6605C221.912 40.8338 222.432 41.0738 222.912 41.3805C223.405 41.6738 223.765 42.0538 223.992 42.5205C224.219 42.9871 224.332 43.5471 224.332 44.2005C224.332 45.4005 223.892 46.3738 223.012 47.1205C222.132 47.8538 220.939 48.2205 219.432 48.2205C217.659 48.2205 216.292 47.7871 215.332 46.9205C214.385 46.0405 213.865 44.8871 213.772 43.4605Z" fill="black"/>
<path d="M197.789 48.0002V33.7002H204.629C206.095 33.7002 207.295 34.0669 208.229 34.8002C209.162 35.5202 209.629 36.5269 209.629 37.8202C209.629 39.5535 208.802 40.7069 207.149 41.2802V41.3402C208.349 41.7402 209.042 42.6135 209.229 43.9602C209.309 44.4269 209.362 45.0069 209.389 45.7002C209.429 46.3802 209.475 46.8935 209.529 47.2402C209.582 47.5735 209.682 47.7669 209.829 47.8202V48.0002H206.389C206.282 47.9335 206.195 47.7402 206.129 47.4202C206.075 47.1002 206.029 46.6469 205.989 46.0602C205.949 45.4735 205.902 45.0135 205.849 44.6802C205.662 43.3202 204.869 42.6402 203.469 42.6402H201.329V48.0002H197.789ZM201.329 40.0202H203.989C204.682 40.0202 205.209 39.8669 205.569 39.5602C205.929 39.2535 206.109 38.8269 206.109 38.2802C206.109 37.7469 205.935 37.3202 205.589 37.0002C205.242 36.6669 204.735 36.5002 204.069 36.5002H201.329V40.0202Z" fill="black"/>
<path d="M189.978 48.2602C188.004 48.2602 186.511 47.8002 185.498 46.8802C184.484 45.9602 183.978 44.6535 183.978 42.9602V33.7002H187.518V43.0802C187.518 44.6402 188.338 45.4202 189.978 45.4202C190.764 45.4202 191.364 45.2069 191.778 44.7802C192.191 44.3402 192.398 43.7535 192.398 43.0202V33.7002H195.938V42.9602C195.938 44.6402 195.431 45.9469 194.418 46.8802C193.418 47.8002 191.938 48.2602 189.978 48.2602Z" fill="black"/>
<path d="M175.636 45.4599C176.756 45.4599 177.61 45.0399 178.196 44.1999C178.796 43.3466 179.096 42.2399 179.096 40.8799C179.096 39.5199 178.796 38.4133 178.196 37.5599C177.61 36.7066 176.756 36.2799 175.636 36.2799C174.53 36.2799 173.67 36.7066 173.056 37.5599C172.456 38.4133 172.156 39.5199 172.156 40.8799C172.156 42.2266 172.456 43.3266 173.056 44.1799C173.67 45.0333 174.53 45.4599 175.636 45.4599ZM180.756 46.2399C179.463 47.6399 177.75 48.3399 175.616 48.3399C173.483 48.3399 171.77 47.6399 170.476 46.2399C169.196 44.8399 168.556 43.0533 168.556 40.8799C168.556 38.7066 169.196 36.9199 170.476 35.5199C171.77 34.1199 173.483 33.4199 175.616 33.4199C177.75 33.4199 179.463 34.1199 180.756 35.5199C182.05 36.9199 182.696 38.7066 182.696 40.8799C182.696 43.0533 182.05 44.8399 180.756 46.2399Z" fill="black"/>
<path d="M161.063 48.0002V42.7202L156.223 33.7002H160.083L161.923 37.4002L162.863 39.5802H162.903C163.236 38.7802 163.563 38.0535 163.883 37.4002L165.703 33.7002H169.443L164.603 42.7202V48.0002H161.063Z" fill="black"/>
<path d="M134.292 48.0002V33.7002H139.052L140.792 39.9602L141.612 43.2202H141.652C142.026 41.6469 142.292 40.5602 142.452 39.9602L144.212 33.7002H149.012V48.0002H145.772V40.8002L145.832 37.9402H145.792C145.459 39.3669 145.239 40.2535 145.132 40.6002L143.072 48.0002H140.152L138.112 40.6202L137.452 37.9402H137.412C137.452 39.4735 137.472 40.4335 137.472 40.8202V48.0002H134.292Z" fill="black"/>
<path d="M120.875 48.0002V33.7002H127.715C129.181 33.7002 130.381 34.0669 131.315 34.8002C132.248 35.5202 132.715 36.5269 132.715 37.8202C132.715 39.5535 131.888 40.7069 130.235 41.2802V41.3402C131.435 41.7402 132.128 42.6135 132.315 43.9602C132.395 44.4269 132.448 45.0069 132.475 45.7002C132.515 46.3802 132.561 46.8935 132.615 47.2402C132.668 47.5735 132.768 47.7669 132.915 47.8202V48.0002H129.475C129.368 47.9335 129.281 47.7402 129.215 47.4202C129.161 47.1002 129.115 46.6469 129.075 46.0602C129.035 45.4735 128.988 45.0135 128.935 44.6802C128.748 43.3202 127.955 42.6402 126.555 42.6402H124.415V48.0002H120.875ZM124.415 40.0202H127.075C127.768 40.0202 128.295 39.8669 128.655 39.5602C129.015 39.2535 129.195 38.8269 129.195 38.2802C129.195 37.7469 129.021 37.3202 128.675 37.0002C128.328 36.6669 127.821 36.5002 127.155 36.5002H124.415V40.0202Z" fill="black"/>
<path d="M112.433 45.4599C113.553 45.4599 114.406 45.0399 114.993 44.1999C115.593 43.3466 115.893 42.2399 115.893 40.8799C115.893 39.5199 115.593 38.4133 114.993 37.5599C114.406 36.7066 113.553 36.2799 112.433 36.2799C111.326 36.2799 110.466 36.7066 109.853 37.5599C109.253 38.4133 108.953 39.5199 108.953 40.8799C108.953 42.2266 109.253 43.3266 109.853 44.1799C110.466 45.0333 111.326 45.4599 112.433 45.4599ZM117.553 46.2399C116.26 47.6399 114.546 48.3399 112.413 48.3399C110.28 48.3399 108.566 47.6399 107.273 46.2399C105.993 44.8399 105.353 43.0533 105.353 40.8799C105.353 38.7066 105.993 36.9199 107.273 35.5199C108.566 34.1199 110.28 33.4199 112.413 33.4199C114.546 33.4199 116.26 34.1199 117.553 35.5199C118.846 36.9199 119.493 38.7066 119.493 40.8799C119.493 43.0533 118.846 44.8399 117.553 46.2399Z" fill="black"/>
<path d="M94.2925 48.0002V33.7002H104.932V36.6802H97.8325V39.5802H103.772V42.4402H97.8325V48.0002H94.2925Z" fill="black"/>
<path d="M86.9847 48.3404C85.0514 48.3404 83.5114 47.9271 82.3647 47.1004C81.2314 46.2604 80.6447 45.0604 80.6047 43.5004H84.1647C84.3114 44.8604 85.2447 45.5404 86.9647 45.5404C87.6047 45.5404 88.1447 45.4204 88.5847 45.1804C89.0381 44.9271 89.2647 44.5471 89.2647 44.0404C89.2647 43.6938 89.1247 43.4071 88.8447 43.1804C88.5647 42.9404 88.2781 42.7738 87.9847 42.6804C87.7047 42.5871 87.1647 42.4404 86.3647 42.2404C86.3247 42.2271 86.2981 42.2204 86.2847 42.2204C86.2714 42.2071 86.2514 42.2004 86.2247 42.2004C86.1981 42.1871 86.1714 42.1804 86.1447 42.1804C85.5314 42.0338 85.0247 41.9071 84.6247 41.8004C84.2381 41.6804 83.7914 41.5071 83.2847 41.2804C82.7914 41.0404 82.3981 40.7804 82.1047 40.5004C81.8114 40.2204 81.5581 39.8538 81.3447 39.4004C81.1447 38.9338 81.0447 38.4138 81.0447 37.8404C81.0447 36.3738 81.5647 35.2738 82.6047 34.5404C83.6581 33.8071 85.0314 33.4404 86.7247 33.4404C88.3514 33.4404 89.6781 33.8138 90.7047 34.5604C91.7447 35.3071 92.2981 36.4004 92.3647 37.8404H88.9047C88.8381 37.2938 88.6047 36.8738 88.2047 36.5804C87.8047 36.2738 87.2714 36.1204 86.6047 36.1204C85.9914 36.1204 85.4914 36.2471 85.1047 36.5004C84.7314 36.7404 84.5447 37.0604 84.5447 37.4604C84.5447 37.9138 84.7714 38.2471 85.2247 38.4604C85.6781 38.6604 86.5314 38.9004 87.7847 39.1804C88.5714 39.3671 89.2181 39.5538 89.7247 39.7404C90.2314 39.9138 90.7447 40.1671 91.2647 40.5004C91.7981 40.8338 92.1914 41.2671 92.4447 41.8004C92.7114 42.3204 92.8447 42.9471 92.8447 43.6804C92.8447 45.1338 92.2914 46.2738 91.1847 47.1004C90.0914 47.9271 88.6914 48.3404 86.9847 48.3404Z" fill="black"/>
<path d="M67.0854 48.0002V33.7002H70.6455L74.8854 40.8802L75.8655 42.7002H75.9055C75.8788 41.5535 75.8655 40.8135 75.8655 40.4802V33.7002H79.3255V48.0002H75.7655L71.5654 40.9202L70.5454 39.0002H70.5055C70.5321 40.2269 70.5454 41.0069 70.5454 41.3402V48.0002H67.0854Z" fill="black"/>
<path d="M52.1401 48.0002L57.2801 33.7002H60.9201L66.0801 48.0002H62.3601L61.5201 45.4202H56.5201L55.7001 48.0002H52.1401ZM57.3401 42.8802H60.7001L59.6201 39.4202L59.0601 37.4002H59.0201C58.7935 38.2535 58.6001 38.9269 58.4401 39.4202L57.3401 42.8802Z" fill="black"/>
<path d="M39.5269 48.0002V33.7002H46.3669C47.8335 33.7002 49.0335 34.0669 49.9669 34.8002C50.9002 35.5202 51.3669 36.5269 51.3669 37.8202C51.3669 39.5535 50.5402 40.7069 48.8869 41.2802V41.3402C50.0869 41.7402 50.7802 42.6135 50.9669 43.9602C51.0469 44.4269 51.1002 45.0069 51.1269 45.7002C51.1669 46.3802 51.2135 46.8935 51.2669 47.2402C51.3202 47.5735 51.4202 47.7669 51.5669 47.8202V48.0002H48.1269C48.0202 47.9335 47.9335 47.7402 47.8669 47.4202C47.8135 47.1002 47.7669 46.6469 47.7269 46.0602C47.6869 45.4735 47.6402 45.0135 47.5869 44.6802C47.4002 43.3202 46.6069 42.6402 45.2069 42.6402H43.0669V48.0002H39.5269ZM43.0669 40.0202H45.7269C46.4202 40.0202 46.9469 39.8669 47.3069 39.5602C47.6669 39.2535 47.8469 38.8269 47.8469 38.2802C47.8469 37.7469 47.6735 37.3202 47.3269 37.0002C46.9802 36.6669 46.4735 36.5002 45.8069 36.5002H43.0669V40.0202Z" fill="black"/>
<path d="M30.4687 48.0002V36.7002H26.3087V33.7002H38.2087V36.7002H34.0087V48.0002H30.4687Z" fill="black"/>
<path d="M342.837 139.64C344.064 139.64 345.051 140.013 345.797 140.76C346.544 141.507 346.917 142.493 346.917 143.72C346.917 144.84 346.491 145.827 345.637 146.68C344.837 147.48 343.824 147.88 342.597 147.88C341.317 147.88 340.197 147.373 339.237 146.36C338.331 145.293 337.877 143.987 337.877 142.44C337.877 139.507 338.651 137.133 340.197 135.32C341.744 133.453 343.504 132.307 345.477 131.88L345.637 132.44C343.877 132.813 342.277 133.853 340.837 135.56C339.451 137.213 338.757 139.16 338.757 141.4C338.757 141.667 338.784 141.933 338.837 142.2C339.584 140.493 340.917 139.64 342.837 139.64ZM330.997 139.64C332.224 139.64 333.211 140.013 333.957 140.76C334.704 141.507 335.077 142.493 335.077 143.72C335.077 144.84 334.651 145.827 333.797 146.68C332.997 147.48 331.984 147.88 330.757 147.88C329.477 147.88 328.357 147.373 327.397 146.36C326.491 145.293 326.037 143.987 326.037 142.44C326.037 139.507 326.811 137.133 328.357 135.32C329.904 133.453 331.664 132.307 333.637 131.88L333.797 132.44C332.037 132.813 330.437 133.853 328.997 135.56C327.611 137.213 326.917 139.16 326.917 141.4C326.917 141.667 326.944 141.933 326.997 142.2C327.744 140.493 329.077 139.64 330.997 139.64Z" fill="black"/>
<path d="M16.8375 8.63988C18.0641 8.63988 19.0508 9.01322 19.7975 9.75988C20.5441 10.5065 20.9175 11.4932 20.9175 12.7199C20.9175 13.8399 20.4908 14.8265 19.6375 15.6799C18.8375 16.4799 17.8241 16.8799 16.5975 16.8799C15.3175 16.8799 14.1975 16.3732 13.2375 15.3599C12.3308 14.2932 11.8775 12.9865 11.8775 11.4399C11.8775 8.50655 12.6508 6.13321 14.1975 4.31988C15.7441 2.45321 17.5041 1.30655 19.4775 0.879883L19.6375 1.43988C17.8775 1.81322 16.2775 2.85322 14.8375 4.55988C13.4508 6.21321 12.7575 8.15988 12.7575 10.3999C12.7575 10.6665 12.7841 10.9332 12.8375 11.1999C13.5841 9.49322 14.9175 8.63988 16.8375 8.63988ZM4.99748 8.63988C6.22414 8.63988 7.21081 9.01322 7.95748 9.75988C8.70414 10.5065 9.07748 11.4932 9.07748 12.7199C9.07748 13.8399 8.65081 14.8265 7.79748 15.6799C6.99748 16.4799 5.98414 16.8799 4.75747 16.8799C3.47748 16.8799 2.35748 16.3732 1.39748 15.3599C0.490809 14.2932 0.0374756 12.9865 0.0374756 11.4399C0.0374756 8.50655 0.810809 6.13321 2.35748 4.31988C3.90414 2.45321 5.66414 1.30655 7.63748 0.879883L7.79748 1.43988C6.03748 1.81322 4.43748 2.85322 2.99748 4.55988C1.61081 6.21321 0.917475 8.15988 0.917475 10.3999C0.917475 10.6665 0.944142 10.9332 0.997476 11.1999C1.74414 9.49322 3.07748 8.63988 4.99748 8.63988Z" fill="black"/>
</svg>
