<svg width="981" height="235" viewBox="0 0 981 235" fill="none" xmlns="http://www.w3.org/2000/svg">
<line x1="400" y1="6.5" x2="580" y2="6.5" stroke="black"/>
<path d="M744.396 155.4L754.156 170H754.196L763.996 155.4H765.396L754.796 171.2V184H753.556V171.16L742.996 155.4H744.396Z" fill="black"/>
<path d="M744.258 184L740.498 174.24H727.138L723.378 184H722.058L733.098 155.4H734.538L745.578 184H744.258ZM733.818 156.92L727.538 173.16H740.058L733.858 156.92H733.818Z" fill="black"/>
<path d="M706.349 155.4H707.709L715.029 181.96H715.069L722.589 155.4H723.829L715.709 184H714.349L707.029 157.44H706.989L699.749 184H698.349L690.149 155.4H691.429L699.029 181.92H699.069L706.349 155.4Z" fill="black"/>
<path d="M663.625 156.52V168.64H679.785V169.76H663.625V182.84H681.585V184H662.385V155.4H681.185V156.52H663.625Z" fill="black"/>
<path d="M636.331 184V155.4H637.571V168.24H655.931V155.4H657.171V184H655.931V169.32H637.571V184H636.331Z" fill="black"/>
<path d="M622.729 184H621.449V156.56H611.249V155.4H632.929V156.56H622.729V184Z" fill="black"/>
<path d="M585.696 156.52V168.52H600.456V169.64H585.696V184H584.456V155.4H602.856V156.52H585.696Z" fill="black"/>
<path d="M576.639 180.24C574.185 183.013 571.025 184.4 567.159 184.4C563.292 184.4 560.132 183.027 557.679 180.28C555.252 177.507 554.039 173.987 554.039 169.72C554.039 165.453 555.252 161.933 557.679 159.16C560.132 156.36 563.292 154.96 567.159 154.96C571.025 154.96 574.185 156.36 576.639 159.16C579.119 161.933 580.359 165.453 580.359 169.72C580.359 173.96 579.119 177.467 576.639 180.24ZM558.559 179.4C560.719 181.96 563.585 183.24 567.159 183.24C570.732 183.24 573.599 181.947 575.759 179.36C577.945 176.773 579.039 173.56 579.039 169.72C579.039 165.853 577.945 162.627 575.759 160.04C573.599 157.427 570.732 156.12 567.159 156.12C563.585 156.12 560.719 157.413 558.559 160C556.425 162.587 555.359 165.827 555.359 169.72C555.359 173.587 556.425 176.813 558.559 179.4Z" fill="black"/>
<path d="M536.061 170.92H527.141V184H525.901V155.4H536.341C538.794 155.4 540.741 155.96 542.181 157.08C544.101 158.387 545.061 160.4 545.061 163.12C545.061 168.32 542.061 170.92 536.061 170.92ZM527.141 156.56V169.8H535.981C541.181 169.8 543.781 167.573 543.781 163.12C543.781 161.04 543.114 159.427 541.781 158.28C540.474 157.133 538.634 156.56 536.261 156.56H527.141Z" fill="black"/>
<path d="M503.86 156.52V168.64H520.02V169.76H503.86V182.84H521.82V184H502.62V155.4H521.42V156.52H503.86Z" fill="black"/>
<path d="M489.018 184H487.738V156.56H477.538V155.4H499.218V156.56H489.018V184Z" fill="black"/>
<path d="M455.821 174.92H457.141C457.275 177.507 458.195 179.547 459.901 181.04C461.635 182.533 464.035 183.28 467.101 183.28C469.715 183.28 471.795 182.667 473.341 181.44C474.888 180.213 475.661 178.56 475.661 176.48C475.661 174.347 474.955 172.8 473.541 171.84C472.128 170.88 469.661 170.08 466.141 169.44C462.995 168.853 460.675 168.027 459.181 166.96C457.715 165.867 456.981 164.24 456.981 162.08C456.981 159.92 457.821 158.2 459.501 156.92C461.208 155.613 463.448 154.96 466.221 154.96C469.075 154.96 471.328 155.68 472.981 157.12C474.661 158.56 475.661 160.52 475.981 163H474.701C474.435 160.813 473.555 159.12 472.061 157.92C470.568 156.72 468.635 156.12 466.261 156.12C463.781 156.12 461.821 156.667 460.381 157.76C458.968 158.827 458.261 160.253 458.261 162.04C458.261 163.853 458.915 165.213 460.221 166.12C461.528 167.027 463.701 167.76 466.741 168.32C468.448 168.64 469.861 168.973 470.981 169.32C472.101 169.667 473.141 170.147 474.101 170.76C475.088 171.347 475.808 172.107 476.261 173.04C476.715 173.973 476.941 175.093 476.941 176.4C476.941 178.8 476.061 180.747 474.301 182.24C472.541 183.707 470.155 184.44 467.141 184.44C463.595 184.44 460.861 183.573 458.941 181.84C457.048 180.08 456.008 177.773 455.821 174.92Z" fill="black"/>
<path d="M430.833 184V173.96L421.033 155.4H430.113L433.153 161.76C433.473 162.4 433.793 163.107 434.113 163.88C434.433 164.653 434.673 165.253 434.833 165.68L435.073 166.36H435.153C435.767 164.733 436.42 163.2 437.113 161.76L440.153 155.4H449.033L439.193 173.96V184H430.833Z" fill="black"/>
<path d="M396.193 184V155.4H410.393C413.513 155.4 416.086 156.133 418.113 157.6C420.166 159.04 421.193 161.147 421.193 163.92C421.193 167.147 419.633 169.467 416.513 170.88V171C418.673 171.827 420.006 173.4 420.513 175.72C420.726 176.627 420.859 177.76 420.913 179.12C420.966 180.453 421.033 181.507 421.113 182.28C421.193 183.053 421.379 183.48 421.673 183.56V184H413.433C413.193 183.84 413.033 183.413 412.953 182.72C412.873 182 412.793 181.093 412.713 180C412.633 178.907 412.513 178.027 412.353 177.36C412.086 176.213 411.659 175.373 411.073 174.84C410.486 174.307 409.606 174.04 408.433 174.04H404.553V184H396.193ZM404.553 161.96V168.08H409.033C411.513 168.08 412.753 167.067 412.753 165.04C412.753 164.08 412.446 163.333 411.833 162.8C411.219 162.24 410.326 161.96 409.153 161.96H404.553Z" fill="black"/>
<path d="M370.724 184V155.4H393.004V162.2H379.084V166.08H390.724V172.36H379.084V176.84H393.404V184H370.724Z" fill="black"/>
<path d="M350.659 184L341.499 155.4H350.099L354.019 168.84L355.419 174.4H355.499C355.979 172.32 356.446 170.467 356.899 168.84L360.739 155.4H369.219L360.019 184H350.659Z" fill="black"/>
<path d="M317.951 184V155.4H340.231V162.2H326.311V166.08H337.951V172.36H326.311V176.84H340.631V184H317.951Z" fill="black"/>
<path d="M284.026 184.52C279.813 184.52 276.626 183.533 274.466 181.56C272.333 179.56 271.266 176.733 271.266 173.08V155.4H279.626V173.56C279.626 174.92 280 175.973 280.746 176.72C281.52 177.467 282.653 177.84 284.146 177.84C285.533 177.84 286.586 177.44 287.306 176.64C288.053 175.813 288.426 174.733 288.426 173.4V155.4H296.786V173.08C296.786 176.68 295.706 179.493 293.546 181.52C291.386 183.52 288.213 184.52 284.026 184.52Z" fill="black"/>
<path d="M265.152 180.52C262.485 183.293 258.965 184.68 254.592 184.68C250.218 184.68 246.712 183.293 244.072 180.52C241.432 177.72 240.112 174.147 240.112 169.8C240.112 165.453 241.432 161.88 244.072 159.08C246.712 156.28 250.218 154.88 254.592 154.88C258.965 154.88 262.485 156.28 265.152 159.08C267.818 161.88 269.152 165.453 269.152 169.8C269.152 174.147 267.818 177.72 265.152 180.52ZM250.152 175.72C251.192 177.24 252.685 178 254.632 178C256.578 178 258.072 177.24 259.112 175.72C260.152 174.2 260.672 172.227 260.672 169.8C260.672 167.373 260.152 165.4 259.112 163.88C258.072 162.333 256.578 161.56 254.632 161.56C252.685 161.56 251.192 162.333 250.152 163.88C249.112 165.4 248.592 167.373 248.592 169.8C248.592 172.227 249.112 174.2 250.152 175.72Z" fill="black"/>
<path d="M223.997 184V173.96L214.197 155.4H223.277L226.317 161.76C226.637 162.4 226.957 163.107 227.277 163.88C227.597 164.653 227.837 165.253 227.997 165.68L228.237 166.36H228.317C228.931 164.733 229.584 163.2 230.277 161.76L233.317 155.4H242.197L232.357 173.96V184H223.997Z" fill="black"/>
<path d="M919.493 136V107.4H927.854V117.88H936.654V107.4H945.013V136H936.654V124.8H927.854V136H919.493Z" fill="black"/>
<path d="M892.514 114.52V107.4H917.154V114.52H908.954V136H900.594V114.52H892.514Z" fill="black"/>
<path d="M881.837 136V107.4H890.197V136H881.837Z" fill="black"/>
<path d="M848.683 136L841.363 107.4H849.723L851.803 117.2L853.203 125.16H853.283C853.789 122.307 854.283 119.787 854.763 117.6L856.963 107.4H864.523L866.723 117.52L868.163 125.16H868.243C868.749 121.933 869.229 119.253 869.683 117.12L871.763 107.4H880.323L872.803 136H864.363L861.803 123.88L860.803 118.32H860.723C860.403 120.373 860.069 122.227 859.723 123.88L857.243 136H848.683Z" fill="black"/>
<path d="M811.837 136V107.4H834.117V114.2H820.197V118.08H831.837V124.36H820.197V128.84H834.517V136H811.837Z" fill="black"/>
<path d="M784.181 136V107.4H798.381C801.501 107.4 804.074 108.133 806.101 109.6C808.154 111.04 809.181 113.147 809.181 115.92C809.181 119.147 807.621 121.467 804.501 122.88V123C806.661 123.827 807.994 125.4 808.501 127.72C808.714 128.627 808.848 129.76 808.901 131.12C808.954 132.453 809.021 133.507 809.101 134.28C809.181 135.053 809.368 135.48 809.661 135.56V136H801.421C801.181 135.84 801.021 135.413 800.941 134.72C800.861 134 800.781 133.093 800.701 132C800.621 130.907 800.501 130.027 800.341 129.36C800.074 128.213 799.648 127.373 799.061 126.84C798.474 126.307 797.594 126.04 796.421 126.04H792.541V136H784.181ZM792.541 113.96V120.08H797.021C799.501 120.08 800.741 119.067 800.741 117.04C800.741 116.08 800.434 115.333 799.821 114.8C799.208 114.24 798.314 113.96 797.141 113.96H792.541Z" fill="black"/>
<path d="M758.712 136V107.4H780.992V114.2H767.072V118.08H778.712V124.36H767.072V128.84H781.392V136H758.712Z" fill="black"/>
<path d="M729.767 136V107.4H738.127V117.88H746.927V107.4H755.287V136H746.927V124.8H738.127V136H729.767Z" fill="black"/>
<path d="M702.788 114.52V107.4H727.428V114.52H719.228V136H710.868V114.52H702.788Z" fill="black"/>
<path d="M664.975 114.52V107.4H689.615V114.52H681.415V136H673.055V114.52H664.975Z" fill="black"/>
<path d="M637.15 136V107.4H645.51V117.88H654.31V107.4H662.67V136H654.31V124.8H645.51V136H637.15Z" fill="black"/>
<path d="M628.74 136L628.1 132.96H628.02C626.314 135.44 623.58 136.68 619.82 136.68C615.9 136.68 612.754 135.413 610.38 132.88C607.74 130.08 606.42 126.387 606.42 121.8C606.42 117.48 607.7 113.92 610.26 111.12C612.847 108.293 616.3 106.88 620.62 106.88C624.327 106.88 627.327 107.787 629.62 109.6C631.914 111.413 633.287 113.92 633.74 117.12H625.66C625.42 116.16 624.874 115.36 624.02 114.72C623.194 114.08 622.167 113.76 620.94 113.76C618.994 113.76 617.5 114.493 616.46 115.96C615.42 117.427 614.9 119.373 614.9 121.8C614.9 124.2 615.46 126.16 616.58 127.68C617.727 129.2 619.287 129.96 621.26 129.96C623.98 129.96 625.66 128.773 626.3 126.4H622.5V120.48H634.3V136H628.74Z" fill="black"/>
<path d="M595.743 136V107.4H604.104V136H595.743Z" fill="black"/>
<path d="M568.087 136V107.4H582.287C585.407 107.4 587.981 108.133 590.007 109.6C592.061 111.04 593.087 113.147 593.087 115.92C593.087 119.147 591.527 121.467 588.407 122.88V123C590.567 123.827 591.901 125.4 592.407 127.72C592.621 128.627 592.754 129.76 592.807 131.12C592.861 132.453 592.927 133.507 593.007 134.28C593.087 135.053 593.274 135.48 593.567 135.56V136H585.327C585.087 135.84 584.927 135.413 584.847 134.72C584.767 134 584.687 133.093 584.607 132C584.527 130.907 584.407 130.027 584.247 129.36C583.981 128.213 583.554 127.373 582.967 126.84C582.381 126.307 581.501 126.04 580.327 126.04H576.447V136H568.087ZM576.447 113.96V120.08H580.927C583.407 120.08 584.647 119.067 584.647 117.04C584.647 116.08 584.341 115.333 583.727 114.8C583.114 114.24 582.221 113.96 581.047 113.96H576.447Z" fill="black"/>
<path d="M530.665 136V107.4H552.945V114.2H539.025V118.08H550.665V124.36H539.025V128.84H553.345V136H530.665Z" fill="black"/>
<path d="M503.009 136V107.4H517.209C520.329 107.4 522.903 108.133 524.929 109.6C526.983 111.04 528.009 113.147 528.009 115.92C528.009 119.147 526.449 121.467 523.329 122.88V123C525.489 123.827 526.822 125.4 527.329 127.72C527.542 128.627 527.676 129.76 527.729 131.12C527.782 132.453 527.849 133.507 527.929 134.28C528.009 135.053 528.196 135.48 528.489 135.56V136H520.249C520.009 135.84 519.849 135.413 519.769 134.72C519.689 134 519.609 133.093 519.529 132C519.449 130.907 519.329 130.027 519.169 129.36C518.902 128.213 518.476 127.373 517.889 126.84C517.302 126.307 516.422 126.04 515.249 126.04H511.369V136H503.009ZM511.369 113.96V120.08H515.849C518.329 120.08 519.569 119.067 519.569 117.04C519.569 116.08 519.262 115.333 518.649 114.8C518.036 114.24 517.142 113.96 515.969 113.96H511.369Z" fill="black"/>
<path d="M493.124 118.88V107.4H499.684V118.88H493.124Z" fill="black"/>
<path d="M467.775 136V107.4H490.055V114.2H476.135V118.08H487.775V124.36H476.135V128.84H490.455V136H467.775Z" fill="black"/>
<path d="M434.62 136L427.3 107.4H435.66L437.74 117.2L439.14 125.16H439.22C439.727 122.307 440.22 119.787 440.7 117.6L442.9 107.4H450.46L452.66 117.52L454.1 125.16H454.18C454.687 121.933 455.167 119.253 455.62 117.12L457.7 107.4H466.26L458.74 136H450.3L447.74 123.88L446.74 118.32H446.66C446.34 120.373 446.007 122.227 445.66 123.88L443.18 136H434.62Z" fill="black"/>
<path d="M396.428 136V107.4H406.668C409.335 107.4 411.575 108.067 413.388 109.4C415.202 110.707 416.495 112.427 417.268 114.56C418.068 116.667 418.468 119.093 418.468 121.84C418.468 126.053 417.442 129.467 415.388 132.08C413.362 134.693 410.362 136 406.388 136H396.428ZM397.668 134.88H406.348C409.788 134.88 412.442 133.733 414.308 131.44C416.202 129.12 417.148 125.92 417.148 121.84C417.148 117.707 416.242 114.467 414.428 112.12C412.615 109.747 410.015 108.56 406.628 108.56H397.668V134.88Z" fill="black"/>
<path d="M391.222 107.4V136H389.902L371.262 109.48H371.222V136H370.022V107.4H371.422L389.982 133.92H390.022V107.4H391.222Z" fill="black"/>
<path d="M365.801 136L362.041 126.24H348.681L344.921 136H343.601L354.641 107.4H356.081L367.121 136H365.801ZM355.361 108.92L349.081 125.16H361.601L355.401 108.92H355.361Z" fill="black"/>
<path d="M332.796 140.32V139.44C333.649 138.853 334.076 137.747 334.076 136.12V136H333.516V133.36H334.996V136.04C334.996 138.227 334.263 139.653 332.796 140.32Z" fill="black"/>
<path d="M309.904 126.92H311.224C311.357 129.507 312.277 131.547 313.983 133.04C315.717 134.533 318.117 135.28 321.184 135.28C323.797 135.28 325.877 134.667 327.423 133.44C328.97 132.213 329.743 130.56 329.743 128.48C329.743 126.347 329.037 124.8 327.624 123.84C326.21 122.88 323.744 122.08 320.224 121.44C317.077 120.853 314.757 120.027 313.263 118.96C311.797 117.867 311.064 116.24 311.064 114.08C311.064 111.92 311.903 110.2 313.583 108.92C315.29 107.613 317.53 106.96 320.303 106.96C323.157 106.96 325.41 107.68 327.064 109.12C328.744 110.56 329.744 112.52 330.064 115H328.784C328.517 112.813 327.637 111.12 326.143 109.92C324.65 108.72 322.717 108.12 320.344 108.12C317.864 108.12 315.904 108.667 314.464 109.76C313.05 110.827 312.344 112.253 312.344 114.04C312.344 115.853 312.997 117.213 314.303 118.12C315.61 119.027 317.783 119.76 320.823 120.32C322.53 120.64 323.944 120.973 325.064 121.32C326.184 121.667 327.224 122.147 328.184 122.76C329.17 123.347 329.89 124.107 330.344 125.04C330.797 125.973 331.023 127.093 331.023 128.4C331.023 130.8 330.144 132.747 328.384 134.24C326.624 135.707 324.237 136.44 321.224 136.44C317.677 136.44 314.943 135.573 313.023 133.84C311.13 132.08 310.09 129.773 309.904 126.92Z" fill="black"/>
<path d="M286.263 107.4H287.543V126.68C287.543 132.413 290.543 135.28 296.543 135.28C299.289 135.28 301.476 134.587 303.103 133.2C304.729 131.813 305.543 129.64 305.543 126.68V107.4H306.823V126.76C306.823 130.013 305.876 132.44 303.983 134.04C302.116 135.613 299.623 136.4 296.503 136.4C293.356 136.4 290.863 135.613 289.023 134.04C287.183 132.44 286.263 130.013 286.263 126.76V107.4Z" fill="black"/>
<path d="M272.283 132.24C269.83 135.013 266.67 136.4 262.803 136.4C258.937 136.4 255.776 135.027 253.323 132.28C250.896 129.507 249.683 125.987 249.683 121.72C249.683 117.453 250.896 113.933 253.323 111.16C255.776 108.36 258.937 106.96 262.803 106.96C266.67 106.96 269.83 108.36 272.283 111.16C274.763 113.933 276.003 117.453 276.003 121.72C276.003 125.96 274.763 129.467 272.283 132.24ZM254.203 131.4C256.363 133.96 259.23 135.24 262.803 135.24C266.377 135.24 269.243 133.947 271.403 131.36C273.59 128.773 274.683 125.56 274.683 121.72C274.683 117.853 273.59 114.627 271.403 112.04C269.243 109.427 266.377 108.12 262.803 108.12C259.23 108.12 256.363 109.413 254.203 112C252.07 114.587 251.003 117.827 251.003 121.72C251.003 125.587 252.07 128.813 254.203 131.4Z" fill="black"/>
<path d="M239.389 136H238.109V108.56H227.909V107.4H249.589V108.56H239.389V136Z" fill="black"/>
<path d="M197.014 136V107.4H207.254C209.921 107.4 212.161 108.067 213.974 109.4C215.787 110.707 217.081 112.427 217.854 114.56C218.654 116.667 219.054 119.093 219.054 121.84C219.054 126.053 218.027 129.467 215.974 132.08C213.947 134.693 210.947 136 206.974 136H197.014ZM198.254 134.88H206.934C210.374 134.88 213.027 133.733 214.894 131.44C216.787 129.12 217.734 125.92 217.734 121.84C217.734 117.707 216.827 114.467 215.014 112.12C213.201 109.747 210.601 108.56 207.214 108.56H198.254V134.88Z" fill="black"/>
<path d="M177.043 107.4V134.84H193.483V136H175.803V107.4H177.043Z" fill="black"/>
<path d="M167.986 132.24C165.533 135.013 162.373 136.4 158.506 136.4C154.64 136.4 151.48 135.027 149.026 132.28C146.6 129.507 145.386 125.987 145.386 121.72C145.386 117.453 146.6 113.933 149.026 111.16C151.48 108.36 154.64 106.96 158.506 106.96C162.373 106.96 165.533 108.36 167.986 111.16C170.466 113.933 171.706 117.453 171.706 121.72C171.706 125.96 170.466 129.467 167.986 132.24ZM149.906 131.4C152.066 133.96 154.933 135.24 158.506 135.24C162.08 135.24 164.946 133.947 167.106 131.36C169.293 128.773 170.386 125.56 170.386 121.72C170.386 117.853 169.293 114.627 167.106 112.04C164.946 109.427 162.08 108.12 158.506 108.12C154.933 108.12 152.066 109.413 149.906 112C147.773 114.587 146.706 117.827 146.706 121.72C146.706 125.587 147.773 128.813 149.906 131.4Z" fill="black"/>
<path d="M140.433 122.96H130.473V121.84H141.673V136H140.633L140.513 129.24H140.433C139.899 131.213 138.726 132.907 136.913 134.32C135.126 135.733 132.846 136.44 130.073 136.44C125.886 136.44 122.619 135.067 120.273 132.32C117.953 129.573 116.793 126.053 116.793 121.76C116.793 117.493 117.966 113.96 120.313 111.16C122.686 108.36 125.953 106.96 130.113 106.96C133.099 106.96 135.566 107.733 137.513 109.28C139.486 110.8 140.726 112.893 141.233 115.56H139.993C139.539 113.267 138.433 111.453 136.673 110.12C134.939 108.76 132.753 108.08 130.113 108.08C126.273 108.08 123.313 109.387 121.233 112C119.153 114.613 118.113 117.867 118.113 121.76C118.113 125.707 119.139 128.947 121.193 131.48C123.273 134.013 126.233 135.28 130.073 135.28C133.273 135.28 135.793 134.267 137.633 132.24C139.499 130.213 140.433 127.6 140.433 124.4V122.96Z" fill="black"/>
<path d="M89.3088 108.52V120.64H105.469V121.76H89.3088V134.84H107.269V136H88.0688V107.4H106.869V108.52H89.3088Z" fill="black"/>
<path d="M84.1319 107.4L71.8519 119.16L85.3719 136H83.8519L70.9319 120.04L65.0119 125.68V136H63.7719V107.4H65.0119V124.12L82.4519 107.4H84.1319Z" fill="black"/>
<path d="M58.4522 107.4V136H57.2122V107.4H58.4522Z" fill="black"/>
<path d="M37.1213 107.4V134.84H53.5613V136H35.8813V107.4H37.1213Z" fill="black"/>
<path d="M937.551 56.5199V68.6399H953.711V69.7599H937.551V82.8399H955.511V83.9999H936.311V55.3999H955.111V56.5199H937.551Z" fill="black"/>
<path d="M913.332 70.6799V83.9999H912.092V55.3999H923.532C926.199 55.3999 928.266 56.0666 929.732 57.3999C931.199 58.7066 931.932 60.5732 931.932 62.9999C931.932 66.8666 930.146 69.2132 926.572 70.0399V70.0799C928.172 70.4532 929.332 71.2266 930.052 72.3999C930.799 73.5732 931.212 75.2266 931.292 77.3599C931.399 81.1732 931.786 83.3466 932.452 83.8799V83.9999H931.092C930.479 83.5732 930.119 81.3599 930.012 77.3599C929.932 74.9866 929.399 73.2799 928.412 72.2399C927.426 71.1999 925.799 70.6799 923.532 70.6799H913.332ZM913.332 56.5199V69.5199H923.092C928.132 69.5199 930.652 67.3599 930.652 63.0399C930.652 60.9599 930.026 59.3599 928.772 58.2399C927.546 57.0932 925.759 56.5199 923.412 56.5199H913.332Z" fill="black"/>
<path d="M907.872 83.9999L904.112 74.2399H890.752L886.992 83.9999H885.672L896.712 55.3999H898.152L909.192 83.9999H907.872ZM897.432 56.9199L891.152 73.1599H903.672L897.472 56.9199H897.432Z" fill="black"/>
<path d="M856.271 74.92H857.591C857.724 77.5066 858.644 79.5466 860.351 81.04C862.084 82.5333 864.484 83.28 867.551 83.28C870.164 83.28 872.244 82.6666 873.791 81.44C875.337 80.2133 876.111 78.56 876.111 76.48C876.111 74.3466 875.404 72.8 873.991 71.84C872.577 70.88 870.111 70.08 866.591 69.44C863.444 68.8533 861.124 68.0266 859.631 66.96C858.164 65.8666 857.431 64.24 857.431 62.08C857.431 59.92 858.271 58.2 859.951 56.92C861.657 55.6133 863.897 54.96 866.671 54.96C869.524 54.96 871.777 55.68 873.431 57.12C875.111 58.56 876.111 60.52 876.431 63H875.151C874.884 60.8133 874.004 59.12 872.511 57.92C871.017 56.72 869.084 56.12 866.711 56.12C864.231 56.12 862.271 56.6666 860.831 57.76C859.417 58.8266 858.711 60.2533 858.711 62.04C858.711 63.8533 859.364 65.2133 860.671 66.12C861.977 67.0266 864.151 67.76 867.191 68.32C868.897 68.64 870.311 68.9733 871.431 69.32C872.551 69.6666 873.591 70.1466 874.551 70.76C875.537 71.3466 876.257 72.1066 876.711 73.04C877.164 73.9733 877.391 75.0933 877.391 76.4C877.391 78.8 876.511 80.7466 874.751 82.24C872.991 83.7066 870.604 84.44 867.591 84.44C864.044 84.44 861.311 83.5733 859.391 81.84C857.497 80.08 856.457 77.7733 856.271 74.92Z" fill="black"/>
<path d="M845.405 83.9999H844.125V56.5599H833.925V55.3999H855.605V56.5599H845.405V83.9999Z" fill="black"/>
<path d="M809.67 83.9999V55.3999H810.91V68.2399H829.27V55.3999H830.51V83.9999H829.27V69.3199H810.91V83.9999H809.67Z" fill="black"/>
<path d="M803.597 70.96H793.637V69.84H804.837V84H803.797L803.677 77.24H803.597C803.063 79.2133 801.89 80.9066 800.077 82.32C798.29 83.7333 796.01 84.44 793.237 84.44C789.05 84.44 785.783 83.0666 783.437 80.32C781.117 77.5733 779.957 74.0533 779.957 69.76C779.957 65.4933 781.13 61.96 783.477 59.16C785.85 56.36 789.117 54.96 793.277 54.96C796.263 54.96 798.73 55.7333 800.677 57.28C802.65 58.8 803.89 60.8933 804.397 63.56H803.157C802.703 61.2666 801.597 59.4533 799.837 58.12C798.103 56.76 795.917 56.08 793.277 56.08C789.437 56.08 786.477 57.3866 784.397 60C782.317 62.6133 781.277 65.8666 781.277 69.76C781.277 73.7066 782.303 76.9466 784.357 79.48C786.437 82.0133 789.397 83.28 793.237 83.28C796.437 83.28 798.957 82.2666 800.797 80.24C802.663 78.2133 803.597 75.6 803.597 72.4V70.96Z" fill="black"/>
<path d="M755.716 55.3999H756.996V74.6799C756.996 80.4132 759.996 83.2799 765.996 83.2799C768.742 83.2799 770.929 82.5866 772.556 81.1999C774.182 79.8132 774.996 77.6399 774.996 74.6799V55.3999H776.276V74.7599C776.276 78.0132 775.329 80.4399 773.436 82.0399C771.569 83.6132 769.076 84.3999 765.956 84.3999C762.809 84.3999 760.316 83.6132 758.476 82.0399C756.636 80.4399 755.716 78.0132 755.716 74.7599V55.3999Z" fill="black"/>
<path d="M748.299 80.24C745.845 83.0133 742.685 84.4 738.819 84.4C734.952 84.4 731.792 83.0266 729.339 80.28C726.912 77.5066 725.699 73.9866 725.699 69.72C725.699 65.4533 726.912 61.9333 729.339 59.16C731.792 56.36 734.952 54.96 738.819 54.96C742.685 54.96 745.845 56.36 748.299 59.16C750.779 61.9333 752.019 65.4533 752.019 69.72C752.019 73.96 750.779 77.4666 748.299 80.24ZM730.219 79.4C732.379 81.96 735.245 83.24 738.819 83.24C742.392 83.24 745.259 81.9466 747.419 79.36C749.605 76.7733 750.699 73.56 750.699 69.72C750.699 65.8533 749.605 62.6266 747.419 60.04C745.259 57.4266 742.392 56.12 738.819 56.12C735.245 56.12 732.379 57.4133 730.219 60C728.085 62.5866 727.019 65.8266 727.019 69.72C727.019 73.5866 728.085 76.8133 730.219 79.4Z" fill="black"/>
<path d="M700.764 83.9999V55.3999H702.004V68.2399H720.364V55.3999H721.604V83.9999H720.364V69.3199H702.004V83.9999H700.764Z" fill="black"/>
<path d="M687.163 83.9999H685.883V56.5599H675.683V55.3999H697.363V56.5599H687.163V83.9999Z" fill="black"/>
<path d="M647.942 70.6799V83.9999H646.702V55.3999H658.142C660.808 55.3999 662.875 56.0666 664.342 57.3999C665.808 58.7066 666.542 60.5732 666.542 62.9999C666.542 66.8666 664.755 69.2132 661.182 70.0399V70.0799C662.782 70.4532 663.942 71.2266 664.662 72.3999C665.408 73.5732 665.822 75.2266 665.902 77.3599C666.008 81.1732 666.395 83.3466 667.062 83.8799V83.9999H665.702C665.088 83.5732 664.728 81.3599 664.622 77.3599C664.542 74.9866 664.008 73.2799 663.022 72.2399C662.035 71.1999 660.408 70.6799 658.142 70.6799H647.942ZM647.942 56.5199V69.5199H657.702C662.742 69.5199 665.262 67.3599 665.262 63.0399C665.262 60.9599 664.635 59.3599 663.382 58.2399C662.155 57.0932 660.368 56.5199 658.022 56.5199H647.942Z" fill="black"/>
<path d="M621.341 55.3999H622.621V74.6799C622.621 80.4132 625.621 83.2799 631.621 83.2799C634.367 83.2799 636.554 82.5866 638.181 81.1999C639.807 79.8132 640.621 77.6399 640.621 74.6799V55.3999H641.901V74.7599C641.901 78.0132 640.954 80.4399 639.061 82.0399C637.194 83.6132 634.701 84.3999 631.581 84.3999C628.434 84.3999 625.941 83.6132 624.101 82.0399C622.261 80.4399 621.341 78.0132 621.341 74.7599V55.3999Z" fill="black"/>
<path d="M613.924 80.24C611.47 83.0133 608.31 84.4 604.444 84.4C600.577 84.4 597.417 83.0266 594.964 80.28C592.537 77.5066 591.324 73.9866 591.324 69.72C591.324 65.4533 592.537 61.9333 594.964 59.16C597.417 56.36 600.577 54.96 604.444 54.96C608.31 54.96 611.47 56.36 613.924 59.16C616.404 61.9333 617.644 65.4533 617.644 69.72C617.644 73.96 616.404 77.4666 613.924 80.24ZM595.844 79.4C598.004 81.96 600.87 83.24 604.444 83.24C608.017 83.24 610.884 81.9466 613.044 79.36C615.23 76.7733 616.324 73.56 616.324 69.72C616.324 65.8533 615.23 62.6266 613.044 60.04C610.884 57.4266 608.017 56.12 604.444 56.12C600.87 56.12 598.004 57.4133 595.844 60C593.71 62.5866 592.644 65.8266 592.644 69.72C592.644 73.5866 593.71 76.8133 595.844 79.4Z" fill="black"/>
<path d="M570.9 55.3999L580.66 69.9999H580.7L590.5 55.3999H591.9L581.3 71.1999V83.9999H580.06V71.1599L569.5 55.3999H570.9Z" fill="black"/>
<path d="M554.284 83.9999V76.3599H562.084V83.9999H554.284Z" fill="black"/>
<path d="M526.134 83.9999V55.3999H534.494V64.7599L543.134 55.3999H552.734L542.054 66.9199L553.334 83.9999H543.614L536.334 72.6799L534.494 74.7599V83.9999H526.134Z" fill="black"/>
<path d="M498.478 83.9999V55.3999H512.678C515.798 55.3999 518.371 56.1332 520.398 57.5999C522.451 59.0399 523.478 61.1466 523.478 63.9199C523.478 67.1466 521.918 69.4666 518.798 70.8799V70.9999C520.958 71.8266 522.291 73.3999 522.798 75.7199C523.011 76.6266 523.145 77.7599 523.198 79.1199C523.251 80.4532 523.318 81.5066 523.398 82.2799C523.478 83.0532 523.665 83.4799 523.958 83.5599V83.9999H515.718C515.478 83.8399 515.318 83.4132 515.238 82.7199C515.158 81.9999 515.078 81.0932 514.998 79.9999C514.918 78.9066 514.798 78.0266 514.638 77.3599C514.371 76.2132 513.945 75.3732 513.358 74.8399C512.771 74.3066 511.891 74.0399 510.718 74.0399H506.838V83.9999H498.478ZM506.838 61.9599V68.0799H511.318C513.798 68.0799 515.038 67.0666 515.038 65.0399C515.038 64.0799 514.731 63.3332 514.118 62.7999C513.505 62.2399 512.611 61.9599 511.438 61.9599H506.838Z" fill="black"/>
<path d="M492.164 80.5199C489.497 83.2932 485.977 84.6799 481.604 84.6799C477.23 84.6799 473.724 83.2932 471.084 80.5199C468.444 77.7199 467.124 74.1466 467.124 69.7999C467.124 65.4532 468.444 61.8799 471.084 59.0799C473.724 56.2799 477.23 54.8799 481.604 54.8799C485.977 54.8799 489.497 56.2799 492.164 59.0799C494.83 61.8799 496.164 65.4532 496.164 69.7999C496.164 74.1466 494.83 77.7199 492.164 80.5199ZM477.164 75.7199C478.204 77.2399 479.697 77.9999 481.644 77.9999C483.59 77.9999 485.084 77.2399 486.124 75.7199C487.164 74.1999 487.684 72.2266 487.684 69.7999C487.684 67.3732 487.164 65.3999 486.124 63.8799C485.084 62.3332 483.59 61.5599 481.644 61.5599C479.697 61.5599 478.204 62.3332 477.164 63.8799C476.124 65.3999 475.604 67.3732 475.604 69.7999C475.604 72.2266 476.124 74.1999 477.164 75.7199Z" fill="black"/>
<path d="M436.104 83.9999L428.784 55.3999H437.144L439.224 65.1999L440.624 73.1599H440.704C441.211 70.3066 441.704 67.7866 442.184 65.5999L444.384 55.3999H451.944L454.144 65.5199L455.584 73.1599H455.664C456.171 69.9332 456.651 67.2532 457.104 65.1199L459.184 55.3999H467.744L460.224 83.9999H451.784L449.224 71.8799L448.224 66.3199H448.144C447.824 68.3732 447.491 70.2266 447.144 71.8799L444.664 83.9999H436.104Z" fill="black"/>
<path d="M396.564 83.9999V55.3999H407.444L411.844 71.3999H411.924L416.324 55.3999H427.284V83.9999H419.724V66.0799H419.644L414.884 83.9999H408.764L404.004 66.0799H403.924V83.9999H396.564Z" fill="black"/>
<path d="M365.309 83.9999L375.869 55.3999H384.389L394.989 83.9999H386.109L384.709 79.7999H375.029L373.629 83.9999H365.309ZM378.789 68.4399L376.909 74.0399H382.829L381.029 68.4399L379.949 64.7599H379.869C379.469 66.2799 379.109 67.5066 378.789 68.4399Z" fill="black"/>
<path d="M341.72 83.9999V55.3999H364V62.1999H350.08V66.0799H361.72V72.3599H350.08V76.8399H364.4V83.9999H341.72Z" fill="black"/>
<path d="M314.741 62.5199V55.3999H339.381V62.5199H331.181V83.9999H322.821V62.5199H314.741Z" fill="black"/>
<path d="M274.572 83.9999V55.3999H282.932L292.292 71.4799H292.372V55.3999H300.452V83.9999H291.812L282.732 67.7999H282.652V83.9999H274.572Z" fill="black"/>
<path d="M268.257 80.5199C265.591 83.2932 262.071 84.6799 257.697 84.6799C253.324 84.6799 249.817 83.2932 247.177 80.5199C244.537 77.7199 243.217 74.1466 243.217 69.7999C243.217 65.4532 244.537 61.8799 247.177 59.0799C249.817 56.2799 253.324 54.8799 257.697 54.8799C262.071 54.8799 265.591 56.2799 268.257 59.0799C270.924 61.8799 272.257 65.4532 272.257 69.7999C272.257 74.1466 270.924 77.7199 268.257 80.5199ZM253.257 75.7199C254.297 77.2399 255.791 77.9999 257.737 77.9999C259.684 77.9999 261.177 77.2399 262.217 75.7199C263.257 74.1999 263.777 72.2266 263.777 69.7999C263.777 67.3732 263.257 65.3999 262.217 63.8799C261.177 62.3332 259.684 61.5599 257.737 61.5599C255.791 61.5599 254.297 62.3332 253.257 63.8799C252.217 65.3999 251.697 67.3732 251.697 69.7999C251.697 72.2266 252.217 74.1999 253.257 75.7199Z" fill="black"/>
<path d="M223.975 83.9999L223.335 80.9599H223.255C221.548 83.4399 218.815 84.6799 215.055 84.6799C211.135 84.6799 207.988 83.4132 205.615 80.8799C202.975 78.0799 201.655 74.3866 201.655 69.7999C201.655 65.4799 202.935 61.9199 205.495 59.1199C208.081 56.2932 211.535 54.8799 215.855 54.8799C219.561 54.8799 222.561 55.7865 224.855 57.5999C227.148 59.4132 228.521 61.9199 228.975 65.1199H220.895C220.655 64.1599 220.108 63.3599 219.255 62.7199C218.428 62.0799 217.401 61.7599 216.175 61.7599C214.228 61.7599 212.735 62.4932 211.695 63.9599C210.655 65.4266 210.135 67.3732 210.135 69.7999C210.135 72.1999 210.695 74.1599 211.815 75.6799C212.961 77.1999 214.521 77.9599 216.495 77.9599C219.215 77.9599 220.895 76.7732 221.535 74.3999H217.735V68.4799H229.535V83.9999H223.975Z" fill="black"/>
<path d="M190.978 83.9999V55.3999H199.338V83.9999H190.978Z" fill="black"/>
<path d="M163.595 83.9999V55.3999H178.395C181.062 55.3999 183.195 56.0132 184.795 57.2399C186.608 58.6266 187.515 60.5066 187.515 62.8799C187.515 65.4932 186.328 67.3199 183.955 68.3599V68.4799C185.502 68.9866 186.702 69.8532 187.555 71.0799C188.435 72.3066 188.875 73.7332 188.875 75.3599C188.875 78.3732 187.782 80.6532 185.595 82.1999C183.862 83.3999 181.555 83.9999 178.675 83.9999H163.595ZM171.795 77.4399H177.755C178.662 77.4399 179.395 77.1866 179.955 76.6799C180.515 76.1732 180.795 75.4932 180.795 74.6399C180.795 73.7599 180.502 73.0799 179.915 72.5999C179.355 72.1199 178.622 71.8799 177.715 71.8799H171.795V77.4399ZM171.795 66.5199H176.995C177.822 66.5199 178.475 66.3332 178.955 65.9599C179.435 65.5599 179.675 64.9866 179.675 64.2399C179.675 63.5199 179.422 62.9466 178.915 62.5199C178.408 62.0932 177.755 61.8799 176.955 61.8799H171.795V66.5199Z" fill="black"/>
<path d="M126.173 83.9999V55.3999H148.453V62.1999H134.533V66.0799H146.173V72.3599H134.533V76.8399H148.853V83.9999H126.173Z" fill="black"/>
<path d="M98.5169 83.9999V55.3999H112.717C115.837 55.3999 118.41 56.1332 120.437 57.5999C122.49 59.0399 123.517 61.1466 123.517 63.9199C123.517 67.1466 121.957 69.4666 118.837 70.8799V70.9999C120.997 71.8266 122.33 73.3999 122.837 75.7199C123.05 76.6266 123.184 77.7599 123.237 79.1199C123.29 80.4532 123.357 81.5066 123.437 82.2799C123.517 83.0532 123.704 83.4799 123.997 83.5599V83.9999H115.757C115.517 83.8399 115.357 83.4132 115.277 82.7199C115.197 81.9999 115.117 81.0932 115.037 79.9999C114.957 78.9066 114.837 78.0266 114.677 77.3599C114.41 76.2132 113.984 75.3732 113.397 74.8399C112.81 74.3066 111.93 74.0399 110.757 74.0399H106.877V83.9999H98.5169ZM106.877 61.9599V68.0799H111.357C113.837 68.0799 115.077 67.0666 115.077 65.0399C115.077 64.0799 114.77 63.3332 114.157 62.7999C113.544 62.2399 112.65 61.9599 111.477 61.9599H106.877Z" fill="black"/>
<path d="M88.6313 66.8799V55.3999H95.1913V66.8799H88.6313Z" fill="black"/>
<path d="M63.2825 83.9999V55.3999H85.5625V62.1999H71.6425V66.0799H83.2825V72.3599H71.6425V76.8399H85.9625V83.9999H63.2825Z" fill="black"/>
<path d="M30.1279 83.9999L22.8079 55.3999H31.1679L33.2479 65.1999L34.6479 73.1599H34.7279C35.2345 70.3066 35.7279 67.7866 36.2079 65.5999L38.4079 55.3999H45.9679L48.1679 65.5199L49.6079 73.1599H49.6879C50.1945 69.9332 50.6745 67.2532 51.1279 65.1199L53.2079 55.3999H61.7679L54.2479 83.9999H45.8079L43.2479 71.8799L42.2479 66.3199H42.1679C41.8479 68.3732 41.5145 70.2266 41.1679 71.8799L38.6879 83.9999H30.1279Z" fill="black"/>
<line x1="400" y1="234.5" x2="580" y2="234.5" stroke="black"/>
<path d="M26.88 13.2241C28.8427 13.2241 30.4213 13.8214 31.616 15.0161C32.8107 16.2108 33.408 17.7894 33.408 19.7521C33.408 21.5441 32.7253 23.1228 31.36 24.4881C30.08 25.7681 28.4587 26.4081 26.496 26.4081C24.448 26.4081 22.656 25.5974 21.12 23.9761C19.6693 22.2694 18.944 20.1788 18.944 17.7041C18.944 13.0108 20.1813 9.21344 22.656 6.3121C25.1307 3.32543 27.9467 1.49077 31.104 0.808105L31.36 1.7041C28.544 2.30144 25.984 3.96544 23.68 6.69611C21.4613 9.34144 20.352 12.4561 20.352 16.0401C20.352 16.4668 20.3947 16.8934 20.48 17.3201C21.6747 14.5894 23.808 13.2241 26.88 13.2241ZM7.936 13.2241C9.89867 13.2241 11.4773 13.8214 12.672 15.0161C13.8667 16.2108 14.464 17.7894 14.464 19.7521C14.464 21.5441 13.7813 23.1228 12.416 24.4881C11.136 25.7681 9.51467 26.4081 7.552 26.4081C5.504 26.4081 3.712 25.5974 2.176 23.9761C0.725333 22.2694 0 20.1788 0 17.7041C0 13.0108 1.23733 9.21344 3.712 6.3121C6.18667 3.32543 9.00267 1.49077 12.16 0.808105L12.416 1.7041C9.6 2.30144 7.04 3.96544 4.736 6.69611C2.51733 9.34144 1.408 12.4561 1.408 16.0401C1.408 16.4668 1.45067 16.8934 1.536 17.3201C2.73067 14.5894 4.864 13.2241 7.936 13.2241Z" fill="black"/>
<path d="M973.88 191.224C975.843 191.224 977.421 191.821 978.616 193.016C979.811 194.211 980.408 195.789 980.408 197.752C980.408 199.544 979.725 201.123 978.36 202.488C977.08 203.768 975.459 204.408 973.496 204.408C971.448 204.408 969.656 203.597 968.12 201.976C966.669 200.269 965.944 198.179 965.944 195.704C965.944 191.011 967.181 187.213 969.656 184.312C972.131 181.325 974.947 179.491 978.104 178.808L978.36 179.704C975.544 180.301 972.984 181.965 970.68 184.696C968.461 187.341 967.352 190.456 967.352 194.04C967.352 194.467 967.395 194.893 967.48 195.32C968.675 192.589 970.808 191.224 973.88 191.224ZM954.936 191.224C956.899 191.224 958.477 191.821 959.672 193.016C960.867 194.211 961.464 195.789 961.464 197.752C961.464 199.544 960.781 201.123 959.416 202.488C958.136 203.768 956.515 204.408 954.552 204.408C952.504 204.408 950.712 203.597 949.176 201.976C947.725 200.269 947 198.179 947 195.704C947 191.011 948.237 187.213 950.712 184.312C953.187 181.325 956.003 179.491 959.16 178.808L959.416 179.704C956.6 180.301 954.04 181.965 951.736 184.696C949.517 187.341 948.408 190.456 948.408 194.04C948.408 194.467 948.451 194.893 948.536 195.32C949.731 192.589 951.864 191.224 954.936 191.224Z" fill="black"/>
</svg>
