<svg width="347" height="148" viewBox="0 0 347 148" fill="none" xmlns="http://www.w3.org/2000/svg">
<path d="M281.526 125V119.72L276.686 110.7H280.546L282.386 114.4L283.326 116.58H283.366C283.699 115.78 284.026 115.053 284.346 114.4L286.166 110.7H289.906L285.066 119.72V125H281.526Z" fill="black"/>
<path d="M264.693 125L269.833 110.7H273.473L278.633 125H274.913L274.073 122.42H269.073L268.253 125H264.693ZM269.893 119.88H273.253L272.173 116.42L271.613 114.4H271.573C271.346 115.253 271.153 115.927 270.993 116.42L269.893 119.88Z" fill="black"/>
<path d="M251.016 125L247.096 110.7H250.676L252.116 116.7L252.776 120.24H252.816C253.069 118.933 253.302 117.8 253.516 116.84L254.856 110.7H258.136L259.476 116.8L260.156 120.24H260.196C260.462 118.8 260.702 117.607 260.916 116.66L262.336 110.7H265.896L261.976 125H258.516L257.016 118.14L256.516 115.48H256.476C256.316 116.493 256.156 117.38 255.996 118.14L254.496 125H251.016Z" fill="black"/>
<path d="M229.306 125V110.7H240.146V113.62H232.846V116.18H239.106V118.94H232.846V122H240.266V125H229.306Z" fill="black"/>
<path d="M215.244 125V110.7H218.784V116.12H223.804V110.7H227.344V125H223.804V119.04H218.784V125H215.244Z" fill="black"/>
<path d="M206.186 125V113.7H202.026V110.7H213.926V113.7H209.726V125H206.186Z" fill="black"/>
<path d="M184.423 125V110.7H195.063V113.68H187.963V116.58H193.903V119.44H187.963V125H184.423Z" fill="black"/>
<path d="M175.982 122.46C177.102 122.46 177.955 122.04 178.542 121.2C179.142 120.347 179.442 119.24 179.442 117.88C179.442 116.52 179.142 115.413 178.542 114.56C177.955 113.707 177.102 113.28 175.982 113.28C174.875 113.28 174.015 113.707 173.402 114.56C172.802 115.413 172.502 116.52 172.502 117.88C172.502 119.227 172.802 120.327 173.402 121.18C174.015 122.033 174.875 122.46 175.982 122.46ZM181.102 123.24C179.809 124.64 178.095 125.34 175.962 125.34C173.829 125.34 172.115 124.64 170.822 123.24C169.542 121.84 168.902 120.053 168.902 117.88C168.902 115.707 169.542 113.92 170.822 112.52C172.115 111.12 173.829 110.42 175.962 110.42C178.095 110.42 179.809 111.12 181.102 112.52C182.395 113.92 183.042 115.707 183.042 117.88C183.042 120.053 182.395 121.84 181.102 123.24Z" fill="black"/>
<path d="M160.253 118.46H155.793V125H155.173V110.7H160.393C161.62 110.7 162.593 110.98 163.313 111.54C164.273 112.193 164.753 113.2 164.753 114.56C164.753 117.16 163.253 118.46 160.253 118.46ZM155.793 111.28V117.9H160.213C162.813 117.9 164.113 116.787 164.113 114.56C164.113 113.52 163.78 112.713 163.113 112.14C162.46 111.567 161.54 111.28 160.353 111.28H155.793Z" fill="black"/>
<path d="M144.152 111.26V117.32H152.232V117.88H144.152V124.42H153.132V125H143.532V110.7H152.932V111.26H144.152Z" fill="black"/>
<path d="M136.732 125H136.092V111.28H130.992V110.7H141.832V111.28H136.732V125Z" fill="black"/>
<path d="M120.133 120.46H120.793C120.86 121.753 121.32 122.773 122.173 123.52C123.04 124.267 124.24 124.64 125.773 124.64C127.08 124.64 128.12 124.333 128.893 123.72C129.667 123.107 130.053 122.28 130.053 121.24C130.053 120.173 129.7 119.4 128.993 118.92C128.287 118.44 127.053 118.04 125.293 117.72C123.72 117.427 122.56 117.013 121.813 116.48C121.08 115.933 120.713 115.12 120.713 114.04C120.713 112.96 121.133 112.1 121.973 111.46C122.827 110.807 123.947 110.48 125.333 110.48C126.76 110.48 127.887 110.84 128.713 111.56C129.553 112.28 130.053 113.26 130.213 114.5H129.573C129.44 113.407 129 112.56 128.253 111.96C127.507 111.36 126.54 111.06 125.353 111.06C124.113 111.06 123.133 111.333 122.413 111.88C121.707 112.413 121.353 113.127 121.353 114.02C121.353 114.927 121.68 115.607 122.333 116.06C122.987 116.513 124.073 116.88 125.593 117.16C126.447 117.32 127.153 117.487 127.713 117.66C128.273 117.833 128.793 118.073 129.273 118.38C129.767 118.673 130.127 119.053 130.353 119.52C130.58 119.987 130.693 120.547 130.693 121.2C130.693 122.4 130.253 123.373 129.373 124.12C128.493 124.853 127.3 125.22 125.793 125.22C124.02 125.22 122.653 124.787 121.693 123.92C120.747 123.04 120.227 121.887 120.133 120.46Z" fill="black"/>
<path d="M105.749 110.7L110.629 118H110.649L115.549 110.7H116.249L110.949 118.6V125H110.329V118.58L105.049 110.7H105.749Z" fill="black"/>
<path d="M95.09 118.34V125H94.47V110.7H100.19C101.523 110.7 102.557 111.033 103.29 111.7C104.023 112.353 104.39 113.287 104.39 114.5C104.39 116.433 103.497 117.607 101.71 118.02V118.04C102.51 118.227 103.09 118.613 103.45 119.2C103.823 119.787 104.03 120.613 104.07 121.68C104.123 123.587 104.317 124.673 104.65 124.94V125H103.97C103.663 124.787 103.483 123.68 103.43 121.68C103.39 120.493 103.123 119.64 102.63 119.12C102.137 118.6 101.323 118.34 100.19 118.34H95.09ZM95.09 111.26V117.76H99.97C102.49 117.76 103.75 116.68 103.75 114.52C103.75 113.48 103.437 112.68 102.81 112.12C102.197 111.547 101.303 111.26 100.13 111.26H95.09Z" fill="black"/>
<path d="M83.4493 111.26V117.32H91.5293V117.88H83.4493V124.42H92.4293V125H82.8293V110.7H92.2293V111.26H83.4493Z" fill="black"/>
<path d="M70.5528 110.7L75.5928 124.12H75.6128L80.7128 110.7H81.3528L75.9528 125H75.2728L69.8928 110.7H70.5528Z" fill="black"/>
<path d="M59.9923 111.26V117.32H68.0723V117.88H59.9923V124.42H68.9723V125H59.3723V110.7H68.7723V111.26H59.9923Z" fill="black"/>
<path d="M327.385 86.7H328.025V96.34C328.025 99.2066 329.525 100.64 332.525 100.64C333.899 100.64 334.992 100.293 335.805 99.5999C336.619 98.9066 337.025 97.82 337.025 96.34V86.7H337.665V96.38C337.665 98.0066 337.192 99.2199 336.245 100.02C335.312 100.807 334.065 101.2 332.505 101.2C330.932 101.2 329.685 100.807 328.765 100.02C327.845 99.2199 327.385 98.0066 327.385 96.38V86.7Z" fill="black"/>
<path d="M323.677 99.12C322.45 100.507 320.87 101.2 318.937 101.2C317.003 101.2 315.423 100.513 314.197 99.14C312.983 97.7533 312.377 95.9933 312.377 93.86C312.377 91.7266 312.983 89.9666 314.197 88.58C315.423 87.18 317.003 86.48 318.937 86.48C320.87 86.48 322.45 87.18 323.677 88.58C324.917 89.9666 325.537 91.7266 325.537 93.86C325.537 95.98 324.917 97.7333 323.677 99.12ZM314.637 98.7C315.717 99.98 317.15 100.62 318.937 100.62C320.723 100.62 322.157 99.9733 323.237 98.68C324.33 97.3866 324.877 95.78 324.877 93.86C324.877 91.9266 324.33 90.3133 323.237 89.02C322.157 87.7133 320.723 87.06 318.937 87.06C317.15 87.06 315.717 87.7066 314.637 89C313.57 90.2933 313.037 91.9133 313.037 93.86C313.037 95.7933 313.57 97.4066 314.637 98.7Z" fill="black"/>
<path d="M302.165 86.7L307.045 94H307.065L311.965 86.7H312.665L307.365 94.5999V101H306.745V94.5799L301.465 86.7H302.165Z" fill="black"/>
<path d="M286.296 101V86.7H286.916V93.1199H296.096V86.7H296.716V101H296.096V93.66H286.916V101H286.296Z" fill="black"/>
<path d="M279.495 101H278.855V87.2799H273.755V86.7H284.595V87.2799H279.495V101Z" fill="black"/>
<path d="M271.996 86.7V101H271.375V86.7H271.996Z" fill="black"/>
<path d="M261.012 86.7H261.692L265.352 99.98H265.372L269.132 86.7H269.752L265.692 101H265.012L261.352 87.72H261.332L257.712 101H257.012L252.912 86.7H253.552L257.352 99.9599H257.372L261.012 86.7Z" fill="black"/>
<path d="M239.651 87.2599V93.32H247.731V93.88H239.651V100.42H248.631V101H239.031V86.7H248.431V87.2599H239.651Z" fill="black"/>
<path d="M227.541 94.34V101H226.921V86.7H232.641C233.974 86.7 235.008 87.0333 235.741 87.7C236.474 88.3533 236.841 89.2866 236.841 90.5C236.841 92.4333 235.948 93.6066 234.161 94.02V94.04C234.961 94.2266 235.541 94.6133 235.901 95.2C236.274 95.7866 236.481 96.6133 236.521 97.68C236.574 99.5866 236.768 100.673 237.101 100.94V101H236.421C236.114 100.787 235.934 99.68 235.881 97.68C235.841 96.4933 235.574 95.6399 235.081 95.1199C234.588 94.5999 233.774 94.34 232.641 94.34H227.541ZM227.541 87.2599V93.7599H232.421C234.941 93.7599 236.201 92.68 236.201 90.52C236.201 89.48 235.888 88.6799 235.261 88.1199C234.648 87.5466 233.754 87.2599 232.581 87.2599H227.541Z" fill="black"/>
<path d="M215.901 87.2599V93.32H223.981V93.88H215.901V100.42H224.881V101H215.281V86.7H224.681V87.2599H215.901Z" fill="black"/>
<path d="M202.253 101V86.7H202.873V93.1199H212.053V86.7H212.673V101H212.053V93.66H202.873V101H202.253Z" fill="black"/>
<path d="M195.452 101H194.812V87.2799H189.712V86.7H200.552V87.2799H195.452V101Z" fill="black"/>
<path d="M177.953 101V89.7H173.793V86.7H185.693V89.7H181.493V101H177.953Z" fill="black"/>
<path d="M160.371 101V86.7H163.911V92.1199H168.931V86.7H172.471V101H168.931V95.04H163.911V101H160.371Z" fill="black"/>
<path d="M151.864 101.32C149.838 101.32 148.211 100.653 146.984 99.3199C145.704 97.9199 145.064 96.1133 145.064 93.8999C145.064 91.5933 145.771 89.7333 147.184 88.3199C148.424 87.0533 150.058 86.4199 152.084 86.4199C153.884 86.4199 155.331 86.8666 156.424 87.7599C157.518 88.6399 158.184 89.8466 158.424 91.3799H154.984C154.851 90.7799 154.538 90.2933 154.044 89.9199C153.564 89.5333 152.951 89.3399 152.204 89.3399C151.058 89.3399 150.178 89.7599 149.564 90.5999C148.964 91.4399 148.664 92.5399 148.664 93.8999C148.664 95.2333 148.991 96.3266 149.644 97.1799C150.298 98.0333 151.171 98.4599 152.264 98.4599C153.144 98.4599 153.858 98.2133 154.404 97.7199C154.964 97.2266 155.284 96.6399 155.364 95.9599V95.9199H152.684V93.3199H158.644V101H156.164L155.964 99.2799H155.924C155.044 100.64 153.691 101.32 151.864 101.32Z" fill="black"/>
<path d="M140.117 101V86.7H143.657V101H140.117Z" fill="black"/>
<path d="M126.679 101V86.7H133.519C134.986 86.7 136.186 87.0666 137.119 87.7999C138.053 88.5199 138.519 89.5266 138.519 90.82C138.519 92.5533 137.693 93.7066 136.039 94.2799V94.34C137.239 94.74 137.933 95.6133 138.119 96.9599C138.199 97.4266 138.253 98.0066 138.279 98.7C138.319 99.38 138.366 99.8933 138.419 100.24C138.473 100.573 138.573 100.767 138.719 100.82V101H135.279C135.173 100.933 135.086 100.74 135.019 100.42C134.966 100.1 134.919 99.6466 134.879 99.0599C134.839 98.4733 134.793 98.0133 134.739 97.68C134.553 96.32 133.759 95.6399 132.359 95.6399H130.219V101H126.679ZM130.219 93.02H132.879C133.573 93.02 134.099 92.8666 134.459 92.56C134.819 92.2533 134.999 91.8266 134.999 91.2799C134.999 90.7466 134.826 90.32 134.479 90C134.133 89.6666 133.626 89.5 132.959 89.5H130.219V93.02Z" fill="black"/>
<path d="M107.91 101V86.7H118.75V89.6199H111.45V92.18H117.71V94.9399H111.45V98H118.87V101H107.91Z" fill="black"/>
<path d="M94.4917 101V86.7H101.332C102.798 86.7 103.998 87.0666 104.932 87.7999C105.865 88.5199 106.332 89.5266 106.332 90.82C106.332 92.5533 105.505 93.7066 103.852 94.2799V94.34C105.052 94.74 105.745 95.6133 105.932 96.9599C106.012 97.4266 106.065 98.0066 106.092 98.7C106.132 99.38 106.178 99.8933 106.232 100.24C106.285 100.573 106.385 100.767 106.532 100.82V101H103.092C102.985 100.933 102.898 100.74 102.832 100.42C102.778 100.1 102.732 99.6466 102.692 99.0599C102.652 98.4733 102.605 98.0133 102.552 97.68C102.365 96.32 101.572 95.6399 100.172 95.6399H98.0317V101H94.4917ZM98.0317 93.02H100.692C101.385 93.02 101.912 92.8666 102.272 92.56C102.632 92.2533 102.812 91.8266 102.812 91.2799C102.812 90.7466 102.638 90.32 102.292 90C101.945 89.6666 101.438 89.5 100.772 89.5H98.0317V93.02Z" fill="black"/>
<path d="M89.8787 92.0799V86.7H92.6987V92.0799H89.8787Z" fill="black"/>
<path d="M77.48 101V86.7H88.32V89.6199H81.02V92.18H87.28V94.9399H81.02V98H88.44V101H77.48Z" fill="black"/>
<path d="M61.6114 101L57.6914 86.7H61.2714L62.7114 92.7L63.3714 96.24H63.4114C63.6647 94.9333 63.8981 93.8 64.1114 92.84L65.4514 86.7H68.7314L70.0714 92.7999L70.7514 96.24H70.7914C71.0581 94.8 71.2981 93.6066 71.5114 92.66L72.9314 86.7H76.4914L72.5714 101H69.1114L67.6114 94.1399L67.1114 91.4799H67.0714C66.9114 92.4933 66.7514 93.38 66.5914 94.1399L65.0914 101H61.6114Z" fill="black"/>
<path d="M41.8989 98.02H43.9789C45.1256 98.02 45.9989 97.6733 46.5989 96.9799C47.1989 96.2733 47.4989 95.2599 47.4989 93.9399C47.4989 92.6199 47.1922 91.5799 46.5789 90.82C45.9656 90.0466 45.1122 89.66 44.0189 89.66H41.8989V98.02ZM38.3589 101V86.7H44.4589C46.4456 86.7 48.0456 87.36 49.2589 88.68C50.4722 90 51.0789 91.7533 51.0789 93.9399C51.0789 96.5133 50.2522 98.4333 48.5989 99.6999C47.4389 100.567 45.9856 101 44.2389 101H38.3589Z" fill="black"/>
<path d="M24.1597 101V86.7H27.7197L31.9597 93.88L32.9397 95.7H32.9797C32.953 94.5533 32.9397 93.8133 32.9397 93.4799V86.7H36.3997V101H32.8397L28.6397 93.9199L27.6197 92H27.5797C27.6063 93.2266 27.6197 94.0066 27.6197 94.34V101H24.1597Z" fill="black"/>
<path d="M9.21436 101L14.3544 86.7H17.9944L23.1544 101H19.4344L18.5944 98.4199H13.5944L12.7744 101H9.21436ZM14.4144 95.88H17.7744L16.6944 92.4199L16.1344 90.3999H16.0944C15.8677 91.2533 15.6744 91.9266 15.5144 92.4199L14.4144 95.88Z" fill="black"/>
<path d="M325.579 80.5799V79.1999C326.059 79.0666 326.439 78.8066 326.719 78.4199C326.999 78.0332 327.139 77.5599 327.139 76.9999H325.539V73.6399H328.959V76.7399C328.959 77.8999 328.645 78.8132 328.019 79.4799C327.392 80.1466 326.579 80.5132 325.579 80.5799Z" fill="black"/>
<path d="M318.668 77.3399C316.735 77.3399 315.195 76.9266 314.048 76.0999C312.915 75.2599 312.328 74.0599 312.288 72.4999H315.848C315.995 73.8599 316.928 74.5399 318.648 74.5399C319.288 74.5399 319.828 74.4199 320.268 74.1799C320.722 73.9266 320.948 73.5466 320.948 73.0399C320.948 72.6933 320.808 72.4066 320.528 72.1799C320.248 71.9399 319.962 71.7733 319.668 71.6799C319.388 71.5866 318.848 71.4399 318.048 71.2399C318.008 71.2266 317.982 71.2199 317.968 71.2199C317.955 71.2066 317.935 71.1999 317.908 71.1999C317.882 71.1866 317.855 71.1799 317.828 71.1799C317.215 71.0333 316.708 70.9066 316.308 70.7999C315.922 70.6799 315.475 70.5066 314.968 70.2799C314.475 70.0399 314.082 69.7799 313.788 69.4999C313.495 69.2199 313.242 68.8533 313.028 68.3999C312.828 67.9333 312.728 67.4133 312.728 66.8399C312.728 65.3733 313.248 64.2733 314.288 63.5399C315.342 62.8066 316.715 62.4399 318.408 62.4399C320.035 62.4399 321.362 62.8133 322.388 63.5599C323.428 64.3066 323.982 65.3999 324.048 66.8399H320.588C320.522 66.2933 320.288 65.8733 319.888 65.5799C319.488 65.2733 318.955 65.1199 318.288 65.1199C317.675 65.1199 317.175 65.2466 316.788 65.4999C316.415 65.7399 316.228 66.0599 316.228 66.4599C316.228 66.9133 316.455 67.2466 316.908 67.4599C317.362 67.6599 318.215 67.8999 319.468 68.1799C320.255 68.3666 320.902 68.5533 321.408 68.7399C321.915 68.9133 322.428 69.1666 322.948 69.4999C323.482 69.8333 323.875 70.2666 324.128 70.7999C324.395 71.3199 324.528 71.9466 324.528 72.6799C324.528 74.1333 323.975 75.2733 322.868 76.0999C321.775 76.9266 320.375 77.3399 318.668 77.3399Z" fill="black"/>
<path d="M305.06 77.26C303.086 77.26 301.593 76.8 300.58 75.88C299.566 74.96 299.06 73.6533 299.06 71.96V62.7H302.6V72.08C302.6 73.64 303.42 74.42 305.06 74.42C305.846 74.42 306.446 74.2066 306.86 73.78C307.273 73.34 307.48 72.7533 307.48 72.02V62.7H311.02V71.96C311.02 73.64 310.513 74.9466 309.5 75.88C308.5 76.8 307.02 77.26 305.06 77.26Z" fill="black"/>
<path d="M284.507 74.4599C285.627 74.4599 286.481 74.0399 287.067 73.1999C287.667 72.3466 287.967 71.2399 287.967 69.8799C287.967 68.5199 287.667 67.4133 287.067 66.5599C286.481 65.7066 285.627 65.2799 284.507 65.2799C283.401 65.2799 282.541 65.7066 281.927 66.5599C281.327 67.4133 281.027 68.5199 281.027 69.8799C281.027 71.2266 281.327 72.3266 281.927 73.1799C282.541 74.0333 283.401 74.4599 284.507 74.4599ZM289.627 75.2399C288.334 76.6399 286.621 77.3399 284.487 77.3399C282.354 77.3399 280.641 76.6399 279.347 75.2399C278.067 73.8399 277.427 72.0533 277.427 69.8799C277.427 67.7066 278.067 65.9199 279.347 64.5199C280.641 63.1199 282.354 62.4199 284.487 62.4199C286.621 62.4199 288.334 63.1199 289.627 64.5199C290.921 65.9199 291.567 67.7066 291.567 69.8799C291.567 72.0533 290.921 73.8399 289.627 75.2399Z" fill="black"/>
<path d="M269.555 77V65.7H265.395V62.7H277.295V65.7H273.095V77H269.555Z" fill="black"/>
<path d="M249.262 74.02H251.342C252.489 74.02 253.362 73.6733 253.962 72.98C254.562 72.2733 254.862 71.26 254.862 69.94C254.862 68.62 254.556 67.58 253.942 66.82C253.329 66.0466 252.476 65.66 251.382 65.66H249.262V74.02ZM245.722 77V62.7H251.822C253.809 62.7 255.409 63.36 256.622 64.68C257.836 66 258.442 67.7533 258.442 69.94C258.442 72.5133 257.616 74.4333 255.962 75.7C254.802 76.5666 253.349 77 251.602 77H245.722Z" fill="black"/>
<path d="M234.414 77V62.7H237.954V74H244.374V77H234.414Z" fill="black"/>
<path d="M225.972 74.4599C227.092 74.4599 227.945 74.0399 228.532 73.1999C229.132 72.3466 229.432 71.2399 229.432 69.8799C229.432 68.5199 229.132 67.4133 228.532 66.5599C227.945 65.7066 227.092 65.2799 225.972 65.2799C224.865 65.2799 224.005 65.7066 223.392 66.5599C222.792 67.4133 222.492 68.5199 222.492 69.8799C222.492 71.2266 222.792 72.3266 223.392 73.1799C224.005 74.0333 224.865 74.4599 225.972 74.4599ZM231.092 75.2399C229.799 76.6399 228.085 77.3399 225.952 77.3399C223.819 77.3399 222.105 76.6399 220.812 75.2399C219.532 73.8399 218.892 72.0533 218.892 69.8799C218.892 67.7066 219.532 65.9199 220.812 64.5199C222.105 63.1199 223.819 62.4199 225.952 62.4199C228.085 62.4199 229.799 63.1199 231.092 64.5199C232.385 65.9199 233.032 67.7066 233.032 69.8799C233.032 72.0533 232.385 73.8399 231.092 75.2399Z" fill="black"/>
<path d="M210.966 77.3199C208.939 77.3199 207.313 76.6533 206.086 75.3199C204.806 73.9199 204.166 72.1133 204.166 69.8999C204.166 67.5933 204.873 65.7333 206.286 64.3199C207.526 63.0533 209.159 62.4199 211.186 62.4199C212.986 62.4199 214.433 62.8666 215.526 63.7599C216.619 64.6399 217.286 65.8466 217.526 67.3799H214.086C213.953 66.7799 213.639 66.2933 213.146 65.9199C212.666 65.5333 212.053 65.3399 211.306 65.3399C210.159 65.3399 209.279 65.7599 208.666 66.5999C208.066 67.4399 207.766 68.5399 207.766 69.8999C207.766 71.2333 208.093 72.3266 208.746 73.1799C209.399 74.0333 210.273 74.4599 211.366 74.4599C212.246 74.4599 212.959 74.2133 213.506 73.7199C214.066 73.2266 214.386 72.6399 214.466 71.9599V71.9199H211.786V69.3199H217.746V76.9999H215.266L215.066 75.2799H215.026C214.146 76.6399 212.793 77.3199 210.966 77.3199Z" fill="black"/>
<path d="M190.744 63.26V69.32H198.824V69.88H190.744V76.42H199.724V77H190.124V62.7H199.524V63.26H190.744Z" fill="black"/>
<path d="M188.156 62.7L182.016 68.58L188.776 77H188.016L181.556 69.02L178.596 71.84V77H177.976V62.7H178.596V71.06L187.316 62.7H188.156Z" fill="black"/>
<path d="M175.316 62.7V77H174.696V62.7H175.316Z" fill="black"/>
<path d="M164.651 62.7V76.42H172.871V77H164.031V62.7H164.651Z" fill="black"/>
<path d="M149.729 63.26V69.32H157.809V69.88H149.729V76.42H158.709V77H149.109V62.7H158.509V63.26H149.729Z" fill="black"/>
<path d="M137.619 70.34V77H136.999V62.7H142.719C144.053 62.7 145.086 63.0333 145.819 63.7C146.553 64.3533 146.919 65.2866 146.919 66.5C146.919 68.4333 146.026 69.6066 144.239 70.02V70.04C145.039 70.2266 145.619 70.6133 145.979 71.2C146.353 71.7866 146.559 72.6133 146.599 73.68C146.653 75.5866 146.846 76.6733 147.179 76.94V77H146.499C146.193 76.7866 146.013 75.68 145.959 73.68C145.919 72.4933 145.653 71.64 145.159 71.12C144.666 70.6 143.853 70.34 142.719 70.34H137.619ZM137.619 63.26V69.76H142.499C145.019 69.76 146.279 68.68 146.279 66.52C146.279 65.48 145.966 64.68 145.339 64.12C144.726 63.5466 143.833 63.26 142.659 63.26H137.619Z" fill="black"/>
<path d="M134.889 77L133.009 72.12H126.329L124.449 77H123.789L129.309 62.7H130.029L135.549 77H134.889ZM129.669 63.46L126.529 71.58H132.789L129.689 63.46H129.669Z" fill="black"/>
<path d="M109.088 72.46H109.748C109.815 73.7533 110.275 74.7733 111.128 75.52C111.995 76.2666 113.195 76.64 114.728 76.64C116.035 76.64 117.075 76.3333 117.848 75.72C118.622 75.1066 119.008 74.28 119.008 73.24C119.008 72.1733 118.655 71.4 117.948 70.92C117.242 70.44 116.008 70.04 114.248 69.72C112.675 69.4266 111.515 69.0133 110.768 68.48C110.035 67.9333 109.668 67.12 109.668 66.04C109.668 64.96 110.088 64.1 110.928 63.46C111.782 62.8066 112.902 62.48 114.288 62.48C115.715 62.48 116.842 62.84 117.668 63.56C118.508 64.28 119.008 65.26 119.168 66.5H118.528C118.395 65.4066 117.955 64.56 117.208 63.96C116.462 63.36 115.495 63.06 114.308 63.06C113.068 63.06 112.088 63.3333 111.368 63.88C110.662 64.4133 110.308 65.1266 110.308 66.02C110.308 66.9266 110.635 67.6066 111.288 68.06C111.942 68.5133 113.028 68.88 114.548 69.16C115.402 69.32 116.108 69.4866 116.668 69.66C117.228 69.8333 117.748 70.0733 118.228 70.38C118.722 70.6733 119.082 71.0533 119.308 71.52C119.535 71.9866 119.648 72.5466 119.648 73.2C119.648 74.4 119.208 75.3733 118.328 76.12C117.448 76.8533 116.255 77.22 114.748 77.22C112.975 77.22 111.608 76.7866 110.648 75.92C109.702 75.04 109.182 73.8866 109.088 72.46Z" fill="black"/>
<path d="M103.656 77H103.016V63.28H97.9155V62.7H108.756V63.28H103.656V77Z" fill="black"/>
<path d="M85.7883 77V62.7H86.4083V69.12H95.5883V62.7H96.2083V77H95.5883V69.66H86.4083V77H85.7883Z" fill="black"/>
<path d="M82.7514 70.48H77.7714V69.92H83.3714V77H82.8514L82.7914 73.62H82.7514C82.4847 74.6066 81.8981 75.4533 80.9914 76.16C80.0981 76.8666 78.9581 77.22 77.5714 77.22C75.4781 77.22 73.8447 76.5333 72.6714 75.16C71.5114 73.7866 70.9314 72.0266 70.9314 69.88C70.9314 67.7466 71.5181 65.98 72.6914 64.58C73.8781 63.18 75.5114 62.48 77.5914 62.48C79.0847 62.48 80.3181 62.8666 81.2914 63.64C82.2781 64.4 82.8981 65.4466 83.1514 66.78H82.5314C82.3047 65.6333 81.7514 64.7266 80.8714 64.06C80.0047 63.38 78.9114 63.04 77.5914 63.04C75.6714 63.04 74.1914 63.6933 73.1514 65C72.1114 66.3066 71.5914 67.9333 71.5914 69.88C71.5914 71.8533 72.1047 73.4733 73.1314 74.74C74.1714 76.0066 75.6514 76.64 77.5714 76.64C79.1714 76.64 80.4314 76.1333 81.3514 75.12C82.2847 74.1066 82.7514 72.8 82.7514 71.2V70.48Z" fill="black"/>
<path d="M58.811 62.7H59.451V72.34C59.451 75.2066 60.951 76.64 63.951 76.64C65.3244 76.64 66.4177 76.2933 67.231 75.6C68.0444 74.9066 68.451 73.82 68.451 72.34V62.7H69.091V72.38C69.091 74.0066 68.6177 75.22 67.671 76.02C66.7377 76.8066 65.491 77.2 63.931 77.2C62.3577 77.2 61.111 76.8066 60.191 76.02C59.271 75.22 58.811 74.0066 58.811 72.38V62.7Z" fill="black"/>
<path d="M55.1025 75.12C53.8758 76.5066 52.2958 77.2 50.3625 77.2C48.4292 77.2 46.8492 76.5133 45.6225 75.14C44.4092 73.7533 43.8025 71.9933 43.8025 69.86C43.8025 67.7266 44.4092 65.9666 45.6225 64.58C46.8492 63.18 48.4292 62.48 50.3625 62.48C52.2958 62.48 53.8758 63.18 55.1025 64.58C56.3425 65.9666 56.9625 67.7266 56.9625 69.86C56.9625 71.98 56.3425 73.7333 55.1025 75.12ZM46.0625 74.7C47.1425 75.98 48.5758 76.62 50.3625 76.62C52.1492 76.62 53.5825 75.9733 54.6625 74.68C55.7558 73.3866 56.3025 71.78 56.3025 69.86C56.3025 67.9266 55.7558 66.3133 54.6625 65.02C53.5825 63.7133 52.1492 63.06 50.3625 63.06C48.5758 63.06 47.1425 63.7066 46.0625 65C44.9958 66.2933 44.4625 67.9133 44.4625 69.86C44.4625 71.7933 44.9958 73.4066 46.0625 74.7Z" fill="black"/>
<path d="M31.3352 77V62.7H31.9552V69.12H41.1352V62.7H41.7552V77H41.1352V69.66H31.9552V77H31.3352Z" fill="black"/>
<path d="M24.5344 77H23.8944V63.28H18.7944V62.7H29.6344V63.28H24.5344V77Z" fill="black"/>
<path d="M322.453 46.34V53H321.833V38.7H327.553C328.887 38.7 329.92 39.0333 330.653 39.7C331.387 40.3533 331.753 41.2866 331.753 42.5C331.753 44.4333 330.86 45.6066 329.073 46.02V46.04C329.873 46.2266 330.453 46.6133 330.813 47.2C331.187 47.7866 331.393 48.6133 331.433 49.68C331.487 51.5866 331.68 52.6733 332.013 52.94V53H331.333C331.027 52.7866 330.847 51.68 330.793 49.68C330.753 48.4933 330.487 47.64 329.993 47.12C329.5 46.6 328.687 46.34 327.553 46.34H322.453ZM322.453 39.26V45.76H327.333C329.853 45.76 331.113 44.68 331.113 42.52C331.113 41.48 330.8 40.68 330.173 40.12C329.56 39.5466 328.667 39.26 327.493 39.26H322.453Z" fill="black"/>
<path d="M309.153 38.7H309.793V48.34C309.793 51.2066 311.293 52.64 314.293 52.64C315.666 52.64 316.759 52.2933 317.573 51.6C318.386 50.9066 318.793 49.82 318.793 48.34V38.7H319.433V48.38C319.433 50.0066 318.959 51.22 318.013 52.02C317.079 52.8066 315.833 53.2 314.273 53.2C312.699 53.2 311.453 52.8066 310.533 52.02C309.613 51.22 309.153 50.0066 309.153 48.38V38.7Z" fill="black"/>
<path d="M305.444 51.12C304.218 52.5066 302.638 53.2 300.704 53.2C298.771 53.2 297.191 52.5133 295.964 51.14C294.751 49.7533 294.144 47.9933 294.144 45.86C294.144 43.7266 294.751 41.9666 295.964 40.58C297.191 39.18 298.771 38.48 300.704 38.48C302.638 38.48 304.218 39.18 305.444 40.58C306.684 41.9666 307.304 43.7266 307.304 45.86C307.304 47.98 306.684 49.7333 305.444 51.12ZM296.404 50.7C297.484 51.98 298.918 52.62 300.704 52.62C302.491 52.62 303.924 51.9733 305.004 50.68C306.098 49.3866 306.644 47.78 306.644 45.86C306.644 43.9266 306.098 42.3133 305.004 41.02C303.924 39.7133 302.491 39.06 300.704 39.06C298.918 39.06 297.484 39.7066 296.404 41C295.338 42.2933 294.804 43.9133 294.804 45.86C294.804 47.7933 295.338 49.4066 296.404 50.7Z" fill="black"/>
<path d="M283.932 38.7L288.812 46H288.832L293.732 38.7H294.432L289.132 46.6V53H288.512V46.58L283.232 38.7H283.932Z" fill="black"/>
<path d="M275.724 52.9999V49.6399H279.144V52.9999H275.724Z" fill="black"/>
<path d="M262.021 53V38.7H265.561V43.88L270.481 38.7H274.681L269.201 44.44L275.001 53H270.881L266.761 46.82L265.561 48.08V53H262.021Z" fill="black"/>
<path d="M248.603 53V38.7H255.443C256.91 38.7 258.11 39.0666 259.043 39.8C259.976 40.52 260.443 41.5266 260.443 42.82C260.443 44.5533 259.616 45.7066 257.963 46.28V46.34C259.163 46.74 259.856 47.6133 260.043 48.96C260.123 49.4266 260.176 50.0066 260.203 50.7C260.243 51.38 260.29 51.8933 260.343 52.24C260.396 52.5733 260.496 52.7666 260.643 52.82V53H257.203C257.096 52.9333 257.01 52.74 256.943 52.42C256.89 52.1 256.843 51.6466 256.803 51.06C256.763 50.4733 256.716 50.0133 256.663 49.68C256.476 48.32 255.683 47.64 254.283 47.64H252.143V53H248.603ZM252.143 45.02H254.803C255.496 45.02 256.023 44.8666 256.383 44.56C256.743 44.2533 256.923 43.8266 256.923 43.28C256.923 42.7466 256.75 42.32 256.403 42C256.056 41.6666 255.55 41.5 254.883 41.5H252.143V45.02Z" fill="black"/>
<path d="M240.162 50.4599C241.282 50.4599 242.135 50.0399 242.722 49.1999C243.322 48.3466 243.622 47.2399 243.622 45.8799C243.622 44.5199 243.322 43.4133 242.722 42.5599C242.135 41.7066 241.282 41.2799 240.162 41.2799C239.055 41.2799 238.195 41.7066 237.582 42.5599C236.982 43.4133 236.682 44.5199 236.682 45.8799C236.682 47.2266 236.982 48.3266 237.582 49.1799C238.195 50.0333 239.055 50.4599 240.162 50.4599ZM245.282 51.2399C243.988 52.6399 242.275 53.3399 240.142 53.3399C238.008 53.3399 236.295 52.6399 235.002 51.2399C233.722 49.8399 233.082 48.0533 233.082 45.8799C233.082 43.7066 233.722 41.9199 235.002 40.5199C236.295 39.1199 238.008 38.4199 240.142 38.4199C242.275 38.4199 243.988 39.1199 245.282 40.5199C246.575 41.9199 247.222 43.7066 247.222 45.8799C247.222 48.0533 246.575 49.8399 245.282 51.2399Z" fill="black"/>
<path d="M218.399 53L214.479 38.7H218.059L219.499 44.7L220.159 48.24H220.199C220.452 46.9333 220.685 45.8 220.899 44.84L222.239 38.7H225.519L226.859 44.8L227.539 48.24H227.579C227.845 46.8 228.085 45.6066 228.299 44.66L229.719 38.7H233.279L229.359 53H225.899L224.399 46.14L223.899 43.48H223.859C223.699 44.4933 223.539 45.38 223.379 46.14L221.879 53H218.399Z" fill="black"/>
<path d="M198.779 53V38.7H203.539L205.279 44.96L206.099 48.22H206.139C206.512 46.6466 206.779 45.56 206.939 44.96L208.699 38.7H213.499V53H210.259V45.8L210.319 42.94H210.279C209.945 44.3666 209.725 45.2533 209.619 45.6L207.559 53H204.639L202.599 45.62L201.939 42.94H201.899C201.939 44.4733 201.959 45.4333 201.959 45.82V53H198.779Z" fill="black"/>
<path d="M183.833 53L188.973 38.7H192.613L197.773 53H194.053L193.214 50.42H188.214L187.393 53H183.833ZM189.033 47.88H192.393L191.314 44.42L190.753 42.4H190.714C190.487 43.2533 190.293 43.9266 190.133 44.42L189.033 47.88Z" fill="black"/>
<path d="M172.177 53V38.7H183.017V41.62H175.717V44.18H181.977V46.94H175.717V50H183.137V53H172.177Z" fill="black"/>
<path d="M163.119 53V41.7H158.959V38.7H170.859V41.7H166.659V53H163.119Z" fill="black"/>
<path d="M139.189 53V38.7H142.749L146.989 45.88L147.969 47.7H148.009C147.982 46.5533 147.969 45.8133 147.969 45.48V38.7H151.429V53H147.869L143.669 45.92L142.649 44H142.609C142.636 45.2266 142.649 46.0066 142.649 46.34V53H139.189Z" fill="black"/>
<path d="M130.747 50.4599C131.867 50.4599 132.721 50.0399 133.307 49.1999C133.907 48.3466 134.207 47.2399 134.207 45.8799C134.207 44.5199 133.907 43.4133 133.307 42.5599C132.721 41.7066 131.867 41.2799 130.747 41.2799C129.641 41.2799 128.781 41.7066 128.167 42.5599C127.567 43.4133 127.267 44.5199 127.267 45.8799C127.267 47.2266 127.567 48.3266 128.167 49.1799C128.781 50.0333 129.641 50.4599 130.747 50.4599ZM135.867 51.2399C134.574 52.6399 132.861 53.3399 130.727 53.3399C128.594 53.3399 126.881 52.6399 125.587 51.2399C124.307 49.8399 123.667 48.0533 123.667 45.8799C123.667 43.7066 124.307 41.9199 125.587 40.5199C126.881 39.1199 128.594 38.4199 130.727 38.4199C132.861 38.4199 134.574 39.1199 135.867 40.5199C137.161 41.9199 137.807 43.7066 137.807 45.8799C137.807 48.0533 137.161 49.8399 135.867 51.2399Z" fill="black"/>
<path d="M109.53 53.3199C107.504 53.3199 105.877 52.6533 104.65 51.3199C103.37 49.9199 102.73 48.1133 102.73 45.8999C102.73 43.5933 103.437 41.7333 104.85 40.3199C106.09 39.0533 107.724 38.4199 109.75 38.4199C111.55 38.4199 112.997 38.8666 114.09 39.7599C115.184 40.6399 115.85 41.8466 116.09 43.3799H112.65C112.517 42.7799 112.204 42.2933 111.71 41.9199C111.23 41.5333 110.617 41.3399 109.87 41.3399C108.724 41.3399 107.844 41.7599 107.23 42.5999C106.63 43.4399 106.33 44.5399 106.33 45.8999C106.33 47.2333 106.657 48.3266 107.31 49.1799C107.964 50.0333 108.837 50.4599 109.93 50.4599C110.81 50.4599 111.524 50.2133 112.07 49.7199C112.63 49.2266 112.95 48.6399 113.03 47.9599V47.9199H110.35V45.3199H116.31V52.9999H113.83L113.63 51.2799H113.59C112.71 52.6399 111.357 53.3199 109.53 53.3199Z" fill="black"/>
<path d="M97.7832 53V38.7H101.323V53H97.7832Z" fill="black"/>
<path d="M84.3452 53V38.7H91.2452C92.6719 38.7 93.7852 39.0266 94.5852 39.68C95.4119 40.36 95.8252 41.2733 95.8252 42.42C95.8252 43.78 95.1585 44.7133 93.8252 45.22V45.28C94.6119 45.52 95.2319 45.9533 95.6852 46.58C96.1519 47.2066 96.3852 47.94 96.3852 48.78C96.3852 50.1666 95.8985 51.2333 94.9252 51.98C94.0585 52.66 92.8852 53 91.4052 53H84.3452ZM87.8452 50.16H91.0052C91.5785 50.16 92.0319 50.0066 92.3652 49.7C92.7119 49.3933 92.8852 48.9866 92.8852 48.48C92.8852 47.9333 92.7052 47.5133 92.3452 47.22C91.9852 46.9133 91.5252 46.76 90.9652 46.76H87.8452V50.16ZM87.8452 44.36H90.7252C91.2452 44.36 91.6585 44.2333 91.9652 43.98C92.2852 43.7266 92.4452 43.3733 92.4452 42.92C92.4452 42.48 92.2919 42.1333 91.9852 41.88C91.6785 41.6266 91.2652 41.5 90.7452 41.5H87.8452V44.36Z" fill="black"/>
<path d="M65.5757 53V38.7H76.4157V41.62H69.1157V44.18H75.3757V46.94H69.1157V50H76.5357V53H65.5757Z" fill="black"/>
<path d="M52.1577 53V38.7H58.9977C60.4644 38.7 61.6644 39.0666 62.5977 39.8C63.5311 40.52 63.9977 41.5266 63.9977 42.82C63.9977 44.5533 63.171 45.7066 61.5177 46.28V46.34C62.7177 46.74 63.4111 47.6133 63.5977 48.96C63.6777 49.4266 63.7311 50.0066 63.7577 50.7C63.7977 51.38 63.8444 51.8933 63.8977 52.24C63.951 52.5733 64.051 52.7666 64.1977 52.82V53H60.7577C60.6511 52.9333 60.5644 52.74 60.4977 52.42C60.4444 52.1 60.3977 51.6466 60.3577 51.06C60.3177 50.4733 60.271 50.0133 60.2177 49.68C60.031 48.32 59.2377 47.64 57.8377 47.64H55.6977V53H52.1577ZM55.6977 45.02H58.3577C59.051 45.02 59.5777 44.8666 59.9377 44.56C60.2977 44.2533 60.4777 43.8266 60.4777 43.28C60.4777 42.7466 60.3044 42.32 59.9577 42C59.611 41.6666 59.1044 41.5 58.4377 41.5H55.6977V45.02Z" fill="black"/>
<path d="M47.5447 44.08V38.7H50.3647V44.08H47.5447Z" fill="black"/>
<path d="M35.146 53V38.7H45.986V41.62H38.686V44.18H44.946V46.94H38.686V50H46.106V53H35.146Z" fill="black"/>
<path d="M19.2774 53L15.3574 38.7H18.9374L20.3774 44.7L21.0374 48.24H21.0774C21.3308 46.9333 21.5641 45.8 21.7774 44.84L23.1174 38.7H26.3974L27.7374 44.8L28.4174 48.24H28.4574C28.7241 46.8 28.9641 45.6066 29.1774 44.66L30.5974 38.7H34.1574L30.2374 53H26.7774L25.2774 46.14L24.7774 43.48H24.7374C24.5774 44.4933 24.4174 45.38 24.2574 46.14L22.7574 53H19.2774Z" fill="black"/>
<path d="M342.838 139.64C344.064 139.64 345.051 140.013 345.798 140.76C346.544 141.507 346.918 142.493 346.918 143.72C346.918 144.84 346.491 145.827 345.638 146.68C344.838 147.48 343.824 147.88 342.598 147.88C341.318 147.88 340.198 147.373 339.238 146.36C338.331 145.293 337.878 143.987 337.878 142.44C337.878 139.507 338.651 137.133 340.198 135.32C341.744 133.453 343.504 132.307 345.478 131.88L345.638 132.44C343.878 132.813 342.278 133.853 340.838 135.56C339.451 137.213 338.758 139.16 338.758 141.4C338.758 141.667 338.784 141.933 338.838 142.2C339.584 140.493 340.918 139.64 342.838 139.64ZM330.998 139.64C332.224 139.64 333.211 140.013 333.958 140.76C334.704 141.507 335.078 142.493 335.078 143.72C335.078 144.84 334.651 145.827 333.798 146.68C332.998 147.48 331.984 147.88 330.758 147.88C329.478 147.88 328.358 147.373 327.398 146.36C326.491 145.293 326.038 143.987 326.038 142.44C326.038 139.507 326.811 137.133 328.358 135.32C329.904 133.453 331.664 132.307 333.638 131.88L333.798 132.44C332.038 132.813 330.438 133.853 328.998 135.56C327.611 137.213 326.918 139.16 326.918 141.4C326.918 141.667 326.944 141.933 326.998 142.2C327.744 140.493 329.078 139.64 330.998 139.64Z" fill="black"/>
<path d="M16.8376 8.63988C18.0643 8.63988 19.0509 9.01322 19.7976 9.75988C20.5443 10.5065 20.9176 11.4932 20.9176 12.7199C20.9176 13.8399 20.4909 14.8265 19.6376 15.6799C18.8376 16.4799 17.8243 16.8799 16.5976 16.8799C15.3176 16.8799 14.1976 16.3732 13.2376 15.3599C12.3309 14.2932 11.8776 12.9865 11.8776 11.4399C11.8776 8.50655 12.6509 6.13321 14.1976 4.31988C15.7443 2.45321 17.5043 1.30655 19.4776 0.879883L19.6376 1.43988C17.8776 1.81322 16.2776 2.85322 14.8376 4.55988C13.4509 6.21321 12.7576 8.15988 12.7576 10.3999C12.7576 10.6665 12.7843 10.9332 12.8376 11.1999C13.5843 9.49322 14.9176 8.63988 16.8376 8.63988ZM4.9976 8.63988C6.22426 8.63988 7.21093 9.01322 7.9576 9.75988C8.70426 10.5065 9.0776 11.4932 9.0776 12.7199C9.0776 13.8399 8.65093 14.8265 7.7976 15.6799C6.9976 16.4799 5.98426 16.8799 4.7576 16.8799C3.4776 16.8799 2.3576 16.3732 1.3976 15.3599C0.490931 14.2932 0.0375977 12.9865 0.0375977 11.4399C0.0375977 8.50655 0.810931 6.13321 2.3576 4.31988C3.90426 2.45321 5.66426 1.30655 7.6376 0.879883L7.7976 1.43988C6.0376 1.81322 4.4376 2.85322 2.9976 4.55988C1.61093 6.21321 0.917597 8.15988 0.917597 10.3999C0.917597 10.6665 0.944264 10.9332 0.997598 11.1999C1.74426 9.49322 3.0776 8.63988 4.9976 8.63988Z" fill="black"/>
</svg>
