<svg width="860" height="208" viewBox="0 0 860 208" fill="none" xmlns="http://www.w3.org/2000/svg">
<path d="M801.454 151.4L811.214 166H811.254L821.054 151.4H822.454L811.854 167.2V180H810.614V167.16L800.054 151.4H801.454Z" fill="black"/>
<path d="M780.137 166.68V180H778.897V151.4H790.337C793.004 151.4 795.07 152.067 796.537 153.4C798.004 154.707 798.737 156.574 798.737 159C798.737 162.867 796.95 165.214 793.377 166.04V166.08C794.977 166.454 796.137 167.227 796.857 168.4C797.604 169.574 798.017 171.227 798.097 173.36C798.204 177.174 798.59 179.347 799.257 179.88V180H797.897C797.284 179.574 796.924 177.36 796.817 173.36C796.737 170.987 796.204 169.28 795.217 168.24C794.23 167.2 792.604 166.68 790.337 166.68H780.137ZM780.137 152.52V165.52H789.897C794.937 165.52 797.457 163.36 797.457 159.04C797.457 156.96 796.83 155.36 795.577 154.24C794.35 153.094 792.564 152.52 790.217 152.52H780.137Z" fill="black"/>
<path d="M771.08 176.24C768.627 179.013 765.467 180.4 761.6 180.4C757.733 180.4 754.573 179.027 752.12 176.28C749.693 173.507 748.48 169.987 748.48 165.72C748.48 161.453 749.693 157.933 752.12 155.16C754.573 152.36 757.733 150.96 761.6 150.96C765.467 150.96 768.627 152.36 771.08 155.16C773.56 157.933 774.8 161.453 774.8 165.72C774.8 169.96 773.56 173.467 771.08 176.24ZM753 175.4C755.16 177.96 758.027 179.24 761.6 179.24C765.173 179.24 768.04 177.947 770.2 175.36C772.387 172.773 773.48 169.56 773.48 165.72C773.48 161.853 772.387 158.627 770.2 156.04C768.04 153.427 765.173 152.12 761.6 152.12C758.027 152.12 755.16 153.413 753 156C750.867 158.587 749.8 161.827 749.8 165.72C749.8 169.587 750.867 172.813 753 175.4Z" fill="black"/>
<path d="M738.186 180H736.906V152.56H726.706V151.4H748.386V152.56H738.186V180Z" fill="black"/>
<path d="M704.989 170.92H706.309C706.443 173.507 707.363 175.547 709.069 177.04C710.803 178.533 713.203 179.28 716.269 179.28C718.883 179.28 720.963 178.667 722.509 177.44C724.056 176.213 724.829 174.56 724.829 172.48C724.829 170.347 724.123 168.8 722.709 167.84C721.296 166.88 718.829 166.08 715.309 165.44C712.163 164.853 709.843 164.027 708.349 162.96C706.883 161.867 706.149 160.24 706.149 158.08C706.149 155.92 706.989 154.2 708.669 152.92C710.376 151.613 712.616 150.96 715.389 150.96C718.243 150.96 720.496 151.68 722.149 153.12C723.829 154.56 724.829 156.52 725.149 159H723.869C723.603 156.813 722.723 155.12 721.229 153.92C719.736 152.72 717.803 152.12 715.429 152.12C712.949 152.12 710.989 152.667 709.549 153.76C708.136 154.827 707.429 156.253 707.429 158.04C707.429 159.853 708.083 161.213 709.389 162.12C710.696 163.027 712.869 163.76 715.909 164.32C717.616 164.64 719.029 164.973 720.149 165.32C721.269 165.667 722.309 166.147 723.269 166.76C724.256 167.347 724.976 168.107 725.429 169.04C725.883 169.973 726.109 171.093 726.109 172.4C726.109 174.8 725.229 176.747 723.469 178.24C721.709 179.707 719.323 180.44 716.309 180.44C712.763 180.44 710.029 179.573 708.109 177.84C706.216 176.08 705.176 173.773 704.989 170.92Z" fill="black"/>
<path d="M678.106 152.52V164.64H694.266V165.76H678.106V178.84H696.066V180H676.866V151.4H695.666V152.52H678.106Z" fill="black"/>
<path d="M651.505 151.4H652.785V170.68C652.785 176.414 655.785 179.28 661.785 179.28C664.531 179.28 666.718 178.587 668.345 177.2C669.971 175.814 670.785 173.64 670.785 170.68V151.4H672.065V170.76C672.065 174.014 671.118 176.44 669.225 178.04C667.358 179.614 664.865 180.4 661.745 180.4C658.598 180.4 656.105 179.614 654.265 178.04C652.425 176.44 651.505 174.014 651.505 170.76V151.4Z" fill="black"/>
<path d="M634.608 180.44C630.741 180.44 627.581 179.053 625.128 176.28C622.701 173.507 621.488 169.987 621.488 165.72C621.488 161.453 622.701 157.933 625.128 155.16C627.581 152.36 630.741 150.96 634.608 150.96C638.474 150.96 641.634 152.36 644.088 155.16C646.568 157.933 647.808 161.453 647.808 165.72C647.808 168.12 647.381 170.333 646.528 172.36C645.674 174.387 644.488 176.067 642.968 177.4L647.088 180.72L646.368 181.68L642.008 178.12C639.821 179.667 637.354 180.44 634.608 180.44ZM638.448 173.72L642.008 176.6C643.421 175.373 644.515 173.813 645.288 171.92C646.088 170.027 646.488 167.96 646.488 165.72C646.488 161.853 645.394 158.627 643.208 156.04C641.048 153.427 638.181 152.12 634.608 152.12C631.034 152.12 628.168 153.413 626.008 156C623.874 158.587 622.808 161.827 622.808 165.72C622.808 169.587 623.874 172.813 626.008 175.4C628.168 177.987 631.034 179.28 634.608 179.28C636.981 179.28 639.128 178.64 641.048 177.36L637.728 174.64L638.448 173.72Z" fill="black"/>
<path d="M617.288 151.4V180H616.048V151.4H617.288Z" fill="black"/>
<path d="M610.722 151.4V180H609.402L590.762 153.48H590.722V180H589.522V151.4H590.922L609.482 177.92H609.522V151.4H610.722Z" fill="black"/>
<path d="M564.161 151.4H565.441V170.68C565.441 176.414 568.441 179.28 574.441 179.28C577.188 179.28 579.374 178.587 581.001 177.2C582.628 175.814 583.441 173.64 583.441 170.68V151.4H584.721V170.76C584.721 174.014 583.774 176.44 581.881 178.04C580.014 179.614 577.521 180.4 574.401 180.4C571.254 180.4 568.761 179.614 566.921 178.04C565.081 176.44 564.161 174.014 564.161 170.76V151.4Z" fill="black"/>
<path d="M553.778 180L550.018 170.24H536.658L532.898 180H531.578L542.618 151.4H544.058L555.098 180H553.778ZM543.338 152.92L537.058 169.16H549.578L543.378 152.92H543.338Z" fill="black"/>
<path d="M502.177 170.92H503.497C503.63 173.507 504.55 175.547 506.257 177.04C507.99 178.533 510.39 179.28 513.457 179.28C516.07 179.28 518.15 178.667 519.697 177.44C521.244 176.213 522.017 174.56 522.017 172.48C522.017 170.347 521.31 168.8 519.897 167.84C518.484 166.88 516.017 166.08 512.497 165.44C509.35 164.853 507.03 164.027 505.537 162.96C504.07 161.867 503.337 160.24 503.337 158.08C503.337 155.92 504.177 154.2 505.857 152.92C507.564 151.613 509.804 150.96 512.577 150.96C515.43 150.96 517.684 151.68 519.337 153.12C521.017 154.56 522.017 156.52 522.337 159H521.057C520.79 156.813 519.91 155.12 518.417 153.92C516.924 152.72 514.99 152.12 512.617 152.12C510.137 152.12 508.177 152.667 506.737 153.76C505.324 154.827 504.617 156.253 504.617 158.04C504.617 159.853 505.27 161.213 506.577 162.12C507.884 163.027 510.057 163.76 513.097 164.32C514.804 164.64 516.217 164.973 517.337 165.32C518.457 165.667 519.497 166.147 520.457 166.76C521.444 167.347 522.164 168.107 522.617 169.04C523.07 169.973 523.297 171.093 523.297 172.4C523.297 174.8 522.417 176.747 520.657 178.24C518.897 179.707 516.51 180.44 513.497 180.44C509.95 180.44 507.217 179.573 505.297 177.84C503.404 176.08 502.364 173.773 502.177 170.92Z" fill="black"/>
<path d="M484.707 151.4V178.84H501.147V180H483.467V151.4H484.707Z" fill="black"/>
<path d="M463.496 151.4V178.84H479.936V180H462.256V151.4H463.496Z" fill="black"/>
<path d="M440.215 152.52V164.64H456.375V165.76H440.215V178.84H458.175V180H438.975V151.4H457.775V152.52H440.215Z" fill="black"/>
<path d="M425.374 180H424.094V152.56H413.894V151.4H435.574V152.56H425.374V180Z" fill="black"/>
<path d="M379.501 180V151.4H387.861L397.221 167.48H397.301V151.4H405.381V180H396.741L387.661 163.8H387.581V180H379.501Z" fill="black"/>
<path d="M371.092 180L370.452 176.96H370.372C368.665 179.44 365.932 180.68 362.172 180.68C358.252 180.68 355.105 179.413 352.732 176.88C350.092 174.08 348.772 170.387 348.772 165.8C348.772 161.48 350.052 157.92 352.612 155.12C355.199 152.293 358.652 150.88 362.972 150.88C366.678 150.88 369.678 151.787 371.972 153.6C374.265 155.413 375.639 157.92 376.092 161.12H368.012C367.772 160.16 367.225 159.36 366.372 158.72C365.545 158.08 364.519 157.76 363.292 157.76C361.345 157.76 359.852 158.493 358.812 159.96C357.772 161.427 357.252 163.373 357.252 165.8C357.252 168.2 357.812 170.16 358.932 171.68C360.079 173.2 361.639 173.96 363.612 173.96C366.332 173.96 368.012 172.773 368.652 170.4H364.852V164.48H376.652V180H371.092Z" fill="black"/>
<path d="M338.095 180V151.4H346.455V180H338.095Z" fill="black"/>
<path d="M323.487 180.68C319.594 180.68 316.434 179.84 314.007 178.16C311.58 176.48 310.34 174.053 310.287 170.88H318.847C319.114 173.12 320.714 174.24 323.647 174.24C324.607 174.24 325.447 174.053 326.167 173.68C326.914 173.28 327.287 172.68 327.287 171.88C327.287 171 326.66 170.32 325.407 169.84C324.847 169.627 323.66 169.293 321.847 168.84C320.62 168.547 319.62 168.28 318.847 168.04C318.074 167.8 317.154 167.44 316.087 166.96C315.02 166.453 314.167 165.92 313.527 165.36C312.914 164.773 312.38 164.013 311.927 163.08C311.474 162.147 311.247 161.093 311.247 159.92C311.247 156.827 312.34 154.547 314.527 153.08C316.714 151.613 319.554 150.88 323.047 150.88C325.127 150.88 326.994 151.16 328.647 151.72C330.3 152.28 331.687 153.24 332.807 154.6C333.927 155.933 334.5 157.6 334.527 159.6H326.247C325.98 157.893 324.767 157.04 322.607 157.04C321.7 157.04 320.954 157.227 320.367 157.6C319.78 157.973 319.487 158.453 319.487 159.04C319.487 159.227 319.514 159.4 319.567 159.56C319.62 159.693 319.714 159.827 319.847 159.96C319.98 160.093 320.114 160.213 320.247 160.32C320.407 160.427 320.62 160.533 320.887 160.64C321.154 160.72 321.394 160.8 321.607 160.88C321.847 160.96 322.167 161.053 322.567 161.16C322.967 161.24 323.314 161.32 323.607 161.4C323.927 161.48 324.34 161.573 324.847 161.68C325.354 161.787 325.807 161.893 326.207 162C327.594 162.347 328.78 162.72 329.767 163.12C330.754 163.493 331.74 164.027 332.727 164.72C333.74 165.387 334.5 166.267 335.007 167.36C335.54 168.427 335.807 169.68 335.807 171.12C335.807 174.133 334.634 176.48 332.287 178.16C329.967 179.84 327.034 180.68 323.487 180.68Z" fill="black"/>
<path d="M286.298 180V151.4H308.578V158.2H294.658V162.08H306.298V168.36H294.658V172.84H308.978V180H286.298Z" fill="black"/>
<path d="M256.806 180V151.4H270.006C274.193 151.4 277.566 152.68 280.126 155.24C282.686 157.774 283.966 161.28 283.966 165.76C283.966 170.294 282.699 173.8 280.166 176.28C277.633 178.76 274.126 180 269.646 180H256.806ZM265.166 173.08H268.966C270.939 173.08 272.513 172.454 273.686 171.2C274.886 169.92 275.486 168.107 275.486 165.76C275.486 163.414 274.899 161.587 273.726 160.28C272.579 158.974 270.993 158.32 268.966 158.32H265.166V173.08Z" fill="black"/>
<path d="M225.001 180V169.96L215.201 151.4H224.281L227.321 157.76C227.641 158.4 227.961 159.107 228.281 159.88C228.601 160.654 228.841 161.254 229.001 161.68L229.241 162.36H229.321C229.935 160.734 230.588 159.2 231.281 157.76L234.321 151.4H243.201L233.361 169.96V180H225.001Z" fill="black"/>
<path d="M190.361 180V151.4H204.561C207.681 151.4 210.254 152.134 212.281 153.6C214.334 155.04 215.361 157.147 215.361 159.92C215.361 163.147 213.801 165.467 210.681 166.88V167C212.841 167.827 214.174 169.4 214.681 171.72C214.894 172.627 215.027 173.76 215.081 175.12C215.134 176.454 215.201 177.507 215.281 178.28C215.361 179.054 215.547 179.48 215.841 179.56V180H207.601C207.361 179.84 207.201 179.414 207.121 178.72C207.041 178 206.961 177.094 206.881 176C206.801 174.907 206.681 174.027 206.521 173.36C206.254 172.214 205.827 171.374 205.241 170.84C204.654 170.307 203.774 170.04 202.601 170.04H198.721V180H190.361ZM198.721 157.96V164.08H203.201C205.681 164.08 206.921 163.067 206.921 161.04C206.921 160.08 206.614 159.334 206.001 158.8C205.387 158.24 204.494 157.96 203.321 157.96H198.721Z" fill="black"/>
<path d="M164.892 180V151.4H187.172V158.2H173.252V162.08H184.892V168.36H173.252V172.84H187.572V180H164.892Z" fill="black"/>
<path d="M144.827 180L135.667 151.4H144.267L148.187 164.84L149.587 170.4H149.667C150.147 168.32 150.614 166.467 151.067 164.84L154.907 151.4H163.387L154.187 180H144.827Z" fill="black"/>
<path d="M112.118 180V151.4H134.398V158.2H120.478V162.08H132.118V168.36H120.478V172.84H134.798V180H112.118Z" fill="black"/>
<path d="M76.6497 180V151.4H89.8497C94.0363 151.4 97.4097 152.68 99.9697 155.24C102.53 157.774 103.81 161.28 103.81 165.76C103.81 170.294 102.543 173.8 100.01 176.28C97.4763 178.76 93.9697 180 89.4897 180H76.6497ZM85.0097 173.08H88.8097C90.783 173.08 92.3563 172.454 93.5297 171.2C94.7297 169.92 95.3297 168.107 95.3297 165.76C95.3297 163.414 94.743 161.587 93.5697 160.28C92.423 158.974 90.8363 158.32 88.8097 158.32H85.0097V173.08Z" fill="black"/>
<path d="M47.3137 180V151.4H55.6737L65.0337 167.48H65.1137V151.4H73.1937V180H64.5537L55.4737 163.8H55.3937V180H47.3137Z" fill="black"/>
<path d="M16.0588 180L26.6188 151.4H35.1388L45.7388 180H36.8588L35.4588 175.8H25.7788L24.3788 180H16.0588ZM29.5388 164.44L27.6588 170.04H33.5788L31.7788 164.44L30.6988 160.76H30.6188C30.2188 162.28 29.8588 163.507 29.5388 164.44Z" fill="black"/>
<path d="M817.048 139.64V136.08C818.168 135.974 819.008 135.534 819.568 134.76C820.128 134.014 820.408 133.094 820.408 132H816.968V124.36H824.768V131.28C824.768 133.947 824.101 135.987 822.768 137.4C821.328 138.947 819.421 139.694 817.048 139.64Z" fill="black"/>
<path d="M802.521 132V121.96L792.721 103.4H801.801L804.841 109.76C805.161 110.4 805.481 111.107 805.801 111.88C806.121 112.654 806.361 113.254 806.521 113.68L806.761 114.36H806.841C807.454 112.734 808.107 111.2 808.801 109.76L811.841 103.4H820.721L810.881 121.96V132H802.521Z" fill="black"/>
<path d="M767.394 132V125.12L778.074 112.84C778.367 112.52 778.7 112.174 779.074 111.8C779.447 111.4 779.754 111.094 779.994 110.88L780.354 110.52V110.4C779.394 110.507 778.487 110.56 777.634 110.56H768.434V103.4H791.474V109.68L780.874 121.88C780.474 122.334 780.034 122.814 779.554 123.32C779.074 123.8 778.687 124.187 778.394 124.48L777.954 124.88V125C779.02 124.894 780.14 124.84 781.314 124.84H792.234V132H767.394Z" fill="black"/>
<path d="M762.62 128.52C759.954 131.293 756.434 132.68 752.06 132.68C747.687 132.68 744.18 131.293 741.54 128.52C738.9 125.72 737.58 122.147 737.58 117.8C737.58 113.453 738.9 109.88 741.54 107.08C744.18 104.28 747.687 102.88 752.06 102.88C756.434 102.88 759.954 104.28 762.62 107.08C765.287 109.88 766.62 113.453 766.62 117.8C766.62 122.147 765.287 125.72 762.62 128.52ZM747.62 123.72C748.66 125.24 750.154 126 752.1 126C754.047 126 755.54 125.24 756.58 123.72C757.62 122.2 758.14 120.227 758.14 117.8C758.14 115.373 757.62 113.4 756.58 111.88C755.54 110.333 754.047 109.56 752.1 109.56C750.154 109.56 748.66 110.333 747.62 111.88C746.58 113.4 746.06 115.373 746.06 117.8C746.06 120.227 746.58 122.2 747.62 123.72Z" fill="black"/>
<path d="M723.31 132.68C718.99 132.68 715.497 131.28 712.83 128.48C710.164 125.68 708.83 122.12 708.83 117.8C708.83 113.48 710.177 109.92 712.87 107.12C715.564 104.293 719.044 102.88 723.31 102.88C726.484 102.88 729.15 103.627 731.31 105.12C734.297 107.173 735.977 110.133 736.35 114H727.99C727.884 112.827 727.377 111.827 726.47 111C725.59 110.173 724.497 109.76 723.19 109.76C721.27 109.76 719.804 110.493 718.79 111.96C717.804 113.427 717.31 115.373 717.31 117.8C717.31 120.173 717.844 122.107 718.91 123.6C719.977 125.093 721.43 125.84 723.27 125.84C724.684 125.84 725.83 125.427 726.71 124.6C727.59 123.773 728.097 122.693 728.23 121.36H736.67C736.43 124.48 735.19 127.12 732.95 129.28C730.604 131.547 727.39 132.68 723.31 132.68Z" fill="black"/>
<path d="M683.389 132.68C679.496 132.68 676.336 131.84 673.909 130.16C671.483 128.48 670.243 126.053 670.189 122.88H678.749C679.016 125.12 680.616 126.24 683.549 126.24C684.509 126.24 685.349 126.053 686.069 125.68C686.816 125.28 687.189 124.68 687.189 123.88C687.189 123 686.563 122.32 685.309 121.84C684.749 121.627 683.563 121.293 681.749 120.84C680.523 120.547 679.523 120.28 678.749 120.04C677.976 119.8 677.056 119.44 675.989 118.96C674.923 118.453 674.069 117.92 673.429 117.36C672.816 116.773 672.283 116.013 671.829 115.08C671.376 114.147 671.149 113.093 671.149 111.92C671.149 108.827 672.243 106.547 674.429 105.08C676.616 103.613 679.456 102.88 682.949 102.88C685.029 102.88 686.896 103.16 688.549 103.72C690.203 104.28 691.589 105.24 692.709 106.6C693.829 107.933 694.403 109.6 694.429 111.6H686.149C685.883 109.893 684.669 109.04 682.509 109.04C681.603 109.04 680.856 109.227 680.269 109.6C679.683 109.973 679.389 110.453 679.389 111.04C679.389 111.227 679.416 111.4 679.469 111.56C679.523 111.693 679.616 111.827 679.749 111.96C679.883 112.093 680.016 112.213 680.149 112.32C680.309 112.427 680.523 112.533 680.789 112.64C681.056 112.72 681.296 112.8 681.509 112.88C681.749 112.96 682.069 113.053 682.469 113.16C682.869 113.24 683.216 113.32 683.509 113.4C683.829 113.48 684.243 113.573 684.749 113.68C685.256 113.787 685.709 113.893 686.109 114C687.496 114.347 688.683 114.72 689.669 115.12C690.656 115.493 691.643 116.027 692.629 116.72C693.643 117.387 694.403 118.267 694.909 119.36C695.443 120.427 695.709 121.68 695.709 123.12C695.709 126.133 694.536 128.48 692.189 130.16C689.869 131.84 686.936 132.68 683.389 132.68Z" fill="black"/>
<path d="M644.885 110.52V103.4H669.525V110.52H661.325V132H652.965V110.52H644.885Z" fill="black"/>
<path d="M620.536 132V103.4H642.816V110.2H628.896V114.08H640.536V120.36H628.896V124.84H643.216V132H620.536Z" fill="black"/>
<path d="M595.068 132V103.4H617.348V110.2H603.428V114.08H615.068V120.36H603.428V124.84H617.748V132H595.068Z" fill="black"/>
<path d="M560.927 132V103.4H571.807L576.207 119.4H576.287L580.687 103.4H591.647V132H584.087V114.08H584.007L579.247 132H573.127L568.367 114.08H568.287V132H560.927Z" fill="black"/>
<path d="M519.638 132V103.4H527.998L537.358 119.48H537.438V103.4H545.518V132H536.878L527.798 115.8H527.718V132H519.638Z" fill="black"/>
<path d="M491.982 132V103.4H506.182C509.302 103.4 511.875 104.134 513.902 105.6C515.955 107.04 516.982 109.147 516.982 111.92C516.982 115.147 515.422 117.467 512.302 118.88V119C514.462 119.827 515.795 121.4 516.302 123.72C516.515 124.627 516.648 125.76 516.702 127.12C516.755 128.454 516.822 129.507 516.902 130.28C516.982 131.054 517.168 131.48 517.462 131.56V132H509.222C508.982 131.84 508.822 131.414 508.742 130.72C508.662 130 508.582 129.094 508.502 128C508.422 126.907 508.302 126.027 508.142 125.36C507.875 124.214 507.448 123.374 506.862 122.84C506.275 122.307 505.395 122.04 504.222 122.04H500.342V132H491.982ZM500.342 109.96V116.08H504.822C507.302 116.08 508.542 115.067 508.542 113.04C508.542 112.08 508.235 111.334 507.622 110.8C507.008 110.24 506.115 109.96 504.942 109.96H500.342Z" fill="black"/>
<path d="M466.513 132V103.4H488.793V110.2H474.873V114.08H486.513V120.36H474.873V124.84H489.193V132H466.513Z" fill="black"/>
<path d="M437.021 132V103.4H450.221C454.407 103.4 457.781 104.68 460.341 107.24C462.901 109.774 464.181 113.28 464.181 117.76C464.181 122.294 462.914 125.8 460.381 128.28C457.847 130.76 454.341 132 449.861 132H437.021ZM445.381 125.08H449.181C451.154 125.08 452.727 124.454 453.901 123.2C455.101 121.92 455.701 120.107 455.701 117.76C455.701 115.414 455.114 113.587 453.941 112.28C452.794 110.974 451.207 110.32 449.181 110.32H445.381V125.08Z" fill="black"/>
<path d="M430.706 128.52C428.04 131.293 424.52 132.68 420.146 132.68C415.773 132.68 412.266 131.293 409.626 128.52C406.986 125.72 405.666 122.147 405.666 117.8C405.666 113.453 406.986 109.88 409.626 107.08C412.266 104.28 415.773 102.88 420.146 102.88C424.52 102.88 428.04 104.28 430.706 107.08C433.373 109.88 434.706 113.453 434.706 117.8C434.706 122.147 433.373 125.72 430.706 128.52ZM415.706 123.72C416.746 125.24 418.24 126 420.186 126C422.133 126 423.626 125.24 424.666 123.72C425.706 122.2 426.226 120.227 426.226 117.8C426.226 115.373 425.706 113.4 424.666 111.88C423.626 110.333 422.133 109.56 420.186 109.56C418.24 109.56 416.746 110.333 415.706 111.88C414.666 113.4 414.146 115.373 414.146 117.8C414.146 120.227 414.666 122.2 415.706 123.72Z" fill="black"/>
<path d="M372.646 132V103.4H383.526L387.926 119.4H388.006L392.406 103.4H403.366V132H395.806V114.08H395.726L390.966 132H384.846L380.086 114.08H380.006V132H372.646Z" fill="black"/>
<path d="M345.508 104.52V116.64H361.668V117.76H345.508V130.84H363.468V132H344.268V103.4H363.068V104.52H345.508Z" fill="black"/>
<path d="M321.289 118.68V132H320.049V103.4H331.489C334.156 103.4 336.223 104.067 337.689 105.4C339.156 106.707 339.889 108.574 339.889 111C339.889 114.867 338.103 117.214 334.529 118.04V118.08C336.129 118.454 337.289 119.227 338.009 120.4C338.756 121.574 339.169 123.227 339.249 125.36C339.356 129.174 339.743 131.347 340.409 131.88V132H339.049C338.436 131.574 338.076 129.36 337.969 125.36C337.889 122.987 337.356 121.28 336.369 120.24C335.383 119.2 333.756 118.68 331.489 118.68H321.289ZM321.289 104.52V117.52H331.049C336.089 117.52 338.609 115.36 338.609 111.04C338.609 108.96 337.983 107.36 336.729 106.24C335.503 105.094 333.716 104.52 331.369 104.52H321.289Z" fill="black"/>
<path d="M298.008 104.52V116.64H314.168V117.76H298.008V130.84H315.968V132H296.768V103.4H315.568V104.52H298.008Z" fill="black"/>
<path d="M270.713 132V103.4H271.953V116.24H290.313V103.4H291.553V132H290.313V117.32H271.953V132H270.713Z" fill="black"/>
<path d="M250.107 103.4H251.467L258.787 129.96H258.827L266.347 103.4H267.587L259.467 132H258.107L250.787 105.44H250.747L243.507 132H242.107L233.907 103.4H235.187L242.787 129.92H242.827L250.107 103.4Z" fill="black"/>
<path d="M208.897 122.36V121.24H225.057V122.36H208.897Z" fill="black"/>
<path d="M178.056 122.92H179.376C179.509 125.507 180.429 127.547 182.136 129.04C183.869 130.533 186.269 131.28 189.336 131.28C191.949 131.28 194.029 130.667 195.576 129.44C197.122 128.213 197.896 126.56 197.896 124.48C197.896 122.347 197.189 120.8 195.776 119.84C194.362 118.88 191.896 118.08 188.376 117.44C185.229 116.853 182.909 116.027 181.416 114.96C179.949 113.867 179.216 112.24 179.216 110.08C179.216 107.92 180.056 106.2 181.736 104.92C183.442 103.613 185.682 102.96 188.456 102.96C191.309 102.96 193.562 103.68 195.216 105.12C196.896 106.56 197.896 108.52 198.216 111H196.936C196.669 108.813 195.789 107.12 194.296 105.92C192.802 104.72 190.869 104.12 188.496 104.12C186.016 104.12 184.056 104.667 182.616 105.76C181.202 106.827 180.496 108.253 180.496 110.04C180.496 111.853 181.149 113.213 182.456 114.12C183.762 115.027 185.936 115.76 188.976 116.32C190.682 116.64 192.096 116.973 193.216 117.32C194.336 117.667 195.376 118.147 196.336 118.76C197.322 119.347 198.042 120.107 198.496 121.04C198.949 121.973 199.176 123.093 199.176 124.4C199.176 126.8 198.296 128.747 196.536 130.24C194.776 131.707 192.389 132.44 189.376 132.44C185.829 132.44 183.096 131.573 181.176 129.84C179.282 128.08 178.242 125.773 178.056 122.92Z" fill="black"/>
<path d="M156.797 118.68V132H155.557V103.4H166.997C169.664 103.4 171.73 104.067 173.197 105.4C174.664 106.707 175.397 108.574 175.397 111C175.397 114.867 173.61 117.214 170.037 118.04V118.08C171.637 118.454 172.797 119.227 173.517 120.4C174.264 121.574 174.677 123.227 174.757 125.36C174.864 129.174 175.25 131.347 175.917 131.88V132H174.557C173.944 131.574 173.584 129.36 173.477 125.36C173.397 122.987 172.864 121.28 171.877 120.24C170.89 119.2 169.264 118.68 166.997 118.68H156.797ZM156.797 104.52V117.52H166.557C171.597 117.52 174.117 115.36 174.117 111.04C174.117 108.96 173.49 107.36 172.237 106.24C171.01 105.094 169.224 104.52 166.877 104.52H156.797Z" fill="black"/>
<path d="M147.74 128.24C145.287 131.013 142.127 132.4 138.26 132.4C134.393 132.4 131.233 131.027 128.78 128.28C126.353 125.507 125.14 121.987 125.14 117.72C125.14 113.453 126.353 109.933 128.78 107.16C131.233 104.36 134.393 102.96 138.26 102.96C142.127 102.96 145.287 104.36 147.74 107.16C150.22 109.933 151.46 113.453 151.46 117.72C151.46 121.96 150.22 125.467 147.74 128.24ZM129.66 127.4C131.82 129.96 134.687 131.24 138.26 131.24C141.833 131.24 144.7 129.947 146.86 127.36C149.047 124.773 150.14 121.56 150.14 117.72C150.14 113.853 149.047 110.627 146.86 108.04C144.7 105.427 141.833 104.12 138.26 104.12C134.687 104.12 131.82 105.413 129.66 108C127.527 110.587 126.46 113.827 126.46 117.72C126.46 121.587 127.527 124.813 129.66 127.4Z" fill="black"/>
<path d="M120.94 103.4V132H119.7V103.4H120.94Z" fill="black"/>
<path d="M96.6017 118.68V132H95.3617V103.4H106.802C109.468 103.4 111.535 104.067 113.002 105.4C114.468 106.707 115.202 108.574 115.202 111C115.202 114.867 113.415 117.214 109.842 118.04V118.08C111.442 118.454 112.602 119.227 113.322 120.4C114.068 121.574 114.482 123.227 114.562 125.36C114.668 129.174 115.055 131.347 115.722 131.88V132H114.362C113.748 131.574 113.388 129.36 113.282 125.36C113.202 122.987 112.668 121.28 111.682 120.24C110.695 119.2 109.068 118.68 106.802 118.68H96.6017ZM96.6017 104.52V117.52H106.362C111.402 117.52 113.922 115.36 113.922 111.04C113.922 108.96 113.295 107.36 112.042 106.24C110.815 105.094 109.028 104.52 106.682 104.52H96.6017Z" fill="black"/>
<path d="M73.3206 104.52V116.64H89.4806V117.76H73.3206V130.84H91.2806V132H72.0806V103.4H90.8806V104.52H73.3206Z" fill="black"/>
<path d="M58.4793 132H57.1993V104.56H46.9993V103.4H68.6793V104.56H58.4793V132Z" fill="black"/>
<path d="M43.5931 103.4V132H42.2731L23.6331 105.48H23.5931V132H22.3931V103.4H23.7931L42.3531 129.92H42.3931V103.4H43.5931Z" fill="black"/>
<path d="M17.0733 103.4V132H15.8333V103.4H17.0733Z" fill="black"/>
<path d="M809.706 55.4004L797.426 67.1604L810.946 84.0004H809.426L796.506 68.0404L790.586 73.6804V84.0004H789.346V55.4004H790.586V72.1204L808.026 55.4004H809.706Z" fill="black"/>
<path d="M766.367 70.6804V84.0004H765.127V55.4004H776.567C779.234 55.4004 781.301 56.0671 782.767 57.4004C784.234 58.7071 784.967 60.5737 784.967 63.0004C784.967 66.8671 783.181 69.2137 779.607 70.0404V70.0804C781.207 70.4537 782.367 71.2271 783.087 72.4004C783.834 73.5737 784.247 75.2271 784.327 77.3604C784.434 81.1737 784.821 83.3471 785.487 83.8804V84.0004H784.127C783.514 83.5737 783.154 81.3604 783.047 77.3604C782.967 74.9871 782.434 73.2804 781.447 72.2404C780.461 71.2004 778.834 70.6804 776.567 70.6804H766.367ZM766.367 56.5204V69.5204H776.127C781.167 69.5204 783.687 67.3604 783.687 63.0404C783.687 60.9604 783.061 59.3604 781.807 58.2404C780.581 57.0937 778.794 56.5204 776.447 56.5204H766.367Z" fill="black"/>
<path d="M760.907 84.0004L757.147 74.2404H743.787L740.027 84.0004H738.707L749.747 55.4004H751.187L762.227 84.0004H760.907ZM750.467 56.9204L744.187 73.1604H756.707L750.507 56.9204H750.467Z" fill="black"/>
<path d="M721.908 84.0004L710.508 57.3204H710.468V84.0004H709.268V55.4004H711.068L722.548 82.3604H722.588L733.908 55.4004H735.788V84.0004H734.548V57.3204H734.508L723.188 84.0004H721.908Z" fill="black"/>
<path d="M687.227 56.5204V68.6404H703.387V69.7604H687.227V82.8404H705.187V84.0004H685.987V55.4004H704.787V56.5204H687.227Z" fill="black"/>
<path d="M663.008 70.6804V84.0004H661.768V55.4004H673.208C675.875 55.4004 677.941 56.0671 679.408 57.4004C680.875 58.7071 681.608 60.5737 681.608 63.0004C681.608 66.8671 679.821 69.2137 676.248 70.0404V70.0804C677.848 70.4537 679.008 71.2271 679.728 72.4004C680.475 73.5737 680.888 75.2271 680.968 77.3604C681.075 81.1737 681.461 83.3471 682.128 83.8804V84.0004H680.768C680.155 83.5737 679.795 81.3604 679.688 77.3604C679.608 74.9871 679.075 73.2804 678.088 72.2404C677.101 71.2004 675.475 70.6804 673.208 70.6804H663.008ZM663.008 56.5204V69.5204H672.768C677.808 69.5204 680.328 67.3604 680.328 63.0404C680.328 60.9604 679.701 59.3604 678.448 58.2404C677.221 57.0937 675.435 56.5204 673.088 56.5204H663.008Z" fill="black"/>
<path d="M629.151 84.0004V55.4004H630.391V68.2404H648.751V55.4004H649.991V84.0004H648.751V69.3204H630.391V84.0004H629.151Z" fill="black"/>
<path d="M615.55 84.0004H614.27V56.5604H604.07V55.4004H625.75V56.5604H615.55V84.0004Z" fill="black"/>
<path d="M600.55 55.4004V84.0004H599.31V55.4004H600.55Z" fill="black"/>
<path d="M578.583 55.4004H579.943L587.263 81.9604H587.303L594.823 55.4004H596.063L587.943 84.0004H586.583L579.263 57.4404H579.223L571.983 84.0004H570.583L562.383 55.4004H563.663L571.263 81.9204H571.303L578.583 55.4004Z" fill="black"/>
<path d="M532.138 84.0004V55.4004H554.418V62.2004H540.498V66.0804H552.138V72.3604H540.498V76.8404H554.818V84.0004H532.138Z" fill="black"/>
<path d="M516.748 84.6799C512.428 84.6799 508.935 83.2799 506.268 80.4799C503.601 77.6799 502.268 74.1199 502.268 69.7999C502.268 65.4799 503.615 61.9199 506.308 59.1199C509.001 56.2932 512.481 54.8799 516.748 54.8799C519.921 54.8799 522.588 55.6265 524.748 57.1199C527.735 59.1732 529.415 62.1332 529.788 65.9999H521.428C521.321 64.8266 520.815 63.8265 519.908 62.9999C519.028 62.1732 517.935 61.7599 516.628 61.7599C514.708 61.7599 513.241 62.4932 512.228 63.9599C511.241 65.4266 510.748 67.3732 510.748 69.7999C510.748 72.1732 511.281 74.1066 512.348 75.5999C513.415 77.0932 514.868 77.8399 516.708 77.8399C518.121 77.8399 519.268 77.4266 520.148 76.5999C521.028 75.7732 521.535 74.6932 521.668 73.3599H530.108C529.868 76.4799 528.628 79.1199 526.388 81.2799C524.041 83.5466 520.828 84.6799 516.748 84.6799Z" fill="black"/>
<path d="M474.125 84.0004L484.685 55.4004H493.205L503.805 84.0004H494.925L493.525 79.8004H483.845L482.445 84.0004H474.125ZM487.605 68.4404L485.725 74.0404H491.645L489.845 68.4404L488.765 64.7604H488.685C488.285 66.2804 487.925 67.5071 487.605 68.4404Z" fill="black"/>
<path d="M452.372 84.0004V55.4004H465.532C468.999 55.4004 471.719 56.2804 473.692 58.0404C475.826 59.9337 476.892 62.4537 476.892 65.6004C476.892 68.3737 475.959 70.6804 474.092 72.5204C472.252 74.3604 469.906 75.2804 467.052 75.2804H460.732V84.0004H452.372ZM460.732 62.3204V68.8004H465.252C466.266 68.8004 467.066 68.4937 467.652 67.8804C468.266 67.2671 468.572 66.4671 468.572 65.4804C468.572 64.5204 468.266 63.7604 467.652 63.2004C467.066 62.6137 466.239 62.3204 465.172 62.3204H460.732Z" fill="black"/>
<path d="M437.764 84.6799C433.871 84.6799 430.711 83.8399 428.284 82.1599C425.858 80.4799 424.618 78.0532 424.564 74.8799H433.124C433.391 77.1199 434.991 78.2399 437.924 78.2399C438.884 78.2399 439.724 78.0532 440.444 77.6799C441.191 77.2799 441.564 76.6799 441.564 75.8799C441.564 74.9999 440.938 74.3199 439.684 73.8399C439.124 73.6266 437.938 73.2932 436.124 72.8399C434.898 72.5466 433.898 72.2799 433.124 72.0399C432.351 71.7999 431.431 71.4399 430.364 70.9599C429.298 70.4532 428.444 69.9199 427.804 69.3599C427.191 68.7732 426.658 68.0132 426.204 67.0799C425.751 66.1466 425.524 65.0932 425.524 63.9199C425.524 60.8265 426.618 58.5465 428.804 57.0799C430.991 55.6132 433.831 54.8799 437.324 54.8799C439.404 54.8799 441.271 55.1599 442.924 55.7199C444.578 56.2799 445.964 57.2399 447.084 58.5999C448.204 59.9332 448.778 61.5999 448.804 63.5999H440.524C440.258 61.8932 439.044 61.0399 436.884 61.0399C435.978 61.0399 435.231 61.2266 434.644 61.5999C434.058 61.9732 433.764 62.4532 433.764 63.0399C433.764 63.2265 433.791 63.3999 433.844 63.5599C433.898 63.6932 433.991 63.8266 434.124 63.9599C434.258 64.0932 434.391 64.2132 434.524 64.3199C434.684 64.4266 434.898 64.5332 435.164 64.6399C435.431 64.7199 435.671 64.7999 435.884 64.8799C436.124 64.9599 436.444 65.0532 436.844 65.1599C437.244 65.2399 437.591 65.3199 437.884 65.3999C438.204 65.4799 438.618 65.5732 439.124 65.6799C439.631 65.7865 440.084 65.8932 440.484 65.9999C441.871 66.3466 443.058 66.7199 444.044 67.1199C445.031 67.4932 446.018 68.0266 447.004 68.7199C448.018 69.3866 448.778 70.2665 449.284 71.3599C449.818 72.4265 450.084 73.6799 450.084 75.1199C450.084 78.1332 448.911 80.4799 446.564 82.1599C444.244 83.8399 441.311 84.6799 437.764 84.6799Z" fill="black"/>
<path d="M386.435 84.0004V55.4004H400.635C403.755 55.4004 406.328 56.1337 408.355 57.6004C410.408 59.0404 411.435 61.1471 411.435 63.9204C411.435 67.1471 409.875 69.4671 406.755 70.8804V71.0004C408.915 71.8271 410.248 73.4004 410.755 75.7204C410.968 76.6271 411.101 77.7604 411.155 79.1204C411.208 80.4537 411.275 81.5071 411.355 82.2804C411.435 83.0537 411.621 83.4804 411.915 83.5604V84.0004H403.675C403.435 83.8404 403.275 83.4137 403.195 82.7204C403.115 82.0004 403.035 81.0937 402.955 80.0004C402.875 78.9071 402.755 78.0271 402.595 77.3604C402.328 76.2137 401.901 75.3737 401.315 74.8404C400.728 74.3071 399.848 74.0404 398.675 74.0404H394.795V84.0004H386.435ZM394.795 61.9604V68.0804H399.275C401.755 68.0804 402.995 67.0671 402.995 65.0404C402.995 64.0804 402.688 63.3337 402.075 62.8004C401.461 62.2404 400.568 61.9604 399.395 61.9604H394.795Z" fill="black"/>
<path d="M370.44 84.5204C366.227 84.5204 363.04 83.5337 360.88 81.5604C358.747 79.5604 357.68 76.7337 357.68 73.0804V55.4004H366.04V73.5604C366.04 74.9204 366.414 75.9737 367.16 76.7204C367.934 77.4671 369.067 77.8404 370.56 77.8404C371.947 77.8404 373 77.4404 373.72 76.6404C374.467 75.8137 374.84 74.7337 374.84 73.4004V55.4004H383.2V73.0804C383.2 76.6804 382.12 79.4937 379.96 81.5204C377.8 83.5204 374.627 84.5204 370.44 84.5204Z" fill="black"/>
<path d="M351.566 80.5199C348.899 83.2932 345.379 84.6799 341.006 84.6799C336.632 84.6799 333.126 83.2932 330.486 80.5199C327.846 77.7199 326.526 74.1466 326.526 69.7999C326.526 65.4532 327.846 61.8799 330.486 59.0799C333.126 56.2799 336.632 54.8799 341.006 54.8799C345.379 54.8799 348.899 56.2799 351.566 59.0799C354.232 61.8799 355.566 65.4532 355.566 69.7999C355.566 74.1466 354.232 77.7199 351.566 80.5199ZM336.566 75.7199C337.606 77.2399 339.099 77.9999 341.046 77.9999C342.992 77.9999 344.486 77.2399 345.526 75.7199C346.566 74.1999 347.086 72.2266 347.086 69.7999C347.086 67.3732 346.566 65.3999 345.526 63.8799C344.486 62.3332 342.992 61.5599 341.046 61.5599C339.099 61.5599 337.606 62.3332 336.566 63.8799C335.526 65.3999 335.006 67.3732 335.006 69.7999C335.006 72.2266 335.526 74.1999 336.566 75.7199Z" fill="black"/>
<path d="M310.411 84.0004V73.9604L300.611 55.4004H309.691L312.731 61.7604C313.051 62.4004 313.371 63.1071 313.691 63.8804C314.011 64.6537 314.251 65.2537 314.411 65.6804L314.651 66.3604H314.731C315.345 64.7337 315.998 63.2004 316.691 61.7604L319.731 55.4004H328.611L318.771 73.9604V84.0004H310.411Z" fill="black"/>
<path d="M256.318 84.0004V55.4004H267.198L271.598 71.4004H271.678L276.078 55.4004H287.038V84.0004H279.478V66.0804H279.398L274.638 84.0004H268.518L263.758 66.0804H263.678V84.0004H256.318Z" fill="black"/>
<path d="M228.661 84.0004V55.4004H242.861C245.981 55.4004 248.555 56.1337 250.581 57.6004C252.635 59.0404 253.661 61.1471 253.661 63.9204C253.661 67.1471 252.101 69.4671 248.981 70.8804V71.0004C251.141 71.8271 252.475 73.4004 252.981 75.7204C253.195 76.6271 253.328 77.7604 253.381 79.1204C253.435 80.4537 253.501 81.5071 253.581 82.2804C253.661 83.0537 253.848 83.4804 254.141 83.5604V84.0004H245.901C245.661 83.8404 245.501 83.4137 245.421 82.7204C245.341 82.0004 245.261 81.0937 245.181 80.0004C245.101 78.9071 244.981 78.0271 244.821 77.3604C244.555 76.2137 244.128 75.3737 243.541 74.8404C242.955 74.3071 242.075 74.0404 240.901 74.0404H237.021V84.0004H228.661ZM237.021 61.9604V68.0804H241.501C243.981 68.0804 245.221 67.0671 245.221 65.0404C245.221 64.0804 244.915 63.3337 244.301 62.8004C243.688 62.2404 242.795 61.9604 241.621 61.9604H237.021Z" fill="black"/>
<path d="M222.347 80.5199C219.68 83.2932 216.16 84.6799 211.787 84.6799C207.414 84.6799 203.907 83.2932 201.267 80.5199C198.627 77.7199 197.307 74.1466 197.307 69.7999C197.307 65.4532 198.627 61.8799 201.267 59.0799C203.907 56.2799 207.414 54.8799 211.787 54.8799C216.16 54.8799 219.68 56.2799 222.347 59.0799C225.014 61.8799 226.347 65.4532 226.347 69.7999C226.347 74.1466 225.014 77.7199 222.347 80.5199ZM207.347 75.7199C208.387 77.2399 209.88 77.9999 211.827 77.9999C213.774 77.9999 215.267 77.2399 216.307 75.7199C217.347 74.1999 217.867 72.2266 217.867 69.7999C217.867 67.3732 217.347 65.3999 216.307 63.8799C215.267 62.3332 213.774 61.5599 211.827 61.5599C209.88 61.5599 208.387 62.3332 207.347 63.8799C206.307 65.3999 205.787 67.3732 205.787 69.7999C205.787 72.2266 206.307 74.1999 207.347 75.7199Z" fill="black"/>
<path d="M174.599 84.0004V55.4004H196.639V62.4404H182.959V67.1204H194.279V73.6004H182.959V84.0004H174.599Z" fill="black"/>
<path d="M159.991 84.6799C156.097 84.6799 152.937 83.8399 150.511 82.1599C148.084 80.4799 146.844 78.0532 146.791 74.8799H155.351C155.617 77.1199 157.217 78.2399 160.151 78.2399C161.111 78.2399 161.951 78.0532 162.671 77.6799C163.417 77.2799 163.791 76.6799 163.791 75.8799C163.791 74.9999 163.164 74.3199 161.911 73.8399C161.351 73.6266 160.164 73.2932 158.351 72.8399C157.124 72.5466 156.124 72.2799 155.351 72.0399C154.577 71.7999 153.657 71.4399 152.591 70.9599C151.524 70.4532 150.671 69.9199 150.031 69.3599C149.417 68.7732 148.884 68.0132 148.431 67.0799C147.977 66.1466 147.751 65.0932 147.751 63.9199C147.751 60.8265 148.844 58.5465 151.031 57.0799C153.217 55.6132 156.057 54.8799 159.551 54.8799C161.631 54.8799 163.497 55.1599 165.151 55.7199C166.804 56.2799 168.191 57.2399 169.311 58.5999C170.431 59.9332 171.004 61.5999 171.031 63.5999H162.751C162.484 61.8932 161.271 61.0399 159.111 61.0399C158.204 61.0399 157.457 61.2266 156.871 61.5999C156.284 61.9732 155.991 62.4532 155.991 63.0399C155.991 63.2265 156.017 63.3999 156.071 63.5599C156.124 63.6932 156.217 63.8266 156.351 63.9599C156.484 64.0932 156.617 64.2132 156.751 64.3199C156.911 64.4266 157.124 64.5332 157.391 64.6399C157.657 64.7199 157.897 64.7999 158.111 64.8799C158.351 64.9599 158.671 65.0532 159.071 65.1599C159.471 65.2399 159.817 65.3199 160.111 65.3999C160.431 65.4799 160.844 65.5732 161.351 65.6799C161.857 65.7865 162.311 65.8932 162.711 65.9999C164.097 66.3466 165.284 66.7199 166.271 67.1199C167.257 67.4932 168.244 68.0266 169.231 68.7199C170.244 69.3866 171.004 70.2665 171.511 71.3599C172.044 72.4265 172.311 73.6799 172.311 75.1199C172.311 78.1332 171.137 80.4799 168.791 82.1599C166.471 83.8399 163.537 84.6799 159.991 84.6799Z" fill="black"/>
<path d="M118.935 84.0004V55.4004H127.295L136.655 71.4804H136.735V55.4004H144.815V84.0004H136.175L127.095 67.8004H127.015V84.0004H118.935Z" fill="black"/>
<path d="M87.6799 84.0004L98.2399 55.4004H106.76L117.36 84.0004H108.48L107.08 79.8004H97.3999L95.9999 84.0004H87.6799ZM101.16 68.4404L99.2799 74.0404H105.2L103.4 68.4404L102.32 64.7604H102.24C101.84 66.2804 101.48 67.5071 101.16 68.4404Z" fill="black"/>
<path d="M61.5129 84.0004V55.4004H75.7129C78.8329 55.4004 81.4063 56.1337 83.4329 57.6004C85.4863 59.0404 86.5129 61.1471 86.5129 63.9204C86.5129 67.1471 84.9529 69.4671 81.8329 70.8804V71.0004C83.9929 71.8271 85.3263 73.4004 85.8329 75.7204C86.0463 76.6271 86.1796 77.7604 86.2329 79.1204C86.2863 80.4537 86.3529 81.5071 86.4329 82.2804C86.5129 83.0537 86.6996 83.4804 86.9929 83.5604V84.0004H78.7529C78.5129 83.8404 78.3529 83.4137 78.2729 82.7204C78.1929 82.0004 78.1129 81.0937 78.0329 80.0004C77.9529 78.9071 77.8329 78.0271 77.6729 77.3604C77.4063 76.2137 76.9796 75.3737 76.3929 74.8404C75.8063 74.3071 74.9263 74.0404 73.7529 74.0404H69.8729V84.0004H61.5129ZM69.8729 61.9604V68.0804H74.3529C76.8329 68.0804 78.0729 67.0671 78.0729 65.0404C78.0729 64.0804 77.7663 63.3337 77.1529 62.8004C76.5396 62.2404 75.6463 61.9604 74.4729 61.9604H69.8729Z" fill="black"/>
<path d="M34.5337 62.5204V55.4004H59.1737V62.5204H50.9737V84.0004H42.6137V62.5204H34.5337Z" fill="black"/>
<path d="M27.64 13.2236C29.6027 13.2236 31.1813 13.821 32.376 15.0156C33.5707 16.2103 34.168 17.789 34.168 19.7516C34.168 21.5436 33.4853 23.1223 32.12 24.4876C30.84 25.7676 29.2187 26.4076 27.256 26.4076C25.208 26.4076 23.416 25.5969 21.88 23.9756C20.4293 22.269 19.704 20.1783 19.704 17.7036C19.704 13.0103 20.9413 9.21295 23.416 6.31161C25.8907 3.32495 28.7067 1.49028 31.864 0.807617L32.12 1.70361C29.304 2.30095 26.744 3.96495 24.44 6.69562C22.2213 9.34095 21.112 12.4556 21.112 16.0396C21.112 16.4663 21.1547 16.893 21.24 17.3196C22.4347 14.589 24.568 13.2236 27.64 13.2236ZM8.69601 13.2236C10.6587 13.2236 12.2373 13.821 13.432 15.0156C14.6267 16.2103 15.224 17.789 15.224 19.7516C15.224 21.5436 14.5413 23.1223 13.176 24.4876C11.896 25.7676 10.2747 26.4076 8.31201 26.4076C6.26401 26.4076 4.47201 25.5969 2.93601 23.9756C1.48534 22.269 0.76001 20.1783 0.76001 17.7036C0.76001 13.0103 1.99734 9.21295 4.47201 6.31161C6.94668 3.32495 9.76268 1.49028 12.92 0.807617L13.176 1.70361C10.36 2.30095 7.80001 3.96495 5.49601 6.69562C3.27734 9.34095 2.16801 12.4556 2.16801 16.0396C2.16801 16.4663 2.21068 16.893 2.29601 17.3196C3.49068 14.589 5.62401 13.2236 8.69601 13.2236Z" fill="black"/>
<path d="M852.64 194.224C854.603 194.224 856.181 194.821 857.376 196.016C858.571 197.21 859.168 198.789 859.168 200.752C859.168 202.544 858.485 204.122 857.12 205.488C855.84 206.768 854.219 207.408 852.256 207.408C850.208 207.408 848.416 206.597 846.88 204.976C845.429 203.269 844.704 201.178 844.704 198.704C844.704 194.01 845.941 190.213 848.416 187.312C850.891 184.325 853.707 182.49 856.864 181.808L857.12 182.704C854.304 183.301 851.744 184.965 849.44 187.696C847.221 190.341 846.112 193.456 846.112 197.04C846.112 197.466 846.155 197.893 846.24 198.32C847.435 195.589 849.568 194.224 852.64 194.224ZM833.696 194.224C835.659 194.224 837.237 194.821 838.432 196.016C839.627 197.21 840.224 198.789 840.224 200.752C840.224 202.544 839.541 204.122 838.176 205.488C836.896 206.768 835.275 207.408 833.312 207.408C831.264 207.408 829.472 206.597 827.936 204.976C826.485 203.269 825.76 201.178 825.76 198.704C825.76 194.01 826.997 190.213 829.472 187.312C831.947 184.325 834.763 182.49 837.92 181.808L838.176 182.704C835.36 183.301 832.8 184.965 830.496 187.696C828.277 190.341 827.168 193.456 827.168 197.04C827.168 197.466 827.211 197.893 827.296 198.32C828.491 195.589 830.624 194.224 833.696 194.224Z" fill="black"/>
</svg>
